<?xml version="1.0" encoding="utf-8"?>
<!-- Generator: Adobe Illustrator 24.2.3, SVG Export Plug-In . SVG Version: 6.00 Build 0)  -->
<svg version="1.1" id="cop" xmlns="http://www.w3.org/2000/svg" xmlns:xlink="http://www.w3.org/1999/xlink" x="0px" y="0px"
	 viewBox="0 0 1200 560" style="enable-background:new 0 0 1200 560;" xml:space="preserve">
<style type="text/css">
	.st0{stroke:#FFFFFF;stroke-miterlimit:10;}
</style>
<path class="st0" d="M105.01,68.92l13.92-22.43l32.19-6.02l30.74,11.01c0,0,13.09,19.32,6.65,23.47c0,0-0.13,16.51-14.46,20.85
	c0,0,1.66,17.31-6.2,14.96c0,0,0.72,5.42-1.45,7.14v14.91l4.16,5.87l16.81-5.06c0,0,3.52,7.14,2.44,13.47
	c0,0,49.01,23.96,45.34,42.31c0,0,12.1,25.01,16.45,25.28c4.35,0.27-9.11,12.78-9.11,12.78s7.54,23.16,5.34,32.19
	c0,0,5.61,10.13-2.81,12.93c0,0-18.3,25.87-22.7,23.43c0,0,5.12,24.27-1.99,27.56c0,0,2.16,17.83,1.34,18.56
	c-0.82,0.72-1.24,6.6-6.08,7.42c-4.85,0.82-9.79,0-9.79,0s3.3,13.61,2.89,14.95c-0.41,1.34-0.93,11.86-0.93,11.86H87.53
	c0,0-1.45-16.48-1.09-19.63c0.36-3.15,1.35-24.12,1.35-24.12s-5.13-4.32-2.7-9.18c0,0-1.62-5.04,0.9-13.23c0,0-3.5-5.49-6.59-6.94
	c-3.1-1.45-19.94-13.02-21.28-16.84c-1.34-3.82-10.54-14.36-10.95-14.98c-0.41-0.62-9.81-5.27,5.68-42.87c0,0-9.84-10.08-11.06-9.66
	s39.38-71.38,58.26-65.61c0,0,4.93-8.43,22.98-9.11c0,0,1.85-6.06,4.73-7.22l-0.52-19.17c0,0-3.14-3.91-2.51-8.38
	c0,0-5.93,5.69-5.23-15.37c0,0-10.42,4-12.85-20.85C106.64,73.2,103.81,70.85,105.01,68.92z"/>
<path class="st0" d="M994.48,60.06l13.92-22.43l32.19-6.02l30.74,11.01c0,0,13.09,19.32,6.65,23.47c0,0-0.13,16.51-14.46,20.85
	c0,0,1.66,17.31-6.2,14.96c0,0,0.72,5.42-1.45,7.14v14.91l4.16,5.87l16.81-5.06c0,0,3.52,7.14,2.44,13.47
	c0,0,49.01,23.96,45.34,42.31c0,0,12.1,25.01,16.45,25.28c4.35,0.27-9.11,12.78-9.11,12.78s7.54,23.16,5.34,32.19
	c0,0,5.61,10.13-2.81,12.93c0,0-18.3,25.87-22.7,23.43c0,0,5.12,24.27-1.99,27.56c0,0,2.16,17.83,1.34,18.56
	c-0.82,0.72-1.24,6.6-6.08,7.42c-4.85,0.82-9.79,0-9.79,0s3.3,13.61,2.89,14.95c-0.41,1.34-0.93,11.86-0.93,11.86H977
	c0,0-1.45-16.48-1.09-19.63c0.36-3.15,1.35-24.12,1.35-24.12s-5.13-4.32-2.7-9.18c0,0-1.62-5.04,0.9-13.23c0,0-3.5-5.49-6.59-6.94
	c-3.1-1.45-19.94-13.02-21.28-16.84c-1.34-3.82-10.54-14.36-10.95-14.98c-0.41-0.62-9.81-5.27,5.68-42.87c0,0-9.84-10.08-11.06-9.66
	c-1.21,0.42,39.38-71.38,58.26-65.61c0,0,4.93-8.43,22.98-9.11c0,0,1.85-6.06,4.73-7.22l-0.52-19.17c0,0-3.14-3.91-2.51-8.38
	c0,0-5.93,5.69-5.23-15.37c0,0-10.42,4-12.85-20.85C996.11,64.34,993.28,61.99,994.48,60.06z"/>
<path class="st0" d="M705.53,68.92l13.92-22.43l32.19-6.02l30.74,11.01c0,0,13.09,19.32,6.65,23.47c0,0-0.13,16.51-14.46,20.85
	c0,0,1.66,17.31-6.2,14.96c0,0,0.72,5.42-1.45,7.14v14.91l4.16,5.87l16.81-5.06c0,0,3.52,7.14,2.44,13.47
	c0,0,49.01,23.96,45.34,42.31c0,0,12.1,25.01,16.45,25.28s-9.11,12.78-9.11,12.78s7.54,23.16,5.34,32.19c0,0,5.61,10.13-2.81,12.93
	c0,0-18.3,25.87-22.7,23.43c0,0,5.12,24.27-1.99,27.56c0,0,2.16,17.83,1.34,18.56c-0.82,0.72-1.24,6.6-6.08,7.42
	c-4.85,0.82-9.79,0-9.79,0s3.3,13.61,2.89,14.95s-0.93,11.86-0.93,11.86H688.05c0,0-1.45-16.48-1.09-19.63
	c0.36-3.15,1.35-24.12,1.35-24.12s-5.13-4.32-2.7-9.18c0,0-1.62-5.04,0.9-13.23c0,0-3.5-5.49-6.59-6.94
	c-3.1-1.45-19.94-13.02-21.28-16.84s-10.54-14.36-10.95-14.98c-0.41-0.62-9.81-5.27,5.68-42.87c0,0-9.84-10.08-11.06-9.66
	c-1.21,0.42,39.38-71.38,58.26-65.61c0,0,4.93-8.43,22.98-9.11c0,0,1.85-6.06,4.73-7.22l-0.52-19.17c0,0-3.14-3.91-2.51-8.38
	c0,0-5.93,5.69-5.23-15.37c0,0-10.42,4-12.85-20.85C707.17,73.2,704.33,70.85,705.53,68.92z"/>
<path class="st0" d="M400.74,68.92l13.92-22.43l32.19-6.02l30.74,11.01c0,0,13.09,19.32,6.65,23.47c0,0-0.13,16.51-14.46,20.85
	c0,0,1.66,17.31-6.2,14.96c0,0,0.72,5.42-1.45,7.14v14.91l4.16,5.87l16.81-5.06c0,0,3.52,7.14,2.44,13.47
	c0,0,49.01,23.96,45.34,42.31c0,0,12.1,25.01,16.45,25.28s-9.11,12.78-9.11,12.78s7.54,23.16,5.34,32.19c0,0,5.61,10.13-2.81,12.93
	c0,0-18.3,25.87-22.7,23.43c0,0,5.12,24.27-1.99,27.56c0,0,2.16,17.83,1.34,18.56c-0.82,0.72-1.24,6.6-6.08,7.42
	c-4.85,0.82-9.79,0-9.79,0s3.3,13.61,2.89,14.95c-0.41,1.34-0.93,11.86-0.93,11.86H383.27c0,0-1.45-16.48-1.09-19.63
	c0.36-3.15,1.35-24.12,1.35-24.12s-5.13-4.32-2.7-9.18c0,0-1.62-5.04,0.9-13.23c0,0-3.5-5.49-6.59-6.94
	c-3.1-1.45-19.94-13.02-21.28-16.84c-1.34-3.82-10.54-14.36-10.95-14.98c-0.41-0.62-9.81-5.27,5.68-42.87c0,0-9.84-10.08-11.06-9.66
	s39.38-71.38,58.26-65.61c0,0,4.93-8.43,22.98-9.11c0,0,1.85-6.06,4.73-7.22l-0.52-19.17c0,0-3.14-3.91-2.51-8.38
	c0,0-5.93,5.69-5.23-15.37c0,0-10.42,4-12.85-20.85C402.38,73.2,399.54,70.85,400.74,68.92z"/>
<path class="st0" d="M254.37,73.16l13.92-22.43l32.19-6.02l30.74,11.01c0,0,13.09,19.32,6.65,23.47c0,0-0.13,16.51-14.46,20.85
	c0,0,1.66,17.31-6.2,14.96c0,0,0.72,5.42-1.45,7.14v14.91l4.16,5.87l16.81-5.06c0,0,3.52,7.14,2.44,13.47
	c0,0,49.01,23.96,45.34,42.31c0,0,12.1,25.01,16.45,25.28c4.35,0.27-9.11,12.78-9.11,12.78s7.54,23.16,5.34,32.19
	c0,0,5.61,10.13-2.81,12.93c0,0-18.3,25.87-22.7,23.43c0,0,5.12,24.27-1.99,27.56c0,0,2.16,17.83,1.34,18.56
	c-0.82,0.72-1.24,6.6-6.08,7.42c-4.85,0.82-9.79,0-9.79,0s3.3,13.61,2.89,14.95s-0.93,11.86-0.93,11.86H236.89
	c0,0-1.45-16.48-1.09-19.63c0.36-3.15,1.35-24.12,1.35-24.12s-5.13-4.32-2.7-9.18c0,0-1.62-5.04,0.9-13.23c0,0-3.5-5.49-6.59-6.94
	c-3.1-1.45-19.94-13.02-21.28-16.84c-1.34-3.82-10.54-14.36-10.95-14.98s-9.81-5.27,5.68-42.87c0,0-9.84-10.08-11.06-9.66
	c-1.21,0.42,39.38-71.38,58.26-65.61c0,0,4.93-8.43,22.98-9.11c0,0,1.85-6.06,4.73-7.22l-0.52-19.17c0,0-3.14-3.91-2.51-8.38
	c0,0-5.93,5.69-5.23-15.37c0,0-10.42,4-12.85-20.85C256,77.43,253.17,75.09,254.37,73.16z"/>
<path class="st0" d="M559.59,73.16l13.92-22.43l32.19-6.02l30.74,11.01c0,0,13.09,19.32,6.65,23.47c0,0-0.13,16.51-14.46,20.85
	c0,0,1.66,17.31-6.2,14.96c0,0,0.72,5.42-1.45,7.14v14.91l4.16,5.87l16.81-5.06c0,0,3.52,7.14,2.44,13.47
	c0,0,49.01,23.96,45.34,42.31c0,0,12.1,25.01,16.45,25.28c4.35,0.27-9.11,12.78-9.11,12.78s7.54,23.16,5.34,32.19
	c0,0,5.61,10.13-2.81,12.93c0,0-18.3,25.87-22.7,23.43c0,0,5.12,24.27-1.99,27.56c0,0,2.16,17.83,1.34,18.56
	c-0.82,0.72-1.24,6.6-6.08,7.42c-4.85,0.82-9.79,0-9.79,0s3.3,13.61,2.89,14.95s-0.93,11.86-0.93,11.86H542.12
	c0,0-1.45-16.48-1.09-19.63c0.36-3.15,1.35-24.12,1.35-24.12s-5.13-4.32-2.7-9.18c0,0-1.62-5.04,0.9-13.23c0,0-3.5-5.49-6.59-6.94
	c-3.1-1.45-19.94-13.02-21.28-16.84c-1.34-3.82-10.54-14.36-10.95-14.98c-0.41-0.62-9.81-5.27,5.68-42.87c0,0-9.84-10.08-11.06-9.66
	c-1.21,0.42,39.38-71.38,58.26-65.61c0,0,4.93-8.43,22.98-9.11c0,0,1.85-6.06,4.73-7.22l-0.52-19.17c0,0-3.14-3.91-2.51-8.38
	c0,0-5.93,5.69-5.23-15.37c0,0-10.42,4-12.85-20.85C561.23,77.43,558.4,75.09,559.59,73.16z"/>
<path class="st0" d="M850.17,64.51l13.92-22.43l32.19-6.02l30.74,11.01c0,0,13.09,19.32,6.65,23.47c0,0-0.13,16.51-14.46,20.85
	c0,0,1.66,17.31-6.2,14.96c0,0,0.72,5.42-1.45,7.14v14.91l4.16,5.87l16.81-5.06c0,0,3.52,7.14,2.44,13.47
	c0,0,49.01,23.96,45.34,42.31c0,0,12.1,25.01,16.45,25.28s-9.11,12.78-9.11,12.78s7.54,23.16,5.34,32.19c0,0,5.61,10.13-2.81,12.93
	c0,0-18.3,25.87-22.7,23.43c0,0,5.12,24.27-1.99,27.56c0,0,2.16,17.83,1.34,18.56c-0.82,0.72-1.24,6.6-6.08,7.42
	c-4.85,0.82-9.79,0-9.79,0s3.3,13.61,2.89,14.95c-0.41,1.34-0.93,11.86-0.93,11.86H832.69c0,0-1.45-16.48-1.09-19.63
	c0.36-3.15,1.35-24.12,1.35-24.12s-5.13-4.32-2.7-9.18c0,0-1.62-5.04,0.9-13.23c0,0-3.5-5.49-6.59-6.94
	c-3.1-1.45-19.94-13.02-21.28-16.84c-1.34-3.82-10.54-14.36-10.95-14.98c-0.41-0.62-9.81-5.27,5.68-42.87c0,0-9.84-10.08-11.06-9.66
	c-1.21,0.42,39.38-71.38,58.26-65.61c0,0,4.93-8.43,22.98-9.11c0,0,1.85-6.06,4.73-7.22l-0.52-19.17c0,0-3.14-3.91-2.51-8.38
	c0,0-5.93,5.69-5.23-15.37c0,0-10.42,4-12.85-20.85C851.81,68.78,848.97,66.44,850.17,64.51z"/>
<path class="st0" d="M96.61,142.82l13.92-22.43l32.19-6.02l30.74,11.01c0,0,13.09,19.32,6.65,23.47c0,0-0.13,16.51-14.46,20.85
	c0,0,1.66,17.31-6.2,14.96c0,0,0.72,5.42-1.45,7.14v14.91l4.16,5.87l16.81-5.06c0,0,3.52,7.14,2.44,13.47
	c0,0,49.01,23.96,45.34,42.31c0,0,12.1,25.01,16.45,25.28c4.35,0.27-9.11,12.78-9.11,12.78s7.54,23.16,5.34,32.19
	c0,0,5.61,10.13-2.81,12.93c0,0-18.3,25.87-22.7,23.43c0,0,5.12,24.27-1.99,27.56c0,0,2.16,17.83,1.34,18.56
	c-0.82,0.72-1.24,6.6-6.08,7.42s-9.79,0-9.79,0s3.3,13.61,2.89,14.95c-0.41,1.34-0.93,11.86-0.93,11.86H79.13
	c0,0-1.45-16.48-1.09-19.63c0.36-3.15,1.35-24.12,1.35-24.12s-5.13-4.32-2.7-9.18c0,0-1.62-5.04,0.9-13.23c0,0-3.5-5.49-6.59-6.94
	c-3.1-1.45-19.94-13.02-21.28-16.84c-1.34-3.82-10.54-14.36-10.95-14.98s-9.81-5.27,5.68-42.87c0,0-9.84-10.08-11.06-9.66
	s39.38-71.38,58.26-65.61c0,0,4.93-8.43,22.98-9.11c0,0,1.85-6.06,4.73-7.22l-0.52-19.17c0,0-3.14-3.91-2.51-8.38
	c0,0-5.93,5.69-5.23-15.37c0,0-10.42,4-12.85-20.85C98.24,147.1,95.41,144.75,96.61,142.82z"/>
<path class="st0" d="M986.08,133.96l13.92-22.43l32.19-6.02l30.74,11.01c0,0,13.09,19.32,6.65,23.47c0,0-0.13,16.51-14.46,20.85
	c0,0,1.66,17.31-6.2,14.96c0,0,0.72,5.42-1.45,7.14v14.91l4.16,5.87l16.81-5.06c0,0,3.52,7.14,2.44,13.47
	c0,0,49.01,23.96,45.34,42.31c0,0,12.1,25.01,16.45,25.28c4.35,0.27-9.11,12.78-9.11,12.78s7.54,23.16,5.34,32.19
	c0,0,5.61,10.13-2.81,12.93c0,0-18.3,25.87-22.7,23.43c0,0,5.12,24.27-1.99,27.56c0,0,2.16,17.83,1.34,18.56
	c-0.82,0.72-1.24,6.6-6.08,7.42c-4.85,0.82-9.79,0-9.79,0s3.3,13.61,2.89,14.95c-0.41,1.34-0.93,11.86-0.93,11.86H968.6
	c0,0-1.45-16.48-1.09-19.63s1.35-24.12,1.35-24.12s-5.13-4.32-2.7-9.18c0,0-1.62-5.04,0.9-13.23c0,0-3.5-5.49-6.59-6.94
	c-3.1-1.45-19.94-13.02-21.28-16.84c-1.34-3.82-10.54-14.36-10.95-14.98c-0.41-0.62-9.81-5.27,5.68-42.87c0,0-9.84-10.08-11.06-9.66
	c-1.21,0.42,39.38-71.38,58.26-65.61c0,0,4.93-8.43,22.98-9.11c0,0,1.85-6.06,4.73-7.22l-0.52-19.17c0,0-3.14-3.91-2.51-8.38
	c0,0-5.93,5.69-5.23-15.37c0,0-10.42,4-12.85-20.85C987.71,138.24,984.88,135.89,986.08,133.96z"/>
<path class="st0" d="M697.13,142.82l13.92-22.43l32.19-6.02l30.74,11.01c0,0,13.09,19.32,6.65,23.47c0,0-0.13,16.51-14.46,20.85
	c0,0,1.66,17.31-6.2,14.96c0,0,0.72,5.42-1.45,7.14v14.91l4.16,5.87l16.81-5.06c0,0,3.52,7.14,2.44,13.47
	c0,0,49.01,23.96,45.34,42.31c0,0,12.1,25.01,16.45,25.28c4.35,0.27-9.11,12.78-9.11,12.78s7.54,23.16,5.34,32.19
	c0,0,5.61,10.13-2.81,12.93c0,0-18.3,25.87-22.7,23.43c0,0,5.12,24.27-1.99,27.56c0,0,2.16,17.83,1.34,18.56
	c-0.82,0.72-1.24,6.6-6.08,7.42s-9.79,0-9.79,0s3.3,13.61,2.89,14.95s-0.93,11.86-0.93,11.86H679.65c0,0-1.45-16.48-1.09-19.63
	c0.36-3.15,1.35-24.12,1.35-24.12s-5.13-4.32-2.7-9.18c0,0-1.62-5.04,0.9-13.23c0,0-3.5-5.49-6.59-6.94
	c-3.1-1.45-19.94-13.02-21.28-16.84c-1.34-3.82-10.54-14.36-10.95-14.98s-9.81-5.27,5.68-42.87c0,0-9.84-10.08-11.06-9.66
	c-1.21,0.42,39.38-71.38,58.26-65.61c0,0,4.93-8.43,22.98-9.11c0,0,1.85-6.06,4.73-7.22l-0.52-19.17c0,0-3.14-3.91-2.51-8.38
	c0,0-5.93,5.69-5.23-15.37c0,0-10.42,4-12.85-20.85C698.77,147.1,695.93,144.75,697.13,142.82z"/>
<path class="st0" d="M392.34,142.82l13.92-22.43l32.19-6.02l30.74,11.01c0,0,13.09,19.32,6.65,23.47c0,0-0.13,16.51-14.46,20.85
	c0,0,1.66,17.31-6.2,14.96c0,0,0.72,5.42-1.45,7.14v14.91l4.16,5.87l16.81-5.06c0,0,3.52,7.14,2.44,13.47
	c0,0,49.01,23.96,45.34,42.31c0,0,12.1,25.01,16.45,25.28c4.35,0.27-9.11,12.78-9.11,12.78s7.54,23.16,5.34,32.19
	c0,0,5.61,10.13-2.81,12.93c0,0-18.3,25.87-22.7,23.43c0,0,5.12,24.27-1.99,27.56c0,0,2.16,17.83,1.34,18.56
	c-0.82,0.72-1.24,6.6-6.08,7.42s-9.79,0-9.79,0s3.3,13.61,2.89,14.95c-0.41,1.34-0.93,11.86-0.93,11.86H374.86
	c0,0-1.45-16.48-1.09-19.63c0.36-3.15,1.35-24.12,1.35-24.12s-5.13-4.32-2.7-9.18c0,0-1.62-5.04,0.9-13.23c0,0-3.5-5.49-6.59-6.94
	c-3.1-1.45-19.94-13.02-21.28-16.84c-1.34-3.82-10.54-14.36-10.95-14.98c-0.41-0.62-9.81-5.27,5.68-42.87c0,0-9.84-10.08-11.06-9.66
	s39.38-71.38,58.26-65.61c0,0,4.93-8.43,22.98-9.11c0,0,1.85-6.06,4.73-7.22l-0.52-19.17c0,0-3.14-3.91-2.51-8.38
	c0,0-5.93,5.69-5.23-15.37c0,0-10.42,4-12.85-20.85C393.98,147.1,391.14,144.75,392.34,142.82z"/>
<path class="st0" d="M245.96,147.06l13.92-22.43l32.19-6.02l30.74,11.01c0,0,13.09,19.32,6.65,23.47c0,0-0.13,16.51-14.46,20.85
	c0,0,1.66,17.31-6.2,14.96c0,0,0.72,5.42-1.45,7.14v14.91l4.16,5.87l16.81-5.06c0,0,3.52,7.14,2.44,13.47
	c0,0,49.01,23.96,45.34,42.31c0,0,12.1,25.01,16.45,25.28c4.35,0.27-9.11,12.78-9.11,12.78s7.54,23.16,5.34,32.19
	c0,0,5.61,10.13-2.81,12.93c0,0-18.3,25.87-22.7,23.43c0,0,5.12,24.27-1.99,27.56c0,0,2.16,17.83,1.34,18.56
	c-0.82,0.72-1.24,6.6-6.08,7.42s-9.79,0-9.79,0s3.3,13.61,2.89,14.95c-0.41,1.34-0.93,11.86-0.93,11.86H228.49
	c0,0-1.45-16.48-1.09-19.63s1.35-24.12,1.35-24.12s-5.13-4.32-2.7-9.18c0,0-1.62-5.04,0.9-13.23c0,0-3.5-5.49-6.59-6.94
	c-3.1-1.45-19.94-13.02-21.28-16.84c-1.34-3.82-10.54-14.36-10.95-14.98c-0.41-0.62-9.81-5.27,5.68-42.87c0,0-9.84-10.08-11.06-9.66
	c-1.21,0.42,39.38-71.38,58.26-65.61c0,0,4.93-8.43,22.98-9.11c0,0,1.85-6.06,4.73-7.22l-0.52-19.17c0,0-3.14-3.91-2.51-8.38
	c0,0-5.93,5.69-5.23-15.37c0,0-10.42,4-12.85-20.85C247.6,151.34,244.77,148.99,245.96,147.06z"/>
<path class="st0" d="M551.19,147.06l13.92-22.43l32.19-6.02l30.74,11.01c0,0,13.09,19.32,6.65,23.47c0,0-0.13,16.51-14.46,20.85
	c0,0,1.66,17.31-6.2,14.96c0,0,0.72,5.42-1.45,7.14v14.91l4.16,5.87l16.81-5.06c0,0,3.52,7.14,2.44,13.47
	c0,0,49.01,23.96,45.34,42.31c0,0,12.1,25.01,16.45,25.28c4.35,0.27-9.11,12.78-9.11,12.78s7.54,23.16,5.34,32.19
	c0,0,5.61,10.13-2.81,12.93c0,0-18.3,25.87-22.7,23.43c0,0,5.12,24.27-1.99,27.56c0,0,2.16,17.83,1.34,18.56
	c-0.82,0.72-1.24,6.6-6.08,7.42s-9.79,0-9.79,0s3.3,13.61,2.89,14.95c-0.41,1.34-0.93,11.86-0.93,11.86H533.72
	c0,0-1.45-16.48-1.09-19.63s1.35-24.12,1.35-24.12s-5.13-4.32-2.7-9.18c0,0-1.62-5.04,0.9-13.23c0,0-3.5-5.49-6.59-6.94
	c-3.1-1.45-19.94-13.02-21.28-16.84c-1.34-3.82-10.54-14.36-10.95-14.98c-0.41-0.62-9.81-5.27,5.68-42.87c0,0-9.84-10.08-11.06-9.66
	c-1.21,0.42,39.38-71.38,58.26-65.61c0,0,4.93-8.43,22.98-9.11c0,0,1.85-6.06,4.73-7.22l-0.52-19.17c0,0-3.14-3.91-2.51-8.38
	c0,0-5.93,5.69-5.23-15.37c0,0-10.42,4-12.85-20.85C552.83,151.34,549.99,148.99,551.19,147.06z"/>
<path class="st0" d="M841.77,138.41l13.92-22.43l32.19-6.02l30.74,11.01c0,0,13.09,19.32,6.65,23.47c0,0-0.13,16.51-14.46,20.85
	c0,0,1.66,17.31-6.2,14.96c0,0,0.72,5.42-1.45,7.14v14.91l4.16,5.87l16.81-5.06c0,0,3.52,7.14,2.44,13.47
	c0,0,49.01,23.96,45.34,42.31c0,0,12.1,25.01,16.45,25.28c4.35,0.27-9.11,12.78-9.11,12.78s7.54,23.16,5.34,32.19
	c0,0,5.61,10.13-2.81,12.93c0,0-18.3,25.87-22.7,23.43c0,0,5.12,24.27-1.99,27.56c0,0,2.16,17.83,1.34,18.56
	c-0.82,0.72-1.24,6.6-6.08,7.42s-9.79,0-9.79,0s3.3,13.61,2.89,14.95s-0.93,11.86-0.93,11.86H824.29c0,0-1.45-16.48-1.09-19.63
	c0.36-3.15,1.35-24.12,1.35-24.12s-5.13-4.32-2.7-9.18c0,0-1.62-5.04,0.9-13.23c0,0-3.5-5.49-6.59-6.94s-19.94-13.02-21.28-16.84
	c-1.34-3.82-10.54-14.36-10.95-14.98c-0.41-0.62-9.81-5.27,5.68-42.87c0,0-9.84-10.08-11.06-9.66
	c-1.21,0.42,39.38-71.38,58.26-65.61c0,0,4.93-8.43,22.98-9.11c0,0,1.85-6.06,4.73-7.22l-0.52-19.17c0,0-3.14-3.91-2.51-8.38
	c0,0-5.93,5.69-5.23-15.37c0,0-10.42,4-12.85-20.85C843.41,142.69,840.57,140.34,841.77,138.41z"/>
<path class="st0" d="M95.16,206.5l13.92-22.43l32.19-6.02l30.74,11.01c0,0,13.09,19.32,6.65,23.47c0,0-0.13,16.51-14.46,20.85
	c0,0,1.66,17.31-6.2,14.96c0,0,0.72,5.42-1.45,7.14v14.91l4.16,5.87l16.81-5.06c0,0,3.52,7.14,2.44,13.47
	c0,0,49.01,23.96,45.34,42.31c0,0,12.1,25.01,16.45,25.28c4.35,0.27-9.11,12.78-9.11,12.78s7.54,23.16,5.34,32.19
	c0,0,5.61,10.13-2.81,12.93c0,0-18.3,25.87-22.7,23.43c0,0,5.12,24.27-1.99,27.56c0,0,2.16,17.83,1.34,18.56
	c-0.82,0.72-1.24,6.6-6.08,7.42s-9.79,0-9.79,0s3.3,13.61,2.89,14.95c-0.41,1.34-0.93,11.86-0.93,11.86H77.68
	c0,0-1.45-16.48-1.09-19.63c0.36-3.15,1.35-24.12,1.35-24.12s-5.13-4.32-2.7-9.18c0,0-1.62-5.04,0.9-13.23c0,0-3.5-5.49-6.59-6.94
	c-3.1-1.45-19.94-13.02-21.28-16.84c-1.34-3.82-10.54-14.36-10.95-14.98c-0.41-0.62-9.81-5.27,5.68-42.87c0,0-9.84-10.08-11.06-9.66
	c-1.21,0.42,39.38-71.38,58.26-65.61c0,0,4.93-8.43,22.98-9.11c0,0,1.85-6.06,4.73-7.22l-0.52-19.17c0,0-3.14-3.91-2.51-8.38
	c0,0-5.93,5.69-5.23-15.37c0,0-10.42,4-12.85-20.85C96.79,210.78,93.96,208.43,95.16,206.5z"/>
<path class="st0" d="M984.63,197.64l13.92-22.43l32.19-6.02l30.74,11.01c0,0,13.09,19.32,6.65,23.47c0,0-0.13,16.51-14.46,20.85
	c0,0,1.66,17.31-6.2,14.96c0,0,0.72,5.42-1.45,7.14v14.91l4.16,5.87l16.81-5.06c0,0,3.52,7.14,2.44,13.47
	c0,0,49.01,23.96,45.34,42.31c0,0,12.1,25.01,16.45,25.28c4.35,0.27-9.11,12.78-9.11,12.78s7.54,23.16,5.34,32.19
	c0,0,5.61,10.13-2.81,12.93c0,0-18.3,25.87-22.7,23.43c0,0,5.12,24.27-1.99,27.56c0,0,2.16,17.83,1.34,18.56
	c-0.82,0.72-1.24,6.6-6.08,7.42c-4.85,0.82-9.79,0-9.79,0s3.3,13.61,2.89,14.95s-0.93,11.86-0.93,11.86H967.15
	c0,0-1.45-16.48-1.09-19.63c0.36-3.15,1.35-24.12,1.35-24.12s-5.13-4.32-2.7-9.18c0,0-1.62-5.04,0.9-13.23c0,0-3.5-5.49-6.59-6.94
	c-3.1-1.45-19.94-13.02-21.28-16.84s-10.54-14.36-10.95-14.98c-0.41-0.62-9.81-5.27,5.68-42.87c0,0-9.84-10.08-11.06-9.66
	c-1.21,0.42,39.38-71.38,58.26-65.61c0,0,4.93-8.43,22.98-9.11c0,0,1.85-6.06,4.73-7.22l-0.52-19.17c0,0-3.14-3.91-2.51-8.38
	c0,0-5.93,5.69-5.23-15.37c0,0-10.42,4-12.85-20.85C986.26,201.92,983.43,199.57,984.63,197.64z"/>
<path class="st0" d="M695.68,206.5l13.92-22.43l32.19-6.02l30.74,11.01c0,0,13.09,19.32,6.65,23.47c0,0-0.13,16.51-14.46,20.85
	c0,0,1.66,17.31-6.2,14.96c0,0,0.72,5.42-1.45,7.14v14.91l4.16,5.87l16.81-5.06c0,0,3.52,7.14,2.44,13.47
	c0,0,49.01,23.96,45.34,42.31c0,0,12.1,25.01,16.45,25.28c4.35,0.27-9.11,12.78-9.11,12.78s7.54,23.16,5.34,32.19
	c0,0,5.61,10.13-2.81,12.93c0,0-18.3,25.87-22.7,23.43c0,0,5.12,24.27-1.99,27.56c0,0,2.16,17.83,1.34,18.56
	c-0.82,0.72-1.24,6.6-6.08,7.42s-9.79,0-9.79,0s3.3,13.61,2.89,14.95c-0.41,1.34-0.93,11.86-0.93,11.86H678.2
	c0,0-1.45-16.48-1.09-19.63c0.36-3.15,1.35-24.12,1.35-24.12s-5.13-4.32-2.7-9.18c0,0-1.62-5.04,0.9-13.23c0,0-3.5-5.49-6.59-6.94
	s-19.94-13.02-21.28-16.84c-1.34-3.82-10.54-14.36-10.95-14.98c-0.41-0.62-9.81-5.27,5.68-42.87c0,0-9.84-10.08-11.06-9.66
	c-1.21,0.42,39.38-71.38,58.26-65.61c0,0,4.93-8.43,22.98-9.11c0,0,1.85-6.06,4.73-7.22l-0.52-19.17c0,0-3.14-3.91-2.51-8.38
	c0,0-5.93,5.69-5.23-15.37c0,0-10.42,4-12.85-20.85C697.32,210.78,694.48,208.43,695.68,206.5z"/>
<path class="st0" d="M390.89,206.5l13.92-22.43l32.19-6.02l30.74,11.01c0,0,13.09,19.32,6.65,23.47c0,0-0.13,16.51-14.46,20.85
	c0,0,1.66,17.31-6.2,14.96c0,0,0.72,5.42-1.45,7.14v14.91l4.16,5.87l16.81-5.06c0,0,3.52,7.14,2.44,13.47
	c0,0,49.01,23.96,45.34,42.31c0,0,12.1,25.01,16.45,25.28c4.35,0.27-9.11,12.78-9.11,12.78s7.54,23.16,5.34,32.19
	c0,0,5.61,10.13-2.81,12.93c0,0-18.3,25.87-22.7,23.43c0,0,5.12,24.27-1.99,27.56c0,0,2.16,17.83,1.34,18.56
	c-0.82,0.72-1.24,6.6-6.08,7.42s-9.79,0-9.79,0s3.3,13.61,2.89,14.95s-0.93,11.86-0.93,11.86H373.41c0,0-1.45-16.48-1.09-19.63
	c0.36-3.15,1.35-24.12,1.35-24.12s-5.13-4.32-2.7-9.18c0,0-1.62-5.04,0.9-13.23c0,0-3.5-5.49-6.59-6.94
	c-3.1-1.45-19.94-13.02-21.28-16.84c-1.34-3.82-10.54-14.36-10.95-14.98c-0.41-0.62-9.81-5.27,5.68-42.87c0,0-9.84-10.08-11.06-9.66
	s39.38-71.38,58.26-65.61c0,0,4.93-8.43,22.98-9.11c0,0,1.85-6.06,4.73-7.22l-0.52-19.17c0,0-3.14-3.91-2.51-8.38
	c0,0-5.93,5.69-5.23-15.37c0,0-10.42,4-12.85-20.85C392.53,210.78,389.69,208.43,390.89,206.5z"/>
<path class="st0" d="M244.51,210.74l13.92-22.43l32.19-6.02l30.74,11.01c0,0,13.09,19.32,6.65,23.47c0,0-0.13,16.51-14.46,20.85
	c0,0,1.66,17.31-6.2,14.96c0,0,0.72,5.42-1.45,7.14v14.91l4.16,5.87l16.81-5.06c0,0,3.52,7.14,2.44,13.47
	c0,0,49.01,23.96,45.34,42.31c0,0,12.1,25.01,16.45,25.28c4.35,0.27-9.11,12.78-9.11,12.78s7.54,23.16,5.34,32.19
	c0,0,5.61,10.13-2.81,12.93c0,0-18.3,25.87-22.7,23.43c0,0,5.12,24.27-1.99,27.56c0,0,2.16,17.83,1.34,18.56
	c-0.82,0.72-1.24,6.6-6.08,7.42c-4.85,0.82-9.79,0-9.79,0s3.3,13.61,2.89,14.95c-0.41,1.34-0.93,11.86-0.93,11.86H227.04
	c0,0-1.45-16.48-1.09-19.63s1.35-24.12,1.35-24.12s-5.13-4.32-2.7-9.18c0,0-1.62-5.04,0.9-13.23c0,0-3.5-5.49-6.59-6.94
	c-3.1-1.45-19.94-13.02-21.28-16.84c-1.34-3.82-10.54-14.36-10.95-14.98c-0.41-0.62-9.81-5.27,5.68-42.87c0,0-9.84-10.08-11.06-9.66
	c-1.21,0.42,39.38-71.38,58.26-65.61c0,0,4.93-8.43,22.98-9.11c0,0,1.85-6.06,4.73-7.22l-0.52-19.17c0,0-3.14-3.91-2.51-8.38
	c0,0-5.93,5.69-5.23-15.37c0,0-10.42,4-12.85-20.85C246.15,215.02,243.32,212.67,244.51,210.74z"/>
<path class="st0" d="M549.74,210.74l13.92-22.43l32.19-6.02l30.74,11.01c0,0,13.09,19.32,6.65,23.47c0,0-0.13,16.51-14.46,20.85
	c0,0,1.66,17.31-6.2,14.96c0,0,0.72,5.42-1.45,7.14v14.91l4.16,5.87l16.81-5.06c0,0,3.52,7.14,2.44,13.47
	c0,0,49.01,23.96,45.34,42.31c0,0,12.1,25.01,16.45,25.28c4.35,0.27-9.11,12.78-9.11,12.78s7.54,23.16,5.34,32.19
	c0,0,5.61,10.13-2.81,12.93c0,0-18.3,25.87-22.7,23.43c0,0,5.12,24.27-1.99,27.56c0,0,2.16,17.83,1.34,18.56
	c-0.82,0.72-1.24,6.6-6.08,7.42c-4.85,0.82-9.79,0-9.79,0s3.3,13.61,2.89,14.95c-0.41,1.34-0.93,11.86-0.93,11.86H532.27
	c0,0-1.45-16.48-1.09-19.63c0.36-3.15,1.35-24.12,1.35-24.12s-5.13-4.32-2.7-9.18c0,0-1.62-5.04,0.9-13.23c0,0-3.5-5.49-6.59-6.94
	c-3.1-1.45-19.94-13.02-21.28-16.84c-1.34-3.82-10.54-14.36-10.95-14.98c-0.41-0.62-9.81-5.27,5.68-42.87c0,0-9.84-10.08-11.06-9.66
	c-1.21,0.42,39.38-71.38,58.26-65.61c0,0,4.93-8.43,22.98-9.11c0,0,1.85-6.06,4.73-7.22l-0.52-19.17c0,0-3.14-3.91-2.51-8.38
	c0,0-5.93,5.69-5.23-15.37c0,0-10.42,4-12.85-20.85C551.38,215.02,548.54,212.67,549.74,210.74z"/>
<path class="st0" d="M840.32,202.09l13.92-22.43l32.19-6.02l30.74,11.01c0,0,13.09,19.32,6.65,23.47c0,0-0.13,16.51-14.46,20.85
	c0,0,1.66,17.31-6.2,14.96c0,0,0.72,5.42-1.45,7.14v14.91l4.16,5.87l16.81-5.06c0,0,3.52,7.14,2.44,13.47
	c0,0,49.01,23.96,45.34,42.31c0,0,12.1,25.01,16.45,25.28c4.35,0.27-9.11,12.78-9.11,12.78s7.54,23.16,5.34,32.19
	c0,0,5.61,10.13-2.81,12.93c0,0-18.3,25.87-22.7,23.43c0,0,5.12,24.27-1.99,27.56c0,0,2.16,17.83,1.34,18.56
	c-0.82,0.72-1.24,6.6-6.08,7.42s-9.79,0-9.79,0s3.3,13.61,2.89,14.95s-0.93,11.86-0.93,11.86H822.84c0,0-1.45-16.48-1.09-19.63
	c0.36-3.15,1.35-24.12,1.35-24.12s-5.13-4.32-2.7-9.18c0,0-1.62-5.04,0.9-13.23c0,0-3.5-5.49-6.59-6.94
	c-3.1-1.45-19.94-13.02-21.28-16.84c-1.34-3.82-10.54-14.36-10.95-14.98c-0.41-0.62-9.81-5.27,5.68-42.87c0,0-9.84-10.08-11.06-9.66
	c-1.21,0.42,39.38-71.38,58.26-65.61c0,0,4.93-8.43,22.98-9.11c0,0,1.85-6.06,4.73-7.22l-0.52-19.17c0,0-3.14-3.91-2.51-8.38
	c0,0-5.93,5.69-5.23-15.37c0,0-10.42,4-12.85-20.85C841.96,206.37,839.12,204.02,840.32,202.09z"/>
</svg>
