<?xml version="1.0" encoding="utf-8"?>
<!-- Generator: Adobe Illustrator 24.2.3, SVG Export Plug-In . SVG Version: 6.00 Build 0)  -->
<svg version="1.1" id="Layer_1" xmlns="http://www.w3.org/2000/svg" xmlns:xlink="http://www.w3.org/1999/xlink" x="0px" y="0px"
	 viewBox="0 0 1200 560" style="enable-background:new 0 0 1200 560;" xml:space="preserve">
<style type="text/css">
	.st0{fill:#FFFFFF;stroke:#000000;stroke-miterlimit:10;}
	.st1{stroke:#F4F9F7;stroke-miterlimit:10;}
	.st2{stroke:#FFFFFF;stroke-miterlimit:10;}
	.st3{stroke:#FCFCFC;stroke-miterlimit:10;}
</style>
<path class="st0" d="M731.54,51.65c0.08,0,0.16,0,0.24,0c0.08,0,0.15,0,0.23,0c14.64,0.42,11.9,20.85,11.9,20.85
	s-0.67,5.97-4.04,5.77c0,0-0.58,6.83,5.68,8.66s15.78,6.16,17.52,9.91s9.24,13.57,9.24,17.71c0,4.14,2.69,6.45,2.69,6.45l-2.89,1.25
	c0,0,1.35,7.22,1.92,7.89s3.88,21.66,2.98,26.67c-0.9,5-2.82,18.86-2.57,23.1c0.26,4.23-1.03,12.83-5.77,12.45
	c0,0-4.83,5.15-7.32,3.84c-2.49-1.31-0.07,8.59-0.07,8.59s4.51,53.44,1.63,54.33c-2.88,0.89-0.1,2.18,0.3,2.98
	c0.4,0.79,1.99,5.86-0.79,5.26c-2.78-0.6,0.5,0.99,3.58,4.97s5.46,9.53,1.89,13.01s-8.94,2.58-8.94,2.58s-5.96-0.89-6.16-3.08
	c0,0-3.97-4.77-3.48-7.75c0,0-3.97-3.87-2.98-5.76c0.99-1.89-3.18,0.6-2.48-2.09s-2.38-0.7-0.6-3.58c1.79-2.88-3.87-4.37-1.29-5.16
	s-0.18-45.28-1.73-48.71c-1.56-3.43-3.89-8.88-4.36-17.28c-0.47-8.41-0.78,4.52-0.78,4.52s1.86,27.09,0,29.27
	s-0.77,24.76-0.77,24.76l0.77,12.61c0,0,2.5-0.31,1.09,1.71c-1.4,2.02,0.93,3.27-2.02,2.65c-2.96-0.62,1.71,3.11-0.78,5.29
	s-3.58,5.29-5.14,3.27s0.93,6.23-1.25,8.56c-2.18,2.34-24.13,11.68-19.15,0.16s6.07-8.56,6.07-8.56s-1.05-5.37,0.33-4.79
	c1.37,0.58,1.95-4.56,3.76-3.83c1.81,0.72-5.5-4.48-2.82-4.99s-7.88-66.17-6.29-66.61s-9.63-6.11-9.16-7.79
	c0.47-1.68-0.84-24.97-1.68-26.74s-2.99-39.09-1.03-39c1.96,0.09-6.27-6.27-6.27-6.27s10.85-10.94,10.94-17.95
	s20.57-14.49,20.57-14.49s3.09-4.4,1.68-7.39c0,0-3.04-1.08-3.04-4.02c0-2.94-5.55-24.34,6.11-23.24H731.54z"/>
<path class="st0" d="M750.56,90.35c10.9,0.55,13.72,4.34,13.72,4.34s4.85,17.99,2.04,20.67c0,0-1.86,4.22-2.99,4.75
	c-1.12,0.53,1.55,4.36,1.55,4.36s26.27,10.12,26.27,11.6c0,1.48,8.37,30.39,8.86,30.88c0.49,0.49,2.76,58.33-3.09,58.98l-0.09,5.27
	c0,0-5.79,6.48-7.09,6.48s-1.47,33.62-0.43,34.48c1.04,0.86,5.85,18.36,5.85,18.36l2.65,45.04l-2.47,1.57l0.76,2.42
	c0,0,15.2,13.31-1.89,10.44c0,0-12.25-0.53-11.35-8.32l-0.3-1.94h-3.1l-6-48.12l-8.8-49.72l-0.96-0.19l6.88,95.81l-1.72,2.68
	c0,0,0.81,10.72-5.44,9.35c0,0-21.16,2.66-15.59-3.34s6.77-5.74,6.51-7.45c-0.26-1.71-0.4-2.13-0.4-2.13l-1.62-0.11
	c0,0-3.37-54.13-4.24-59.12c-0.87-4.99-9.78-35.01-9.78-35.01s-3.11,5.08-5.79,4.24c-2.68-0.85-6.64-0.85-7.06-4.24
	c-0.42-3.39,1.41-97.44,1.41-97.44l19.49-15.96c0,0,1.71-5.14,0.84-5.22c-0.87-0.07-3.14-3.66-3.7-5.7
	c-0.56-2.03-3.02-15.36-1.47-18.45C742.04,99.6,742.01,89.92,750.56,90.35z"/>
<g>
	<path class="st0" d="M675.94,39.87c0.08-0.01,0.16,0,0.24,0c12.67,0.21,12.49,9.27,12.49,9.27s0.67,7.48,0,8.17
		c-0.67,0.69-1.04,1.27-1.04,1.27s2.01,0.95,1.64,1.53c-0.37,0.58,0.11,2.54-0.58,2.69c0,0,0.75,3.94-1.87,2.81
		c0,0-1.74,1.02-0.64,1.27c1.11,0.25,3.95-1.19,4.33,0.12c0.38,1.31,4.5,12.18,6.48,12.07s1.43,2.81,1.43,2.81l6.11,3.03
		c0,0,4.51,3.91,4.46,5.45s12.65,24.76,12.16,26.02c-0.5,1.27,2.31,28.44,1.1,29.6s0.66,17.88,0,17.93
		c-0.66,0.06-10.73,14.45-12.27,14.39s-1.31,3.58-4.5,2.49s-3.72-2.3-3.72-2.3s-1.74,2.98-1.17,2.98s1.38,13.11,0.78,13.11
		c-0.6,0,2.13,17.72-0.18,17.86c0,0,0.07,17.47-1.06,17.97c-1.12,0.5,6.92,21.63,4.99,23.25c0,0-0.37,9.1-2.06,9.1
		s1.99,4.8,1.06,6.17c-0.93,1.37-0.79,4.7-2.5,3.34s2.21,11.49-0.58,11.33s9.08,15.33,3.61,16.73c-5.47,1.4-14.67,0.7-14.44-7.57
		c0,0-7.41-2.48-5.28-10.05c0,0-3.37-0.86-2.39-9.47l-2.76-1.32c0,0,0.52-3.68,1.78-4.54c1.26-0.86-1.55-2.41-1.55-2.41
		s-3.27-3.62-0.34-14.88c2.93-11.26-1.72-22.63-1.03-28.61c0.69-5.97-3.45-14.65-3.22-17.41c0.23-2.76-0.34-3.79-0.34-3.79
		l-1.21,0.4c0,0,1.21,9.31,0,9.88s-1.32,7.53-1.32,7.53s-2.07,18.61-3.79,18.61s1.03,30.1,1.95,30.04c0.92-0.06,0.17,2.64,0.17,2.64
		s1.44,0.11,0.63,1.32c-0.8,1.21-3.04,12.92-5,12.06c-1.95-0.86,0.46,2.81,0,3.16s-2.07,5.46-3.85,3.56
		c-1.78-1.9,0.92,4.37-0.63,6.26s-10.83,4.97-14.68-1.45c0,0-0.92-3.11,0-4.53c0.92-1.42,4.31-7.2,3.76-7.98
		c-0.55-0.78-0.78-6.33,0.32-8.2c1.1-1.88-5.27-9.58,0.73-12.15c0,0-2.11-3.07-2.06-4.4c0.05-1.33,1.19-27.27,0.78-28.42
		c-0.41-1.15-4.25-17.51-3.94-20.67c0.32-3.16,0.36-25.71,1.69-26.63c1.33-0.92-0.88-0.32-1.25-3.04c-0.36-2.73-1.85,0.62-1.85-1.49
		c0-2.11-2.16,4.99-3.19,1.7s-4.53-7.47-5.87-6.44c0,0-6.18-14.37-5.1-18.18c1.08-3.81,6.41-71.12,16.42-69.89
		c0,0,5.57,0.06,5.21-1.46s0.88-13.47,4.16-13.53c3.28-0.06,9.2-1.17,9.2,0c0,1.17-0.63-6.21-0.63-6.21s-1.91-1.9-1.87-5.87
		s2.16-2.25,2.16-2.25s-0.5-7.16,1.61-9.27C669.73,43.26,669.11,40.82,675.94,39.87z"/>
</g>
<path class="st0" d="M695.98,78.26c0.08-0.01,0.16,0,0.24,0c12.67,0.21,12.49,9.27,12.49,9.27s0.67,7.48,0,8.17
	s-1.04,1.27-1.04,1.27s2.01,0.95,1.64,1.53c-0.37,0.58,0.11,2.54-0.58,2.69c0,0,0.75,3.94-1.87,2.81c0,0-1.74,1.02-0.64,1.27
	c1.11,0.25,3.95-1.19,4.33,0.12c0.38,1.31,4.5,12.18,6.48,12.07c1.98-0.11,1.43,2.81,1.43,2.81l6.11,3.03c0,0,4.51,3.91,4.46,5.45
	c-0.06,1.54,12.65,24.76,12.16,26.02c-0.5,1.27,2.31,28.44,1.1,29.6c-1.21,1.16,0.66,17.88,0,17.93
	c-0.66,0.06-10.73,14.45-12.27,14.39c-1.54-0.06-1.31,3.58-4.5,2.49c-3.19-1.1-3.72-2.3-3.72-2.3s-1.74,2.98-1.17,2.98
	c0.57,0,1.38,13.11,0.78,13.11s2.13,17.72-0.18,17.86c0,0,0.07,17.47-1.06,17.97c-1.12,0.5,6.92,21.63,4.99,23.25
	c0,0-0.37,9.1-2.06,9.1s1.99,4.8,1.06,6.17c-0.94,1.37-0.79,4.7-2.5,3.34c-1.71-1.36,2.21,11.49-0.58,11.33
	c-2.79-0.16,9.08,15.33,3.61,16.73c-5.47,1.4-14.67,0.7-14.44-7.57c0,0-7.41-2.48-5.28-10.05c0,0-3.37-0.86-2.39-9.47l-2.76-1.32
	c0,0,0.52-3.68,1.78-4.54c1.26-0.86-1.55-2.41-1.55-2.41s-3.27-3.62-0.34-14.88c2.93-11.26-1.72-22.63-1.03-28.61
	c0.69-5.97-3.45-14.65-3.22-17.41c0.23-2.76-0.34-3.79-0.34-3.79l-1.21,0.4c0,0,1.21,9.31,0,9.88c-1.21,0.57-1.32,7.53-1.32,7.53
	s-2.07,18.61-3.79,18.61c-1.72,0,1.03,30.1,1.95,30.04s0.17,2.64,0.17,2.64s1.44,0.11,0.63,1.32c-0.8,1.21-3.04,12.92-5,12.06
	c-1.95-0.86,0.46,2.81,0,3.16s-2.07,5.46-3.85,3.56c-1.78-1.9,0.92,4.37-0.63,6.26c-1.55,1.9-10.83,4.97-14.68-1.45
	c0,0-0.92-3.11,0-4.53c0.92-1.42,4.31-7.2,3.76-7.98c-0.55-0.78-0.78-6.33,0.32-8.2s-5.27-9.58,0.73-12.15c0,0-2.11-3.07-2.06-4.4
	s1.19-27.27,0.78-28.42c-0.41-1.15-4.25-17.51-3.94-20.67c0.32-3.16,0.36-25.71,1.69-26.63c1.33-0.92-0.88-0.32-1.25-3.04
	s-1.85,0.62-1.85-1.49c0-2.11-2.16,4.99-3.19,1.7c-1.03-3.3-4.53-7.47-5.87-6.44c0,0-6.18-14.37-5.1-18.18
	c1.08-3.81,6.41-71.12,16.42-69.89c0,0,5.57,0.06,5.21-1.46c-0.35-1.52,0.88-13.47,4.16-13.53s9.2-1.17,9.2,0
	c0,1.17-0.63-6.21-0.63-6.21s-1.91-1.9-1.87-5.87c0.04-3.97,2.16-2.25,2.16-2.25s-0.5-7.16,1.61-9.27
	C689.78,81.65,689.15,79.21,695.98,78.26z"/>
<path class="st0" d="M645.12,109.07c0.08,0,0.16,0,0.24,0c0.08,0,0.15,0,0.23,0c14.64,0.42,11.9,20.85,11.9,20.85
	s-0.67,5.97-4.04,5.77c0,0-0.58,6.83,5.68,8.66s15.78,6.16,17.52,9.91c1.73,3.75,9.24,13.57,9.24,17.71c0,4.14,2.69,6.45,2.69,6.45
	l-2.89,1.25c0,0,1.35,7.22,1.92,7.89s3.88,21.66,2.98,26.67c-0.9,5-2.82,18.86-2.57,23.1c0.26,4.23-1.03,12.83-5.77,12.45
	c0,0-4.83,5.15-7.32,3.84c-2.49-1.31-0.07,8.59-0.07,8.59s4.51,53.44,1.63,54.33c-2.88,0.89-0.1,2.18,0.3,2.98
	c0.4,0.79,1.99,5.86-0.79,5.26c-2.78-0.6,0.5,0.99,3.58,4.97c3.08,3.97,5.46,9.53,1.89,13.01c-3.58,3.48-8.94,2.58-8.94,2.58
	s-5.96-0.89-6.16-3.08c0,0-3.97-4.77-3.48-7.75c0,0-3.97-3.87-2.98-5.76c0.99-1.89-3.18,0.6-2.48-2.09c0.7-2.68-2.38-0.7-0.6-3.58
	c1.79-2.88-3.87-4.37-1.29-5.16c2.58-0.79-0.18-45.28-1.73-48.71c-1.56-3.43-3.89-8.88-4.36-17.28c-0.47-8.41-0.78,4.52-0.78,4.52
	s1.86,27.09,0,29.27s-0.77,24.76-0.77,24.76l0.77,12.61c0,0,2.5-0.31,1.09,1.71s0.93,3.27-2.02,2.65c-2.96-0.62,1.71,3.11-0.78,5.29
	c-2.49,2.18-3.58,5.29-5.14,3.27c-1.56-2.02,0.93,6.23-1.25,8.56s-24.13,11.68-19.15,0.16s6.07-8.56,6.07-8.56s-1.05-5.37,0.33-4.79
	c1.37,0.58,1.95-4.56,3.76-3.83c1.81,0.72-5.5-4.48-2.82-4.99s-7.88-66.17-6.29-66.61c1.59-0.43-9.63-6.11-9.16-7.79
	c0.47-1.68-0.84-24.97-1.68-26.74c-0.84-1.78-2.99-39.09-1.03-39c1.96,0.09-6.27-6.27-6.27-6.27s10.85-10.94,10.94-17.95
	s20.57-14.49,20.57-14.49s3.09-4.4,1.68-7.39c0,0-3.04-1.08-3.04-4.02s-5.55-24.34,6.11-23.24H645.12z"/>
<path class="st0" d="M916.57,41.18c0.08,0,0.16,0,0.24,0c0.08,0,0.15,0,0.23,0c14.64,0.42,11.9,20.85,11.9,20.85
	s-0.67,5.97-4.04,5.77c0,0-0.58,6.83,5.68,8.66c6.26,1.83,15.78,6.16,17.52,9.91c1.73,3.75,9.24,13.57,9.24,17.71
	c0,4.14,2.69,6.45,2.69,6.45l-2.89,1.25c0,0,1.35,7.22,1.92,7.89s3.88,21.66,2.98,26.67c-0.9,5-2.82,18.86-2.57,23.1
	c0.26,4.23-1.03,12.83-5.77,12.45c0,0-4.83,5.15-7.32,3.84s-0.07,8.59-0.07,8.59s4.51,53.44,1.63,54.33s-0.1,2.18,0.3,2.98
	c0.4,0.79,1.99,5.86-0.79,5.26c-2.78-0.6,0.5,0.99,3.58,4.97s5.46,9.53,1.89,13.01s-8.94,2.58-8.94,2.58s-5.96-0.89-6.16-3.08
	c0,0-3.97-4.77-3.48-7.75c0,0-3.97-3.87-2.98-5.76c0.99-1.89-3.18,0.6-2.48-2.09c0.7-2.68-2.38-0.7-0.6-3.58
	c1.79-2.88-3.87-4.37-1.29-5.16c2.58-0.79-0.18-45.28-1.73-48.71s-3.89-8.88-4.36-17.28c-0.47-8.41-0.78,4.52-0.78,4.52
	s1.86,27.09,0,29.27c-1.86,2.18-0.77,24.76-0.77,24.76l0.77,12.61c0,0,2.5-0.31,1.09,1.71s0.93,3.27-2.02,2.65
	c-2.96-0.62,1.71,3.11-0.78,5.29c-2.49,2.18-3.58,5.29-5.14,3.27s0.93,6.23-1.25,8.56c-2.18,2.34-24.13,11.68-19.15,0.16
	s6.07-8.56,6.07-8.56s-1.05-5.37,0.33-4.79c1.37,0.58,1.95-4.56,3.76-3.83c1.81,0.72-5.5-4.48-2.82-4.99s-7.88-66.17-6.29-66.61
	c1.59-0.43-9.63-6.11-9.16-7.79s-0.84-24.97-1.68-26.74c-0.84-1.78-2.99-39.09-1.03-39c1.96,0.09-6.27-6.27-6.27-6.27
	s10.85-10.94,10.94-17.95c0.09-7.01,20.57-14.49,20.57-14.49s3.09-4.4,1.68-7.39c0,0-3.04-1.08-3.04-4.02
	c0-2.94-5.55-24.34,6.11-23.24H916.57z"/>
<path class="st0" d="M935.6,79.88c10.9,0.55,13.72,4.34,13.72,4.34s4.85,17.99,2.04,20.67c0,0-1.86,4.22-2.99,4.75
	c-1.12,0.53,1.55,4.36,1.55,4.36s26.27,10.12,26.27,11.6c0,1.48,8.37,30.39,8.86,30.88c0.49,0.49,2.76,58.33-3.09,58.98l-0.09,5.27
	c0,0-5.79,6.48-7.09,6.48s-1.47,33.62-0.43,34.48c1.04,0.86,5.85,18.36,5.85,18.36l2.65,45.04l-2.47,1.57l0.76,2.42
	c0,0,15.2,13.31-1.89,10.44c0,0-12.25-0.53-11.35-8.32l-0.3-1.94h-3.1l-6-48.12l-8.8-49.72l-0.96-0.19l6.88,95.81l-1.72,2.68
	c0,0,0.81,10.72-5.44,9.35c0,0-21.16,2.66-15.59-3.34c5.57-6,6.77-5.74,6.51-7.45s-0.4-2.13-0.4-2.13l-1.62-0.11
	c0,0-3.37-54.13-4.24-59.12c-0.87-4.99-9.78-35.01-9.78-35.01s-3.11,5.08-5.79,4.24c-2.68-0.85-6.64-0.85-7.06-4.24
	c-0.42-3.39,1.41-97.44,1.41-97.44l19.49-15.96c0,0,1.71-5.14,0.84-5.22c-0.87-0.07-3.14-3.66-3.7-5.7
	c-0.56-2.03-3.02-15.36-1.47-18.45C927.08,89.13,927.04,79.45,935.6,79.88z"/>
<g>
	<path class="st0" d="M860.97,29.4c0.08-0.01,0.16,0,0.24,0c12.67,0.21,12.49,9.27,12.49,9.27s0.67,7.48,0,8.17
		c-0.67,0.69-1.04,1.27-1.04,1.27s2.01,0.95,1.64,1.53c-0.37,0.58,0.11,2.54-0.58,2.69c0,0,0.75,3.94-1.87,2.81
		c0,0-1.74,1.02-0.64,1.27c1.11,0.25,3.95-1.19,4.33,0.12s4.5,12.18,6.48,12.07s1.43,2.81,1.43,2.81l6.11,3.03
		c0,0,4.51,3.91,4.46,5.45c-0.06,1.54,12.65,24.76,12.16,26.02c-0.5,1.27,2.31,28.44,1.1,29.6c-1.21,1.16,0.66,17.88,0,17.93
		c-0.66,0.06-10.73,14.45-12.27,14.39c-1.54-0.06-1.31,3.58-4.5,2.49c-3.19-1.1-3.72-2.3-3.72-2.3s-1.74,2.98-1.17,2.98
		c0.57,0,1.38,13.11,0.78,13.11c-0.6,0,2.13,17.72-0.18,17.86c0,0,0.07,17.47-1.06,17.97c-1.12,0.5,6.92,21.63,4.99,23.25
		c0,0-0.37,9.1-2.06,9.1s1.99,4.8,1.06,6.17c-0.93,1.37-0.79,4.7-2.5,3.34c-1.71-1.36,2.21,11.49-0.58,11.33
		c-2.79-0.16,9.08,15.33,3.61,16.73c-5.47,1.4-14.67,0.7-14.44-7.57c0,0-7.41-2.48-5.28-10.05c0,0-3.37-0.86-2.39-9.47l-2.76-1.32
		c0,0,0.52-3.68,1.78-4.54c1.26-0.86-1.55-2.41-1.55-2.41s-3.27-3.62-0.34-14.88s-1.72-22.63-1.03-28.61
		c0.69-5.97-3.45-14.65-3.22-17.41c0.23-2.76-0.34-3.79-0.34-3.79l-1.21,0.4c0,0,1.21,9.31,0,9.88c-1.21,0.57-1.32,7.53-1.32,7.53
		s-2.07,18.61-3.79,18.61s1.03,30.1,1.95,30.04c0.92-0.06,0.17,2.64,0.17,2.64s1.44,0.11,0.63,1.32c-0.8,1.21-3.04,12.92-5,12.06
		c-1.95-0.86,0.46,2.81,0,3.16s-2.07,5.46-3.85,3.56c-1.78-1.9,0.92,4.37-0.63,6.26s-10.83,4.97-14.68-1.45c0,0-0.92-3.11,0-4.53
		c0.92-1.42,4.31-7.2,3.76-7.98c-0.55-0.78-0.78-6.33,0.32-8.2c1.1-1.88-5.27-9.58,0.73-12.15c0,0-2.11-3.07-2.06-4.4
		c0.05-1.33,1.19-27.27,0.78-28.42c-0.41-1.15-4.25-17.51-3.94-20.67c0.32-3.16,0.36-25.71,1.69-26.63s-0.88-0.32-1.25-3.04
		s-1.85,0.62-1.85-1.49s-2.16,4.99-3.19,1.7c-1.03-3.3-4.53-7.47-5.87-6.44c0,0-6.18-14.37-5.1-18.18
		c1.08-3.81,6.41-71.12,16.42-69.89c0,0,5.57,0.06,5.21-1.46s0.88-13.47,4.16-13.53c3.28-0.06,9.2-1.17,9.2,0s-0.63-6.21-0.63-6.21
		s-1.91-1.9-1.87-5.87s2.16-2.25,2.16-2.25s-0.5-7.16,1.61-9.27C854.77,32.79,854.14,30.35,860.97,29.4z"/>
</g>
<path class="st0" d="M881.02,67.79c0.08-0.01,0.16,0,0.24,0c12.67,0.21,12.49,9.27,12.49,9.27s0.67,7.48,0,8.17
	c-0.67,0.69-1.04,1.27-1.04,1.27s2.01,0.95,1.64,1.53c-0.37,0.58,0.11,2.54-0.58,2.69c0,0,0.75,3.94-1.87,2.81
	c0,0-1.74,1.02-0.64,1.27c1.11,0.25,3.95-1.19,4.33,0.12c0.38,1.31,4.5,12.18,6.48,12.07s1.43,2.81,1.43,2.81l6.11,3.03
	c0,0,4.51,3.91,4.46,5.45c-0.05,1.54,12.65,24.76,12.16,26.02c-0.5,1.27,2.31,28.44,1.1,29.6c-1.21,1.16,0.66,17.88,0,17.93
	c-0.66,0.06-10.73,14.45-12.27,14.39c-1.54-0.06-1.31,3.58-4.5,2.49c-3.19-1.1-3.72-2.3-3.72-2.3s-1.74,2.98-1.17,2.98
	s1.38,13.11,0.78,13.11s2.13,17.72-0.18,17.86c0,0,0.07,17.47-1.06,17.97c-1.12,0.5,6.92,21.63,4.99,23.25c0,0-0.37,9.1-2.06,9.1
	s1.99,4.8,1.06,6.17c-0.94,1.37-0.79,4.7-2.5,3.34c-1.71-1.36,2.21,11.49-0.58,11.33c-2.79-0.16,9.08,15.33,3.61,16.73
	c-5.47,1.4-14.67,0.7-14.44-7.57c0,0-7.41-2.48-5.28-10.05c0,0-3.37-0.86-2.39-9.47l-2.76-1.32c0,0,0.52-3.68,1.78-4.54
	s-1.55-2.41-1.55-2.41s-3.27-3.62-0.34-14.88c2.93-11.26-1.72-22.63-1.03-28.61s-3.45-14.65-3.22-17.41
	c0.23-2.76-0.34-3.79-0.34-3.79l-1.21,0.4c0,0,1.21,9.31,0,9.88c-1.21,0.57-1.32,7.53-1.32,7.53s-2.07,18.61-3.79,18.61
	c-1.72,0,1.03,30.1,1.95,30.04c0.92-0.06,0.17,2.64,0.17,2.64s1.44,0.11,0.63,1.32c-0.8,1.21-3.04,12.92-5,12.06
	c-1.95-0.86,0.46,2.81,0,3.16c-0.46,0.34-2.07,5.46-3.85,3.56c-1.78-1.9,0.92,4.37-0.63,6.26c-1.55,1.9-10.83,4.97-14.68-1.45
	c0,0-0.92-3.11,0-4.53c0.92-1.42,4.31-7.2,3.76-7.98c-0.55-0.78-0.78-6.33,0.32-8.2s-5.27-9.58,0.73-12.15c0,0-2.11-3.07-2.06-4.4
	s1.19-27.27,0.78-28.42c-0.41-1.15-4.25-17.51-3.94-20.67c0.32-3.16,0.36-25.71,1.69-26.63s-0.88-0.32-1.25-3.04
	c-0.36-2.73-1.85,0.62-1.85-1.49s-2.16,4.99-3.19,1.7c-1.03-3.3-4.53-7.47-5.87-6.44c0,0-6.18-14.37-5.1-18.18
	c1.08-3.81,6.41-71.12,16.42-69.89c0,0,5.57,0.06,5.21-1.46c-0.35-1.52,0.88-13.47,4.16-13.53c3.28-0.06,9.2-1.17,9.2,0
	c0,1.17-0.63-6.21-0.63-6.21s-1.91-1.9-1.87-5.87c0.04-3.97,2.16-2.25,2.16-2.25s-0.5-7.16,1.61-9.27
	C874.81,71.18,874.19,68.74,881.02,67.79z"/>
<path class="st0" d="M830.15,98.6c0.08,0,0.16,0,0.24,0c0.08,0,0.15,0,0.23,0c14.64,0.42,11.9,20.85,11.9,20.85
	s-0.67,5.97-4.04,5.77c0,0-0.58,6.83,5.68,8.66s15.78,6.16,17.52,9.91c1.73,3.75,9.24,13.57,9.24,17.71c0,4.14,2.69,6.45,2.69,6.45
	l-2.89,1.25c0,0,1.35,7.22,1.92,7.89s3.88,21.66,2.98,26.67s-2.82,18.86-2.57,23.1c0.26,4.23-1.03,12.83-5.77,12.45
	c0,0-4.83,5.15-7.32,3.84s-0.07,8.59-0.07,8.59s4.51,53.44,1.63,54.33c-2.88,0.89-0.1,2.18,0.3,2.98c0.4,0.79,1.99,5.86-0.79,5.26
	c-2.78-0.6,0.5,0.99,3.58,4.97c3.08,3.97,5.46,9.53,1.89,13.01s-8.94,2.58-8.94,2.58s-5.96-0.89-6.16-3.08c0,0-3.97-4.77-3.48-7.75
	c0,0-3.97-3.87-2.98-5.76c0.99-1.89-3.18,0.6-2.48-2.09s-2.38-0.7-0.6-3.58c1.79-2.88-3.87-4.37-1.29-5.16s-0.18-45.28-1.73-48.71
	c-1.56-3.43-3.89-8.88-4.36-17.28c-0.47-8.41-0.78,4.52-0.78,4.52s1.86,27.09,0,29.27c-1.86,2.18-0.77,24.76-0.77,24.76l0.77,12.61
	c0,0,2.5-0.31,1.09,1.71c-1.4,2.02,0.93,3.27-2.02,2.65c-2.96-0.62,1.71,3.11-0.78,5.29c-2.49,2.18-3.58,5.29-5.14,3.27
	s0.93,6.23-1.25,8.56c-2.18,2.34-24.13,11.68-19.15,0.16s6.07-8.56,6.07-8.56s-1.05-5.37,0.33-4.79c1.37,0.58,1.95-4.56,3.76-3.83
	c1.81,0.72-5.5-4.48-2.82-4.99s-7.88-66.17-6.29-66.61c1.59-0.43-9.63-6.11-9.16-7.79c0.47-1.68-0.84-24.97-1.68-26.74
	s-2.99-39.09-1.03-39c1.96,0.09-6.27-6.27-6.27-6.27s10.85-10.94,10.94-17.95s20.57-14.49,20.57-14.49s3.09-4.4,1.68-7.39
	c0,0-3.04-1.08-3.04-4.02s-5.55-24.34,6.11-23.24H830.15z"/>
<path class="st0" d="M1001.83,45.33c0.08,0,0.16,0,0.24,0c0.08,0,0.15,0,0.23,0c14.64,0.42,11.9,20.85,11.9,20.85
	s-0.67,5.97-4.04,5.77c0,0-0.58,6.83,5.68,8.66s15.78,6.16,17.52,9.91s9.24,13.57,9.24,17.71c0,4.14,2.69,6.45,2.69,6.45l-2.89,1.25
	c0,0,1.35,7.22,1.92,7.89c0.58,0.67,3.88,21.66,2.98,26.67c-0.9,5-2.82,18.86-2.57,23.1c0.26,4.23-1.03,12.83-5.77,12.45
	c0,0-4.83,5.15-7.32,3.84c-2.49-1.31-0.07,8.59-0.07,8.59s4.51,53.44,1.63,54.33s-0.1,2.18,0.3,2.98c0.4,0.79,1.99,5.86-0.79,5.26
	s0.5,0.99,3.58,4.97c3.08,3.97,5.46,9.53,1.89,13.01c-3.58,3.48-8.94,2.58-8.94,2.58s-5.96-0.89-6.16-3.08c0,0-3.97-4.77-3.48-7.75
	c0,0-3.97-3.87-2.98-5.76c0.99-1.89-3.18,0.6-2.48-2.09c0.7-2.68-2.38-0.7-0.6-3.58c1.79-2.88-3.87-4.37-1.29-5.16
	c2.58-0.79-0.18-45.28-1.73-48.71c-1.56-3.43-3.89-8.88-4.36-17.28c-0.47-8.41-0.78,4.52-0.78,4.52s1.86,27.09,0,29.27
	s-0.77,24.76-0.77,24.76l0.77,12.61c0,0,2.5-0.31,1.09,1.71s0.93,3.27-2.02,2.65c-2.96-0.62,1.71,3.11-0.78,5.29
	c-2.49,2.18-3.58,5.29-5.14,3.27c-1.56-2.02,0.93,6.23-1.25,8.56s-24.13,11.68-19.15,0.16c4.98-11.52,6.07-8.56,6.07-8.56
	s-1.05-5.37,0.33-4.79c1.37,0.58,1.95-4.56,3.76-3.83c1.81,0.72-5.5-4.48-2.82-4.99s-7.88-66.17-6.29-66.61s-9.63-6.11-9.16-7.79
	c0.47-1.68-0.84-24.97-1.68-26.74s-2.99-39.09-1.03-39c1.96,0.09-6.27-6.27-6.27-6.27s10.85-10.94,10.94-17.95
	s20.57-14.49,20.57-14.49s3.09-4.4,1.68-7.39c0,0-3.04-1.08-3.04-4.02c0-2.94-5.55-24.34,6.11-23.24H1001.83z"/>
<path class="st1" d="M391.99,23.31c10.9,0.55,13.72,4.34,13.72,4.34s4.85,17.99,2.04,20.67c0,0-1.86,4.22-2.99,4.75
	s1.55,4.36,1.55,4.36s26.27,10.12,26.27,11.6c0,1.48,8.37,30.39,8.86,30.88c0.49,0.49,2.76,58.33-3.09,58.98l-0.09,5.27
	c0,0-5.79,6.48-7.09,6.48s-1.47,33.62-0.43,34.48s5.85,18.36,5.85,18.36l2.65,45.04l-2.47,1.57l0.76,2.42c0,0,15.2,13.31-1.89,10.44
	c0,0-12.25-0.53-11.35-8.32l-0.3-1.94h-3.1l-6-48.12l-8.8-49.72l-0.96-0.19l6.88,95.81l-1.72,2.68c0,0,0.81,10.72-5.44,9.35
	c0,0-21.16,2.66-15.59-3.34s6.77-5.74,6.51-7.45c-0.26-1.71-0.4-2.13-0.4-2.13l-1.62-0.11c0,0-3.37-54.13-4.24-59.12
	c-0.87-4.99-9.78-35.01-9.78-35.01s-3.11,5.08-5.79,4.24c-2.68-0.85-6.64-0.85-7.06-4.24c-0.42-3.39,1.41-97.44,1.41-97.44
	l19.49-15.96c0,0,1.71-5.14,0.84-5.22c-0.87-0.07-3.14-3.66-3.7-5.7c-0.56-2.03-3.02-15.36-1.47-18.45
	C383.46,32.56,383.43,22.88,391.99,23.31z"/>
<g>
	<path class="st2" d="M540.47,39.53c0.08-0.01,0.16,0,0.24,0c12.67,0.21,12.49,9.27,12.49,9.27s0.67,7.48,0,8.17
		c-0.67,0.69-1.04,1.27-1.04,1.27s2.01,0.95,1.64,1.53c-0.37,0.58,0.11,2.54-0.58,2.69c0,0,0.75,3.94-1.87,2.81
		c0,0-1.74,1.02-0.64,1.27c1.11,0.25,3.95-1.19,4.33,0.12c0.38,1.31,4.5,12.18,6.48,12.07c1.98-0.11,1.43,2.81,1.43,2.81l6.11,3.03
		c0,0,4.51,3.91,4.46,5.45c-0.06,1.54,12.65,24.76,12.16,26.02c-0.5,1.27,2.31,28.44,1.1,29.6c-1.21,1.16,0.66,17.88,0,17.93
		c-0.66,0.06-10.73,14.45-12.27,14.39c-1.54-0.06-1.31,3.58-4.5,2.49s-3.72-2.3-3.72-2.3s-1.74,2.98-1.17,2.98
		c0.57,0,1.38,13.11,0.78,13.11c-0.6,0,2.13,17.72-0.18,17.86c0,0,0.07,17.47-1.06,17.97s6.92,21.63,4.99,23.25
		c0,0-0.37,9.1-2.06,9.1s1.99,4.8,1.06,6.17c-0.93,1.37-0.79,4.7-2.5,3.34c-1.71-1.36,2.21,11.49-0.58,11.33
		c-2.79-0.16,9.08,15.33,3.61,16.73c-5.47,1.4-14.67,0.7-14.44-7.57c0,0-7.41-2.48-5.28-10.05c0,0-3.37-0.86-2.39-9.47l-2.76-1.32
		c0,0,0.52-3.68,1.78-4.54c1.26-0.86-1.55-2.41-1.55-2.41s-3.27-3.62-0.34-14.88c2.93-11.26-1.72-22.63-1.03-28.61
		c0.69-5.97-3.45-14.65-3.22-17.41c0.23-2.76-0.34-3.79-0.34-3.79l-1.21,0.4c0,0,1.21,9.31,0,9.88c-1.21,0.57-1.32,7.53-1.32,7.53
		s-2.07,18.61-3.79,18.61s1.03,30.1,1.95,30.04c0.92-0.06,0.17,2.64,0.17,2.64s1.44,0.11,0.63,1.32c-0.8,1.21-3.04,12.92-5,12.06
		s0.46,2.81,0,3.16s-2.07,5.46-3.85,3.56c-1.78-1.9,0.92,4.37-0.63,6.26c-1.55,1.9-10.83,4.97-14.68-1.45c0,0-0.92-3.11,0-4.53
		s4.31-7.2,3.76-7.98c-0.55-0.78-0.78-6.33,0.32-8.2c1.1-1.88-5.27-9.58,0.73-12.15c0,0-2.11-3.07-2.06-4.4
		c0.05-1.33,1.19-27.27,0.78-28.42c-0.41-1.15-4.25-17.51-3.94-20.67c0.32-3.16,0.36-25.71,1.69-26.63
		c1.33-0.92-0.88-0.32-1.25-3.04c-0.36-2.73-1.85,0.62-1.85-1.49c0-2.11-2.16,4.99-3.19,1.7c-1.03-3.3-4.53-7.47-5.87-6.44
		c0,0-6.18-14.37-5.1-18.18c1.08-3.81,6.41-71.12,16.42-69.89c0,0,5.57,0.06,5.21-1.46s0.88-13.47,4.16-13.53s9.2-1.17,9.2,0
		c0,1.17-0.63-6.21-0.63-6.21s-1.91-1.9-1.87-5.87s2.16-2.25,2.16-2.25s-0.5-7.16,1.61-9.27C534.27,42.92,533.64,40.48,540.47,39.53
		z"/>
</g>
<path class="st3" d="M477.04,63.43c0.08,0,0.16,0,0.24,0c0.08,0,0.15,0,0.23,0c14.64,0.42,11.9,20.85,11.9,20.85
	s-0.67,5.97-4.04,5.77c0,0-0.58,6.83,5.68,8.66c6.26,1.83,15.78,6.16,17.52,9.91c1.73,3.75,9.24,13.57,9.24,17.71
	c0,4.14,2.69,6.45,2.69,6.45l-2.89,1.25c0,0,1.35,7.22,1.92,7.89s3.88,21.66,2.98,26.67c-0.9,5-2.82,18.86-2.57,23.1
	c0.26,4.23-1.03,12.83-5.77,12.45c0,0-4.83,5.15-7.32,3.84c-2.49-1.31-0.07,8.59-0.07,8.59s4.51,53.44,1.63,54.33
	c-2.88,0.89-0.1,2.18,0.3,2.98c0.4,0.79,1.99,5.86-0.79,5.26c-2.78-0.6,0.5,0.99,3.58,4.97c3.08,3.97,5.46,9.53,1.89,13.01
	c-3.58,3.48-8.94,2.58-8.94,2.58s-5.96-0.89-6.16-3.08c0,0-3.97-4.77-3.48-7.75c0,0-3.97-3.87-2.98-5.76
	c0.99-1.89-3.18,0.6-2.48-2.09c0.7-2.68-2.38-0.7-0.6-3.58c1.79-2.88-3.87-4.37-1.29-5.16c2.58-0.79-0.18-45.28-1.73-48.71
	c-1.56-3.43-3.89-8.88-4.36-17.28c-0.47-8.41-0.78,4.52-0.78,4.52s1.86,27.09,0,29.27c-1.86,2.18-0.77,24.76-0.77,24.76l0.77,12.61
	c0,0,2.5-0.31,1.1,1.71s0.93,3.27-2.02,2.65c-2.96-0.62,1.71,3.11-0.78,5.29c-2.49,2.18-3.58,5.29-5.14,3.27
	c-1.56-2.02,0.93,6.23-1.25,8.56c-2.18,2.34-24.13,11.68-19.15,0.16c4.98-11.52,6.07-8.56,6.07-8.56s-1.05-5.37,0.33-4.79
	s1.95-4.56,3.76-3.83c1.81,0.72-5.5-4.48-2.82-4.99s-7.88-66.17-6.29-66.61s-9.63-6.11-9.16-7.79c0.47-1.68-0.84-24.97-1.68-26.74
	c-0.84-1.78-2.99-39.09-1.03-39c1.96,0.09-6.27-6.27-6.27-6.27s10.85-10.94,10.94-17.95s20.57-14.49,20.57-14.49s3.09-4.4,1.68-7.39
	c0,0-3.04-1.08-3.04-4.02c0-2.94-5.55-24.34,6.11-23.24H477.04z"/>
<path class="st3" d="M558.08,216.94c0.08,0,0.16,0,0.24,0c0.08,0,0.15,0,0.23,0c14.64,0.42,11.9,20.85,11.9,20.85
	s-0.67,5.97-4.04,5.77c0,0-0.58,6.83,5.68,8.66c6.26,1.83,15.78,6.16,17.52,9.91c1.73,3.75,9.24,13.57,9.24,17.71
	s2.69,6.45,2.69,6.45l-2.89,1.25c0,0,1.35,7.22,1.92,7.89s3.88,21.66,2.98,26.67c-0.9,5-2.82,18.86-2.57,23.1
	c0.26,4.23-1.03,12.83-5.77,12.45c0,0-4.83,5.15-7.32,3.84c-2.49-1.31-0.07,8.59-0.07,8.59s4.51,53.44,1.63,54.33
	c-2.88,0.89-0.1,2.18,0.3,2.98c0.4,0.79,1.99,5.86-0.79,5.26c-2.78-0.6,0.5,0.99,3.58,4.97s5.46,9.53,1.89,13.01
	s-8.94,2.58-8.94,2.58s-5.96-0.89-6.16-3.08c0,0-3.97-4.77-3.48-7.75c0,0-3.97-3.87-2.98-5.76c0.99-1.89-3.18,0.6-2.48-2.09
	c0.7-2.68-2.38-0.7-0.6-3.58c1.79-2.88-3.87-4.37-1.29-5.16s-0.18-45.28-1.73-48.71c-1.56-3.43-3.89-8.88-4.36-17.28
	c-0.47-8.41-0.78,4.52-0.78,4.52s1.86,27.09,0,29.27c-1.86,2.18-0.77,24.76-0.77,24.76l0.77,12.61c0,0,2.5-0.31,1.09,1.71
	c-1.4,2.02,0.93,3.27-2.02,2.65c-2.96-0.62,1.71,3.11-0.78,5.29c-2.49,2.18-3.58,5.29-5.14,3.27s0.93,6.23-1.25,8.56
	c-2.18,2.34-24.13,11.68-19.15,0.16s6.07-8.56,6.07-8.56s-1.05-5.37,0.33-4.79c1.37,0.58,1.95-4.56,3.76-3.83
	c1.81,0.72-5.5-4.48-2.82-4.99s-7.88-66.17-6.29-66.61c1.59-0.43-9.63-6.11-9.16-7.79c0.47-1.68-0.84-24.97-1.68-26.74
	s-2.99-39.09-1.03-39c1.96,0.09-6.27-6.27-6.27-6.27s10.85-10.94,10.94-17.95s20.57-14.49,20.57-14.49s3.09-4.4,1.68-7.39
	c0,0-3.04-1.08-3.04-4.02c0-2.94-5.55-24.34,6.11-23.24H558.08z"/>
<path class="st2" d="M600.53,90.32c0.08,0,0.16,0,0.24,0c0.08,0,0.15,0,0.23,0c14.64,0.42,11.9,20.85,11.9,20.85
	s-0.67,5.97-4.04,5.77c0,0-0.58,6.83,5.68,8.66c6.26,1.83,15.78,6.16,17.52,9.91c1.73,3.75,9.24,13.57,9.24,17.71
	c0,4.14,2.69,6.45,2.69,6.45l-2.89,1.25c0,0,1.35,7.22,1.92,7.89s3.88,21.66,2.98,26.67c-0.9,5-2.82,18.86-2.57,23.1
	c0.26,4.23-1.03,12.83-5.77,12.45c0,0-4.83,5.15-7.32,3.84c-2.49-1.31-0.07,8.59-0.07,8.59s4.51,53.44,1.63,54.33
	c-2.88,0.89-0.1,2.18,0.3,2.98s1.99,5.86-0.79,5.26c-2.78-0.6,0.5,0.99,3.58,4.97c3.08,3.97,5.46,9.53,1.89,13.01
	c-3.58,3.48-8.94,2.58-8.94,2.58s-5.96-0.89-6.16-3.08c0,0-3.97-4.77-3.48-7.75c0,0-3.97-3.87-2.98-5.76
	c0.99-1.89-3.18,0.6-2.48-2.09c0.7-2.68-2.38-0.7-0.6-3.58c1.79-2.88-3.87-4.37-1.29-5.16c2.58-0.79-0.18-45.28-1.73-48.71
	c-1.56-3.43-3.89-8.88-4.36-17.28c-0.47-8.41-0.78,4.52-0.78,4.52s1.86,27.09,0,29.27s-0.77,24.76-0.77,24.76l0.77,12.61
	c0,0,2.5-0.31,1.09,1.71s0.93,3.27-2.02,2.65c-2.96-0.62,1.71,3.11-0.78,5.29c-2.49,2.18-3.58,5.29-5.14,3.27
	c-1.56-2.02,0.93,6.23-1.25,8.56s-24.13,11.68-19.15,0.16s6.07-8.56,6.07-8.56s-1.05-5.37,0.33-4.79c1.37,0.58,1.95-4.56,3.76-3.83
	c1.81,0.72-5.5-4.48-2.82-4.99s-7.88-66.17-6.29-66.61s-9.63-6.11-9.16-7.79c0.47-1.68-0.84-24.97-1.68-26.74
	c-0.84-1.78-2.99-39.09-1.03-39c1.96,0.09-6.27-6.27-6.27-6.27s10.85-10.94,10.94-17.95s20.57-14.49,20.57-14.49s3.09-4.4,1.68-7.39
	c0,0-3.04-1.08-3.04-4.02c0-2.94-5.55-24.34,6.11-23.24H600.53z"/>
<path class="st1" d="M577.1,255.64c10.9,0.55,13.72,4.34,13.72,4.34s4.85,17.99,2.04,20.67c0,0-1.86,4.22-2.99,4.75
	s1.55,4.36,1.55,4.36s26.27,10.12,26.27,11.6s8.37,30.39,8.86,30.88c0.49,0.49,2.76,58.33-3.09,58.98l-0.09,5.27
	c0,0-5.79,6.48-7.09,6.48s-1.47,33.62-0.43,34.48c1.04,0.86,5.85,18.36,5.85,18.36l2.65,45.04l-2.47,1.57l0.76,2.42
	c0,0,15.2,13.31-1.89,10.44c0,0-12.25-0.53-11.35-8.32l-0.3-1.94h-3.1l-6-48.12l-8.8-49.72l-0.96-0.19l6.88,95.81l-1.72,2.68
	c0,0,0.81,10.72-5.44,9.35c0,0-21.16,2.66-15.59-3.34c5.57-6,6.77-5.74,6.51-7.45c-0.26-1.71-0.4-2.13-0.4-2.13l-1.62-0.11
	c0,0-3.37-54.13-4.24-59.12c-0.87-4.99-9.78-35.01-9.78-35.01s-3.11,5.08-5.79,4.24c-2.68-0.85-6.64-0.85-7.06-4.24
	c-0.42-3.39,1.41-97.44,1.41-97.44l19.49-15.96c0,0,1.71-5.14,0.84-5.22c-0.87-0.07-3.14-3.66-3.7-5.7s-3.02-15.36-1.47-18.45
	C568.58,264.89,568.54,255.21,577.1,255.64z"/>
<g>
	<path class="st2" d="M505.96,185.48c0.08-0.01,0.16,0,0.24,0c12.67,0.21,12.49,9.27,12.49,9.27s0.67,7.48,0,8.17
		s-1.04,1.27-1.04,1.27s2.01,0.95,1.64,1.53c-0.37,0.58,0.11,2.54-0.58,2.69c0,0,0.75,3.94-1.87,2.81c0,0-1.74,1.02-0.64,1.27
		c1.11,0.25,3.95-1.19,4.33,0.12c0.38,1.31,4.5,12.18,6.48,12.07s1.43,2.81,1.43,2.81l6.11,3.03c0,0,4.51,3.91,4.46,5.45
		c-0.06,1.54,12.65,24.76,12.16,26.02c-0.5,1.27,2.31,28.44,1.1,29.6c-1.21,1.16,0.66,17.88,0,17.93
		c-0.66,0.05-10.73,14.45-12.27,14.39c-1.54-0.06-1.31,3.58-4.5,2.49s-3.72-2.3-3.72-2.3s-1.74,2.98-1.17,2.98
		c0.57,0,1.38,13.11,0.78,13.11c-0.6,0,2.13,17.72-0.18,17.86c0,0,0.07,17.47-1.06,17.97c-1.12,0.5,6.92,21.63,4.99,23.25
		c0,0-0.37,9.1-2.06,9.1s1.99,4.8,1.06,6.17c-0.93,1.37-0.79,4.7-2.5,3.34c-1.71-1.36,2.21,11.49-0.58,11.33s9.08,15.33,3.61,16.73
		c-5.47,1.4-14.67,0.7-14.44-7.57c0,0-7.41-2.48-5.28-10.05c0,0-3.37-0.86-2.39-9.47l-2.76-1.32c0,0,0.52-3.68,1.78-4.54
		c1.26-0.86-1.55-2.41-1.55-2.41s-3.27-3.62-0.34-14.88c2.93-11.26-1.72-22.63-1.03-28.61s-3.45-14.65-3.22-17.41
		c0.23-2.76-0.34-3.79-0.34-3.79l-1.21,0.4c0,0,1.21,9.31,0,9.88c-1.21,0.57-1.32,7.53-1.32,7.53s-2.07,18.61-3.79,18.61
		s1.03,30.1,1.95,30.04c0.92-0.06,0.17,2.64,0.17,2.64s1.44,0.11,0.63,1.32c-0.8,1.21-3.04,12.92-5,12.06
		c-1.95-0.86,0.46,2.81,0,3.16s-2.07,5.46-3.85,3.56c-1.78-1.9,0.92,4.37-0.63,6.26c-1.55,1.9-10.83,4.97-14.68-1.45
		c0,0-0.92-3.11,0-4.53s4.31-7.2,3.76-7.98c-0.55-0.78-0.78-6.33,0.32-8.2s-5.27-9.58,0.73-12.15c0,0-2.11-3.07-2.06-4.4
		s1.19-27.27,0.78-28.42c-0.41-1.15-4.25-17.51-3.94-20.67c0.32-3.16,0.36-25.71,1.69-26.63c1.33-0.92-0.88-0.32-1.25-3.04
		s-1.85,0.62-1.85-1.49c0-2.11-2.16,4.99-3.19,1.7c-1.03-3.3-4.53-7.47-5.87-6.44c0,0-6.18-14.37-5.1-18.18s6.41-71.12,16.42-69.89
		c0,0,5.57,0.06,5.21-1.46c-0.35-1.52,0.88-13.47,4.16-13.53c3.28-0.06,9.2-1.17,9.2,0c0,1.17-0.63-6.21-0.63-6.21
		s-1.91-1.9-1.87-5.87s2.16-2.25,2.16-2.25s-0.5-7.16,1.61-9.27C499.76,188.88,499.13,186.43,505.96,185.48z"/>
</g>
<path class="st2" d="M522.52,243.55c0.08-0.01,0.16,0,0.24,0c12.67,0.21,12.49,9.27,12.49,9.27s0.67,7.48,0,8.17
	s-1.04,1.27-1.04,1.27s2.01,0.95,1.64,1.53c-0.37,0.58,0.11,2.54-0.58,2.69c0,0,0.75,3.94-1.87,2.81c0,0-1.74,1.02-0.64,1.27
	c1.11,0.25,3.95-1.19,4.33,0.12c0.38,1.31,4.5,12.18,6.48,12.07c1.98-0.11,1.43,2.81,1.43,2.81l6.11,3.03c0,0,4.51,3.91,4.46,5.45
	c-0.05,1.54,12.65,24.76,12.16,26.02c-0.5,1.27,2.31,28.44,1.1,29.6c-1.21,1.16,0.66,17.88,0,17.93
	c-0.66,0.05-10.73,14.45-12.27,14.39c-1.54-0.06-1.31,3.58-4.5,2.49s-3.72-2.3-3.72-2.3s-1.74,2.98-1.17,2.98s1.38,13.11,0.78,13.11
	s2.13,17.72-0.18,17.86c0,0,0.07,17.47-1.06,17.97c-1.12,0.5,6.92,21.63,4.99,23.25c0,0-0.37,9.1-2.06,9.1s1.99,4.8,1.06,6.17
	c-0.94,1.37-0.79,4.7-2.5,3.34c-1.71-1.36,2.21,11.49-0.58,11.33c-2.79-0.16,9.08,15.33,3.61,16.73c-5.47,1.4-14.67,0.7-14.44-7.57
	c0,0-7.41-2.48-5.28-10.05c0,0-3.37-0.86-2.39-9.47l-2.76-1.32c0,0,0.52-3.68,1.78-4.54c1.26-0.86-1.55-2.41-1.55-2.41
	s-3.27-3.62-0.34-14.88c2.93-11.26-1.72-22.63-1.03-28.61s-3.45-14.65-3.22-17.41c0.23-2.76-0.34-3.79-0.34-3.79l-1.21,0.4
	c0,0,1.21,9.31,0,9.88c-1.21,0.57-1.32,7.53-1.32,7.53s-2.07,18.61-3.79,18.61c-1.72,0,1.03,30.1,1.95,30.04
	c0.92-0.06,0.17,2.64,0.17,2.64s1.44,0.11,0.63,1.32c-0.8,1.21-3.04,12.92-5,12.06c-1.95-0.86,0.46,2.81,0,3.16
	c-0.46,0.34-2.07,5.46-3.85,3.56c-1.78-1.9,0.92,4.37-0.63,6.26c-1.55,1.9-10.83,4.97-14.68-1.45c0,0-0.92-3.11,0-4.53
	s4.31-7.2,3.76-7.98s-0.78-6.33,0.32-8.2c1.1-1.88-5.27-9.58,0.73-12.15c0,0-2.11-3.07-2.06-4.4s1.19-27.27,0.78-28.42
	c-0.41-1.15-4.25-17.51-3.94-20.67c0.32-3.16,0.36-25.71,1.69-26.63c1.33-0.92-0.88-0.32-1.25-3.04c-0.36-2.73-1.85,0.62-1.85-1.49
	c0-2.11-2.16,4.99-3.19,1.7s-4.53-7.47-5.87-6.44c0,0-6.18-14.37-5.1-18.18s6.41-71.12,16.42-69.89c0,0,5.57,0.06,5.21-1.46
	c-0.35-1.52,0.88-13.47,4.16-13.53c3.28-0.06,9.2-1.17,9.2,0c0,1.17-0.63-6.21-0.63-6.21s-1.91-1.9-1.87-5.87
	c0.04-3.97,2.16-2.25,2.16-2.25s-0.5-7.16,1.61-9.27C516.31,246.95,515.69,244.5,522.52,243.55z"/>
<path class="st0" d="M1122.55,29.71c10.9,0.55,13.72,4.34,13.72,4.34s4.85,17.99,2.04,20.67c0,0-1.86,4.22-2.99,4.75
	c-1.12,0.53,1.55,4.36,1.55,4.36s26.27,10.12,26.27,11.6c0,1.48,8.37,30.39,8.86,30.88c0.49,0.49,2.76,58.33-3.09,58.98l-0.09,5.27
	c0,0-5.79,6.48-7.09,6.48s-1.47,33.62-0.43,34.48c1.04,0.86,5.85,18.36,5.85,18.36l2.65,45.04l-2.47,1.57l0.76,2.42
	c0,0,15.2,13.31-1.89,10.44c0,0-12.25-0.53-11.35-8.32l-0.3-1.94h-3.1l-6-48.12l-8.8-49.72l-0.96-0.19l6.88,95.81l-1.72,2.68
	c0,0,0.81,10.72-5.44,9.35c0,0-21.16,2.66-15.59-3.34c5.57-6,6.77-5.74,6.51-7.45c-0.26-1.71-0.4-2.13-0.4-2.13l-1.62-0.11
	c0,0-3.37-54.13-4.24-59.12c-0.87-4.99-9.78-35.01-9.78-35.01s-3.11,5.08-5.79,4.24c-2.68-0.85-6.64-0.85-7.06-4.24
	c-0.42-3.39,1.41-97.44,1.41-97.44l19.49-15.96c0,0,1.71-5.14,0.84-5.22c-0.87-0.07-3.14-3.66-3.7-5.7s-3.02-15.36-1.47-18.45
	C1114.03,38.96,1114,29.28,1122.55,29.71z"/>
<path class="st0" d="M1060.63,38.21c0.08,0,0.16,0,0.24,0c0.08,0,0.15,0,0.23,0c14.64,0.42,11.9,20.85,11.9,20.85
	s-0.67,5.97-4.04,5.77c0,0-0.58,6.83,5.68,8.66c6.26,1.83,15.78,6.16,17.52,9.91s9.24,13.57,9.24,17.71c0,4.14,2.69,6.45,2.69,6.45
	l-2.89,1.25c0,0,1.35,7.22,1.92,7.89c0.58,0.67,3.88,21.66,2.98,26.67c-0.9,5-2.82,18.86-2.57,23.1c0.26,4.23-1.03,12.83-5.77,12.45
	c0,0-4.83,5.15-7.32,3.84s-0.07,8.59-0.07,8.59s4.51,53.44,1.63,54.33c-2.88,0.89-0.1,2.18,0.3,2.98c0.4,0.79,1.99,5.86-0.79,5.26
	c-2.78-0.6,0.5,0.99,3.58,4.97c3.08,3.97,5.46,9.53,1.89,13.01s-8.94,2.58-8.94,2.58s-5.96-0.89-6.16-3.08c0,0-3.97-4.77-3.48-7.75
	c0,0-3.97-3.87-2.98-5.76c0.99-1.89-3.18,0.6-2.48-2.09c0.7-2.68-2.38-0.7-0.6-3.58c1.79-2.88-3.87-4.37-1.29-5.16
	c2.58-0.79-0.18-45.28-1.73-48.71c-1.56-3.43-3.89-8.88-4.36-17.28c-0.47-8.41-0.78,4.52-0.78,4.52s1.86,27.09,0,29.27
	c-1.86,2.18-0.77,24.76-0.77,24.76l0.77,12.61c0,0,2.5-0.31,1.1,1.71c-1.4,2.02,0.93,3.27-2.02,2.65c-2.96-0.62,1.71,3.11-0.78,5.29
	c-2.49,2.18-3.58,5.29-5.14,3.27c-1.56-2.02,0.93,6.23-1.25,8.56c-2.18,2.34-24.13,11.68-19.15,0.16s6.07-8.56,6.07-8.56
	s-1.05-5.37,0.33-4.79c1.37,0.58,1.95-4.56,3.76-3.83s-5.5-4.48-2.82-4.99s-7.88-66.17-6.29-66.61c1.59-0.43-9.63-6.11-9.16-7.79
	c0.47-1.68-0.84-24.97-1.68-26.74c-0.84-1.78-2.99-39.09-1.03-39c1.96,0.09-6.27-6.27-6.27-6.27s10.85-10.94,10.94-17.95
	s20.57-14.49,20.57-14.49s3.09-4.4,1.68-7.39c0,0-3.04-1.08-3.04-4.02c0-2.94-5.55-24.34,6.11-23.24H1060.63z"/>
<path class="st0" d="M727.4,218.76c0.08,0,0.16,0,0.24,0c0.08,0,0.15,0,0.23,0c14.64,0.42,11.9,20.85,11.9,20.85
	s-0.67,5.97-4.04,5.77c0,0-0.58,6.83,5.68,8.66c6.26,1.83,15.78,6.16,17.52,9.91s9.24,13.57,9.24,17.71c0,4.14,2.69,6.45,2.69,6.45
	l-2.89,1.25c0,0,1.35,7.22,1.92,7.89c0.58,0.67,3.88,21.66,2.98,26.67c-0.9,5-2.82,18.86-2.57,23.1s-1.03,12.83-5.77,12.45
	c0,0-4.83,5.15-7.32,3.84c-2.49-1.31-0.07,8.59-0.07,8.59s4.51,53.44,1.63,54.33c-2.88,0.89-0.1,2.18,0.3,2.98s1.99,5.86-0.79,5.26
	c-2.78-0.6,0.5,0.99,3.58,4.97c3.08,3.97,5.46,9.53,1.89,13.01s-8.94,2.58-8.94,2.58s-5.96-0.89-6.16-3.08c0,0-3.97-4.77-3.48-7.75
	c0,0-3.97-3.87-2.98-5.76c0.99-1.89-3.18,0.6-2.48-2.09c0.7-2.68-2.38-0.7-0.6-3.58c1.79-2.88-3.87-4.37-1.29-5.16
	c2.58-0.79-0.18-45.28-1.73-48.71c-1.56-3.43-3.89-8.88-4.36-17.28c-0.47-8.41-0.78,4.52-0.78,4.52s1.86,27.09,0,29.27
	c-1.86,2.18-0.77,24.76-0.77,24.76l0.77,12.61c0,0,2.5-0.31,1.09,1.71c-1.4,2.02,0.93,3.27-2.02,2.65s1.71,3.11-0.78,5.29
	c-2.49,2.18-3.58,5.29-5.14,3.27c-1.56-2.02,0.93,6.23-1.25,8.56c-2.18,2.34-24.13,11.68-19.15,0.16c4.98-11.52,6.07-8.56,6.07-8.56
	s-1.05-5.37,0.33-4.79s1.95-4.56,3.76-3.83c1.81,0.72-5.5-4.48-2.82-4.99s-7.88-66.17-6.29-66.61s-9.63-6.11-9.16-7.79
	c0.47-1.68-0.84-24.97-1.68-26.74c-0.84-1.78-2.99-39.09-1.03-39c1.96,0.09-6.27-6.27-6.27-6.27s10.85-10.94,10.94-17.95
	s20.57-14.49,20.57-14.49s3.09-4.4,1.68-7.39c0,0-3.04-1.08-3.04-4.02s-5.55-24.34,6.11-23.24H727.4z"/>
<path class="st0" d="M746.42,257.46c10.9,0.55,13.72,4.34,13.72,4.34s4.85,17.99,2.04,20.67c0,0-1.86,4.22-2.99,4.75
	c-1.12,0.53,1.55,4.36,1.55,4.36s26.27,10.12,26.27,11.6s8.37,30.39,8.86,30.88c0.49,0.49,2.76,58.33-3.09,58.98l-0.09,5.27
	c0,0-5.79,6.48-7.09,6.48s-1.47,33.62-0.43,34.48c1.04,0.86,5.85,18.36,5.85,18.36l2.65,45.04l-2.47,1.57l0.76,2.42
	c0,0,15.2,13.31-1.89,10.44c0,0-12.25-0.53-11.35-8.32l-0.3-1.94h-3.1l-6-48.12l-8.8-49.72l-0.96-0.19l6.88,95.81l-1.72,2.68
	c0,0,0.81,10.72-5.44,9.35c0,0-21.16,2.66-15.59-3.34c5.57-6,6.77-5.74,6.51-7.45c-0.26-1.71-0.4-2.13-0.4-2.13l-1.62-0.11
	c0,0-3.37-54.13-4.24-59.12c-0.87-4.99-9.78-35.01-9.78-35.01s-3.11,5.08-5.79,4.24c-2.68-0.85-6.64-0.85-7.06-4.24
	c-0.42-3.39,1.41-97.44,1.41-97.44l19.49-15.96c0,0,1.71-5.14,0.84-5.22s-3.14-3.66-3.7-5.7c-0.56-2.03-3.02-15.36-1.47-18.45
	C737.9,266.71,737.86,257.03,746.42,257.46z"/>
<g>
	<path class="st0" d="M671.79,206.98c0.08-0.01,0.16,0,0.24,0c12.67,0.21,12.49,9.27,12.49,9.27s0.68,7.48,0,8.17
		s-1.04,1.27-1.04,1.27s2.01,0.95,1.64,1.53c-0.37,0.58,0.11,2.54-0.58,2.69c0,0,0.75,3.94-1.87,2.81c0,0-1.74,1.02-0.64,1.27
		c1.11,0.25,3.95-1.19,4.33,0.12s4.5,12.18,6.48,12.07c1.98-0.11,1.43,2.81,1.43,2.81l6.11,3.03c0,0,4.51,3.91,4.46,5.45
		c-0.05,1.54,12.65,24.76,12.16,26.02c-0.5,1.27,2.31,28.44,1.1,29.6c-1.21,1.16,0.66,17.88,0,17.93
		c-0.66,0.06-10.73,14.45-12.27,14.39c-1.54-0.06-1.31,3.58-4.5,2.49s-3.72-2.3-3.72-2.3s-1.74,2.98-1.17,2.98
		s1.38,13.11,0.78,13.11c-0.6,0,2.13,17.72-0.18,17.86c0,0,0.07,17.47-1.06,17.97c-1.12,0.5,6.92,21.63,4.99,23.25
		c0,0-0.37,9.1-2.06,9.1c-1.68,0,1.99,4.8,1.06,6.17c-0.94,1.37-0.79,4.7-2.5,3.34c-1.71-1.36,2.21,11.49-0.58,11.33
		c-2.79-0.16,9.08,15.33,3.61,16.73c-5.47,1.4-14.67,0.7-14.44-7.57c0,0-7.41-2.48-5.28-10.05c0,0-3.37-0.86-2.39-9.47l-2.76-1.32
		c0,0,0.52-3.68,1.78-4.54c1.26-0.86-1.55-2.41-1.55-2.41s-3.27-3.62-0.34-14.88c2.93-11.26-1.72-22.63-1.03-28.61
		s-3.45-14.65-3.22-17.41c0.23-2.76-0.34-3.79-0.34-3.79l-1.21,0.4c0,0,1.21,9.31,0,9.88s-1.32,7.53-1.32,7.53
		s-2.07,18.61-3.79,18.61c-1.72,0,1.03,30.1,1.95,30.04c0.92-0.06,0.17,2.64,0.17,2.64s1.44,0.11,0.63,1.32
		c-0.8,1.21-3.04,12.92-5,12.06c-1.95-0.86,0.46,2.81,0,3.16c-0.46,0.34-2.07,5.46-3.85,3.56s0.92,4.37-0.63,6.26
		c-1.55,1.9-10.83,4.97-14.68-1.45c0,0-0.92-3.11,0-4.53c0.92-1.42,4.31-7.2,3.76-7.98c-0.55-0.78-0.78-6.33,0.32-8.2
		s-5.27-9.58,0.73-12.15c0,0-2.11-3.07-2.06-4.4s1.19-27.27,0.78-28.42c-0.41-1.15-4.25-17.51-3.94-20.67
		c0.32-3.16,0.36-25.71,1.69-26.63c1.33-0.92-0.88-0.32-1.25-3.04c-0.36-2.73-1.85,0.62-1.85-1.49c0-2.11-2.16,4.99-3.19,1.7
		c-1.03-3.3-4.53-7.47-5.87-6.44c0,0-6.18-14.37-5.1-18.18c1.08-3.81,6.41-71.12,16.42-69.89c0,0,5.57,0.06,5.21-1.46
		c-0.35-1.52,0.88-13.47,4.16-13.53c3.28-0.06,9.2-1.17,9.2,0c0,1.17-0.63-6.21-0.63-6.21s-1.91-1.9-1.87-5.87
		c0.04-3.97,2.16-2.25,2.16-2.25s-0.5-7.16,1.61-9.27C665.59,210.37,664.96,207.93,671.79,206.98z"/>
</g>
<path class="st0" d="M691.84,245.37c0.08-0.01,0.16,0,0.24,0c12.67,0.21,12.49,9.27,12.49,9.27s0.67,7.48,0,8.17
	s-1.04,1.27-1.04,1.27s2.01,0.95,1.64,1.53c-0.37,0.58,0.11,2.54-0.58,2.69c0,0,0.75,3.94-1.87,2.81c0,0-1.74,1.02-0.64,1.27
	c1.11,0.25,3.95-1.19,4.33,0.12s4.5,12.18,6.48,12.07c1.98-0.11,1.43,2.81,1.43,2.81l6.11,3.03c0,0,4.51,3.91,4.46,5.45
	s12.65,24.76,12.16,26.02c-0.5,1.27,2.31,28.44,1.1,29.6s0.66,17.88,0,17.93c-0.66,0.06-10.73,14.45-12.27,14.39
	s-1.31,3.58-4.5,2.49c-3.19-1.1-3.72-2.3-3.72-2.3s-1.74,2.98-1.17,2.98s1.38,13.11,0.78,13.11c-0.6,0,2.13,17.72-0.18,17.86
	c0,0,0.07,17.47-1.06,17.97c-1.12,0.5,6.92,21.63,4.99,23.25c0,0-0.37,9.1-2.06,9.1s1.99,4.8,1.06,6.17
	c-0.93,1.37-0.79,4.7-2.5,3.34s2.21,11.49-0.58,11.33s9.08,15.33,3.61,16.73c-5.47,1.4-14.67,0.7-14.44-7.57
	c0,0-7.41-2.48-5.28-10.05c0,0-3.37-0.86-2.39-9.47l-2.76-1.32c0,0,0.52-3.68,1.78-4.54c1.26-0.86-1.55-2.41-1.55-2.41
	s-3.27-3.62-0.34-14.88c2.93-11.26-1.72-22.63-1.03-28.61c0.69-5.97-3.45-14.65-3.22-17.41c0.23-2.76-0.34-3.79-0.34-3.79l-1.21,0.4
	c0,0,1.21,9.31,0,9.88c-1.21,0.57-1.32,7.53-1.32,7.53s-2.07,18.61-3.79,18.61s1.03,30.1,1.95,30.04c0.92-0.06,0.17,2.64,0.17,2.64
	s1.44,0.11,0.63,1.32c-0.8,1.21-3.04,12.92-5,12.06c-1.95-0.86,0.46,2.81,0,3.16s-2.07,5.46-3.85,3.56
	c-1.78-1.9,0.92,4.37-0.63,6.26s-10.83,4.97-14.68-1.45c0,0-0.92-3.11,0-4.53c0.92-1.42,4.31-7.2,3.76-7.98
	c-0.55-0.78-0.78-6.33,0.32-8.2c1.1-1.88-5.27-9.58,0.73-12.15c0,0-2.11-3.07-2.06-4.4s1.19-27.27,0.78-28.42
	s-4.25-17.51-3.94-20.67c0.32-3.16,0.36-25.71,1.69-26.63c1.33-0.92-0.88-0.32-1.25-3.04s-1.85,0.62-1.85-1.49
	c0-2.11-2.16,4.99-3.19,1.7s-4.53-7.47-5.87-6.44c0,0-6.18-14.37-5.1-18.18c1.08-3.81,6.41-71.12,16.42-69.89
	c0,0,5.57,0.06,5.21-1.46s0.88-13.47,4.16-13.53c3.28-0.06,9.2-1.17,9.2,0c0,1.17-0.63-6.21-0.63-6.21s-1.91-1.9-1.87-5.87
	s2.16-2.25,2.16-2.25s-0.5-7.16,1.61-9.27C685.63,248.77,685.01,246.32,691.84,245.37z"/>
<path class="st3" d="M640.98,276.18c0.08,0,0.16,0,0.24,0c0.08,0,0.15,0,0.23,0c14.64,0.42,11.9,20.85,11.9,20.85
	s-0.67,5.97-4.04,5.77c0,0-0.58,6.83,5.68,8.66c6.26,1.83,15.78,6.16,17.52,9.91c1.73,3.75,9.24,13.57,9.24,17.71
	s2.69,6.45,2.69,6.45l-2.89,1.25c0,0,1.35,7.22,1.92,7.89c0.58,0.67,3.88,21.66,2.98,26.67c-0.9,5-2.82,18.86-2.57,23.1
	c0.26,4.23-1.03,12.83-5.77,12.45c0,0-4.83,5.15-7.32,3.84c-2.49-1.31-0.07,8.59-0.07,8.59s4.51,53.44,1.63,54.33
	c-2.88,0.89-0.1,2.18,0.3,2.98s1.99,5.86-0.79,5.26c-2.78-0.6,0.5,0.99,3.58,4.97c3.08,3.97,5.46,9.53,1.89,13.01
	c-3.58,3.48-8.94,2.58-8.94,2.58s-5.96-0.89-6.16-3.08c0,0-3.97-4.77-3.48-7.75c0,0-3.97-3.87-2.98-5.76
	c0.99-1.89-3.18,0.6-2.48-2.09c0.7-2.68-2.38-0.7-0.6-3.58c1.79-2.88-3.87-4.37-1.29-5.16c2.58-0.79-0.18-45.28-1.73-48.71
	c-1.56-3.43-3.89-8.88-4.36-17.28c-0.47-8.41-0.78,4.52-0.78,4.52s1.86,27.09,0,29.27c-1.86,2.18-0.77,24.76-0.77,24.76l0.77,12.61
	c0,0,2.5-0.31,1.1,1.71s0.93,3.27-2.02,2.65s1.71,3.11-0.78,5.29c-2.49,2.18-3.58,5.29-5.14,3.27c-1.56-2.02,0.93,6.23-1.25,8.56
	c-2.18,2.34-24.13,11.68-19.15,0.16s6.07-8.56,6.07-8.56s-1.05-5.37,0.33-4.79c1.37,0.58,1.95-4.56,3.76-3.83
	c1.81,0.72-5.5-4.48-2.82-4.99s-7.88-66.17-6.29-66.61c1.59-0.43-9.63-6.11-9.16-7.79c0.47-1.68-0.84-24.97-1.68-26.74
	s-2.99-39.09-1.03-39c1.96,0.09-6.27-6.27-6.27-6.27s10.85-10.94,10.94-17.95s20.57-14.49,20.57-14.49s3.09-4.4,1.68-7.39
	c0,0-3.04-1.08-3.04-4.02c0-2.94-5.55-24.34,6.11-23.24H640.98z"/>
<path class="st0" d="M912.43,208.29c0.08,0,0.16,0,0.24,0c0.08,0,0.15,0,0.23,0c14.64,0.42,11.9,20.85,11.9,20.85
	s-0.67,5.97-4.04,5.77c0,0-0.58,6.83,5.68,8.66s15.78,6.16,17.52,9.91s9.24,13.57,9.24,17.71c0,4.14,2.69,6.45,2.69,6.45l-2.89,1.25
	c0,0,1.35,7.22,1.92,7.89c0.58,0.67,3.88,21.66,2.98,26.67c-0.9,5-2.82,18.86-2.57,23.1s-1.03,12.83-5.77,12.45
	c0,0-4.83,5.15-7.32,3.84c-2.49-1.31-0.07,8.59-0.07,8.59s4.51,53.44,1.63,54.33c-2.88,0.89-0.1,2.18,0.3,2.98s1.99,5.86-0.79,5.26
	c-2.78-0.6,0.5,0.99,3.58,4.97c3.08,3.97,5.46,9.53,1.89,13.01c-3.58,3.48-8.94,2.58-8.94,2.58s-5.96-0.89-6.16-3.08
	c0,0-3.97-4.77-3.48-7.75c0,0-3.97-3.87-2.98-5.76c0.99-1.89-3.18,0.6-2.48-2.09c0.7-2.68-2.38-0.7-0.6-3.58
	c1.79-2.88-3.87-4.37-1.29-5.16c2.58-0.79-0.18-45.28-1.73-48.71c-1.56-3.43-3.89-8.88-4.36-17.28c-0.47-8.41-0.78,4.52-0.78,4.52
	s1.86,27.09,0,29.27s-0.77,24.76-0.77,24.76l0.77,12.61c0,0,2.5-0.31,1.09,1.71s0.93,3.27-2.02,2.65c-2.96-0.62,1.71,3.11-0.78,5.29
	c-2.49,2.18-3.58,5.29-5.14,3.27c-1.56-2.02,0.93,6.23-1.25,8.56s-24.13,11.68-19.15,0.16s6.07-8.56,6.07-8.56s-1.05-5.37,0.33-4.79
	c1.37,0.58,1.95-4.56,3.76-3.83c1.81,0.72-5.5-4.48-2.82-4.99s-7.88-66.17-6.29-66.61s-9.63-6.11-9.16-7.79
	c0.47-1.68-0.84-24.97-1.68-26.74s-2.99-39.09-1.03-39c1.96,0.09-6.27-6.27-6.27-6.27s10.85-10.94,10.94-17.95
	s20.57-14.49,20.57-14.49s3.09-4.4,1.68-7.39c0,0-3.04-1.08-3.04-4.02s-5.55-24.34,6.11-23.24H912.43z"/>
<g>
	<path class="st0" d="M856.83,196.51c0.08-0.01,0.16,0,0.24,0c12.67,0.21,12.49,9.27,12.49,9.27s0.68,7.48,0,8.17
		s-1.04,1.27-1.04,1.27s2.01,0.95,1.64,1.53c-0.37,0.58,0.11,2.54-0.58,2.69c0,0,0.75,3.94-1.87,2.81c0,0-1.74,1.02-0.64,1.27
		c1.11,0.25,3.95-1.19,4.33,0.12s4.5,12.18,6.48,12.07s1.43,2.81,1.43,2.81l6.11,3.03c0,0,4.51,3.91,4.46,5.45
		s12.65,24.76,12.16,26.02s2.31,28.44,1.1,29.6s0.66,17.88,0,17.93c-0.66,0.05-10.73,14.45-12.27,14.39
		c-1.54-0.06-1.31,3.58-4.5,2.49c-3.19-1.1-3.72-2.3-3.72-2.3s-1.74,2.98-1.17,2.98s1.38,13.11,0.78,13.11
		c-0.6,0,2.13,17.72-0.18,17.86c0,0,0.07,17.47-1.06,17.97c-1.12,0.5,6.92,21.63,4.99,23.25c0,0-0.37,9.1-2.06,9.1
		s1.99,4.8,1.06,6.17c-0.93,1.37-0.79,4.7-2.5,3.34c-1.71-1.36,2.21,11.49-0.58,11.33c-2.79-0.16,9.08,15.33,3.61,16.73
		c-5.47,1.4-14.67,0.7-14.44-7.57c0,0-7.41-2.48-5.28-10.05c0,0-3.37-0.86-2.39-9.47l-2.76-1.32c0,0,0.52-3.68,1.78-4.54
		c1.26-0.86-1.55-2.41-1.55-2.41s-3.27-3.62-0.34-14.88c2.93-11.26-1.72-22.63-1.03-28.61s-3.45-14.65-3.22-17.41
		s-0.34-3.79-0.34-3.79l-1.21,0.4c0,0,1.21,9.31,0,9.88s-1.32,7.53-1.32,7.53s-2.07,18.61-3.79,18.61c-1.72,0,1.03,30.1,1.95,30.04
		c0.92-0.06,0.17,2.64,0.17,2.64s1.44,0.11,0.63,1.32c-0.8,1.21-3.04,12.92-5,12.06c-1.95-0.86,0.46,2.81,0,3.16
		c-0.46,0.34-2.07,5.46-3.85,3.56s0.92,4.37-0.63,6.26s-10.83,4.97-14.68-1.45c0,0-0.92-3.11,0-4.53c0.92-1.42,4.31-7.2,3.76-7.98
		s-0.78-6.33,0.32-8.2s-5.27-9.58,0.73-12.15c0,0-2.11-3.07-2.06-4.4s1.19-27.27,0.78-28.42c-0.41-1.15-4.25-17.51-3.94-20.67
		c0.32-3.16,0.36-25.71,1.69-26.63c1.33-0.92-0.88-0.32-1.25-3.04c-0.36-2.73-1.85,0.62-1.85-1.49s-2.16,4.99-3.19,1.7
		s-4.53-7.47-5.87-6.44c0,0-6.18-14.37-5.1-18.18c1.08-3.81,6.41-71.12,16.42-69.89c0,0,5.57,0.06,5.21-1.46s0.88-13.47,4.16-13.53
		c3.28-0.06,9.2-1.17,9.2,0c0,1.17-0.63-6.21-0.63-6.21s-1.91-1.9-1.87-5.87c0.04-3.97,2.16-2.25,2.16-2.25s-0.5-7.16,1.61-9.27
		C850.62,199.9,850,197.46,856.83,196.51z"/>
</g>
<path class="st0" d="M876.87,234.9c0.08-0.01,0.16,0,0.24,0c12.67,0.21,12.49,9.27,12.49,9.27s0.67,7.48,0,8.17
	s-1.04,1.27-1.04,1.27s2.01,0.95,1.64,1.53c-0.37,0.58,0.11,2.54-0.58,2.69c0,0,0.75,3.94-1.87,2.81c0,0-1.74,1.02-0.64,1.27
	c1.11,0.25,3.95-1.19,4.33,0.12c0.38,1.31,4.5,12.18,6.48,12.07s1.43,2.81,1.43,2.81l6.11,3.03c0,0,4.51,3.91,4.46,5.45
	c-0.06,1.54,12.65,24.76,12.16,26.02c-0.5,1.27,2.31,28.44,1.1,29.6s0.66,17.88,0,17.93c-0.66,0.06-10.73,14.45-12.27,14.39
	c-1.54-0.06-1.31,3.58-4.5,2.49c-3.19-1.1-3.72-2.3-3.72-2.3s-1.74,2.98-1.17,2.98c0.57,0,1.38,13.11,0.78,13.11
	c-0.6,0,2.13,17.72-0.18,17.86c0,0,0.07,17.47-1.06,17.97c-1.12,0.5,6.92,21.63,4.99,23.25c0,0-0.37,9.1-2.06,9.1
	s1.99,4.8,1.06,6.17c-0.93,1.37-0.79,4.7-2.5,3.34c-1.71-1.36,2.21,11.49-0.58,11.33c-2.79-0.16,9.08,15.33,3.61,16.73
	c-5.47,1.4-14.67,0.7-14.44-7.57c0,0-7.41-2.48-5.28-10.05c0,0-3.37-0.86-2.39-9.47l-2.76-1.32c0,0,0.52-3.68,1.78-4.54
	c1.26-0.86-1.55-2.41-1.55-2.41s-3.27-3.62-0.34-14.88s-1.72-22.63-1.03-28.61c0.69-5.97-3.45-14.65-3.22-17.41
	c0.23-2.76-0.34-3.79-0.34-3.79l-1.21,0.4c0,0,1.21,9.31,0,9.88c-1.21,0.57-1.32,7.53-1.32,7.53s-2.07,18.61-3.79,18.61
	s1.03,30.1,1.95,30.04c0.92-0.06,0.17,2.64,0.17,2.64s1.44,0.11,0.63,1.32c-0.8,1.21-3.04,12.92-5,12.06
	c-1.95-0.86,0.46,2.81,0,3.16s-2.07,5.46-3.85,3.56c-1.78-1.9,0.92,4.37-0.63,6.26s-10.83,4.97-14.68-1.45c0,0-0.92-3.11,0-4.53
	c0.92-1.42,4.31-7.2,3.76-7.98c-0.55-0.78-0.78-6.33,0.32-8.2c1.1-1.88-5.27-9.58,0.73-12.15c0,0-2.11-3.07-2.06-4.4
	c0.05-1.33,1.19-27.27,0.78-28.42s-4.25-17.51-3.94-20.67c0.32-3.16,0.36-25.71,1.69-26.63s-0.88-0.32-1.25-3.04
	s-1.85,0.62-1.85-1.49c0-2.11-2.16,4.99-3.19,1.7s-4.53-7.47-5.87-6.44c0,0-6.18-14.37-5.1-18.18c1.08-3.81,6.41-71.12,16.42-69.89
	c0,0,5.57,0.06,5.21-1.46s0.88-13.47,4.16-13.53c3.28-0.06,9.2-1.17,9.2,0c0,1.17-0.63-6.21-0.63-6.21s-1.91-1.9-1.87-5.87
	s2.16-2.25,2.16-2.25s-0.5-7.16,1.61-9.27C870.67,238.29,870.05,235.85,876.87,234.9z"/>
<path class="st0" d="M826.01,265.71c0.08,0,0.16,0,0.24,0c0.08,0,0.15,0,0.23,0c14.64,0.42,11.9,20.85,11.9,20.85
	s-0.67,5.97-4.04,5.77c0,0-0.58,6.83,5.68,8.66c6.26,1.83,15.78,6.16,17.52,9.91s9.24,13.57,9.24,17.71c0,4.14,2.69,6.45,2.69,6.45
	l-2.89,1.25c0,0,1.35,7.22,1.92,7.89c0.58,0.67,3.88,21.66,2.98,26.67c-0.9,5-2.82,18.86-2.57,23.1c0.26,4.23-1.03,12.83-5.77,12.45
	c0,0-4.83,5.15-7.32,3.84c-2.49-1.31-0.07,8.59-0.07,8.59s4.51,53.44,1.63,54.33c-2.88,0.89-0.1,2.18,0.3,2.98s1.99,5.86-0.79,5.26
	c-2.78-0.6,0.5,0.99,3.58,4.97c3.08,3.97,5.46,9.53,1.89,13.01s-8.94,2.58-8.94,2.58s-5.96-0.89-6.16-3.08c0,0-3.97-4.77-3.48-7.75
	c0,0-3.97-3.87-2.98-5.76c0.99-1.89-3.18,0.6-2.48-2.09c0.7-2.68-2.38-0.7-0.6-3.58c1.79-2.88-3.87-4.37-1.29-5.16
	c2.58-0.79-0.18-45.28-1.73-48.71c-1.56-3.43-3.89-8.88-4.36-17.28c-0.47-8.41-0.78,4.52-0.78,4.52s1.86,27.09,0,29.27
	c-1.86,2.18-0.77,24.76-0.77,24.76l0.77,12.61c0,0,2.5-0.31,1.09,1.71c-1.4,2.02,0.93,3.27-2.02,2.65s1.71,3.11-0.78,5.29
	c-2.49,2.18-3.58,5.29-5.14,3.27s0.93,6.23-1.25,8.56c-2.18,2.34-24.13,11.68-19.15,0.16c4.98-11.52,6.07-8.56,6.07-8.56
	s-1.05-5.37,0.33-4.79s1.95-4.56,3.76-3.83c1.81,0.72-5.5-4.48-2.82-4.99c2.68-0.51-7.88-66.17-6.29-66.61
	c1.59-0.43-9.63-6.11-9.16-7.79c0.47-1.68-0.84-24.97-1.68-26.74c-0.84-1.78-2.99-39.09-1.03-39c1.96,0.09-6.27-6.27-6.27-6.27
	s10.85-10.94,10.94-17.95c0.09-7.01,20.57-14.49,20.57-14.49s3.09-4.4,1.68-7.39c0,0-3.04-1.08-3.04-4.02
	c0-2.94-5.55-24.34,6.11-23.24H826.01z"/>
<path class="st0" d="M1123.15,125.16c10.9,0.55,13.72,4.34,13.72,4.34s4.85,17.99,2.04,20.67c0,0-1.86,4.22-2.99,4.75
	c-1.12,0.53,1.55,4.36,1.55,4.36s26.27,10.12,26.27,11.6c0,1.48,8.37,30.39,8.86,30.88s2.76,58.33-3.09,58.98l-0.09,5.27
	c0,0-5.79,6.48-7.09,6.48s-1.47,33.62-0.43,34.48s5.85,18.36,5.85,18.36l2.65,45.04l-2.47,1.57l0.76,2.42c0,0,15.2,13.31-1.89,10.44
	c0,0-12.25-0.53-11.35-8.32l-0.3-1.94h-3.1l-6-48.12l-8.8-49.72l-0.96-0.19l6.88,95.81l-1.72,2.68c0,0,0.81,10.72-5.44,9.35
	c0,0-21.16,2.66-15.59-3.34c5.57-6,6.77-5.74,6.51-7.45c-0.26-1.71-0.4-2.13-0.4-2.13l-1.62-0.11c0,0-3.37-54.13-4.24-59.12
	s-9.78-35.01-9.78-35.01s-3.11,5.08-5.79,4.24c-2.68-0.85-6.64-0.85-7.06-4.24c-0.42-3.39,1.41-97.44,1.41-97.44l19.49-15.96
	c0,0,1.71-5.14,0.84-5.22c-0.87-0.07-3.14-3.66-3.7-5.7s-3.02-15.36-1.47-18.45C1114.63,134.41,1114.6,124.72,1123.15,125.16z"/>
<path class="st0" d="M1058.28,132.74c0.08,0,0.16,0,0.24,0c0.08,0,0.15,0,0.23,0c14.64,0.42,11.9,20.85,11.9,20.85
	s-0.67,5.97-4.04,5.77c0,0-0.58,6.83,5.68,8.66s15.78,6.16,17.52,9.91c1.73,3.75,9.24,13.57,9.24,17.71c0,4.14,2.69,6.45,2.69,6.45
	l-2.89,1.25c0,0,1.35,7.22,1.92,7.89c0.58,0.67,3.88,21.66,2.98,26.67c-0.9,5-2.82,18.86-2.57,23.1c0.26,4.23-1.03,12.83-5.77,12.45
	c0,0-4.83,5.15-7.32,3.84c-2.49-1.31-0.07,8.59-0.07,8.59s4.51,53.44,1.63,54.33c-2.88,0.89-0.1,2.18,0.3,2.98
	c0.4,0.79,1.99,5.86-0.79,5.26c-2.78-0.6,0.5,0.99,3.58,4.97c3.08,3.97,5.46,9.53,1.89,13.01c-3.58,3.48-8.94,2.58-8.94,2.58
	s-5.96-0.89-6.16-3.08c0,0-3.97-4.77-3.48-7.75c0,0-3.97-3.87-2.98-5.76c0.99-1.89-3.18,0.6-2.48-2.09c0.7-2.68-2.38-0.7-0.6-3.58
	c1.79-2.88-3.87-4.37-1.29-5.16c2.58-0.79-0.18-45.28-1.73-48.71c-1.56-3.43-3.89-8.88-4.36-17.28s-0.78,4.52-0.78,4.52
	s1.86,27.09,0,29.27c-1.86,2.18-0.77,24.76-0.77,24.76l0.77,12.61c0,0,2.5-0.31,1.09,1.71s0.93,3.27-2.02,2.65
	c-2.96-0.62,1.71,3.11-0.78,5.29c-2.49,2.18-3.58,5.29-5.14,3.27c-1.56-2.02,0.93,6.23-1.25,8.56c-2.18,2.34-24.13,11.68-19.15,0.16
	c4.98-11.52,6.07-8.56,6.07-8.56s-1.05-5.37,0.33-4.79s1.95-4.56,3.76-3.83c1.81,0.72-5.5-4.48-2.82-4.99
	c2.68-0.51-7.88-66.17-6.29-66.61c1.59-0.43-9.63-6.11-9.16-7.79c0.47-1.68-0.84-24.97-1.68-26.74c-0.84-1.78-2.99-39.09-1.03-39
	c1.96,0.09-6.27-6.27-6.27-6.27s10.85-10.94,10.94-17.95c0.09-7.01,20.57-14.49,20.57-14.49s3.09-4.4,1.68-7.39
	c0,0-3.04-1.08-3.04-4.02s-5.55-24.34,6.11-23.24H1058.28z"/>
<path class="st3" d="M153.92,51.82c0.08,0,0.16,0,0.24,0c0.08,0,0.15,0,0.23,0c14.64,0.42,11.9,20.85,11.9,20.85
	s-0.67,5.97-4.04,5.77c0,0-0.58,6.83,5.68,8.66c6.26,1.83,15.78,6.16,17.52,9.91s9.24,13.57,9.24,17.71c0,4.14,2.69,6.45,2.69,6.45
	l-2.89,1.25c0,0,1.35,7.22,1.92,7.89c0.58,0.67,3.88,21.66,2.98,26.67s-2.82,18.86-2.57,23.1c0.26,4.23-1.03,12.83-5.77,12.45
	c0,0-4.83,5.15-7.32,3.84s-0.07,8.59-0.07,8.59s4.51,53.44,1.63,54.33c-2.88,0.89-0.1,2.18,0.3,2.98c0.4,0.79,1.99,5.86-0.79,5.26
	c-2.78-0.6,0.5,0.99,3.58,4.97c3.08,3.97,5.46,9.53,1.89,13.01c-3.58,3.48-8.94,2.58-8.94,2.58s-5.96-0.89-6.16-3.08
	c0,0-3.97-4.77-3.48-7.75c0,0-3.97-3.87-2.98-5.76c0.99-1.89-3.18,0.6-2.48-2.09c0.7-2.68-2.38-0.7-0.6-3.58
	c1.79-2.88-3.87-4.37-1.29-5.16c2.58-0.79-0.18-45.28-1.73-48.71c-1.56-3.43-3.89-8.88-4.36-17.28c-0.47-8.41-0.78,4.52-0.78,4.52
	s1.86,27.09,0,29.27c-1.86,2.18-0.77,24.76-0.77,24.76l0.77,12.61c0,0,2.5-0.31,1.1,1.71c-1.4,2.02,0.93,3.27-2.02,2.65
	c-2.96-0.62,1.71,3.11-0.78,5.29c-2.49,2.18-3.58,5.29-5.14,3.27c-1.56-2.02,0.93,6.23-1.25,8.56s-24.13,11.68-19.15,0.16
	c4.98-11.52,6.07-8.56,6.07-8.56s-1.05-5.37,0.33-4.79c1.37,0.58,1.95-4.56,3.76-3.83s-5.5-4.48-2.82-4.99
	c2.68-0.51-7.88-66.17-6.29-66.61c1.59-0.43-9.63-6.11-9.16-7.79s-0.84-24.97-1.68-26.74c-0.84-1.78-2.99-39.09-1.03-39
	c1.96,0.09-6.27-6.27-6.27-6.27s10.85-10.94,10.94-17.95c0.09-7.01,20.57-14.49,20.57-14.49s3.09-4.4,1.68-7.39
	c0,0-3.04-1.08-3.04-4.02c0-2.94-5.55-24.34,6.11-23.24H153.92z"/>
<path class="st1" d="M172.94,90.52c10.9,0.55,13.72,4.34,13.72,4.34s4.85,17.99,2.04,20.67c0,0-1.86,4.22-2.99,4.75
	c-1.12,0.53,1.55,4.36,1.55,4.36s26.27,10.12,26.27,11.6s8.37,30.39,8.86,30.88s2.76,58.33-3.09,58.98l-0.09,5.27
	c0,0-5.79,6.48-7.09,6.48c-1.3,0-1.47,33.62-0.43,34.48c1.04,0.86,5.85,18.36,5.85,18.36l2.65,45.04l-2.47,1.57l0.76,2.42
	c0,0,15.2,13.31-1.89,10.44c0,0-12.25-0.53-11.35-8.32l-0.3-1.94h-3.1l-6-48.12l-8.8-49.72l-0.96-0.19l6.88,95.81l-1.72,2.68
	c0,0,0.81,10.72-5.44,9.35c0,0-21.16,2.66-15.59-3.34c5.57-6,6.77-5.74,6.51-7.45c-0.26-1.71-0.4-2.13-0.4-2.13l-1.62-0.11
	c0,0-3.37-54.13-4.24-59.12c-0.87-4.99-9.78-35.01-9.78-35.01s-3.11,5.08-5.79,4.24c-2.68-0.85-6.64-0.85-7.06-4.24
	c-0.42-3.39,1.41-97.44,1.41-97.44l19.49-15.96c0,0,1.71-5.14,0.84-5.22c-0.87-0.07-3.14-3.66-3.7-5.7
	c-0.56-2.03-3.02-15.36-1.47-18.45C164.42,99.77,164.39,90.08,172.94,90.52z"/>
<g>
	<path class="st2" d="M98.31,40.04c0.08-0.01,0.16,0,0.24,0c12.67,0.21,12.49,9.27,12.49,9.27s0.68,7.48,0,8.17
		c-0.67,0.69-1.04,1.27-1.04,1.27s2.01,0.95,1.64,1.53c-0.37,0.58,0.11,2.54-0.58,2.69c0,0,0.75,3.94-1.87,2.81
		c0,0-1.74,1.02-0.64,1.27c1.11,0.25,3.95-1.19,4.33,0.12c0.38,1.31,4.5,12.18,6.48,12.07s1.43,2.81,1.43,2.81l6.11,3.03
		c0,0,4.51,3.91,4.46,5.45c-0.06,1.54,12.65,24.76,12.16,26.02c-0.5,1.27,2.31,28.44,1.1,29.6c-1.21,1.16,0.66,17.88,0,17.93
		c-0.66,0.06-10.73,14.45-12.27,14.39c-1.54-0.06-1.31,3.58-4.5,2.49c-3.19-1.1-3.72-2.3-3.72-2.3s-1.74,2.98-1.17,2.98
		c0.57,0,1.38,13.11,0.78,13.11s2.13,17.72-0.18,17.86c0,0,0.07,17.47-1.06,17.97c-1.12,0.5,6.92,21.63,4.99,23.25
		c0,0-0.37,9.1-2.06,9.1c-1.68,0,1.99,4.8,1.06,6.17c-0.94,1.37-0.79,4.7-2.5,3.34c-1.71-1.36,2.21,11.49-0.58,11.33
		c-2.79-0.16,9.08,15.33,3.61,16.73c-5.47,1.4-14.67,0.7-14.44-7.57c0,0-7.41-2.48-5.28-10.05c0,0-3.37-0.86-2.39-9.47l-2.76-1.32
		c0,0,0.52-3.68,1.78-4.54c1.26-0.86-1.55-2.41-1.55-2.41s-3.27-3.62-0.34-14.88c2.93-11.26-1.72-22.63-1.03-28.61
		c0.69-5.97-3.45-14.65-3.22-17.41c0.23-2.76-0.34-3.79-0.34-3.79l-1.21,0.4c0,0,1.21,9.31,0,9.88c-1.21,0.57-1.32,7.53-1.32,7.53
		s-2.07,18.61-3.79,18.61s1.03,30.1,1.95,30.04c0.92-0.06,0.17,2.64,0.17,2.64s1.44,0.11,0.63,1.32s-3.04,12.92-5,12.06
		c-1.95-0.86,0.46,2.81,0,3.16c-0.46,0.34-2.07,5.46-3.85,3.56c-1.78-1.9,0.92,4.37-0.63,6.26c-1.55,1.9-10.83,4.97-14.68-1.45
		c0,0-0.92-3.11,0-4.53c0.92-1.42,4.31-7.2,3.76-7.98s-0.78-6.33,0.32-8.2c1.1-1.88-5.27-9.58,0.73-12.15c0,0-2.11-3.07-2.06-4.4
		s1.19-27.27,0.78-28.42c-0.41-1.15-4.25-17.51-3.94-20.67c0.32-3.16,0.36-25.71,1.69-26.63s-0.88-0.32-1.25-3.04
		c-0.36-2.73-1.85,0.62-1.85-1.49s-2.16,4.99-3.19,1.7c-1.03-3.3-4.53-7.47-5.87-6.44c0,0-6.18-14.37-5.1-18.18
		c1.08-3.81,6.41-71.12,16.42-69.89c0,0,5.57,0.06,5.21-1.46c-0.35-1.52,0.88-13.47,4.16-13.53c3.28-0.06,9.2-1.17,9.2,0
		c0,1.17-0.63-6.21-0.63-6.21s-1.91-1.9-1.87-5.87c0.04-3.97,2.16-2.25,2.16-2.25s-0.5-7.16,1.61-9.27
		C92.11,43.43,91.49,40.99,98.31,40.04z"/>
</g>
<path class="st2" d="M118.36,78.43c0.08-0.01,0.16,0,0.24,0c12.67,0.21,12.49,9.27,12.49,9.27s0.68,7.48,0,8.17
	c-0.67,0.69-1.04,1.27-1.04,1.27s2.01,0.95,1.64,1.53s0.11,2.54-0.58,2.69c0,0,0.75,3.94-1.87,2.81c0,0-1.74,1.02-0.64,1.27
	c1.11,0.25,3.95-1.19,4.33,0.12c0.38,1.31,4.5,12.18,6.48,12.07c1.98-0.11,1.43,2.81,1.43,2.81l6.11,3.03c0,0,4.51,3.91,4.46,5.45
	c-0.06,1.54,12.65,24.76,12.16,26.02c-0.5,1.27,2.31,28.44,1.1,29.6c-1.21,1.16,0.66,17.88,0,17.93
	c-0.66,0.06-10.73,14.45-12.27,14.39c-1.54-0.06-1.31,3.58-4.5,2.49c-3.19-1.1-3.72-2.3-3.72-2.3s-1.74,2.98-1.17,2.98
	c0.57,0,1.38,13.11,0.78,13.11s2.13,17.72-0.18,17.86c0,0,0.07,17.47-1.06,17.97c-1.12,0.5,6.92,21.63,4.99,23.25
	c0,0-0.37,9.1-2.06,9.1c-1.68,0,1.99,4.8,1.06,6.17s-0.79,4.7-2.5,3.34c-1.71-1.36,2.21,11.49-0.58,11.33s9.08,15.33,3.61,16.73
	c-5.47,1.4-14.67,0.7-14.44-7.57c0,0-7.41-2.48-5.28-10.05c0,0-3.37-0.86-2.39-9.47l-2.76-1.32c0,0,0.52-3.68,1.78-4.54
	c1.26-0.86-1.55-2.41-1.55-2.41s-3.27-3.62-0.34-14.88c2.93-11.26-1.72-22.63-1.03-28.61c0.69-5.97-3.45-14.65-3.22-17.41
	c0.23-2.76-0.34-3.79-0.34-3.79l-1.21,0.4c0,0,1.21,9.31,0,9.88s-1.32,7.53-1.32,7.53s-2.07,18.61-3.79,18.61s1.03,30.1,1.95,30.04
	c0.92-0.06,0.17,2.64,0.17,2.64s1.44,0.11,0.63,1.32c-0.8,1.21-3.04,12.92-5,12.06c-1.95-0.86,0.46,2.81,0,3.16
	c-0.46,0.34-2.07,5.46-3.85,3.56s0.92,4.37-0.63,6.26c-1.55,1.9-10.83,4.97-14.68-1.45c0,0-0.92-3.11,0-4.53s4.31-7.2,3.76-7.98
	s-0.78-6.33,0.32-8.2c1.1-1.88-5.27-9.58,0.73-12.15c0,0-2.11-3.07-2.06-4.4s1.19-27.27,0.78-28.42
	c-0.41-1.15-4.25-17.51-3.94-20.67c0.32-3.16,0.36-25.71,1.69-26.63s-0.88-0.32-1.25-3.04c-0.36-2.73-1.85,0.62-1.85-1.49
	s-2.16,4.99-3.19,1.7s-4.53-7.47-5.87-6.44c0,0-6.18-14.37-5.1-18.18c1.08-3.81,6.41-71.12,16.42-69.89c0,0,5.57,0.06,5.21-1.46
	c-0.35-1.52,0.88-13.47,4.16-13.53c3.28-0.06,9.2-1.17,9.2,0c0,1.17-0.63-6.21-0.63-6.21s-1.91-1.9-1.87-5.87
	c0.04-3.97,2.16-2.25,2.16-2.25s-0.5-7.16,1.61-9.27C112.16,81.82,111.53,79.38,118.36,78.43z"/>
<path class="st3" d="M67.5,109.24c0.08,0,0.16,0,0.24,0c0.08,0,0.15,0,0.23,0c14.64,0.42,11.9,20.85,11.9,20.85
	s-0.67,5.97-4.04,5.77c0,0-0.58,6.83,5.68,8.66s15.78,6.16,17.52,9.91c1.73,3.75,9.24,13.57,9.24,17.71c0,4.14,2.69,6.45,2.69,6.45
	l-2.89,1.25c0,0,1.35,7.22,1.92,7.89s3.88,21.66,2.98,26.67s-2.82,18.86-2.57,23.1c0.26,4.23-1.03,12.83-5.77,12.45
	c0,0-4.83,5.15-7.32,3.84c-2.49-1.31-0.07,8.59-0.07,8.59s4.51,53.44,1.63,54.33c-2.88,0.89-0.1,2.18,0.3,2.98s1.99,5.86-0.79,5.26
	c-2.78-0.6,0.5,0.99,3.58,4.97s5.46,9.53,1.89,13.01s-8.94,2.58-8.94,2.58s-5.96-0.89-6.16-3.08c0,0-3.97-4.77-3.48-7.75
	c0,0-3.97-3.87-2.98-5.76c0.99-1.89-3.18,0.6-2.48-2.09c0.7-2.68-2.38-0.7-0.6-3.58c1.79-2.88-3.87-4.37-1.29-5.16
	s-0.18-45.28-1.73-48.71c-1.56-3.43-3.89-8.88-4.36-17.28c-0.47-8.41-0.78,4.52-0.78,4.52s1.86,27.09,0,29.27
	c-1.86,2.18-0.77,24.76-0.77,24.76l0.77,12.61c0,0,2.5-0.31,1.1,1.71c-1.4,2.02,0.93,3.27-2.02,2.65c-2.96-0.62,1.71,3.11-0.78,5.29
	c-2.49,2.18-3.58,5.29-5.14,3.27c-1.56-2.02,0.93,6.23-1.25,8.56c-2.18,2.34-24.13,11.68-19.15,0.16c4.98-11.52,6.07-8.56,6.07-8.56
	s-1.05-5.37,0.33-4.79c1.37,0.58,1.95-4.56,3.76-3.83c1.81,0.72-5.5-4.48-2.82-4.99c2.68-0.51-7.88-66.17-6.29-66.61
	c1.59-0.43-9.63-6.11-9.16-7.79S34.84,223.37,34,221.6s-2.99-39.09-1.03-39c1.96,0.09-6.27-6.27-6.27-6.27s10.85-10.94,10.94-17.95
	c0.09-7.01,20.57-14.49,20.57-14.49s3.09-4.4,1.68-7.39c0,0-3.04-1.08-3.04-4.02s-5.55-24.34,6.11-23.24H67.5z"/>
<path class="st3" d="M338.95,41.35c0.08,0,0.16,0,0.24,0c0.08,0,0.15,0,0.23,0c14.64,0.42,11.9,20.85,11.9,20.85
	s-0.67,5.97-4.04,5.77c0,0-0.58,6.83,5.68,8.66c6.26,1.83,15.78,6.16,17.52,9.91c1.73,3.75,9.24,13.57,9.24,17.71
	c0,4.14,2.69,6.45,2.69,6.45l-2.89,1.25c0,0,1.35,7.22,1.92,7.89c0.58,0.67,3.88,21.66,2.98,26.67s-2.82,18.86-2.57,23.1
	c0.26,4.23-1.03,12.83-5.77,12.45c0,0-4.83,5.15-7.32,3.84c-2.49-1.31-0.07,8.59-0.07,8.59s4.51,53.44,1.63,54.33
	c-2.88,0.89-0.1,2.18,0.3,2.98c0.4,0.79,1.99,5.86-0.79,5.26c-2.78-0.6,0.5,0.99,3.58,4.97c3.08,3.97,5.46,9.53,1.89,13.01
	s-8.94,2.58-8.94,2.58s-5.96-0.89-6.16-3.08c0,0-3.97-4.77-3.48-7.75c0,0-3.97-3.87-2.98-5.76c0.99-1.89-3.18,0.6-2.48-2.09
	s-2.38-0.7-0.6-3.58c1.79-2.88-3.87-4.37-1.29-5.16c2.58-0.79-0.18-45.28-1.73-48.71s-3.89-8.88-4.36-17.28
	c-0.47-8.41-0.78,4.52-0.78,4.52s1.86,27.09,0,29.27c-1.86,2.18-0.77,24.76-0.77,24.76l0.77,12.61c0,0,2.5-0.31,1.1,1.71
	c-1.4,2.02,0.93,3.27-2.02,2.65c-2.96-0.62,1.71,3.11-0.78,5.29s-3.58,5.29-5.14,3.27c-1.56-2.02,0.93,6.23-1.25,8.56
	c-2.18,2.34-24.13,11.68-19.15,0.16s6.07-8.56,6.07-8.56s-1.05-5.37,0.33-4.79c1.37,0.58,1.95-4.56,3.76-3.83s-5.5-4.48-2.82-4.99
	s-7.88-66.17-6.29-66.61c1.59-0.43-9.63-6.11-9.16-7.79c0.47-1.68-0.84-24.97-1.68-26.74s-2.99-39.09-1.03-39
	c1.96,0.09-6.27-6.27-6.27-6.27s10.85-10.94,10.94-17.95C309.19,83.48,329.67,76,329.67,76s3.09-4.4,1.68-7.39
	c0,0-3.04-1.08-3.04-4.02c0-2.94-5.55-24.34,6.11-23.24H338.95z"/>
<path class="st1" d="M357.98,80.04c10.9,0.55,13.72,4.34,13.72,4.34s4.85,17.99,2.04,20.67c0,0-1.86,4.22-2.99,4.75
	c-1.12,0.53,1.55,4.36,1.55,4.36s26.27,10.12,26.27,11.6c0,1.48,8.37,30.39,8.86,30.88c0.49,0.49,2.76,58.33-3.09,58.98l-0.09,5.27
	c0,0-5.79,6.48-7.09,6.48c-1.3,0-1.47,33.62-0.43,34.48c1.04,0.86,5.85,18.36,5.85,18.36l2.65,45.04l-2.47,1.57l0.76,2.42
	c0,0,15.2,13.31-1.89,10.44c0,0-12.25-0.53-11.35-8.32l-0.3-1.94h-3.1l-6-48.12l-8.8-49.72l-0.96-0.19l6.88,95.81l-1.72,2.68
	c0,0,0.81,10.72-5.44,9.35c0,0-21.16,2.66-15.59-3.34c5.57-6,6.77-5.74,6.51-7.45c-0.26-1.71-0.4-2.13-0.4-2.13l-1.62-0.11
	c0,0-3.37-54.13-4.24-59.12c-0.87-4.99-9.78-35.01-9.78-35.01s-3.11,5.08-5.79,4.24s-6.64-0.85-7.06-4.24
	c-0.42-3.39,1.41-97.44,1.41-97.44l19.49-15.96c0,0,1.71-5.14,0.84-5.22s-3.14-3.66-3.7-5.7c-0.56-2.03-3.02-15.36-1.47-18.45
	C349.46,89.3,349.42,79.61,357.98,80.04z"/>
<g>
	<path class="st2" d="M283.35,29.57c0.08-0.01,0.16,0,0.24,0c12.67,0.21,12.49,9.27,12.49,9.27s0.68,7.48,0,8.17
		c-0.67,0.69-1.04,1.27-1.04,1.27s2.01,0.95,1.64,1.53c-0.37,0.58,0.11,2.54-0.58,2.69c0,0,0.75,3.94-1.87,2.81
		c0,0-1.74,1.02-0.64,1.27s3.95-1.19,4.33,0.12s4.5,12.18,6.48,12.07s1.43,2.81,1.43,2.81l6.11,3.03c0,0,4.51,3.91,4.46,5.45
		s12.65,24.76,12.16,26.02c-0.5,1.27,2.31,28.44,1.1,29.6s0.66,17.88,0,17.93c-0.66,0.06-10.73,14.45-12.27,14.39
		c-1.54-0.06-1.31,3.58-4.5,2.49s-3.72-2.3-3.72-2.3s-1.74,2.98-1.17,2.98c0.57,0,1.38,13.11,0.78,13.11
		c-0.6,0,2.13,17.72-0.18,17.86c0,0,0.07,17.47-1.06,17.97c-1.12,0.5,6.92,21.63,4.99,23.25c0,0-0.37,9.1-2.06,9.1
		s1.99,4.8,1.06,6.17s-0.79,4.7-2.5,3.34c-1.71-1.36,2.21,11.49-0.58,11.33c-2.79-0.16,9.08,15.33,3.61,16.73
		c-5.47,1.4-14.67,0.7-14.44-7.57c0,0-7.41-2.48-5.28-10.05c0,0-3.37-0.86-2.39-9.47l-2.76-1.32c0,0,0.52-3.68,1.78-4.54
		s-1.55-2.41-1.55-2.41s-3.27-3.62-0.34-14.88c2.93-11.26-1.72-22.63-1.03-28.61c0.69-5.97-3.45-14.65-3.22-17.41
		c0.23-2.76-0.34-3.79-0.34-3.79l-1.21,0.4c0,0,1.21,9.31,0,9.88c-1.21,0.57-1.32,7.53-1.32,7.53s-2.07,18.61-3.79,18.61
		c-1.72,0,1.03,30.1,1.95,30.04c0.92-0.06,0.17,2.64,0.17,2.64s1.44,0.11,0.63,1.32c-0.8,1.21-3.04,12.92-5,12.06
		c-1.95-0.86,0.46,2.81,0,3.16c-0.46,0.34-2.07,5.46-3.85,3.56c-1.78-1.9,0.92,4.37-0.63,6.26c-1.55,1.9-10.83,4.97-14.68-1.45
		c0,0-0.92-3.11,0-4.53c0.92-1.42,4.31-7.2,3.76-7.98c-0.55-0.78-0.78-6.33,0.32-8.2c1.1-1.88-5.27-9.58,0.73-12.15
		c0,0-2.11-3.07-2.06-4.4c0.05-1.33,1.19-27.27,0.78-28.42c-0.41-1.15-4.25-17.51-3.94-20.67c0.32-3.16,0.36-25.71,1.69-26.63
		c1.33-0.92-0.88-0.32-1.25-3.04c-0.36-2.73-1.85,0.62-1.85-1.49c0-2.11-2.16,4.99-3.19,1.7c-1.03-3.3-4.53-7.47-5.87-6.44
		c0,0-6.18-14.37-5.1-18.18c1.08-3.81,6.41-71.12,16.42-69.89c0,0,5.57,0.06,5.21-1.46s0.88-13.47,4.16-13.53
		c3.28-0.06,9.2-1.17,9.2,0s-0.63-6.21-0.63-6.21s-1.91-1.9-1.87-5.87c0.04-3.97,2.16-2.25,2.16-2.25s-0.5-7.16,1.61-9.27
		C277.15,32.96,276.52,30.52,283.35,29.57z"/>
</g>
<path class="st2" d="M303.4,67.96c0.08-0.01,0.16,0,0.24,0c12.67,0.21,12.49,9.27,12.49,9.27s0.67,7.48,0,8.17
	c-0.67,0.69-1.04,1.27-1.04,1.27s2.01,0.95,1.64,1.53s0.11,2.54-0.58,2.69c0,0,0.75,3.94-1.87,2.81c0,0-1.74,1.02-0.64,1.27
	c1.11,0.25,3.95-1.19,4.33,0.12c0.38,1.31,4.5,12.18,6.48,12.07s1.43,2.81,1.43,2.81l6.11,3.03c0,0,4.51,3.91,4.46,5.45
	c-0.06,1.54,12.65,24.76,12.16,26.02c-0.5,1.27,2.31,28.44,1.1,29.6c-1.21,1.16,0.66,17.88,0,17.93
	c-0.66,0.06-10.73,14.45-12.27,14.39c-1.54-0.06-1.31,3.58-4.5,2.49s-3.72-2.3-3.72-2.3s-1.74,2.98-1.17,2.98s1.38,13.11,0.78,13.11
	c-0.6,0,2.13,17.72-0.18,17.86c0,0,0.07,17.47-1.06,17.97c-1.12,0.5,6.92,21.63,4.99,23.25c0,0-0.37,9.1-2.06,9.1
	s1.99,4.8,1.06,6.17s-0.79,4.7-2.5,3.34c-1.71-1.36,2.21,11.49-0.58,11.33s9.08,15.33,3.61,16.73c-5.47,1.4-14.67,0.7-14.44-7.57
	c0,0-7.41-2.48-5.28-10.05c0,0-3.37-0.86-2.39-9.47l-2.76-1.32c0,0,0.52-3.68,1.78-4.54c1.26-0.86-1.55-2.41-1.55-2.41
	s-3.27-3.62-0.34-14.88c2.93-11.26-1.72-22.63-1.03-28.61c0.69-5.97-3.45-14.65-3.22-17.41c0.23-2.76-0.34-3.79-0.34-3.79l-1.21,0.4
	c0,0,1.21,9.31,0,9.88c-1.21,0.57-1.32,7.53-1.32,7.53s-2.07,18.61-3.79,18.61s1.03,30.1,1.95,30.04s0.17,2.64,0.17,2.64
	s1.44,0.11,0.63,1.32c-0.8,1.21-3.04,12.92-5,12.06c-1.95-0.86,0.46,2.81,0,3.16c-0.46,0.34-2.07,5.46-3.85,3.56
	c-1.78-1.9,0.92,4.37-0.63,6.26c-1.55,1.9-10.83,4.97-14.68-1.45c0,0-0.92-3.11,0-4.53s4.31-7.2,3.76-7.98
	c-0.55-0.78-0.78-6.33,0.32-8.2s-5.27-9.58,0.73-12.15c0,0-2.11-3.07-2.06-4.4s1.19-27.27,0.78-28.42
	c-0.41-1.15-4.25-17.51-3.94-20.67c0.32-3.16,0.36-25.71,1.69-26.63c1.33-0.92-0.88-0.32-1.25-3.04c-0.36-2.73-1.85,0.62-1.85-1.49
	c0-2.11-2.16,4.99-3.19,1.7c-1.03-3.3-4.53-7.47-5.87-6.44c0,0-6.18-14.37-5.1-18.18s6.41-71.12,16.42-69.89
	c0,0,5.57,0.06,5.21-1.46s0.88-13.47,4.16-13.53c3.28-0.06,9.2-1.17,9.2,0c0,1.17-0.63-6.21-0.63-6.21s-1.91-1.9-1.87-5.87
	c0.04-3.97,2.16-2.25,2.16-2.25s-0.5-7.16,1.61-9.27C297.19,71.35,296.57,68.91,303.4,67.96z"/>
<path class="st3" d="M252.53,98.77c0.08,0,0.16,0,0.24,0c0.08,0,0.15,0,0.23,0c14.64,0.42,11.9,20.85,11.9,20.85
	s-0.67,5.97-4.04,5.77c0,0-0.58,6.83,5.68,8.66c6.26,1.83,15.78,6.16,17.52,9.91c1.73,3.75,9.24,13.57,9.24,17.71
	s2.69,6.45,2.69,6.45l-2.89,1.25c0,0,1.35,7.22,1.92,7.89s3.88,21.66,2.98,26.67c-0.9,5-2.82,18.86-2.57,23.1
	c0.26,4.23-1.03,12.83-5.77,12.45c0,0-4.83,5.15-7.32,3.84s-0.07,8.59-0.07,8.59s4.51,53.44,1.63,54.33
	c-2.88,0.89-0.1,2.18,0.3,2.98c0.4,0.79,1.99,5.86-0.79,5.26c-2.78-0.6,0.5,0.99,3.58,4.97c3.08,3.97,5.46,9.53,1.89,13.01
	c-3.58,3.48-8.94,2.58-8.94,2.58s-5.96-0.89-6.16-3.08c0,0-3.97-4.77-3.48-7.75c0,0-3.97-3.87-2.98-5.76
	c0.99-1.89-3.18,0.6-2.48-2.09c0.7-2.68-2.38-0.7-0.6-3.58c1.79-2.88-3.87-4.37-1.29-5.16c2.58-0.79-0.18-45.28-1.73-48.71
	c-1.56-3.43-3.89-8.88-4.36-17.28c-0.47-8.41-0.78,4.52-0.78,4.52s1.86,27.09,0,29.27s-0.77,24.76-0.77,24.76l0.77,12.61
	c0,0,2.5-0.31,1.1,1.71c-1.4,2.02,0.93,3.27-2.02,2.65s1.71,3.11-0.78,5.29c-2.49,2.18-3.58,5.29-5.14,3.27
	c-1.56-2.02,0.93,6.23-1.25,8.56s-24.13,11.68-19.15,0.16c4.98-11.52,6.07-8.56,6.07-8.56s-1.05-5.37,0.33-4.79
	c1.37,0.58,1.95-4.56,3.76-3.83s-5.5-4.48-2.82-4.99c2.68-0.51-7.88-66.17-6.29-66.61c1.59-0.43-9.63-6.11-9.16-7.79
	c0.47-1.68-0.84-24.97-1.68-26.74c-0.84-1.78-2.99-39.09-1.03-39c1.96,0.09-6.27-6.27-6.27-6.27s10.85-10.94,10.94-17.95
	c0.09-7.01,20.57-14.49,20.57-14.49s3.09-4.4,1.68-7.39c0,0-3.04-1.08-3.04-4.02s-5.55-24.34,6.11-23.24H252.53z"/>
<path class="st3" d="M137.42,224.03c0.08,0,0.16,0,0.24,0c0.08,0,0.15,0,0.23,0c14.64,0.42,11.9,20.85,11.9,20.85
	s-0.67,5.97-4.04,5.77c0,0-0.58,6.83,5.68,8.66c6.26,1.83,15.78,6.16,17.52,9.91c1.73,3.75,9.24,13.57,9.24,17.71
	s2.69,6.45,2.69,6.45l-2.89,1.25c0,0,1.35,7.22,1.92,7.89c0.58,0.67,3.88,21.66,2.98,26.67c-0.9,5-2.82,18.86-2.57,23.1
	c0.26,4.23-1.03,12.83-5.77,12.45c0,0-4.83,5.15-7.32,3.84c-2.49-1.31-0.07,8.59-0.07,8.59s4.51,53.44,1.63,54.33
	c-2.88,0.89-0.1,2.18,0.3,2.98c0.4,0.79,1.99,5.86-0.79,5.26c-2.78-0.6,0.5,0.99,3.58,4.97c3.08,3.97,5.46,9.53,1.89,13.01
	c-3.58,3.48-8.94,2.58-8.94,2.58s-5.96-0.89-6.16-3.08c0,0-3.97-4.77-3.48-7.75c0,0-3.97-3.87-2.98-5.76s-3.18,0.6-2.48-2.09
	c0.7-2.68-2.38-0.7-0.6-3.58c1.79-2.88-3.87-4.37-1.29-5.16c2.58-0.79-0.18-45.28-1.73-48.71c-1.56-3.43-3.89-8.88-4.36-17.28
	c-0.47-8.41-0.78,4.52-0.78,4.52s1.86,27.09,0,29.27c-1.86,2.18-0.77,24.76-0.77,24.76l0.77,12.61c0,0,2.5-0.31,1.1,1.71
	c-1.4,2.02,0.93,3.27-2.02,2.65c-2.96-0.62,1.71,3.11-0.78,5.29c-2.49,2.18-3.58,5.29-5.14,3.27s0.93,6.23-1.25,8.56
	c-2.18,2.34-24.13,11.68-19.15,0.16c4.98-11.52,6.07-8.56,6.07-8.56s-1.05-5.37,0.33-4.79c1.37,0.58,1.95-4.56,3.76-3.83
	c1.81,0.72-5.5-4.48-2.82-4.99s-7.88-66.17-6.29-66.61c1.59-0.43-9.63-6.11-9.16-7.79c0.47-1.68-0.84-24.97-1.68-26.74
	c-0.84-1.78-2.99-39.09-1.03-39c1.96,0.09-6.27-6.27-6.27-6.27s10.85-10.94,10.94-17.95c0.09-7.01,20.57-14.49,20.57-14.49
	s3.09-4.4,1.68-7.39c0,0-3.04-1.08-3.04-4.02s-5.55-24.34,6.11-23.24H137.42z"/>
<path class="st1" d="M192.73,143.04c10.9,0.55,13.72,4.34,13.72,4.34s4.85,17.99,2.04,20.67c0,0-1.86,4.22-2.99,4.75
	s1.55,4.36,1.55,4.36s26.27,10.12,26.27,11.6c0,1.48,8.37,30.39,8.86,30.88c0.49,0.49,2.76,58.33-3.09,58.98l-0.09,5.27
	c0,0-5.79,6.48-7.09,6.48s-1.47,33.62-0.43,34.48c1.04,0.86,5.85,18.36,5.85,18.36l2.65,45.04l-2.47,1.57l0.76,2.42
	c0,0,15.2,13.31-1.89,10.44c0,0-12.25-0.53-11.35-8.32l-0.3-1.94h-3.1l-6-48.12l-8.8-49.72l-0.96-0.19l6.88,95.81l-1.72,2.68
	c0,0,0.81,10.72-5.44,9.35c0,0-21.16,2.66-15.59-3.34s6.77-5.74,6.51-7.45c-0.26-1.71-0.4-2.13-0.4-2.13l-1.62-0.11
	c0,0-3.37-54.13-4.24-59.12c-0.87-4.99-9.78-35.01-9.78-35.01s-3.11,5.08-5.79,4.24c-2.68-0.85-6.64-0.85-7.06-4.24
	c-0.42-3.39,1.41-97.44,1.41-97.44l19.49-15.96c0,0,1.71-5.14,0.84-5.22c-0.87-0.07-3.14-3.66-3.7-5.7
	c-0.56-2.03-3.02-15.36-1.47-18.45C184.21,152.29,184.17,142.61,192.73,143.04z"/>
<path class="st3" d="M81.57,254.5c0.08,0,0.16,0,0.24,0c0.08,0,0.15,0,0.23,0c14.64,0.42,11.9,20.85,11.9,20.85
	s-0.67,5.97-4.04,5.77c0,0-0.58,6.83,5.68,8.66s15.78,6.16,17.52,9.91c1.73,3.75,9.24,13.57,9.24,17.71s2.69,6.45,2.69,6.45
	l-2.89,1.25c0,0,1.35,7.22,1.92,7.89c0.58,0.67,3.88,21.66,2.98,26.67c-0.9,5-2.82,18.86-2.57,23.1c0.26,4.23-1.03,12.83-5.77,12.45
	c0,0-4.83,5.15-7.32,3.84c-2.49-1.31-0.07,8.59-0.07,8.59s4.51,53.44,1.63,54.33c-2.88,0.89-0.1,2.18,0.3,2.98
	c0.4,0.79,1.99,5.86-0.79,5.26c-2.78-0.6,0.5,0.99,3.58,4.97s5.46,9.53,1.89,13.01s-8.94,2.58-8.94,2.58s-5.96-0.89-6.16-3.08
	c0,0-3.97-4.77-3.48-7.75c0,0-3.97-3.87-2.98-5.76c0.99-1.89-3.18,0.6-2.48-2.09s-2.38-0.7-0.6-3.58c1.79-2.88-3.87-4.37-1.29-5.16
	s-0.18-45.28-1.73-48.71c-1.56-3.43-3.89-8.88-4.36-17.28s-0.78,4.52-0.78,4.52s1.86,27.09,0,29.27
	c-1.86,2.18-0.77,24.76-0.77,24.76l0.77,12.61c0,0,2.5-0.31,1.1,1.71c-1.4,2.02,0.93,3.27-2.02,2.65s1.71,3.11-0.78,5.29
	c-2.49,2.18-3.58,5.29-5.14,3.27c-1.56-2.02,0.93,6.23-1.25,8.56c-2.18,2.34-24.13,11.68-19.15,0.16s6.07-8.56,6.07-8.56
	s-1.05-5.37,0.33-4.79c1.37,0.58,1.95-4.56,3.76-3.83c1.81,0.72-5.5-4.48-2.82-4.99c2.68-0.51-7.88-66.17-6.29-66.61
	c1.59-0.43-9.63-6.11-9.16-7.79c0.47-1.68-0.84-24.97-1.68-26.74c-0.84-1.78-2.99-39.09-1.03-39c1.96,0.09-6.27-6.27-6.27-6.27
	s10.85-10.94,10.94-17.95s20.57-14.49,20.57-14.49s3.09-4.4,1.68-7.39c0,0-3.04-1.08-3.04-4.02c0-2.94-5.55-24.34,6.11-23.24H81.57z
	"/>
<path class="st2" d="M277.06,115.14c0.08-0.01,0.16,0,0.24,0c12.67,0.21,12.49,9.27,12.49,9.27s0.68,7.48,0,8.17
	s-1.04,1.27-1.04,1.27s2.01,0.95,1.64,1.53s0.11,2.54-0.58,2.69c0,0,0.75,3.94-1.87,2.81c0,0-1.74,1.02-0.64,1.27
	c1.11,0.25,3.95-1.19,4.33,0.12s4.5,12.18,6.48,12.07s1.43,2.81,1.43,2.81l6.11,3.03c0,0,4.51,3.91,4.46,5.45
	c-0.05,1.54,12.65,24.76,12.16,26.02c-0.5,1.27,2.31,28.44,1.1,29.6c-1.21,1.16,0.66,17.88,0,17.93
	c-0.66,0.06-10.73,14.45-12.27,14.39c-1.54-0.06-1.31,3.58-4.5,2.49c-3.19-1.1-3.72-2.3-3.72-2.3s-1.74,2.98-1.17,2.98
	s1.38,13.11,0.78,13.11c-0.6,0,2.13,17.72-0.18,17.86c0,0,0.07,17.47-1.06,17.97c-1.12,0.5,6.92,21.63,4.99,23.25
	c0,0-0.37,9.1-2.06,9.1s1.99,4.8,1.06,6.17s-0.79,4.7-2.5,3.34c-1.71-1.36,2.21,11.49-0.58,11.33c-2.79-0.16,9.08,15.33,3.61,16.73
	c-5.47,1.4-14.67,0.7-14.44-7.57c0,0-7.41-2.48-5.28-10.05c0,0-3.37-0.86-2.39-9.47l-2.76-1.32c0,0,0.52-3.68,1.78-4.54
	c1.26-0.86-1.55-2.41-1.55-2.41s-3.27-3.62-0.34-14.88s-1.72-22.63-1.03-28.61c0.69-5.97-3.45-14.65-3.22-17.41
	c0.23-2.76-0.34-3.79-0.34-3.79l-1.21,0.4c0,0,1.21,9.31,0,9.88c-1.21,0.57-1.32,7.53-1.32,7.53s-2.07,18.61-3.79,18.61
	c-1.72,0,1.03,30.1,1.95,30.04c0.92-0.06,0.17,2.64,0.17,2.64s1.44,0.11,0.63,1.32c-0.8,1.21-3.04,12.92-5,12.06
	c-1.95-0.86,0.46,2.81,0,3.16c-0.46,0.34-2.07,5.46-3.85,3.56s0.92,4.37-0.63,6.26c-1.55,1.9-10.83,4.97-14.68-1.45
	c0,0-0.92-3.11,0-4.53s4.31-7.2,3.76-7.98c-0.55-0.78-0.78-6.33,0.32-8.2c1.1-1.88-5.27-9.58,0.73-12.15c0,0-2.11-3.07-2.06-4.4
	c0.05-1.33,1.19-27.27,0.78-28.42s-4.25-17.51-3.94-20.67c0.32-3.16,0.36-25.71,1.69-26.63c1.33-0.92-0.88-0.32-1.25-3.04
	c-0.36-2.73-1.85,0.62-1.85-1.49s-2.16,4.99-3.19,1.7c-1.03-3.3-4.53-7.47-5.87-6.44c0,0-6.18-14.37-5.1-18.18
	c1.08-3.81,6.41-71.12,16.42-69.89c0,0,5.57,0.06,5.21-1.46s0.88-13.47,4.16-13.53c3.28-0.06,9.2-1.17,9.2,0
	c0,1.17-0.63-6.21-0.63-6.21s-1.91-1.9-1.87-5.87c0.04-3.97,2.16-2.25,2.16-2.25s-0.5-7.16,1.61-9.27
	C270.85,118.54,270.23,116.09,277.06,115.14z"/>
<path class="st1" d="M420.06,65.11c10.9,0.55,13.72,4.34,13.72,4.34s4.85,17.99,2.04,20.67c0,0-1.86,4.22-2.99,4.75
	c-1.12,0.53,1.55,4.36,1.55,4.36s26.27,10.12,26.27,11.6c0,1.48,8.37,30.39,8.86,30.88c0.49,0.49,2.76,58.33-3.09,58.98l-0.09,5.27
	c0,0-5.79,6.48-7.09,6.48c-1.3,0-1.47,33.62-0.43,34.48s5.85,18.36,5.85,18.36l2.65,45.04l-2.47,1.57l0.76,2.42
	c0,0,15.2,13.31-1.89,10.44c0,0-12.25-0.53-11.35-8.32l-0.3-1.94h-3.1l-6-48.12l-8.8-49.72l-0.96-0.19l6.88,95.81l-1.72,2.68
	c0,0,0.81,10.72-5.44,9.35c0,0-21.16,2.66-15.59-3.34c5.57-6,6.77-5.74,6.51-7.45c-0.26-1.71-0.4-2.13-0.4-2.13l-1.62-0.11
	c0,0-3.37-54.13-4.24-59.12c-0.87-4.99-9.78-35.01-9.78-35.01s-3.11,5.08-5.79,4.24s-6.64-0.85-7.06-4.24
	c-0.42-3.39,1.41-97.44,1.41-97.44l19.49-15.96c0,0,1.71-5.14,0.84-5.22c-0.87-0.07-3.14-3.66-3.7-5.7
	c-0.56-2.03-3.02-15.36-1.47-18.45C411.54,74.36,411.5,64.68,420.06,65.11z"/>
<path class="st2" d="M386.76,121.01c0.08-0.01,0.16,0,0.24,0c12.67,0.21,12.49,9.27,12.49,9.27s0.68,7.48,0,8.17
	c-0.67,0.69-1.04,1.27-1.04,1.27s2.01,0.95,1.64,1.53s0.11,2.54-0.58,2.69c0,0,0.75,3.94-1.87,2.81c0,0-1.74,1.02-0.64,1.27
	c1.11,0.25,3.95-1.19,4.33,0.12s4.5,12.18,6.48,12.07s1.43,2.81,1.43,2.81l6.11,3.03c0,0,4.51,3.91,4.46,5.45
	c-0.06,1.54,12.65,24.76,12.16,26.02c-0.5,1.27,2.31,28.44,1.1,29.6s0.66,17.88,0,17.93c-0.66,0.06-10.73,14.45-12.27,14.39
	c-1.54-0.06-1.31,3.58-4.5,2.49s-3.72-2.3-3.72-2.3s-1.74,2.98-1.17,2.98c0.57,0,1.38,13.11,0.78,13.11
	c-0.6,0,2.13,17.72-0.18,17.86c0,0,0.07,17.47-1.06,17.97c-1.12,0.5,6.92,21.63,4.99,23.25c0,0-0.37,9.1-2.06,9.1
	c-1.68,0,1.99,4.8,1.06,6.17s-0.79,4.7-2.5,3.34c-1.71-1.36,2.21,11.49-0.58,11.33s9.08,15.33,3.61,16.73
	c-5.47,1.4-14.67,0.7-14.44-7.57c0,0-7.41-2.48-5.28-10.05c0,0-3.37-0.86-2.39-9.47l-2.76-1.32c0,0,0.52-3.68,1.78-4.54
	c1.26-0.86-1.55-2.41-1.55-2.41s-3.27-3.62-0.34-14.88c2.93-11.26-1.72-22.63-1.03-28.61c0.69-5.97-3.45-14.65-3.22-17.41
	c0.23-2.76-0.34-3.79-0.34-3.79l-1.21,0.4c0,0,1.21,9.31,0,9.88c-1.21,0.57-1.32,7.53-1.32,7.53s-2.07,18.61-3.79,18.61
	c-1.72,0,1.03,30.1,1.95,30.04s0.17,2.64,0.17,2.64s1.44,0.11,0.63,1.32c-0.8,1.21-3.04,12.92-5,12.06c-1.95-0.86,0.46,2.81,0,3.16
	c-0.46,0.34-2.07,5.46-3.85,3.56c-1.78-1.9,0.92,4.37-0.63,6.26c-1.55,1.9-10.83,4.97-14.68-1.45c0,0-0.92-3.11,0-4.53
	s4.31-7.2,3.76-7.98s-0.78-6.33,0.32-8.2c1.1-1.88-5.27-9.58,0.73-12.15c0,0-2.11-3.07-2.06-4.4c0.05-1.33,1.19-27.27,0.78-28.42
	c-0.41-1.15-4.25-17.51-3.94-20.67s0.36-25.71,1.69-26.63c1.33-0.92-0.88-0.32-1.25-3.04c-0.36-2.73-1.85,0.62-1.85-1.49
	c0-2.11-2.16,4.99-3.19,1.7s-4.53-7.47-5.87-6.44c0,0-6.18-14.37-5.1-18.18c1.08-3.81,6.41-71.12,16.42-69.89
	c0,0,5.57,0.06,5.21-1.46c-0.35-1.52,0.88-13.47,4.16-13.53c3.28-0.06,9.2-1.17,9.2,0s-0.63-6.21-0.63-6.21s-1.91-1.9-1.87-5.87
	c0.04-3.97,2.16-2.25,2.16-2.25s-0.5-7.16,1.61-9.27C380.56,124.4,379.93,121.96,386.76,121.01z"/>
<path class="st1" d="M332.22,169.86c10.9,0.55,13.72,4.34,13.72,4.34s4.85,17.99,2.04,20.67c0,0-1.86,4.22-2.99,4.75
	s1.55,4.36,1.55,4.36s26.27,10.12,26.27,11.6c0,1.48,8.37,30.39,8.86,30.88c0.49,0.49,2.76,58.33-3.09,58.98l-0.09,5.27
	c0,0-5.79,6.48-7.09,6.48s-1.47,33.62-0.43,34.48s5.85,18.36,5.85,18.36l2.65,45.04l-2.47,1.57l0.76,2.42c0,0,15.2,13.31-1.89,10.44
	c0,0-12.25-0.53-11.35-8.32l-0.3-1.94h-3.1l-6-48.12l-8.8-49.72l-0.96-0.19l6.88,95.81l-1.72,2.68c0,0,0.81,10.72-5.44,9.35
	c0,0-21.16,2.66-15.59-3.34c5.57-6,6.77-5.74,6.51-7.45c-0.26-1.71-0.4-2.13-0.4-2.13l-1.62-0.11c0,0-3.37-54.13-4.24-59.12
	c-0.87-4.99-9.78-35.01-9.78-35.01s-3.11,5.08-5.79,4.24c-2.68-0.85-6.64-0.85-7.06-4.24c-0.42-3.39,1.41-97.44,1.41-97.44
	l19.49-15.96c0,0,1.71-5.14,0.84-5.22c-0.87-0.07-3.14-3.66-3.7-5.7s-3.02-15.36-1.47-18.45
	C323.7,179.12,323.66,169.43,332.22,169.86z"/>
<path class="st3" d="M236.08,202.27c0.08,0,0.16,0,0.24,0c0.08,0,0.15,0,0.23,0c14.64,0.42,11.9,20.85,11.9,20.85
	s-0.67,5.97-4.04,5.77c0,0-0.58,6.83,5.68,8.66c6.26,1.83,15.78,6.16,17.52,9.91c1.73,3.75,9.24,13.57,9.24,17.71
	c0,4.14,2.69,6.45,2.69,6.45l-2.89,1.25c0,0,1.35,7.22,1.92,7.89c0.58,0.67,3.88,21.66,2.98,26.67s-2.82,18.86-2.57,23.1
	s-1.03,12.83-5.77,12.45c0,0-4.83,5.15-7.32,3.84c-2.49-1.31-0.07,8.59-0.07,8.59s4.51,53.44,1.63,54.33
	c-2.88,0.89-0.1,2.18,0.3,2.98c0.4,0.79,1.99,5.86-0.79,5.26c-2.78-0.6,0.5,0.99,3.58,4.97c3.08,3.97,5.46,9.53,1.89,13.01
	s-8.94,2.58-8.94,2.58s-5.96-0.89-6.16-3.08c0,0-3.97-4.77-3.48-7.75c0,0-3.97-3.87-2.98-5.76c0.99-1.89-3.18,0.6-2.48-2.09
	c0.7-2.68-2.38-0.7-0.6-3.58c1.79-2.88-3.87-4.37-1.29-5.16c2.58-0.79-0.18-45.28-1.73-48.71c-1.56-3.43-3.89-8.88-4.36-17.28
	c-0.47-8.41-0.78,4.52-0.78,4.52s1.86,27.09,0,29.27c-1.86,2.18-0.77,24.76-0.77,24.76l0.77,12.61c0,0,2.5-0.31,1.1,1.71
	c-1.4,2.02,0.93,3.27-2.02,2.65c-2.96-0.62,1.71,3.11-0.78,5.29c-2.49,2.18-3.58,5.29-5.14,3.27c-1.56-2.02,0.93,6.23-1.25,8.56
	c-2.18,2.34-24.13,11.68-19.15,0.16s6.07-8.56,6.07-8.56s-1.05-5.37,0.33-4.79c1.37,0.58,1.95-4.56,3.76-3.83s-5.5-4.48-2.82-4.99
	c2.68-0.51-7.88-66.17-6.29-66.61c1.59-0.43-9.63-6.11-9.16-7.79c0.47-1.68-0.84-24.97-1.68-26.74c-0.84-1.78-2.99-39.09-1.03-39
	s-6.27-6.27-6.27-6.27s10.85-10.94,10.94-17.95c0.09-7.01,20.57-14.49,20.57-14.49s3.09-4.4,1.68-7.39c0,0-3.04-1.08-3.04-4.02
	s-5.55-24.34,6.11-23.24H236.08z"/>
<path class="st3" d="M297.71,231.73c0.08,0,0.16,0,0.24,0c0.08,0,0.15,0,0.23,0c14.64,0.42,11.9,20.85,11.9,20.85
	s-0.67,5.97-4.04,5.77c0,0-0.58,6.83,5.68,8.66s15.78,6.16,17.52,9.91c1.73,3.75,9.24,13.57,9.24,17.71c0,4.14,2.69,6.45,2.69,6.45
	l-2.89,1.25c0,0,1.35,7.22,1.92,7.89c0.58,0.67,3.88,21.66,2.98,26.67c-0.9,5-2.82,18.86-2.57,23.1c0.26,4.23-1.03,12.83-5.77,12.45
	c0,0-4.83,5.15-7.32,3.84c-2.49-1.31-0.07,8.59-0.07,8.59s4.51,53.44,1.63,54.33c-2.88,0.89-0.1,2.18,0.3,2.98
	c0.4,0.79,1.99,5.86-0.79,5.26s0.5,0.99,3.58,4.97s5.46,9.53,1.89,13.01c-3.58,3.48-8.94,2.58-8.94,2.58s-5.96-0.89-6.16-3.08
	c0,0-3.97-4.77-3.48-7.75c0,0-3.97-3.87-2.98-5.76c0.99-1.89-3.18,0.6-2.48-2.09c0.7-2.68-2.38-0.7-0.6-3.58
	c1.79-2.88-3.87-4.37-1.29-5.16s-0.18-45.28-1.73-48.71c-1.56-3.43-3.89-8.88-4.36-17.28c-0.47-8.41-0.78,4.52-0.78,4.52
	s1.86,27.09,0,29.27c-1.86,2.18-0.77,24.76-0.77,24.76l0.77,12.61c0,0,2.5-0.31,1.1,1.71s0.93,3.27-2.02,2.65
	c-2.96-0.62,1.71,3.11-0.78,5.29c-2.49,2.18-3.58,5.29-5.14,3.27c-1.56-2.02,0.93,6.23-1.25,8.56c-2.18,2.34-24.13,11.68-19.15,0.16
	c4.98-11.52,6.07-8.56,6.07-8.56s-1.05-5.37,0.33-4.79s1.95-4.56,3.76-3.83c1.81,0.72-5.5-4.48-2.82-4.99
	c2.68-0.51-7.88-66.17-6.29-66.61c1.59-0.43-9.63-6.11-9.16-7.79c0.47-1.68-0.84-24.97-1.68-26.74c-0.84-1.78-2.99-39.09-1.03-39
	c1.96,0.09-6.27-6.27-6.27-6.27s10.85-10.94,10.94-17.95c0.09-7.01,20.57-14.49,20.57-14.49s3.09-4.4,1.68-7.39
	c0,0-3.04-1.08-3.04-4.02s-5.55-24.34,6.11-23.24H297.71z"/>
<path class="st3" d="M417.94,197.83c0.08,0,0.16,0,0.24,0c0.08,0,0.15,0,0.23,0c14.64,0.42,11.9,20.85,11.9,20.85
	s-0.67,5.97-4.04,5.77c0,0-0.58,6.83,5.68,8.66s15.78,6.16,17.52,9.91c1.73,3.75,9.24,13.57,9.24,17.71s2.69,6.45,2.69,6.45
	l-2.89,1.25c0,0,1.35,7.22,1.92,7.89c0.58,0.67,3.88,21.66,2.98,26.67c-0.9,5-2.82,18.86-2.57,23.1c0.26,4.23-1.03,12.83-5.77,12.45
	c0,0-4.83,5.15-7.32,3.84c-2.49-1.31-0.07,8.59-0.07,8.59s4.51,53.44,1.63,54.33c-2.88,0.89-0.1,2.18,0.3,2.98
	c0.4,0.79,1.99,5.86-0.79,5.26c-2.78-0.6,0.5,0.99,3.58,4.97s5.46,9.53,1.89,13.01c-3.58,3.48-8.94,2.58-8.94,2.58
	s-5.96-0.89-6.16-3.08c0,0-3.97-4.77-3.48-7.75c0,0-3.97-3.87-2.98-5.76c0.99-1.89-3.18,0.6-2.48-2.09c0.7-2.68-2.38-0.7-0.6-3.58
	c1.79-2.88-3.87-4.37-1.29-5.16s-0.18-45.28-1.73-48.71c-1.56-3.43-3.89-8.88-4.36-17.28c-0.47-8.41-0.78,4.52-0.78,4.52
	s1.86,27.09,0,29.27c-1.86,2.18-0.77,24.76-0.77,24.76l0.77,12.61c0,0,2.5-0.31,1.1,1.71s0.93,3.27-2.02,2.65s1.71,3.11-0.78,5.29
	c-2.49,2.18-3.58,5.29-5.14,3.27c-1.56-2.02,0.93,6.23-1.25,8.56c-2.18,2.34-24.13,11.68-19.15,0.16c4.98-11.52,6.07-8.56,6.07-8.56
	s-1.05-5.37,0.33-4.79s1.95-4.56,3.76-3.83c1.81,0.72-5.5-4.48-2.82-4.99c2.68-0.51-7.88-66.17-6.29-66.61
	c1.59-0.43-9.63-6.11-9.16-7.79c0.47-1.68-0.84-24.97-1.68-26.74c-0.84-1.78-2.99-39.09-1.03-39c1.96,0.09-6.27-6.27-6.27-6.27
	s10.85-10.94,10.94-17.95c0.09-7.01,20.57-14.49,20.57-14.49s3.09-4.4,1.68-7.39c0,0-3.04-1.08-3.04-4.02s-5.55-24.34,6.11-23.24
	H417.94z"/>
<path class="st3" d="M459.34,266.69c0.08,0,0.16,0,0.24,0c0.08,0,0.15,0,0.23,0c14.64,0.42,11.9,20.85,11.9,20.85
	s-0.67,5.97-4.04,5.77c0,0-0.58,6.83,5.68,8.66c6.26,1.83,15.78,6.16,17.52,9.91c1.73,3.75,9.24,13.57,9.24,17.71
	s2.69,6.45,2.69,6.45l-2.89,1.25c0,0,1.35,7.22,1.92,7.89c0.58,0.67,3.88,21.66,2.98,26.67c-0.9,5-2.82,18.86-2.57,23.1
	c0.26,4.23-1.03,12.83-5.77,12.45c0,0-4.83,5.15-7.32,3.84c-2.49-1.31-0.07,8.59-0.07,8.59s4.51,53.44,1.63,54.33
	c-2.88,0.89-0.1,2.18,0.3,2.98c0.4,0.79,1.99,5.86-0.79,5.26c-2.78-0.6,0.5,0.99,3.58,4.97c3.08,3.97,5.46,9.53,1.89,13.01
	s-8.94,2.58-8.94,2.58s-5.96-0.89-6.16-3.08c0,0-3.97-4.77-3.48-7.75c0,0-3.97-3.87-2.98-5.76c0.99-1.89-3.18,0.6-2.48-2.09
	c0.7-2.68-2.38-0.7-0.6-3.58c1.79-2.88-3.87-4.37-1.29-5.16c2.58-0.79-0.18-45.28-1.73-48.71c-1.56-3.43-3.89-8.88-4.36-17.28
	s-0.78,4.52-0.78,4.52s1.86,27.09,0,29.27c-1.86,2.18-0.77,24.76-0.77,24.76l0.77,12.61c0,0,2.5-0.31,1.1,1.71
	c-1.4,2.02,0.93,3.27-2.02,2.65s1.71,3.11-0.78,5.29c-2.49,2.18-3.58,5.29-5.14,3.27c-1.56-2.02,0.93,6.23-1.25,8.56
	c-2.18,2.34-24.13,11.68-19.15,0.16c4.98-11.52,6.07-8.56,6.07-8.56s-1.05-5.37,0.33-4.79c1.37,0.58,1.95-4.56,3.76-3.83
	c1.81,0.72-5.5-4.48-2.82-4.99s-7.88-66.17-6.29-66.61c1.59-0.43-9.63-6.11-9.16-7.79c0.47-1.68-0.84-24.97-1.68-26.74
	s-2.99-39.09-1.03-39c1.96,0.09-6.27-6.27-6.27-6.27s10.85-10.94,10.94-17.95c0.09-7.01,20.57-14.49,20.57-14.49s3.09-4.4,1.68-7.39
	c0,0-3.04-1.08-3.04-4.02c0-2.94-5.55-24.34,6.11-23.24H459.34z"/>
<g>
	<path class="st2" d="M168.27,241.97c0.08-0.01,0.16,0,0.24,0c12.67,0.21,12.49,9.27,12.49,9.27s0.68,7.48,0,8.17
		s-1.04,1.27-1.04,1.27s2.01,0.95,1.64,1.53s0.11,2.54-0.58,2.69c0,0,0.75,3.94-1.87,2.81c0,0-1.74,1.02-0.64,1.27
		c1.11,0.25,3.95-1.19,4.33,0.12c0.38,1.31,4.5,12.18,6.48,12.07c1.98-0.11,1.43,2.81,1.43,2.81l6.11,3.03c0,0,4.51,3.91,4.46,5.45
		c-0.06,1.54,12.65,24.76,12.16,26.02c-0.5,1.27,2.31,28.44,1.1,29.6s0.66,17.88,0,17.93c-0.66,0.05-10.73,14.45-12.27,14.39
		c-1.54-0.06-1.31,3.58-4.5,2.49c-3.19-1.1-3.72-2.3-3.72-2.3s-1.74,2.98-1.17,2.98s1.38,13.11,0.78,13.11s2.13,17.72-0.18,17.86
		c0,0,0.07,17.47-1.06,17.97c-1.12,0.5,6.92,21.63,4.99,23.25c0,0-0.37,9.1-2.06,9.1s1.99,4.8,1.06,6.17
		c-0.94,1.37-0.79,4.7-2.5,3.34c-1.71-1.36,2.21,11.49-0.58,11.33c-2.79-0.16,9.08,15.33,3.61,16.73c-5.47,1.4-14.67,0.7-14.44-7.57
		c0,0-7.41-2.48-5.28-10.05c0,0-3.37-0.86-2.39-9.47L172.1,474c0,0,0.52-3.68,1.78-4.54c1.26-0.86-1.55-2.41-1.55-2.41
		s-3.27-3.62-0.34-14.88c2.93-11.26-1.72-22.63-1.03-28.61c0.69-5.97-3.45-14.65-3.22-17.41c0.23-2.76-0.34-3.79-0.34-3.79
		l-1.21,0.4c0,0,1.21,9.31,0,9.88s-1.32,7.53-1.32,7.53s-2.07,18.61-3.79,18.61c-1.72,0,1.03,30.1,1.95,30.04
		c0.92-0.06,0.17,2.64,0.17,2.64s1.44,0.11,0.63,1.32s-3.04,12.92-5,12.06c-1.95-0.86,0.46,2.81,0,3.16
		c-0.46,0.34-2.07,5.46-3.85,3.56c-1.78-1.9,0.92,4.37-0.63,6.26c-1.55,1.9-10.83,4.97-14.68-1.45c0,0-0.92-3.11,0-4.53
		s4.31-7.2,3.76-7.98c-0.55-0.78-0.78-6.33,0.32-8.2c1.1-1.88-5.27-9.58,0.73-12.15c0,0-2.11-3.07-2.06-4.4s1.19-27.27,0.78-28.42
		c-0.41-1.15-4.25-17.51-3.94-20.67c0.32-3.16,0.36-25.71,1.69-26.63c1.33-0.92-0.88-0.32-1.25-3.04c-0.36-2.73-1.85,0.62-1.85-1.49
		s-2.16,4.99-3.19,1.7c-1.03-3.3-4.53-7.47-5.87-6.44c0,0-6.18-14.37-5.1-18.18c1.08-3.81,6.41-71.12,16.42-69.89
		c0,0,5.57,0.06,5.21-1.46c-0.35-1.52,0.88-13.47,4.16-13.53s9.2-1.17,9.2,0s-0.63-6.21-0.63-6.21s-1.91-1.9-1.87-5.87
		c0.04-3.97,2.16-2.25,2.16-2.25s-0.5-7.16,1.61-9.27C162.06,245.37,161.44,242.92,168.27,241.97z"/>
</g>
<g>
	<path class="st2" d="M379.85,249.45c0.08-0.01,0.16,0,0.24,0c12.67,0.21,12.49,9.27,12.49,9.27s0.67,7.48,0,8.17
		c-0.67,0.69-1.04,1.27-1.04,1.27s2.01,0.95,1.64,1.53s0.11,2.54-0.58,2.69c0,0,0.75,3.94-1.87,2.81c0,0-1.74,1.02-0.64,1.27
		s3.95-1.19,4.33,0.12c0.38,1.31,4.5,12.18,6.48,12.07c1.98-0.11,1.43,2.81,1.43,2.81l6.11,3.03c0,0,4.51,3.91,4.46,5.45
		c-0.06,1.54,12.65,24.76,12.16,26.02c-0.5,1.27,2.31,28.44,1.1,29.6c-1.21,1.16,0.66,17.88,0,17.93
		c-0.66,0.06-10.73,14.45-12.27,14.39c-1.54-0.06-1.31,3.58-4.5,2.49c-3.19-1.1-3.72-2.3-3.72-2.3s-1.74,2.98-1.17,2.98
		c0.57,0,1.38,13.11,0.78,13.11c-0.6,0,2.13,17.72-0.18,17.86c0,0,0.07,17.47-1.06,17.97s6.92,21.63,4.99,23.25
		c0,0-0.37,9.1-2.06,9.1s1.99,4.8,1.06,6.17s-0.79,4.7-2.5,3.34s2.21,11.49-0.58,11.33s9.08,15.33,3.61,16.73
		c-5.47,1.4-14.67,0.7-14.44-7.57c0,0-7.41-2.48-5.28-10.05c0,0-3.37-0.86-2.39-9.47l-2.76-1.32c0,0,0.52-3.68,1.78-4.54
		c1.26-0.86-1.55-2.41-1.55-2.41s-3.27-3.62-0.34-14.88c2.93-11.26-1.72-22.63-1.03-28.61s-3.45-14.65-3.22-17.41
		c0.23-2.76-0.34-3.79-0.34-3.79l-1.21,0.4c0,0,1.21,9.31,0,9.88c-1.21,0.57-1.32,7.53-1.32,7.53s-2.07,18.61-3.79,18.61
		s1.03,30.1,1.95,30.04c0.92-0.06,0.17,2.64,0.17,2.64s1.44,0.11,0.63,1.32c-0.8,1.21-3.04,12.92-5,12.06
		c-1.95-0.86,0.46,2.81,0,3.16c-0.46,0.34-2.07,5.46-3.85,3.56c-1.78-1.9,0.92,4.37-0.63,6.26s-10.83,4.97-14.68-1.45
		c0,0-0.92-3.11,0-4.53c0.92-1.42,4.31-7.2,3.76-7.98c-0.55-0.78-0.78-6.33,0.32-8.2c1.1-1.88-5.27-9.58,0.73-12.15
		c0,0-2.11-3.07-2.06-4.4s1.19-27.27,0.78-28.42c-0.41-1.15-4.25-17.51-3.94-20.67c0.32-3.16,0.36-25.71,1.69-26.63
		c1.33-0.92-0.88-0.32-1.25-3.04s-1.85,0.62-1.85-1.49c0-2.11-2.16,4.99-3.19,1.7c-1.03-3.3-4.53-7.47-5.87-6.44
		c0,0-6.18-14.37-5.1-18.18c1.08-3.81,6.41-71.12,16.42-69.89c0,0,5.57,0.06,5.21-1.46s0.88-13.47,4.16-13.53
		c3.28-0.06,9.2-1.17,9.2,0c0,1.17-0.63-6.21-0.63-6.21s-1.91-1.9-1.87-5.87s2.16-2.25,2.16-2.25s-0.5-7.16,1.61-9.27
		C373.65,252.85,373.02,250.41,379.85,249.45z"/>
</g>
<path class="st1" d="M217.26,246.92c10.9,0.55,13.72,4.34,13.72,4.34s4.85,17.99,2.04,20.67c0,0-1.86,4.22-2.99,4.75
	s1.55,4.36,1.55,4.36s26.27,10.12,26.27,11.6s8.37,30.39,8.86,30.88c0.49,0.49,2.76,58.33-3.09,58.98l-0.09,5.27
	c0,0-5.79,6.48-7.09,6.48s-1.47,33.62-0.43,34.48c1.04,0.86,5.85,18.36,5.85,18.36l2.65,45.04l-2.47,1.57l0.76,2.42
	c0,0,15.2,13.31-1.89,10.44c0,0-12.25-0.53-11.35-8.32l-0.3-1.94h-3.1l-6-48.12l-8.8-49.72l-0.96-0.19l6.88,95.81l-1.72,2.68
	c0,0,0.81,10.72-5.44,9.35c0,0-21.16,2.66-15.59-3.34c5.57-6,6.77-5.74,6.51-7.45c-0.26-1.71-0.4-2.13-0.4-2.13l-1.62-0.11
	c0,0-3.37-54.13-4.24-59.12c-0.87-4.99-9.78-35.01-9.78-35.01s-3.11,5.08-5.79,4.24c-2.68-0.85-6.64-0.85-7.06-4.24
	c-0.42-3.39,1.41-97.44,1.41-97.44l19.49-15.96c0,0,1.71-5.14,0.84-5.22c-0.87-0.07-3.14-3.66-3.7-5.7
	c-0.56-2.03-3.02-15.36-1.47-18.45C208.74,256.17,208.7,246.48,217.26,246.92z"/>
<path class="st1" d="M289.09,261.47c10.9,0.55,13.72,4.34,13.72,4.34s4.85,17.99,2.04,20.67c0,0-1.86,4.22-2.99,4.75
	c-1.12,0.53,1.55,4.36,1.55,4.36s26.27,10.12,26.27,11.6s8.37,30.39,8.86,30.88s2.76,58.33-3.09,58.98l-0.09,5.27
	c0,0-5.79,6.48-7.09,6.48s-1.47,33.62-0.43,34.48c1.04,0.86,5.85,18.36,5.85,18.36l2.65,45.04l-2.47,1.57l0.76,2.42
	c0,0,15.2,13.31-1.89,10.44c0,0-12.25-0.53-11.35-8.32l-0.3-1.94H318l-6-48.12L303.2,413l-0.96-0.19l6.88,95.81l-1.72,2.68
	c0,0,0.81,10.72-5.44,9.35c0,0-21.16,2.66-15.59-3.34c5.57-6,6.77-5.74,6.51-7.45c-0.26-1.71-0.4-2.13-0.4-2.13l-1.62-0.11
	c0,0-3.37-54.13-4.24-59.12c-0.87-4.99-9.78-35.01-9.78-35.01s-3.11,5.08-5.79,4.24c-2.68-0.85-6.64-0.85-7.06-4.24
	c-0.42-3.39,1.41-97.44,1.41-97.44l19.49-15.96c0,0,1.71-5.14,0.84-5.22c-0.87-0.07-3.14-3.66-3.7-5.7
	c-0.56-2.03-3.02-15.36-1.47-18.45C280.57,270.72,280.53,261.04,289.09,261.47z"/>
<path class="st1" d="M105.11,276.67c10.9,0.55,13.72,4.34,13.72,4.34s4.85,17.99,2.04,20.67c0,0-1.86,4.22-2.99,4.75
	s1.55,4.36,1.55,4.36s26.27,10.12,26.27,11.6s8.37,30.39,8.86,30.88c0.49,0.49,2.76,58.33-3.09,58.98l-0.09,5.27
	c0,0-5.79,6.48-7.09,6.48c-1.3,0-1.47,33.62-0.43,34.48c1.04,0.86,5.85,18.36,5.85,18.36l2.65,45.04l-2.47,1.57l0.76,2.42
	c0,0,15.2,13.31-1.89,10.44c0,0-12.25-0.53-11.35-8.32l-0.3-1.94h-3.1l-6-48.12l-8.8-49.72l-0.96-0.19l6.88,95.81l-1.72,2.68
	c0,0,0.81,10.72-5.44,9.35c0,0-21.16,2.66-15.59-3.34c5.57-6,6.77-5.74,6.51-7.45c-0.26-1.71-0.4-2.13-0.4-2.13l-1.62-0.11
	c0,0-3.37-54.13-4.24-59.12c-0.87-4.99-9.78-35.01-9.78-35.01s-3.11,5.08-5.79,4.24c-2.68-0.85-6.64-0.85-7.06-4.24
	s1.41-97.44,1.41-97.44l19.49-15.96c0,0,1.71-5.14,0.84-5.22c-0.87-0.07-3.14-3.66-3.7-5.7c-0.56-2.03-3.02-15.36-1.47-18.45
	C96.59,285.92,96.55,276.24,105.11,276.67z"/>
<path class="st0" d="M976.04,91.72c0.08-0.01,0.16,0,0.24,0c12.67,0.21,12.49,9.27,12.49,9.27s0.67,7.48,0,8.17
	c-0.67,0.69-1.04,1.27-1.04,1.27s2.01,0.95,1.64,1.53c-0.37,0.58,0.11,2.54-0.58,2.69c0,0,0.75,3.94-1.87,2.81
	c0,0-1.74,1.02-0.64,1.27c1.11,0.25,3.95-1.19,4.33,0.12c0.38,1.31,4.5,12.18,6.48,12.07s1.43,2.81,1.43,2.81l6.11,3.03
	c0,0,4.51,3.91,4.46,5.45c-0.05,1.54,12.65,24.76,12.16,26.02s2.31,28.44,1.1,29.6c-1.21,1.16,0.66,17.88,0,17.93
	s-10.73,14.45-12.27,14.39c-1.54-0.06-1.31,3.58-4.5,2.49c-3.19-1.1-3.72-2.3-3.72-2.3s-1.74,2.98-1.17,2.98s1.38,13.11,0.78,13.11
	c-0.6,0,2.13,17.72-0.18,17.86c0,0,0.07,17.47-1.06,17.97c-1.12,0.5,6.92,21.63,4.99,23.25c0,0-0.37,9.1-2.06,9.1
	s1.99,4.8,1.06,6.17c-0.93,1.37-0.79,4.7-2.5,3.34c-1.71-1.36,2.21,11.49-0.58,11.33c-2.79-0.16,9.08,15.33,3.61,16.73
	c-5.47,1.4-14.67,0.7-14.44-7.57c0,0-7.41-2.48-5.28-10.05c0,0-3.37-0.86-2.39-9.47l-2.76-1.32c0,0,0.52-3.68,1.78-4.54
	c1.26-0.86-1.55-2.41-1.55-2.41s-3.27-3.62-0.34-14.88c2.93-11.26-1.72-22.63-1.03-28.61s-3.45-14.65-3.22-17.41
	s-0.34-3.79-0.34-3.79l-1.21,0.4c0,0,1.21,9.31,0,9.88s-1.32,7.53-1.32,7.53s-2.07,18.61-3.79,18.61c-1.72,0,1.03,30.1,1.95,30.04
	c0.92-0.06,0.17,2.64,0.17,2.64s1.44,0.11,0.63,1.32c-0.8,1.21-3.04,12.92-5,12.06c-1.95-0.86,0.46,2.81,0,3.16
	c-0.46,0.34-2.07,5.46-3.85,3.56c-1.78-1.9,0.92,4.37-0.63,6.26s-10.83,4.97-14.68-1.45c0,0-0.92-3.11,0-4.53
	c0.92-1.42,4.31-7.2,3.76-7.98c-0.55-0.78-0.78-6.33,0.32-8.2s-5.27-9.58,0.73-12.15c0,0-2.11-3.07-2.06-4.4s1.19-27.27,0.78-28.42
	c-0.41-1.15-4.25-17.51-3.94-20.67c0.32-3.16,0.36-25.71,1.69-26.63s-0.88-0.32-1.25-3.04s-1.85,0.62-1.85-1.49s-2.16,4.99-3.19,1.7
	s-4.53-7.47-5.87-6.44c0,0-6.18-14.37-5.1-18.18c1.08-3.81,6.41-71.12,16.42-69.89c0,0,5.57,0.06,5.21-1.46
	c-0.35-1.52,0.88-13.47,4.16-13.53c3.28-0.06,9.2-1.17,9.2,0c0,1.17-0.63-6.21-0.63-6.21s-1.91-1.9-1.87-5.87
	c0.04-3.97,2.16-2.25,2.16-2.25s-0.5-7.16,1.61-9.27S969.21,92.67,976.04,91.72z"/>
<path class="st0" d="M1014.09,248.45c0.08-0.01,0.16,0,0.24,0c12.67,0.21,12.49,9.27,12.49,9.27s0.68,7.48,0,8.17
	c-0.67,0.69-1.04,1.27-1.04,1.27s2.01,0.95,1.64,1.53c-0.37,0.58,0.11,2.54-0.58,2.69c0,0,0.75,3.94-1.87,2.81
	c0,0-1.74,1.02-0.64,1.27c1.11,0.25,3.95-1.19,4.33,0.12c0.38,1.31,4.5,12.18,6.48,12.07c1.98-0.11,1.43,2.81,1.43,2.81l6.11,3.03
	c0,0,4.51,3.91,4.46,5.45c-0.06,1.54,12.65,24.76,12.16,26.02s2.31,28.44,1.1,29.6c-1.21,1.16,0.66,17.88,0,17.93
	c-0.66,0.05-10.73,14.45-12.27,14.39c-1.54-0.06-1.31,3.58-4.5,2.49s-3.72-2.3-3.72-2.3s-1.74,2.98-1.17,2.98s1.38,13.11,0.78,13.11
	s2.13,17.72-0.18,17.86c0,0,0.07,17.47-1.06,17.97c-1.12,0.5,6.92,21.63,4.99,23.25c0,0-0.37,9.1-2.06,9.1
	c-1.68,0,1.99,4.8,1.06,6.17c-0.94,1.37-0.79,4.7-2.5,3.34c-1.71-1.36,2.21,11.49-0.58,11.33c-2.79-0.16,9.08,15.33,3.61,16.73
	c-5.47,1.4-14.67,0.7-14.44-7.57c0,0-7.41-2.48-5.28-10.05c0,0-3.37-0.86-2.39-9.47l-2.76-1.32c0,0,0.52-3.68,1.78-4.54
	c1.26-0.86-1.55-2.41-1.55-2.41s-3.27-3.62-0.34-14.88c2.93-11.26-1.72-22.63-1.03-28.61c0.69-5.97-3.45-14.65-3.22-17.41
	c0.23-2.76-0.34-3.79-0.34-3.79l-1.21,0.4c0,0,1.21,9.31,0,9.88c-1.21,0.57-1.32,7.53-1.32,7.53s-2.07,18.61-3.79,18.61
	s1.03,30.1,1.95,30.04c0.92-0.06,0.17,2.64,0.17,2.64s1.44,0.11,0.63,1.32c-0.8,1.21-3.04,12.92-5,12.06
	c-1.95-0.86,0.46,2.81,0,3.16s-2.07,5.46-3.85,3.56c-1.78-1.9,0.92,4.37-0.63,6.26c-1.55,1.9-10.83,4.97-14.68-1.45
	c0,0-0.92-3.11,0-4.53c0.92-1.42,4.31-7.2,3.76-7.98c-0.55-0.78-0.78-6.33,0.32-8.2c1.1-1.88-5.27-9.58,0.73-12.15
	c0,0-2.11-3.07-2.06-4.4s1.19-27.27,0.78-28.42c-0.41-1.15-4.25-17.51-3.94-20.67c0.32-3.16,0.36-25.71,1.69-26.63
	c1.33-0.92-0.88-0.32-1.25-3.04s-1.85,0.62-1.85-1.49c0-2.11-2.16,4.99-3.19,1.7s-4.53-7.47-5.87-6.44c0,0-6.18-14.37-5.1-18.18
	c1.08-3.81,6.41-71.12,16.42-69.89c0,0,5.57,0.06,5.21-1.46c-0.35-1.52,0.88-13.47,4.16-13.53c3.28-0.06,9.2-1.17,9.2,0
	c0,1.17-0.63-6.21-0.63-6.21s-1.91-1.9-1.87-5.87s2.16-2.25,2.16-2.25s-0.5-7.16,1.61-9.27
	C1007.88,251.84,1007.26,249.4,1014.09,248.45z"/>
<path class="st0" d="M927.99,239.87c10.9,0.55,13.72,4.34,13.72,4.34s4.85,17.99,2.04,20.67c0,0-1.86,4.22-2.99,4.75
	s1.55,4.36,1.55,4.36s26.27,10.12,26.27,11.6s8.37,30.39,8.86,30.88c0.49,0.49,2.76,58.33-3.09,58.98l-0.09,5.27
	c0,0-5.79,6.48-7.09,6.48s-1.47,33.62-0.43,34.48c1.04,0.86,5.85,18.36,5.85,18.36l2.65,45.04l-2.47,1.57l0.76,2.42
	c0,0,15.2,13.31-1.89,10.44c0,0-12.25-0.53-11.35-8.32l-0.3-1.94h-3.1l-6-48.12l-8.8-49.72l-0.96-0.19l6.88,95.81l-1.72,2.68
	c0,0,0.81,10.72-5.44,9.35c0,0-21.16,2.66-15.59-3.34s6.77-5.74,6.51-7.45c-0.26-1.71-0.4-2.13-0.4-2.13l-1.62-0.11
	c0,0-3.37-54.13-4.24-59.12c-0.87-4.99-9.78-35.01-9.78-35.01s-3.11,5.08-5.79,4.24s-6.64-0.85-7.06-4.24
	c-0.42-3.39,1.41-97.44,1.41-97.44l19.49-15.96c0,0,1.71-5.14,0.84-5.22c-0.87-0.07-3.14-3.66-3.7-5.7s-3.02-15.36-1.47-18.45
	C919.47,249.12,919.44,239.44,927.99,239.87z"/>
<path class="st0" d="M1076,202.87c10.9,0.55,13.72,4.34,13.72,4.34s4.85,17.99,2.04,20.67c0,0-1.86,4.22-2.99,4.75
	c-1.12,0.53,1.55,4.36,1.55,4.36s26.27,10.12,26.27,11.6s8.37,30.39,8.86,30.88c0.49,0.49,2.76,58.33-3.09,58.98l-0.09,5.27
	c0,0-5.79,6.48-7.09,6.48s-1.47,33.62-0.43,34.48c1.04,0.86,5.85,18.36,5.85,18.36l2.65,45.04l-2.47,1.57l0.76,2.42
	c0,0,15.2,13.31-1.89,10.44c0,0-12.25-0.53-11.35-8.32l-0.3-1.94h-3.1l-6-48.12l-8.8-49.72l-0.96-0.19l6.88,95.81l-1.72,2.68
	c0,0,0.81,10.72-5.44,9.35c0,0-21.16,2.66-15.59-3.34c5.57-6,6.77-5.74,6.51-7.45c-0.26-1.71-0.4-2.13-0.4-2.13l-1.62-0.11
	c0,0-3.37-54.13-4.24-59.12c-0.87-4.99-9.78-35.01-9.78-35.01s-3.11,5.08-5.79,4.24s-6.64-0.85-7.06-4.24
	c-0.42-3.39,1.41-97.44,1.41-97.44l19.49-15.96c0,0,1.71-5.14,0.84-5.22s-3.14-3.66-3.7-5.7c-0.56-2.03-3.02-15.36-1.47-18.45
	C1067.48,212.12,1067.44,202.43,1076,202.87z"/>
<path class="st0" d="M1122.62,250.47c10.9,0.55,13.72,4.34,13.72,4.34s4.85,17.99,2.04,20.67c0,0-1.86,4.22-2.99,4.75
	c-1.12,0.53,1.55,4.36,1.55,4.36s26.27,10.12,26.27,11.6s8.37,30.39,8.86,30.88s2.76,58.33-3.09,58.98l-0.09,5.27
	c0,0-5.79,6.48-7.09,6.48s-1.47,33.62-0.43,34.48c1.04,0.86,5.85,18.36,5.85,18.36l2.65,45.04l-2.47,1.57l0.76,2.42
	c0,0,15.2,13.31-1.89,10.44c0,0-12.25-0.53-11.35-8.32l-0.3-1.94h-3.1l-6-48.12l-8.8-49.72l-0.96-0.19l6.88,95.81l-1.72,2.68
	c0,0,0.81,10.72-5.44,9.35c0,0-21.16,2.66-15.59-3.34c5.57-6,6.77-5.74,6.51-7.45c-0.26-1.71-0.4-2.13-0.4-2.13l-1.62-0.11
	c0,0-3.37-54.13-4.24-59.12c-0.87-4.99-9.78-35.01-9.78-35.01s-3.11,5.08-5.79,4.24s-6.64-0.85-7.06-4.24s1.41-97.44,1.41-97.44
	l19.49-15.96c0,0,1.71-5.14,0.84-5.22c-0.87-0.07-3.14-3.66-3.7-5.7s-3.02-15.36-1.47-18.45
	C1114.1,259.72,1114.06,250.03,1122.62,250.47z"/>
<path class="st0" d="M1054.87,273.75c10.9,0.55,13.72,4.34,13.72,4.34s4.85,17.99,2.04,20.67c0,0-1.86,4.22-2.99,4.75
	c-1.12,0.53,1.55,4.36,1.55,4.36s26.27,10.12,26.27,11.6s8.37,30.39,8.86,30.88c0.49,0.49,2.76,58.33-3.09,58.98l-0.09,5.27
	c0,0-5.79,6.48-7.09,6.48s-1.47,33.62-0.43,34.48c1.04,0.86,5.85,18.36,5.85,18.36l2.65,45.04l-2.47,1.57l0.76,2.42
	c0,0,15.2,13.31-1.89,10.44c0,0-12.25-0.53-11.35-8.32l-0.3-1.94h-3.1l-6-48.12l-8.8-49.72l-0.96-0.19l6.88,95.81l-1.72,2.68
	c0,0,0.81,10.72-5.44,9.35c0,0-21.16,2.66-15.59-3.34c5.57-6,6.77-5.74,6.51-7.45c-0.26-1.71-0.4-2.13-0.4-2.13l-1.62-0.11
	c0,0-3.37-54.13-4.24-59.12s-9.78-35.01-9.78-35.01s-3.11,5.08-5.79,4.24c-2.68-0.85-6.64-0.85-7.06-4.24
	c-0.42-3.39,1.41-97.44,1.41-97.44l19.49-15.96c0,0,1.71-5.14,0.84-5.22c-0.87-0.07-3.14-3.66-3.7-5.7
	c-0.56-2.03-3.02-15.36-1.47-18.45C1046.35,283,1046.31,273.32,1054.87,273.75z"/>
</svg>
