<?xml version="1.0" encoding="utf-8"?>
<!-- Generator: Adobe Illustrator 24.2.3, SVG Export Plug-In . SVG Version: 6.00 Build 0)  -->
<svg version="1.1" id="chart2015" xmlns="http://www.w3.org/2000/svg" xmlns:xlink="http://www.w3.org/1999/xlink" x="0px" y="0px"
	 viewBox="0 0 600 350" style="enable-background:new 0 0 600 350;" xml:space="preserve">
<style type="text/css">
	.st0{fill:none;stroke:#000000;stroke-miterlimit:10;}
	.st1{font-family:'Graphik-Regular';}
	.st2{font-size:10px;}
	.st3{opacity:0.35;}
	.st4{fill:none;}
	.st5{fill-rule:evenodd;clip-rule:evenodd;fill:#231F20;}
	.st6{font-size:12px;}
	.st7{font-family:'Graphik-Bold';}
	.st8{fill:none;stroke:#408EFF;stroke-miterlimit:10;}
</style>
<polyline class="st0" points="51.85,61.27 51.85,317.61 550.68,316.69 "/>
<text transform="matrix(1 0 0 1 32.1608 78.6316)" class="st1 st2">1.0</text>
<text transform="matrix(1 0 0 1 29.7411 126.9956)" class="st1 st2">0.8</text>
<text transform="matrix(1 0 0 1 29.741 175.852)" class="st1 st2">0.6</text>
<text transform="matrix(1 0 0 1 29.741 223.5815)" class="st1 st2">0.4</text>
<text transform="matrix(1 0 0 1 30.1427 271.7828)" class="st1 st2">0.2</text>
<text transform="matrix(0.8699 0 0 1 30.7724 320.2295)" class="st1 st2">0.0</text>
<g class="st3">
	<g>
		<g>
			<g>
				<g>
					<g>
						
							<rect x="538.81" y="66.71" transform="matrix(1 -3.805025e-03 3.805025e-03 1 -0.2784 2.0764)" class="st4" width="13.48" height="15"/>
					</g>
					
						<rect x="539.8" y="73.25" transform="matrix(1 -3.804497e-03 3.804497e-03 1 -0.2776 2.059)" class="st5" width="2.5" height="1.5"/>
					
						<rect x="544.29" y="73.24" transform="matrix(1 -3.804497e-03 3.804497e-03 1 -0.2775 2.0761)" class="st5" width="2.5" height="1.5"/>
					
						<rect x="548.77" y="73.22" transform="matrix(1 -3.804497e-03 3.804497e-03 1 -0.2774 2.0931)" class="st5" width="2.5" height="1.5"/>
				</g>
			</g>
			<g>
				<g>
					<g>
						
							<rect x="525.33" y="66.76" transform="matrix(1 -3.802753e-03 3.802753e-03 1 -0.2785 2.0239)" class="st4" width="13.48" height="15"/>
					</g>
					
						<rect x="526.32" y="73.3" transform="matrix(1 -3.804497e-03 3.804497e-03 1 -0.2779 2.0077)" class="st5" width="2.5" height="1.5"/>
					
						<rect x="530.81" y="73.29" transform="matrix(1 -3.804497e-03 3.804497e-03 1 -0.2778 2.0248)" class="st5" width="2.5" height="1.5"/>
					
						<rect x="535.28" y="73.27" transform="matrix(1 -3.804497e-03 3.804497e-03 1 -0.2777 2.0418)" class="st5" width="2.5" height="1.5"/>
				</g>
			</g>
			<g>
				<g>
					<g>
						
							<rect x="511.84" y="66.81" transform="matrix(1 -3.805017e-03 3.805017e-03 1 -0.279 1.9738)" class="st4" width="13.48" height="15"/>
					</g>
					
						<rect x="512.84" y="73.35" transform="matrix(1 -3.804497e-03 3.804497e-03 1 -0.2782 1.9564)" class="st5" width="2.5" height="1.5"/>
					
						<rect x="517.33" y="73.34" transform="matrix(1 -3.804497e-03 3.804497e-03 1 -0.2781 1.9735)" class="st5" width="2.5" height="1.5"/>
					
						<rect x="521.8" y="73.32" transform="matrix(1 -3.804497e-03 3.804497e-03 1 -0.278 1.9905)" class="st5" width="2.5" height="1.5"/>
				</g>
			</g>
			<g>
				<g>
					<g>
						
							<rect x="498.36" y="66.86" transform="matrix(1 -3.802753e-03 3.802753e-03 1 -0.2791 1.9213)" class="st4" width="13.48" height="15"/>
					</g>
					
						<rect x="499.36" y="73.41" transform="matrix(1 -3.804497e-03 3.804497e-03 1 -0.2785 1.9051)" class="st5" width="2.5" height="1.5"/>
					
						<rect x="503.85" y="73.39" transform="matrix(1 -3.804575e-03 3.804575e-03 1 -0.2784 1.9222)" class="st5" width="2.5" height="1.5"/>
					
						<rect x="508.32" y="73.37" transform="matrix(1 -3.804497e-03 3.804497e-03 1 -0.2783 1.9392)" class="st5" width="2.5" height="1.5"/>
				</g>
			</g>
			<g>
				<g>
					<g>
						
							<rect x="484.88" y="66.91" transform="matrix(1 -3.805025e-03 3.805025e-03 1 -0.2796 1.8712)" class="st4" width="13.48" height="15"/>
					</g>
					
						<rect x="485.88" y="73.46" transform="matrix(1 -3.804497e-03 3.804497e-03 1 -0.2788 1.8538)" class="st5" width="2.5" height="1.5"/>
					
						<rect x="490.36" y="73.44" transform="matrix(1 -3.804497e-03 3.804497e-03 1 -0.2787 1.8709)" class="st5" width="2.5" height="1.5"/>
					
						<rect x="494.84" y="73.42" transform="matrix(1 -3.804497e-03 3.804497e-03 1 -0.2786 1.8879)" class="st5" width="2.5" height="1.5"/>
				</g>
			</g>
			<g>
				<g>
					<g>
						
							<rect x="471.4" y="66.96" transform="matrix(1 -3.802753e-03 3.802753e-03 1 -0.2797 1.8188)" class="st4" width="13.48" height="15"/>
					</g>
					
						<rect x="472.39" y="73.51" transform="matrix(1 -3.804497e-03 3.804497e-03 1 -0.2791 1.8025)" class="st5" width="2.5" height="1.5"/>
					
						<rect x="476.88" y="73.49" transform="matrix(1 -3.804575e-03 3.804575e-03 1 -0.279 1.8196)" class="st5" width="2.5" height="1.5"/>
					
						<rect x="481.36" y="73.47" transform="matrix(1 -3.804497e-03 3.804497e-03 1 -0.2789 1.8366)" class="st5" width="2.5" height="1.5"/>
				</g>
			</g>
			<g>
				<g>
					<g>
						
							<rect x="457.92" y="67.01" transform="matrix(1 -3.805017e-03 3.805017e-03 1 -0.2802 1.7686)" class="st4" width="13.48" height="15"/>
					</g>
					
						<rect x="458.91" y="73.56" transform="matrix(1 -3.804575e-03 3.804575e-03 1 -0.2794 1.7513)" class="st5" width="2.5" height="1.5"/>
					
						<rect x="463.4" y="73.54" transform="matrix(1 -3.804497e-03 3.804497e-03 1 -0.2793 1.7683)" class="st5" width="2.5" height="1.5"/>
					
						<rect x="467.87" y="73.53" transform="matrix(1 -3.804497e-03 3.804497e-03 1 -0.2792 1.7853)" class="st5" width="2.5" height="1.5"/>
				</g>
			</g>
			<g>
				<g>
					<g>
						
							<rect x="444.43" y="67.06" transform="matrix(1 -3.802753e-03 3.802753e-03 1 -0.2803 1.7162)" class="st4" width="13.48" height="15"/>
					</g>
					
						<rect x="445.43" y="73.61" transform="matrix(1 -3.804497e-03 3.804497e-03 1 -0.2797 1.6999)" class="st5" width="2.5" height="1.5"/>
					
						<rect x="449.92" y="73.59" transform="matrix(1 -3.804575e-03 3.804575e-03 1 -0.2796 1.717)" class="st5" width="2.5" height="1.5"/>
					
						<rect x="454.39" y="73.58" transform="matrix(1 -3.804497e-03 3.804497e-03 1 -0.2795 1.734)" class="st5" width="2.5" height="1.5"/>
				</g>
			</g>
			<g>
				<g>
					<g>
						
							<rect x="430.95" y="67.12" transform="matrix(1 -3.805017e-03 3.805017e-03 1 -0.2807 1.666)" class="st4" width="13.48" height="15"/>
					</g>
					
						<rect x="431.95" y="73.66" transform="matrix(1 -3.804575e-03 3.804575e-03 1 -0.28 1.6487)" class="st5" width="2.5" height="1.5"/>
					
						<rect x="436.44" y="73.65" transform="matrix(1 -3.804497e-03 3.804497e-03 1 -0.2799 1.6657)" class="st5" width="2.5" height="1.5"/>
					
						<rect x="440.91" y="73.63" transform="matrix(1 -3.804497e-03 3.804497e-03 1 -0.2798 1.6827)" class="st5" width="2.5" height="1.5"/>
				</g>
			</g>
			<g>
				<g>
					<g>
						
							<rect x="417.47" y="67.17" transform="matrix(1 -3.802762e-03 3.802762e-03 1 -0.2809 1.6137)" class="st4" width="13.48" height="15"/>
					</g>
					
						<rect x="418.47" y="73.71" transform="matrix(1 -3.804497e-03 3.804497e-03 1 -0.2803 1.5973)" class="st5" width="2.5" height="1.5"/>
					
						<rect x="422.95" y="73.7" transform="matrix(1 -3.804575e-03 3.804575e-03 1 -0.2802 1.6145)" class="st5" width="2.5" height="1.5"/>
					
						<rect x="427.43" y="73.68" transform="matrix(1 -3.804497e-03 3.804497e-03 1 -0.2801 1.6314)" class="st5" width="2.5" height="1.5"/>
				</g>
			</g>
			<g>
				<g>
					<g>
						
							<rect x="403.99" y="67.22" transform="matrix(1 -3.805017e-03 3.805017e-03 1 -0.2813 1.5634)" class="st4" width="13.48" height="15"/>
					</g>
					
						<rect x="404.98" y="73.77" transform="matrix(1 -3.804575e-03 3.804575e-03 1 -0.2806 1.5461)" class="st5" width="2.5" height="1.5"/>
					
						<rect x="409.47" y="73.75" transform="matrix(1 -3.804497e-03 3.804497e-03 1 -0.2805 1.5631)" class="st5" width="2.5" height="1.5"/>
					
						<rect x="413.95" y="73.73" transform="matrix(1 -3.804497e-03 3.804497e-03 1 -0.2804 1.5802)" class="st5" width="2.5" height="1.5"/>
				</g>
			</g>
			<g>
				<g>
					<g>
						
							<rect x="390.51" y="67.27" transform="matrix(1 -3.802753e-03 3.802753e-03 1 -0.2815 1.5112)" class="st4" width="13.48" height="15"/>
					</g>
					
						<rect x="391.5" y="73.82" transform="matrix(1 -3.804497e-03 3.804497e-03 1 -0.2808 1.4948)" class="st5" width="2.5" height="1.5"/>
					
						<rect x="395.99" y="73.8" transform="matrix(1 -3.804575e-03 3.804575e-03 1 -0.2808 1.5119)" class="st5" width="2.5" height="1.5"/>
					
						<rect x="400.46" y="73.78" transform="matrix(1 -3.804497e-03 3.804497e-03 1 -0.2807 1.5289)" class="st5" width="2.5" height="1.5"/>
				</g>
			</g>
			<g>
				<g>
					<g>
						
							<rect x="377.02" y="67.32" transform="matrix(1 -3.805017e-03 3.805017e-03 1 -0.2819 1.4608)" class="st4" width="13.48" height="15"/>
					</g>
					
						<rect x="378.02" y="73.87" transform="matrix(1 -3.804575e-03 3.804575e-03 1 -0.2811 1.4435)" class="st5" width="2.5" height="1.5"/>
					
						<rect x="382.51" y="73.85" transform="matrix(1 -3.804497e-03 3.804497e-03 1 -0.281 1.4605)" class="st5" width="2.5" height="1.5"/>
					
						<rect x="386.98" y="73.83" transform="matrix(1 -3.804497e-03 3.804497e-03 1 -0.2809 1.4776)" class="st5" width="2.5" height="1.5"/>
				</g>
			</g>
			<g>
				<g>
					<g>
						
							<rect x="363.54" y="67.37" transform="matrix(1 -3.802757e-03 3.802757e-03 1 -0.282 1.4086)" class="st4" width="13.48" height="15"/>
					</g>
					
						<rect x="364.54" y="73.92" transform="matrix(1 -3.804497e-03 3.804497e-03 1 -0.2814 1.3922)" class="st5" width="2.5" height="1.5"/>
					
						<rect x="369.03" y="73.9" transform="matrix(1 -3.804575e-03 3.804575e-03 1 -0.2813 1.4093)" class="st5" width="2.5" height="1.5"/>
					
						<rect x="373.5" y="73.89" transform="matrix(1 -3.804497e-03 3.804497e-03 1 -0.2812 1.4263)" class="st5" width="2.5" height="1.5"/>
				</g>
			</g>
			<g>
				<g>
					<g>
						
							<rect x="350.06" y="67.42" transform="matrix(1 -3.805021e-03 3.805021e-03 1 -0.2825 1.3582)" class="st4" width="13.48" height="15"/>
					</g>
					
						<rect x="351.05" y="73.97" transform="matrix(1 -3.804575e-03 3.804575e-03 1 -0.2817 1.3409)" class="st5" width="2.5" height="1.5"/>
					
						<rect x="355.54" y="73.95" transform="matrix(1 -3.804497e-03 3.804497e-03 1 -0.2816 1.358)" class="st5" width="2.5" height="1.5"/>
					
						<rect x="360.02" y="73.94" transform="matrix(1 -3.804575e-03 3.804575e-03 1 -0.2815 1.375)" class="st5" width="2.5" height="1.5"/>
				</g>
			</g>
			<g>
				<g>
					<g>
						
							<rect x="336.58" y="67.47" transform="matrix(1 -3.802753e-03 3.802753e-03 1 -0.2826 1.3061)" class="st4" width="13.48" height="15"/>
					</g>
					
						<rect x="337.57" y="74.02" transform="matrix(1 -3.804497e-03 3.804497e-03 1 -0.282 1.2896)" class="st5" width="2.5" height="1.5"/>
					
						<rect x="342.06" y="74" transform="matrix(1 -3.804575e-03 3.804575e-03 1 -0.2819 1.3067)" class="st5" width="2.5" height="1.5"/>
					
						<rect x="346.53" y="73.99" transform="matrix(1 -3.804497e-03 3.804497e-03 1 -0.2818 1.3237)" class="st5" width="2.5" height="1.5"/>
				</g>
			</g>
			<g>
				<g>
					<g>
						
							<rect x="323.1" y="67.53" transform="matrix(1 -3.805021e-03 3.805021e-03 1 -0.2831 1.2556)" class="st4" width="13.48" height="15"/>
					</g>
					
						<rect x="324.09" y="74.07" transform="matrix(1 -3.804575e-03 3.804575e-03 1 -0.2823 1.2383)" class="st5" width="2.5" height="1.5"/>
					
						<rect x="328.58" y="74.06" transform="matrix(1 -3.804497e-03 3.804497e-03 1 -0.2822 1.2554)" class="st5" width="2.5" height="1.5"/>
					
						<rect x="333.05" y="74.04" transform="matrix(1 -3.804575e-03 3.804575e-03 1 -0.2821 1.2724)" class="st5" width="2.5" height="1.5"/>
				</g>
			</g>
			<g>
				<g>
					<g>
						
							<rect x="309.61" y="67.58" transform="matrix(1 -3.802753e-03 3.802753e-03 1 -0.2832 1.2036)" class="st4" width="13.48" height="15"/>
					</g>
					
						<rect x="310.61" y="74.12" transform="matrix(1 -3.804497e-03 3.804497e-03 1 -0.2826 1.187)" class="st5" width="2.5" height="1.5"/>
					
						<rect x="315.1" y="74.11" transform="matrix(1 -3.804575e-03 3.804575e-03 1 -0.2825 1.2041)" class="st5" width="2.5" height="1.5"/>
					
						<rect x="319.57" y="74.09" transform="matrix(1 -3.804497e-03 3.804497e-03 1 -0.2824 1.2211)" class="st5" width="2.5" height="1.5"/>
				</g>
			</g>
			<g>
				<g>
					<g>
						
							<rect x="296.13" y="67.63" transform="matrix(1 -3.805017e-03 3.805017e-03 1 -0.2837 1.153)" class="st4" width="13.48" height="15"/>
					</g>
					
						<rect x="297.13" y="74.18" transform="matrix(1 -3.804575e-03 3.804575e-03 1 -0.2829 1.1357)" class="st5" width="2.5" height="1.5"/>
					
						<rect x="301.61" y="74.16" transform="matrix(1 -3.804497e-03 3.804497e-03 1 -0.2828 1.1528)" class="st5" width="2.5" height="1.5"/>
					
						<rect x="306.09" y="74.14" transform="matrix(1 -3.804575e-03 3.804575e-03 1 -0.2827 1.1698)" class="st5" width="2.5" height="1.5"/>
				</g>
			</g>
			<g>
				<g>
					<g>
						
							<rect x="282.65" y="67.68" transform="matrix(1 -3.802757e-03 3.802757e-03 1 -0.2838 1.101)" class="st4" width="13.48" height="15"/>
					</g>
					
						<rect x="283.64" y="74.23" transform="matrix(1 -3.804497e-03 3.804497e-03 1 -0.2832 1.0844)" class="st5" width="2.5" height="1.5"/>
					
						<rect x="288.13" y="74.21" transform="matrix(1 -3.804575e-03 3.804575e-03 1 -0.2831 1.1015)" class="st5" width="2.5" height="1.5"/>
					
						<rect x="292.61" y="74.19" transform="matrix(1 -3.804497e-03 3.804497e-03 1 -0.283 1.1185)" class="st5" width="2.5" height="1.5"/>
				</g>
			</g>
			<g>
				<g>
					<g>
						
							<rect x="269.17" y="67.73" transform="matrix(1 -3.805017e-03 3.805017e-03 1 -0.2843 1.0504)" class="st4" width="13.48" height="15"/>
					</g>
					
						<rect x="270.16" y="74.28" transform="matrix(1 -3.804575e-03 3.804575e-03 1 -0.2835 1.0332)" class="st5" width="2.5" height="1.5"/>
					
						<rect x="274.65" y="74.26" transform="matrix(1 -3.794325e-03 3.794325e-03 1 -0.2826 1.0474)" class="st5" width="2.5" height="1.5"/>
					
						<rect x="279.12" y="74.24" transform="matrix(1 -3.804575e-03 3.804575e-03 1 -0.2833 1.0673)" class="st5" width="2.5" height="1.5"/>
				</g>
			</g>
			<g>
				<g>
					<g>
						
							<rect x="255.68" y="67.78" transform="matrix(1 -3.802757e-03 3.802757e-03 1 -0.2844 0.9985)" class="st4" width="13.48" height="15"/>
					</g>
					
						<rect x="256.68" y="74.33" transform="matrix(1 -3.794325e-03 3.794325e-03 1 -0.283 0.9792)" class="st5" width="2.5" height="1.5"/>
					
						<rect x="261.17" y="74.31" transform="matrix(1 -3.804575e-03 3.804575e-03 1 -0.2837 0.9989)" class="st5" width="2.5" height="1.5"/>
					
						<rect x="265.64" y="74.3" transform="matrix(1 -3.804497e-03 3.804497e-03 1 -0.2836 1.0159)" class="st5" width="2.5" height="1.5"/>
				</g>
			</g>
			<g>
				<g>
					<g>
						
							<rect x="242.2" y="67.83" transform="matrix(1 -3.805017e-03 3.805017e-03 1 -0.2848 0.9478)" class="st4" width="13.48" height="15"/>
					</g>
					
						<rect x="243.2" y="74.38" transform="matrix(1 -3.804575e-03 3.804575e-03 1 -0.2841 0.9306)" class="st5" width="2.5" height="1.5"/>
					
						<rect x="247.69" y="74.36" transform="matrix(1 -3.804497e-03 3.804497e-03 1 -0.284 0.9476)" class="st5" width="2.5" height="1.5"/>
					
						<rect x="252.16" y="74.35" transform="matrix(1 -3.794402e-03 3.794402e-03 1 -0.2831 0.9621)" class="st5" width="2.5" height="1.5"/>
				</g>
			</g>
			<g>
				<g>
					<g>
						
							<rect x="228.72" y="67.89" transform="matrix(1 -3.802755e-03 3.802755e-03 1 -0.285 0.8959)" class="st4" width="13.48" height="15"/>
					</g>
					
						<rect x="229.72" y="74.43" transform="matrix(1 -3.804497e-03 3.804497e-03 1 -0.2844 0.8793)" class="st5" width="2.5" height="1.5"/>
					
						<rect x="234.2" y="74.41" transform="matrix(1 -3.804575e-03 3.804575e-03 1 -0.2843 0.8964)" class="st5" width="2.5" height="1.5"/>
					
						<rect x="238.68" y="74.4" transform="matrix(1 -3.804497e-03 3.804497e-03 1 -0.2842 0.9134)" class="st5" width="2.5" height="1.5"/>
				</g>
			</g>
			<g>
				<g>
					<g>
						
							<rect x="215.24" y="67.94" transform="matrix(1 -3.805019e-03 3.805019e-03 1 -0.2854 0.8452)" class="st4" width="13.48" height="15"/>
					</g>
					
						<rect x="216.23" y="74.48" transform="matrix(1 -3.804575e-03 3.804575e-03 1 -0.2847 0.828)" class="st5" width="2.5" height="1.5"/>
					
						<rect x="220.72" y="74.47" transform="matrix(1 -3.804497e-03 3.804497e-03 1 -0.2846 0.845)" class="st5" width="2.5" height="1.5"/>
					
						<rect x="225.2" y="74.45" transform="matrix(1 -3.804575e-03 3.804575e-03 1 -0.2845 0.8621)" class="st5" width="2.5" height="1.5"/>
				</g>
			</g>
			<g>
				<g>
					<g>
						
							<rect x="201.76" y="67.99" transform="matrix(1 -3.802755e-03 3.802755e-03 1 -0.2856 0.7934)" class="st4" width="13.48" height="15"/>
					</g>
					
						<rect x="202.75" y="74.53" transform="matrix(1 -3.804497e-03 3.804497e-03 1 -0.2849 0.7767)" class="st5" width="2.5" height="1.5"/>
					
						<rect x="207.24" y="74.52" transform="matrix(1 -3.799488e-03 3.799488e-03 1 -0.2845 0.7927)" class="st5" width="2.5" height="1.5"/>
					
						<rect x="211.71" y="74.5" transform="matrix(1 -3.804497e-03 3.804497e-03 1 -0.2847 0.8108)" class="st5" width="2.5" height="1.5"/>
				</g>
			</g>
			<g>
				<g>
					<g>
						
							<rect x="188.27" y="68.04" transform="matrix(1 -3.805019e-03 3.805019e-03 1 -0.286 0.7426)" class="st4" width="13.48" height="15"/>
					</g>
					
						<rect x="189.27" y="74.59" transform="matrix(1 -3.804575e-03 3.804575e-03 1 -0.2852 0.7254)" class="st5" width="2.5" height="1.5"/>
					
						<rect x="193.76" y="74.57" transform="matrix(1 -3.799411e-03 3.799411e-03 1 -0.2848 0.7415)" class="st5" width="2.5" height="1.5"/>
					
						<rect x="198.23" y="74.55" transform="matrix(1 -3.804575e-03 3.804575e-03 1 -0.285 0.7595)" class="st5" width="2.5" height="1.5"/>
				</g>
			</g>
			<g>
				<g>
					<g>
						
							<rect x="174.79" y="68.09" transform="matrix(1 -3.802755e-03 3.802755e-03 1 -0.2861 0.6909)" class="st4" width="13.48" height="15"/>
					</g>
					
						<rect x="175.79" y="74.64" transform="matrix(1 -3.799411e-03 3.799411e-03 1 -0.2851 0.6732)" class="st5" width="2.5" height="1.5"/>
					
						<rect x="180.28" y="74.62" transform="matrix(1 -3.804575e-03 3.804575e-03 1 -0.2854 0.6912)" class="st5" width="2.5" height="1.5"/>
					
						<rect x="184.75" y="74.6" transform="matrix(1 -3.804497e-03 3.804497e-03 1 -0.2853 0.7082)" class="st5" width="2.5" height="1.5"/>
				</g>
			</g>
			<g>
				<g>
					<g>
						
							<rect x="161.31" y="68.14" transform="matrix(1 -3.805019e-03 3.805019e-03 1 -0.2866 0.64)" class="st4" width="13.48" height="15"/>
					</g>
					
						<rect x="162.31" y="74.69" transform="matrix(1 -3.804575e-03 3.804575e-03 1 -0.2858 0.6228)" class="st5" width="2.5" height="1.5"/>
					
						<rect x="166.79" y="74.67" transform="matrix(1 -3.801954e-03 3.801954e-03 1 -0.2855 0.6394)" class="st5" width="2.5" height="1.5"/>
					
						<rect x="171.27" y="74.65" transform="matrix(1 -3.799488e-03 3.799488e-03 1 -0.2853 0.656)" class="st5" width="2.5" height="1.5"/>
				</g>
			</g>
			<g>
				<g>
					<g>
						
							<rect x="147.83" y="68.19" transform="matrix(1 -3.802755e-03 3.802755e-03 1 -0.2867 0.5883)" class="st4" width="13.48" height="15"/>
					</g>
					
						<rect x="148.82" y="74.74" transform="matrix(1 -3.804497e-03 3.804497e-03 1 -0.2861 0.5715)" class="st5" width="2.5" height="1.5"/>
					
						<rect x="153.31" y="74.72" transform="matrix(1 -3.802032e-03 3.802032e-03 1 -0.2858 0.5882)" class="st5" width="2.5" height="1.5"/>
					
						<rect x="157.79" y="74.71" transform="matrix(1 -3.804497e-03 3.804497e-03 1 -0.2859 0.6056)" class="st5" width="2.5" height="1.5"/>
				</g>
			</g>
			<g>
				<g>
					<g>
						
							<rect x="134.35" y="68.24" transform="matrix(1 -3.805018e-03 3.805018e-03 1 -0.2872 0.5374)" class="st4" width="13.48" height="15"/>
					</g>
					
						<rect x="135.34" y="74.79" transform="matrix(1 -3.804575e-03 3.804575e-03 1 -0.2864 0.5202)" class="st5" width="2.5" height="1.5"/>
					
						<rect x="139.83" y="74.77" transform="matrix(1 -3.804497e-03 3.804497e-03 1 -0.2863 0.5373)" class="st5" width="2.5" height="1.5"/>
					
						<rect x="144.3" y="74.76" transform="matrix(1 -3.804575e-03 3.804575e-03 1 -0.2862 0.5543)" class="st5" width="2.5" height="1.5"/>
				</g>
			</g>
			<g>
				<g>
					<g>
						
							<rect x="120.86" y="68.3" transform="matrix(1 -3.802755e-03 3.802755e-03 1 -0.2873 0.4858)" class="st4" width="13.48" height="15"/>
					</g>
					
						<rect x="121.86" y="74.84" transform="matrix(1 -3.803861e-03 3.803861e-03 1 -0.2867 0.4688)" class="st5" width="2.5" height="1.5"/>
					
						<rect x="126.35" y="74.83" transform="matrix(1 -3.804575e-03 3.804575e-03 1 -0.2866 0.486)" class="st5" width="2.5" height="1.5"/>
					
						<rect x="130.82" y="74.81" transform="matrix(1 -3.804497e-03 3.804497e-03 1 -0.2865 0.503)" class="st5" width="2.5" height="1.5"/>
				</g>
			</g>
			<g>
				<g>
					<g>
						
							<rect x="107.38" y="68.35" transform="matrix(1 -3.805019e-03 3.805019e-03 1 -0.2878 0.4348)" class="st4" width="13.48" height="15"/>
					</g>
					
						<rect x="108.38" y="74.89" transform="matrix(1 -3.803939e-03 3.803939e-03 1 -0.287 0.4176)" class="st5" width="2.5" height="1.5"/>
					
						<rect x="112.87" y="74.88" transform="matrix(1 -3.803861e-03 3.803861e-03 1 -0.2868 0.4346)" class="st5" width="2.5" height="1.5"/>
					
						<rect x="117.34" y="74.86" transform="matrix(1 -3.803939e-03 3.803939e-03 1 -0.2868 0.4517)" class="st5" width="2.5" height="1.5"/>
				</g>
			</g>
			<g>
				<g>
					<g>
						
							<rect x="93.9" y="68.4" transform="matrix(1 -3.802755e-03 3.802755e-03 1 -0.2879 0.3833)" class="st4" width="13.48" height="15"/>
					</g>
					
						<rect x="94.89" y="74.94" transform="matrix(1 -3.803861e-03 3.803861e-03 1 -0.2872 0.3663)" class="st5" width="2.5" height="1.5"/>
					
						<rect x="99.38" y="74.93" transform="matrix(1 -3.803861e-03 3.803861e-03 1 -0.2871 0.3833)" class="st5" width="2.5" height="1.5"/>
					
						<rect x="103.86" y="74.91" transform="matrix(1 -3.803861e-03 3.803861e-03 1 -0.287 0.4004)" class="st5" width="2.5" height="1.5"/>
				</g>
			</g>
			<g>
				<g>
					<g>
						
							<rect x="80.42" y="68.45" transform="matrix(1 -3.805019e-03 3.805019e-03 1 -0.2884 0.3322)" class="st4" width="13.48" height="15"/>
					</g>
					
						<rect x="81.41" y="75" transform="matrix(1 -3.803303e-03 3.803303e-03 1 -0.2875 0.3149)" class="st5" width="2.5" height="1.5"/>
					
						<rect x="85.9" y="74.98" transform="matrix(1 -3.804497e-03 3.804497e-03 1 -0.2875 0.3321)" class="st5" width="2.5" height="1.5"/>
					
						<rect x="90.37" y="74.96" transform="matrix(1 -3.804575e-03 3.804575e-03 1 -0.2874 0.3491)" class="st5" width="2.5" height="1.5"/>
				</g>
			</g>
			<g>
				<g>
					<g>
						
							<rect x="66.94" y="68.5" transform="matrix(1 -3.802755e-03 3.802755e-03 1 -0.2885 0.2807)" class="st4" width="13.48" height="15"/>
					</g>
					
						<rect x="67.93" y="75.05" transform="matrix(1 -3.801954e-03 3.801954e-03 1 -0.2877 0.2636)" class="st5" width="2.5" height="1.5"/>
					
						<rect x="72.42" y="75.03" transform="matrix(1 -3.804497e-03 3.804497e-03 1 -0.2878 0.2808)" class="st5" width="2.5" height="1.5"/>
					
						<rect x="76.89" y="75.01" transform="matrix(1 -3.803226e-03 3.803226e-03 1 -0.2876 0.2977)" class="st5" width="2.5" height="1.5"/>
				</g>
			</g>
			<g>
				<g>
					<g>
						
							<rect x="53.45" y="68.55" transform="matrix(1 -3.805018e-03 3.805018e-03 1 -0.2889 0.2296)" class="st4" width="13.48" height="15"/>
					</g>
					
						<rect x="54.45" y="75.1" transform="matrix(1 -3.804575e-03 3.804575e-03 1 -0.2882 0.2125)" class="st5" width="2.5" height="1.5"/>
					
						<rect x="58.94" y="75.08" transform="matrix(1 -3.804497e-03 3.804497e-03 1 -0.2881 0.2295)" class="st5" width="2.5" height="1.5"/>
					
						<rect x="63.41" y="75.06" transform="matrix(1 -3.802032e-03 3.802032e-03 1 -0.2878 0.2464)" class="st5" width="2.5" height="1.5"/>
				</g>
			</g>
		</g>
	</g>
</g>
<text transform="matrix(1 0 0 1 231.6361 333.009)" class="st1 st6">0</text>
<text transform="matrix(1 0 0 1 298.5633 333.009)" class="st1 st6">1</text>
<text transform="matrix(1 0 0 1 358.8863 333.0087)" class="st1 st6">2</text>
<text transform="matrix(1 0 0 1 420.146 333.0089)" class="st1 st6">3</text>
<text transform="matrix(1 0 0 1 480.5614 333.0092)" class="st1 st6">4</text>
<text transform="matrix(1 0 0 1 543.6627 332.9685)" class="st1 st6">5</text>
<text transform="matrix(1 0 0 1 170.5631 332.9688)" class="st1 st6">-1</text>
<text transform="matrix(1 0 0 1 107.4163 333.0089)" class="st1 st6">-2</text>
<text transform="matrix(1 0 0 1 46.2148 332.9686)" class="st1 st6">-3</text>
<text transform="matrix(1 0 0 1 298.3586 332.9689)" class="st1 st6">1</text>
<text transform="matrix(1 0 0 1 61.0014 62.8433)" class="st1 st6">RDI</text>
<text transform="matrix(1 0 0 1 344.3442 305.3385)" class="st1 st2">Weeks Prior &amp; After the Start of Protests</text>
<text transform="matrix(1 0 0 1 26.8687 35.264)" class="st7 st6">RDI Trends in Manhattan During the 2014 Brown Protests</text>
<text transform="matrix(1 0 0 1 30.5106 295.0008)" class="st1 st2">0.1</text>
<text transform="matrix(1 0 0 1 30.1082 246.8087)" class="st1 st2">0.3</text>
<text transform="matrix(1 0 0 1 29.741 198.928)" class="st1 st2">0.5</text>
<text transform="matrix(1 0 0 1 30.1427 151.0397)" class="st1 st2">0.7</text>
<text transform="matrix(1 0 0 1 29.7411 103.3637)" class="st1 st2">0.9</text>
<polyline class="st8" points="52.44,77.99 114.53,59.96 176.41,97.66 237.57,54.12 361.85,54.02 423.12,108.62 484.87,107.29 
	546.98,86.29 "/>
</svg>
