<?xml version="1.0" encoding="utf-8"?>
<!-- Generator: Adobe Illustrator 24.3.0, SVG Export Plug-In . SVG Version: 6.00 Build 0)  -->
<svg version="1.1" id="Layer_1" xmlns="http://www.w3.org/2000/svg" xmlns:xlink="http://www.w3.org/1999/xlink" x="0px" y="0px"
	 viewBox="0 0 600 350" style="enable-background:new 0 0 600 350;" xml:space="preserve">
<style type="text/css">
	.st0{fill:#666666;stroke:#000000;stroke-miterlimit:10;}
	.st1{fill:#FFFFFF;stroke:#000000;stroke-miterlimit:10;}
	.st2{fill:#808080;stroke:#000000;stroke-miterlimit:10;}
	.st3{stroke:#FFFFFF;stroke-miterlimit:10;}
	.st4{font-family:'Graphik-Regular';}
	.st5{font-size:12px;}
	.st6{fill:none;}
	.st7{font-family:'Graphik-Bold';}
	.st8{font-size:14px;}
	.st9{fill:#777777;}
	.st10{font-size:8px;}
	.st11{font-size:18px;}
	.st12{font-size:4px;}
	.st13{fill:#606060;stroke:#000000;stroke-miterlimit:10;}
</style>
<path class="st0" d="M76.2,109.7c3,0.2,3.8,1.2,3.8,1.2s1.3,5,0.6,5.8c0,0-0.5,1.2-0.8,1.3c-0.3,0.2,0.4,1.2,0.4,1.2
	s7.3,2.8,7.3,3.2s2.3,8.5,2.5,8.6s0.8,16.2-0.9,16.4v1.5c0,0-1.6,1.8-2,1.8s-0.4,9.4-0.1,9.6s1.6,5.1,1.6,5.1l0.7,12.5l-0.7,0.4
	l0.2,0.7c0,0,4.2,3.7-0.5,2.9c0,0-3.4-0.1-3.2-2.3l-0.1-0.5h-0.9l-1.7-13.4L80,151.8l-0.3-0.1l1.9,26.7l-0.5,0.8c0,0,0.2,3-1.5,2.6
	c0,0-5.9,0.7-4.3-0.9c1.6-1.7,1.9-1.6,1.8-2.1s-0.1-0.6-0.1-0.6h-0.4c0,0-0.9-15.1-1.2-16.5s-2.7-9.8-2.7-9.8s-0.9,1.4-1.6,1.2
	c-0.8-0.2-1.8-0.2-2-1.2c-0.1-0.9,0.4-27.1,0.4-27.1l5.4-4.4c0,0,0.5-1.4,0.2-1.4c-0.2,0-0.9-1-1-1.6c-0.2-0.6-0.8-4.3-0.4-5.1
	C73.8,112.3,73.8,109.6,76.2,109.7z"/>
<path class="st1" d="M106.6,103.7C106.6,103.7,106.7,103.7,106.6,103.7c0.1,0,0.1,0,0.2,0c5.2,0.2,4.2,7.4,4.2,7.4s-0.2,2.1-1.4,2
	c0,0-0.2,2.4,2,3.1s5.6,2.2,6.2,3.5s3.3,4.8,3.3,6.3s0.9,2.3,0.9,2.3l-1,0.4c0,0,0.5,2.6,0.7,2.8s1.4,7.7,1.1,9.4s-1,6.7-0.9,8.2
	s-0.4,4.5-2,4.4c0,0-1.7,1.8-2.6,1.4s0,3,0,3s1.6,18.9,0.6,19.2s0,0.8,0.1,1.1s0.7,2.1-0.3,1.9s0.2,0.4,1.3,1.8
	c1.1,1.4,1.9,3.4,0.7,4.6c-1.3,1.2-3.2,0.9-3.2,0.9s-2.1-0.3-2.2-1.1c0,0-1.4-1.7-1.2-2.7c0,0-1.4-1.4-1.1-2
	c0.3-0.7-1.1,0.2-0.9-0.7c0.3-0.9-0.8-0.3-0.2-1.3s-1.4-1.6-0.5-1.8s-0.1-16-0.6-17.2s-1.4-3.1-1.5-6.1c-0.2-3-0.3,1.6-0.3,1.6
	s0.7,9.6,0,10.4s-0.3,8.8-0.3,8.8l0.3,4.5c0,0,0.9-0.1,0.4,0.6s0.3,1.2-0.7,0.9s0.6,1.1-0.3,1.9c-0.9,0.8-1.3,1.9-1.8,1.2
	s0.3,2.2-0.4,3c-0.8,0.8-8.5,4.1-6.8,0.1s2.2-3,2.2-3s-0.4-1.9,0.1-1.7s0.7-1.6,1.3-1.4s-1.9-1.6-1-1.8s-2.8-23.4-2.2-23.6
	c0.6-0.1-3.4-2.2-3.2-2.8c0.2-0.6-0.3-8.8-0.6-9.5c-0.3-0.6-1.1-13.8-0.4-13.8s-2.2-2.2-2.2-2.2s3.8-3.9,3.9-6.3
	c0-2.5,7.3-5.1,7.3-5.1s1.1-1.6,0.6-2.6c0,0-1.1-0.4-1.1-1.4s-2-8.6,2.2-8.2L106.6,103.7L106.6,103.7z"/>
<path class="st1" d="M94.4,129.1L94.4,129.1c3.6,0.1,3.6,2.6,3.6,2.6s0.2,2.1,0,2.3s-0.3,0.4-0.3,0.4s0.6,0.3,0.5,0.4
	c-0.1,0.2,0,0.7-0.2,0.8c0,0,0.2,1.1-0.5,0.8c0,0-0.5,0.3-0.2,0.4s1.1-0.3,1.2,0c0.1,0.4,1.3,3.4,1.8,3.4s0.4,0.8,0.4,0.8l1.7,0.9
	c0,0,1.3,1.1,1.3,1.5s3.6,6.9,3.4,7.3s0.7,8,0.3,8.3c-0.3,0.3,0.2,5,0,5s-3,4.1-3.4,4c-0.4,0-0.4,1-1.3,0.7s-1-0.6-1-0.6
	s-0.5,0.8-0.3,0.8s0.4,3.7,0.2,3.7s0.6,5-0.1,5c0,0,0,4.9-0.3,5.1s1.9,6.1,1.4,6.5c0,0-0.1,2.6-0.6,2.6s0.6,1.4,0.3,1.7
	c-0.3,0.4-0.2,1.3-0.7,0.9c-0.5-0.4,0.6,3.2-0.2,3.2s2.6,4.3,1,4.7s-4.1,0.2-4.1-2.1c0,0-2.1-0.7-1.5-2.8c0,0-0.9-0.2-0.7-2.7
	l-0.8-0.4c0,0,0.2-1,0.5-1.3s-0.4-0.7-0.4-0.7s-0.9-1-0.1-4.2s-0.5-6.4-0.3-8c0.2-1.7-1-4.1-0.9-4.9s-0.1-1.1-0.1-1.1l-0.3,0.1
	c0,0,0.3,2.6,0,2.8s-0.4,2.1-0.4,2.1s-0.6,5.2-1.1,5.2s0.3,8.4,0.6,8.4s0.1,0.7,0.1,0.7s0.4,0,0.2,0.4c-0.2,0.3-0.9,3.6-1.4,3.4
	c-0.6-0.2,0.1,0.8,0,0.9s-0.6,1.5-1.1,1s0.3,1.2-0.2,1.8s-3,1.4-4.1-0.4c0,0-0.3-0.9,0-1.3s1.2-2,1.1-2.2s-0.2-1.8,0.1-2.3
	c0.3-0.5-1.5-2.7,0.2-3.4c0,0-0.6-0.9-0.6-1.2c0-0.4,0.3-7.7,0.2-8c-0.1-0.3-1.2-4.9-1.1-5.8c0.1-0.9,0.1-7.2,0.5-7.5
	s-0.3-0.1-0.3-0.9s-0.5,0.2-0.5-0.4s-0.6,1.4-0.9,0.5s-1.3-2.1-1.7-1.8c0,0-1.7-4-1.4-5.1s1.8-20,4.6-19.6c0,0,1.6,0,1.5-0.4
	s0.3-3.8,1.2-3.8s2.6-0.3,2.6,0s-0.2-1.7-0.2-1.7s-0.5-0.5-0.5-1.6s0.6-0.6,0.6-0.6s-0.1-2,0.4-2.6
	C92.6,130.1,92.4,129.4,94.4,129.1z"/>
<path class="st0" d="M67.3,125.9c3,0.2,3.8,1.2,3.8,1.2s1.3,5,0.6,5.8c0,0-0.5,1.2-0.8,1.3s0.4,1.2,0.4,1.2s7.3,2.8,7.3,3.2
	s2.3,8.5,2.5,8.6s0.8,16.2-0.9,16.4v1.5c0,0-1.6,1.8-2,1.8s-0.4,9.4-0.1,9.6s1.6,5.1,1.6,5.1l0.7,12.5l-0.7,0.4l0.2,0.7
	c0,0,4.2,3.7-0.5,2.9c0,0-3.4-0.1-3.2-2.3l-0.1-0.5h-0.9L73.6,182l-2.4-13.9l-0.3-0.1l1.9,26.7l-0.5,0.8c0,0,0.2,3-1.5,2.6
	c0,0-5.9,0.7-4.3-0.9c1.6-1.7,1.9-1.6,1.8-2.1s-0.1-0.6-0.1-0.6h-0.4c0,0-0.9-15.1-1.2-16.5s-2.7-9.8-2.7-9.8s-0.9,1.4-1.6,1.2
	c-0.8-0.2-1.8-0.2-2-1.2c-0.1-0.9,0.4-27.1,0.4-27.1l5.4-4.4c0,0,0.5-1.4,0.2-1.4s-0.9-1-1-1.6c-0.2-0.6-0.8-4.3-0.4-5.1
	C64.9,128.5,64.9,125.8,67.3,125.9z"/>
<path class="st1" d="M81.4,140.4C81.4,140.4,81.5,140.4,81.4,140.4c3.6,0,3.6,2.6,3.6,2.6s0.2,2.1,0,2.3s-0.3,0.4-0.3,0.4
	s0.6,0.3,0.5,0.4c-0.1,0.2,0,0.7-0.2,0.8c0,0,0.2,1.1-0.5,0.8c0,0-0.5,0.3-0.2,0.4s1.1-0.3,1.2,0c0.1,0.4,1.3,3.4,1.8,3.4
	s0.4,0.8,0.4,0.8l1.7,0.9c0,0,1.3,1.1,1.3,1.5s3.6,6.9,3.4,7.3s0.7,8,0.3,8.3c-0.3,0.3,0.2,5,0,5s-3,4.1-3.4,4c-0.4,0-0.4,1-1.3,0.7
	s-1-0.6-1-0.6s-0.5,0.8-0.3,0.8s0.4,3.7,0.2,3.7s0.6,5-0.1,5c0,0,0,4.9-0.3,5.1s1.9,6.1,1.4,6.5c0,0-0.1,2.6-0.6,2.6
	s0.6,1.4,0.3,1.7s-0.2,1.3-0.7,0.9c-0.5-0.4,0.6,3.2-0.2,3.2c-0.8,0,2.6,4.3,1,4.7s-4.1,0.2-4.1-2.1c0,0-2.1-0.7-1.5-2.8
	c0,0-0.9-0.2-0.7-2.7l-0.8-0.4c0,0,0.2-1,0.5-1.3s-0.4-0.7-0.4-0.7s-0.9-1-0.1-4.2s-0.5-6.4-0.3-8s-1-4.1-0.9-4.9
	c0.1-0.8-0.1-1.1-0.1-1.1l-0.3,0.1c0,0,0.3,2.6,0,2.8s-0.4,2.1-0.4,2.1s-0.6,5.2-1.1,5.2s0.3,8.4,0.6,8.4c0.3,0,0.1,0.7,0.1,0.7
	s0.4,0,0.2,0.4c-0.2,0.3-0.9,3.6-1.4,3.4s0.1,0.8,0,0.9s-0.6,1.5-1.1,1s0.3,1.2-0.2,1.8s-3,1.4-4.1-0.4c0,0-0.3-0.9,0-1.3
	c0.3-0.4,1.2-2,1.1-2.2s-0.2-1.8,0.1-2.3c0.3-0.5-1.5-2.7,0.2-3.4c0,0-0.6-0.9-0.6-1.2c0-0.4,0.3-7.7,0.2-8
	c-0.1-0.3-1.2-4.9-1.1-5.8c0.1-0.9,0.1-7.2,0.5-7.5s-0.3-0.1-0.3-0.9s-0.5,0.2-0.5-0.4s-0.6,1.4-0.9,0.5s-1.3-2.1-1.7-1.8
	c0,0-1.7-4-1.4-5.1c0.3-1.1,1.8-20,4.6-19.6c0,0,1.6,0,1.5-0.4s0.3-3.8,1.2-3.8s2.6-0.3,2.6,0s-0.2-1.7-0.2-1.7s-0.5-0.5-0.5-1.6
	s0.6-0.6,0.6-0.6s-0.1-2,0.4-2.6C79.7,141.3,79.5,140.6,81.4,140.4z"/>
<path class="st0" d="M109.4,128C109.5,128,109.5,128,109.4,128c0.1,0,0.1,0,0.2,0c4.8,0.1,3.9,6.8,3.9,6.8s-0.2,1.9-1.3,1.9
	c0,0-0.2,2.2,1.8,2.8s5.1,2,5.7,3.2s3,4.4,3,5.8c0,1.4,0.9,2.1,0.9,2.1l-0.9,0.4c0,0,0.4,2.4,0.6,2.6c0.2,0.2,1.3,7,1,8.7
	s-0.9,6.1-0.8,7.5s-0.3,4.2-1.9,4.1c0,0-1.6,1.7-2.4,1.3s0,2.8,0,2.8s1.5,17.4,0.5,17.7c-0.9,0.3,0,0.7,0.1,1s0.7,1.9-0.3,1.7
	c-0.9-0.2,0.2,0.3,1.2,1.6s1.8,3.1,0.6,4.2c-1.2,1.1-2.9,0.8-2.9,0.8s-1.9-0.3-2-1c0,0-1.3-1.6-1.1-2.5c0,0-1.3-1.3-1-1.9
	s-1,0.2-0.8-0.7s-0.8-0.2-0.2-1.2s-1.3-1.4-0.4-1.7c0.8-0.3-0.1-14.7-0.6-15.8s-1.3-2.9-1.4-5.6s-0.3,1.5-0.3,1.5s0.6,8.8,0,9.5
	s-0.3,8.1-0.3,8.1l0.3,4.1c0,0,0.8-0.1,0.4,0.6c-0.5,0.7,0.3,1.1-0.7,0.9c-1-0.2,0.6,1-0.3,1.7s-1.2,1.7-1.7,1.1s0.3,2-0.4,2.8
	s-7.8,3.8-6.2,0.1c1.6-3.8,2-2.8,2-2.8s-0.3-1.8,0.1-1.6s0.6-1.5,1.2-1.3s-1.8-1.5-0.9-1.6c0.9-0.2-2.6-21.5-2.1-21.6s-3.1-2-3-2.5
	c0.2-0.6-0.3-8.1-0.6-8.7c-0.3-0.6-1-12.7-0.3-12.7s-2-2-2-2s3.5-3.6,3.6-5.8s6.7-4.7,6.7-4.7s1-1.4,0.6-2.4c0,0-1-0.4-1-1.3
	c0-1-1.8-7.9,2-7.6L109.4,128L109.4,128z"/>
<path class="st2" d="M67.9,152.1L67.9,152.1C68,152.1,68,152.1,67.9,152.1c4.4,0.1,3.5,6.1,3.5,6.1s-0.2,1.7-1.2,1.7
	c0,0-0.2,2,1.7,2.5c1.8,0.5,4.6,1.8,5.1,2.9c0.5,1.1,2.7,3.9,2.7,5.1s0.8,1.9,0.8,1.9l-0.8,0.4c0,0,0.4,2.1,0.6,2.3s1.1,6.3,0.9,7.7
	s-0.8,5.5-0.7,6.7c0.1,1.2-0.3,3.7-1.7,3.6c0,0-1.4,1.5-2.1,1.1s0,2.5,0,2.5s1.3,15.5,0.5,15.8s0,0.6,0.1,0.9
	c0.1,0.2,0.6,1.7-0.2,1.5s0.1,0.3,1,1.4c0.9,1.1,1.6,2.8,0.6,3.8s-2.6,0.8-2.6,0.8s-1.7-0.3-1.8-0.9c0,0-1.2-1.4-1-2.3
	c0,0-1.2-1.1-0.9-1.7s-0.9,0.2-0.7-0.6s-0.7-0.2-0.2-1s-1.1-1.3-0.4-1.5s-0.1-13.1-0.5-14.1s-1.1-2.6-1.3-5
	c-0.1-2.4-0.2,1.3-0.2,1.3s0.5,7.9,0,8.5s-0.2,7.2-0.2,7.2l0.2,3.7c0,0,0.7-0.1,0.3,0.5c-0.4,0.6,0.3,0.9-0.6,0.8
	c-0.9-0.2,0.5,0.9-0.2,1.5s-1,1.5-1.5,0.9s0.3,1.8-0.4,2.5s-7,3.4-5.5,0.1c1.4-3.3,1.8-2.5,1.8-2.5s-0.3-1.6,0.1-1.4
	s0.6-1.3,1.1-1.1c0.5,0.2-1.6-1.3-0.8-1.4c0.8-0.1-2.3-19.2-1.8-19.3s-2.8-1.8-2.7-2.3s-0.2-7.2-0.5-7.8c-0.2-0.5-0.9-11.3-0.3-11.3
	s-1.8-1.8-1.8-1.8s3.2-3.2,3.2-5.2s6-4.2,6-4.2s0.9-1.3,0.5-2.1c0,0-0.9-0.3-0.9-1.2s-1.6-7.1,1.8-6.7h1V152.1z"/>
<path class="st3" d="M92.5,146.4c3,0.1,3.8,1.2,3.8,1.2s1.3,5,0.6,5.8c0,0-0.5,1.2-0.8,1.3s0.4,1.2,0.4,1.2s7.3,2.8,7.3,3.2
	s2.3,8.5,2.5,8.6s0.8,16.2-0.9,16.4v1.5c0,0-1.6,1.8-2,1.8s-0.4,9.4-0.1,9.6s1.6,5.1,1.6,5.1l0.7,12.5l-0.7,0.4l0.2,0.7
	c0,0,4.2,3.7-0.5,2.9c0,0-3.4-0.1-3.2-2.3l-0.1-0.5h-0.9l-1.7-13.4l-2.4-13.9l-0.3-0.1l1.9,26.7l-0.5,0.8c0,0,0.2,3-1.5,2.6
	c0,0-5.9,0.7-4.3-0.9s1.9-1.6,1.8-2.1s-0.1-0.6-0.1-0.6h-0.4c0,0-0.9-15.1-1.2-16.5s-2.7-9.8-2.7-9.8s-0.9,1.4-1.6,1.2
	s-1.8-0.2-2-1.2c-0.1-0.9,0.4-27.1,0.4-27.1l5.4-4.4c0,0,0.5-1.4,0.2-1.4s-0.9-1-1-1.6c-0.2-0.6-0.8-4.3-0.4-5.1
	C90.1,148.9,90.1,146.3,92.5,146.4z"/>
<path class="st0" d="M86.9,156c3,0.1,3.8,1.2,3.8,1.2s1.3,5,0.6,5.8c0,0-0.5,1.2-0.8,1.3s0.4,1.2,0.4,1.2s7.3,2.8,7.3,3.2
	s2.3,8.5,2.5,8.6s0.8,16.2-0.9,16.4v1.5c0,0-1.6,1.8-2,1.8s-0.4,9.4-0.1,9.6s1.6,5.1,1.6,5.1l0.7,12.5l-0.7,0.4l0.2,0.7
	c0,0,4.2,3.7-0.5,2.9c0,0-3.4-0.1-3.2-2.3l-0.1-0.5h-0.9L93.2,212l-2.4-13.9l-0.3-0.1l1.9,26.7l-0.5,0.8c0,0,0.2,3-1.5,2.6
	c0,0-5.9,0.7-4.3-0.9s1.9-1.6,1.8-2.1s-0.1-0.6-0.1-0.6h-0.4c0,0-0.9-15.1-1.2-16.5s-2.7-9.8-2.7-9.8s-0.9,1.4-1.6,1.2
	s-1.8-0.2-2-1.2c-0.1-0.9,0.4-27.1,0.4-27.1l5.4-4.4c0,0,0.5-1.4,0.2-1.4c-0.2,0-0.9-1-1-1.6c-0.2-0.6-0.8-4.3-0.4-5.1
	C84.5,158.5,84.5,155.8,86.9,156z"/>
<path class="st0" d="M132.1,103.7C132.1,103.7,132.2,103.7,132.1,103.7c0.1,0,0.1,0,0.2,0c4.8,0.1,3.9,6.8,3.9,6.8s-0.2,1.9-1.3,1.9
	c0,0-0.2,2.2,1.9,2.8c2,0.6,5.1,2,5.7,3.2s3,4.4,3,5.8s0.9,2.1,0.9,2.1l-0.9,0.4c0,0,0.4,2.4,0.6,2.6s1.3,7,1,8.7s-0.9,6.1-0.8,7.5
	s-0.3,4.2-1.9,4.1c0,0-1.6,1.7-2.4,1.3c-0.8-0.4,0,2.8,0,2.8s1.5,17.4,0.5,17.7c-0.9,0.3,0,0.7,0.1,1s0.6,1.9-0.3,1.7
	s0.2,0.3,1.2,1.6s1.8,3.1,0.6,4.2c-1.2,1.1-2.9,0.8-2.9,0.8s-1.9-0.3-2-1c0,0-1.3-1.6-1.1-2.5c0,0-1.3-1.3-1-1.9s-1,0.2-0.8-0.7
	s-0.8-0.2-0.2-1.2s-1.3-1.4-0.4-1.7s-0.1-14.7-0.6-15.8s-1.3-2.9-1.4-5.6s-0.3,1.5-0.3,1.5s0.6,8.8,0,9.5s-0.3,8.1-0.3,8.1l0.3,4.1
	c0,0,0.8-0.1,0.4,0.6s0.3,1.1-0.7,0.9s0.6,1-0.3,1.7s-1.2,1.7-1.7,1.1s0.3,2-0.4,2.8s-7.8,3.8-6.2,0.1c1.6-3.8,2-2.8,2-2.8
	s-0.3-1.8,0.1-1.6s0.6-1.5,1.2-1.3s-1.8-1.5-0.9-1.6c0.9-0.2-2.6-21.5-2.1-21.6s-3.1-2-3-2.5s-0.3-8.1-0.6-8.7
	c-0.3-0.6-1-12.7-0.3-12.7s-2-2-2-2s3.5-3.6,3.6-5.8s6.7-4.7,6.7-4.7s1-1.4,0.6-2.4c0,0-1-0.3-1-1.3s-1.8-7.9,2-7.6L132.1,103.7
	L132.1,103.7z"/>
<path class="st1" d="M124.3,122.3c3,0.2,3.8,1.2,3.8,1.2s1.4,5,0.6,5.8c0,0-0.5,1.2-0.8,1.3s0.4,1.2,0.4,1.2s7.3,2.8,7.3,3.2
	s2.3,8.5,2.5,8.6s0.8,16.2-0.9,16.4v1.5c0,0-1.6,1.8-2,1.8s-0.4,9.4-0.1,9.6s1.6,5.1,1.6,5.1l0.7,12.5l-0.7,0.4l0.2,0.7
	c0,0,4.2,3.7-0.5,2.9c0,0-3.4-0.1-3.2-2.3l-0.1-0.5h-0.9l-1.7-13.4l-2.4-13.9l-0.3-0.1l1.9,26.7l-0.5,0.8c0,0,0.2,3-1.5,2.6
	c0,0-5.9,0.7-4.3-0.9c1.6-1.7,1.9-1.6,1.8-2.1s-0.1-0.6-0.1-0.6h-0.4c0,0-0.9-15.1-1.2-16.5s-2.7-9.8-2.7-9.8s-0.9,1.4-1.6,1.2
	c-0.8-0.2-1.8-0.2-2-1.2s0.4-27.1,0.4-27.1l5.4-4.4c0,0,0.5-1.4,0.2-1.4c-0.2,0-0.9-1-1-1.6c-0.2-0.6-0.8-4.3-0.4-5.1
	C121.9,124.9,121.9,122.2,124.3,122.3z"/>
<path class="st0" d="M149.3,108.1c3,0.2,3.8,1.2,3.8,1.2s1.4,5,0.6,5.8c0,0-0.5,1.2-0.8,1.3s0.4,1.2,0.4,1.2s7.3,2.8,7.3,3.2
	s2.3,8.5,2.5,8.6s0.8,16.2-0.9,16.4v1.5c0,0-1.6,1.8-2,1.8s-0.4,9.4-0.1,9.6c0.3,0.2,1.6,5.1,1.6,5.1l0.7,12.5l-0.7,0.4l0.2,0.7
	c0,0,4.2,3.7-0.5,2.9c0,0-3.4-0.1-3.2-2.3l-0.1-0.5h-0.9l-1.7-13.4l-2.4-13.9l-0.3-0.1l1.9,26.7l-0.5,0.8c0,0,0.2,3-1.5,2.6
	c0,0-5.9,0.7-4.3-0.9s1.9-1.6,1.8-2.1s-0.1-0.6-0.1-0.6h-0.4c0,0-0.9-15.1-1.2-16.5c-0.2-1.4-2.7-9.8-2.7-9.8s-0.9,1.4-1.6,1.2
	c-0.8-0.2-1.9-0.2-2-1.2c-0.1-0.9,0.4-27.1,0.4-27.1l5.4-4.4c0,0,0.5-1.4,0.2-1.4c-0.2,0-0.9-1-1-1.6s-0.8-4.3-0.4-5.1
	C147,110.7,146.9,108,149.3,108.1z"/>
<path class="st0" d="M146.7,126.5L146.7,126.5c3.6,0.1,3.6,2.6,3.6,2.6s0.2,2.1,0,2.3s-0.3,0.4-0.3,0.4s0.6,0.3,0.5,0.4
	s0,0.7-0.2,0.8c0,0,0.2,1.1-0.5,0.8c0,0-0.5,0.3-0.2,0.4c0.3,0.1,1.1-0.3,1.2,0s1.3,3.4,1.8,3.4c0.6,0,0.4,0.8,0.4,0.8l1.7,0.9
	c0,0,1.3,1.1,1.3,1.5s3.6,6.9,3.4,7.3s0.6,8,0.3,8.3s0.2,5,0,5s-3,4.1-3.4,4c-0.4,0-0.4,1-1.3,0.7s-1-0.6-1-0.6s-0.5,0.8-0.3,0.8
	s0.4,3.7,0.2,3.7s0.6,5-0.1,5c0,0,0,4.9-0.3,5.1s1.9,6.1,1.4,6.5c0,0-0.1,2.6-0.6,2.6s0.6,1.4,0.3,1.7c-0.3,0.4-0.2,1.3-0.7,0.9
	s0.6,3.2-0.2,3.2s2.6,4.3,1,4.7c-1.5,0.4-4.1,0.2-4.1-2.1c0,0-2.1-0.7-1.5-2.8c0,0-0.9-0.2-0.7-2.7l-0.8-0.4c0,0,0.1-1,0.5-1.3
	s-0.4-0.7-0.4-0.7s-0.9-1-0.1-4.2c0.8-3.2-0.5-6.4-0.3-8c0.2-1.7-1-4.1-0.9-4.9s-0.1-1.1-0.1-1.1l-0.3,0.1c0,0,0.3,2.6,0,2.8
	s-0.4,2.1-0.4,2.1s-0.6,5.2-1.1,5.2s0.3,8.4,0.6,8.4s0.1,0.7,0.1,0.7s0.4,0,0.2,0.4s-0.9,3.6-1.4,3.4c-0.6-0.2,0.1,0.8,0,0.9
	s-0.6,1.5-1.1,1s0.3,1.2-0.2,1.8c-0.4,0.5-3,1.4-4.1-0.4c0,0-0.3-0.9,0-1.3c0.3-0.4,1.2-2,1.1-2.2c-0.1-0.2-0.2-1.8,0.1-2.3
	s-1.5-2.7,0.2-3.4c0,0-0.6-0.9-0.6-1.2s0.3-7.7,0.2-8s-1.2-4.9-1.1-5.8c0.1-0.9,0.1-7.2,0.5-7.5s-0.3-0.1-0.4-0.9s-0.5,0.2-0.5-0.4
	s-0.6,1.4-0.9,0.5c-0.3-0.9-1.3-2.1-1.6-1.8c0,0-1.7-4-1.4-5.1s1.8-20,4.6-19.6c0,0,1.6,0,1.5-0.4s0.3-3.8,1.2-3.8s2.6-0.3,2.6,0
	s-0.2-1.7-0.2-1.7s-0.5-0.5-0.5-1.6s0.6-0.6,0.6-0.6s-0.1-2,0.4-2.6C144.9,127.5,144.8,126.8,146.7,126.5z"/>
<path class="st0" d="M124.3,133.9C124.4,133.9,124.4,133.9,124.3,133.9c3.6,0.1,3.6,2.6,3.6,2.6s0.2,2.1,0,2.3
	c-0.2,0.2-0.3,0.4-0.3,0.4s0.6,0.3,0.5,0.4c-0.1,0.2,0,0.7-0.2,0.8c0,0,0.2,1.1-0.5,0.8c0,0-0.5,0.3-0.2,0.4s1.1-0.3,1.2,0
	c0.1,0.4,1.3,3.4,1.8,3.4s0.4,0.8,0.4,0.8l1.7,0.9c0,0,1.3,1.1,1.3,1.5s3.6,6.9,3.4,7.3s0.6,8,0.3,8.3s0.2,5,0,5s-3,4.1-3.4,4
	s-0.4,1-1.3,0.7s-1-0.6-1-0.6s-0.5,0.8-0.3,0.8s0.4,3.7,0.2,3.7s0.6,5-0.1,5c0,0,0,4.9-0.3,5.1s1.9,6.1,1.4,6.5c0,0-0.1,2.6-0.6,2.6
	s0.6,1.4,0.3,1.7s-0.2,1.3-0.7,0.9s0.6,3.2-0.2,3.2s2.6,4.3,1,4.7c-1.5,0.4-4.1,0.2-4.1-2.1c0,0-2.1-0.7-1.5-2.8
	c0,0-0.9-0.2-0.7-2.7l-0.8-0.4c0,0,0.2-1,0.5-1.3s-0.4-0.7-0.4-0.7s-0.9-1-0.1-4.2s-0.5-6.4-0.3-8c0.2-1.7-1-4.1-0.9-4.9
	c0.1-0.8-0.1-1.1-0.1-1.1l-0.3,0.1c0,0,0.3,2.6,0,2.8s-0.4,2.1-0.4,2.1s-0.6,5.2-1.1,5.2s0.3,8.4,0.6,8.4c0.3,0,0.1,0.7,0.1,0.7
	s0.4,0,0.2,0.4c-0.2,0.3-0.9,3.6-1.4,3.4c-0.6-0.2,0.1,0.8,0,0.9s-0.6,1.5-1.1,1s0.3,1.2-0.2,1.8s-3,1.4-4.1-0.4c0,0-0.3-0.9,0-1.3
	c0.3-0.4,1.2-2,1.1-2.2s-0.2-1.8,0.1-2.3c0.3-0.5-1.5-2.7,0.2-3.4c0,0-0.6-0.9-0.6-1.2c0-0.4,0.3-7.7,0.2-8s-1.2-4.9-1.1-5.8
	c0.1-0.9,0.1-7.2,0.5-7.5s-0.3-0.1-0.3-0.9s-0.5,0.2-0.5-0.4s-0.6,1.4-0.9,0.5s-1.3-2.1-1.7-1.8c0,0-1.7-4-1.4-5.1
	c0.3-1.1,1.8-20,4.6-19.6c0,0,1.6,0,1.5-0.4s0.3-3.8,1.2-3.8s2.6-0.3,2.6,0s-0.2-1.7-0.2-1.7s-0.5-0.5-0.5-1.6s0.6-0.6,0.6-0.6
	s-0.1-2,0.4-2.6C122.6,134.9,122.4,134.2,124.3,133.9z"/>
<path class="st0" d="M111.5,147.3c3,0.1,3.8,1.2,3.8,1.2s1.3,5,0.6,5.8c0,0-0.5,1.2-0.8,1.3s0.4,1.2,0.4,1.2s7.3,2.8,7.3,3.2
	s2.3,8.5,2.5,8.6s0.8,16.2-0.9,16.4v1.5c0,0-1.6,1.8-2,1.8s-0.4,9.4-0.1,9.6s1.6,5.1,1.6,5.1l0.7,12.5L124,216l0.2,0.7
	c0,0,4.2,3.7-0.5,2.9c0,0-3.4-0.1-3.2-2.3l-0.1-0.5h-0.9l-1.7-13.4l-2.4-13.9l-0.3-0.1l1.9,26.7l-0.5,0.8c0,0,0.2,3-1.5,2.6
	c0,0-5.9,0.7-4.3-0.9c1.6-1.7,1.9-1.6,1.8-2.1s-0.1-0.6-0.1-0.6H112c0,0-0.9-15.1-1.2-16.5s-2.7-9.8-2.7-9.8s-0.9,1.4-1.6,1.2
	c-0.8-0.2-1.8-0.2-2-1.2s0.4-27.1,0.4-27.1l5.4-4.4c0,0,0.5-1.4,0.2-1.4s-0.9-1-1-1.6s-0.8-4.3-0.4-5.1
	C109.2,149.8,109.2,147.1,111.5,147.3z"/>
<path class="st0" d="M161.7,122.3c3,0.2,3.8,1.2,3.8,1.2s1.4,5,0.6,5.8c0,0-0.5,1.2-0.8,1.3s0.4,1.2,0.4,1.2s7.3,2.8,7.3,3.2
	s2.3,8.5,2.5,8.6s0.8,16.2-0.9,16.4v1.5c0,0-1.6,1.8-2,1.8s-0.4,9.4-0.1,9.6s1.6,5.1,1.6,5.1l0.7,12.5l-0.7,0.4l0.2,0.7
	c0,0,4.2,3.7-0.5,2.9c0,0-3.4-0.1-3.2-2.3l-0.1-0.5h-0.9l-1.7-13.4l-2.4-13.9l-0.3-0.1l1.9,26.7l-0.5,0.8c0,0,0.2,3-1.5,2.6
	c0,0-5.9,0.7-4.3-0.9s1.9-1.6,1.8-2.1s-0.1-0.6-0.1-0.6h-0.4c0,0-0.9-15.1-1.2-16.5s-2.7-9.8-2.7-9.8s-0.9,1.4-1.6,1.2
	c-0.8-0.2-1.9-0.2-2-1.2c-0.1-0.9,0.4-27.1,0.4-27.1l5.4-4.4c0,0,0.5-1.4,0.2-1.4c-0.2,0-0.9-1-1-1.6s-0.8-4.3-0.4-5.1
	C159.3,124.9,159.3,122.2,161.7,122.3z"/>
<path class="st3" d="M160.5,137.5L160.5,137.5c0.1,0,0.1,0,0.1,0c4.3,0.1,3.5,6.1,3.5,6.1s-0.2,1.8-1.2,1.7c0,0-0.2,2,1.7,2.6
	c1.8,0.5,4.6,1.8,5.2,2.9c0.5,1.1,2.7,4,2.7,5.2s0.8,1.9,0.8,1.9l-0.9,0.4c0,0,0.4,2.1,0.6,2.3c0.2,0.2,1.1,6.4,0.9,7.9
	c-0.3,1.5-0.8,5.6-0.8,6.8c0.1,1.3-0.3,3.8-1.7,3.7c0,0-1.4,1.5-2.2,1.1c-0.7-0.4,0,2.5,0,2.5s1.3,15.7,0.5,16s0,0.6,0.1,0.9
	c0.1,0.2,0.6,1.7-0.2,1.6c-0.8-0.2,0.1,0.3,1.1,1.5s1.6,2.8,0.6,3.8s-2.6,0.8-2.6,0.8s-1.8-0.3-1.8-0.9c0,0-1.2-1.4-1-2.3
	c0,0-1.2-1.1-0.9-1.7s-0.9,0.2-0.7-0.6s-0.7-0.2-0.2-1.1c0.5-0.9-1.1-1.3-0.4-1.5c0.8-0.2-0.1-13.3-0.5-14.4s-1.1-2.6-1.3-5.1
	s-0.2,1.3-0.2,1.3s0.6,8,0,8.6s-0.2,7.3-0.2,7.3l0.2,3.7c0,0,0.7-0.1,0.3,0.5s0.3,1-0.6,0.8s0.5,0.9-0.2,1.6s-1.1,1.6-1.5,1
	c-0.5-0.6,0.3,1.8-0.4,2.5c-0.6,0.7-7.1,3.4-5.6,0.1s1.8-2.5,1.8-2.5s-0.3-1.6,0.1-1.4c0.4,0.2,0.6-1.3,1.1-1.1s-1.6-1.3-0.8-1.5
	s-2.3-19.5-1.9-19.6s-2.8-1.8-2.7-2.3s-0.3-7.4-0.5-7.9s-0.9-11.5-0.3-11.5s-1.9-1.9-1.9-1.9s3.2-3.2,3.2-5.3s6.1-4.3,6.1-4.3
	s0.9-1.3,0.5-2.2c0,0-0.9-0.3-0.9-1.2s-1.6-7.2,1.8-6.9L160.5,137.5L160.5,137.5z"/>
<path class="st0" d="M135,148.9C135,148.9,135.1,148.9,135,148.9c0.1,0,0.1,0,0.1,0c4.5,0.1,3.7,6.4,3.7,6.4s-0.2,1.8-1.3,1.8
	c0,0-0.2,2.1,1.8,2.7s4.9,1.9,5.4,3.1s2.9,4.2,2.9,5.5s0.8,2,0.8,2l-0.9,0.4c0,0,0.4,2.2,0.6,2.4s1.2,6.7,0.9,8.2s-0.9,5.8-0.8,7.1
	s-0.3,4-1.8,3.8c0,0-1.5,1.6-2.3,1.2s0,2.6,0,2.6s1.4,16.5,0.5,16.8s0,0.7,0.1,0.9s0.6,1.8-0.2,1.6c-0.9-0.2,0.1,0.3,1.1,1.5
	c0.9,1.2,1.7,2.9,0.6,4c-1.1,1.1-2.8,0.8-2.8,0.8s-1.8-0.3-1.9-0.9c0,0-1.2-1.5-1.1-2.4c0,0-1.2-1.2-0.9-1.8s-1,0.2-0.8-0.6
	s-0.7-0.2-0.2-1.1s-1.2-1.4-0.4-1.6c0.8-0.2-0.1-14-0.5-15s-1.2-2.7-1.3-5.3s-0.2,1.4-0.2,1.4s0.6,8.4,0,9c-0.6,0.7-0.2,7.6-0.2,7.6
	l0.2,3.9c0,0,0.8-0.1,0.3,0.5c-0.4,0.6,0.3,1-0.6,0.8s0.5,1-0.2,1.6s-1.1,1.6-1.6,1s0.3,1.9-0.4,2.6s-7.4,3.6-5.9,0.1
	c1.5-3.6,1.9-2.6,1.9-2.6s-0.3-1.7,0.1-1.5c0.4,0.2,0.6-1.4,1.2-1.2s-1.7-1.4-0.9-1.5s-2.4-20.4-1.9-20.5c0.5-0.1-3-1.9-2.8-2.4
	c0.1-0.5-0.3-7.7-0.5-8.3c-0.3-0.6-0.9-12.1-0.3-12c0.6,0-1.9-1.9-1.9-1.9s3.3-3.4,3.4-5.5c0-2.2,6.3-4.5,6.3-4.5s0.9-1.4,0.5-2.3
	c0,0-0.9-0.3-0.9-1.2s-1.7-7.5,1.9-7.2L135,148.9L135,148.9z"/>
<path class="st0" d="M151.3,155.4L151.3,155.4c3.6,0.1,3.6,2.6,3.6,2.6s0.2,2.1,0,2.3s-0.3,0.4-0.3,0.4s0.6,0.3,0.5,0.4
	c-0.1,0.2,0,0.7-0.2,0.8c0,0,0.2,1.1-0.5,0.8c0,0-0.5,0.3-0.2,0.4c0.3,0.1,1.1-0.3,1.2,0s1.3,3.4,1.8,3.4s0.4,0.8,0.4,0.8l1.7,0.9
	c0,0,1.3,1.1,1.3,1.5s3.6,6.9,3.4,7.3s0.6,8,0.3,8.3s0.2,5,0,5s-3,4.1-3.4,4s-0.4,1-1.3,0.7c-0.9-0.3-1-0.6-1-0.6s-0.5,0.8-0.3,0.8
	s0.4,3.7,0.2,3.7s0.6,5-0.1,5c0,0,0,4.9-0.3,5.1s1.9,6.1,1.4,6.5c0,0-0.1,2.6-0.6,2.6s0.6,1.4,0.3,1.7s-0.2,1.3-0.7,0.9
	s0.6,3.2-0.2,3.2s2.6,4.3,1,4.7c-1.5,0.4-4.1,0.2-4.1-2.1c0,0-2.1-0.7-1.5-2.8c0,0-0.9-0.2-0.7-2.7l-0.8-0.4c0,0,0.1-1,0.5-1.3
	s-0.4-0.7-0.4-0.7s-0.9-1-0.1-4.2s-0.5-6.4-0.3-8c0.2-1.7-1-4.1-0.9-4.9c0.1-0.8-0.1-1.1-0.1-1.1l-0.3,0.1c0,0,0.3,2.6,0,2.8
	s-0.4,2.1-0.4,2.1s-0.6,5.2-1.1,5.2s0.3,8.4,0.6,8.4s0.1,0.7,0.1,0.7s0.4,0,0.2,0.4s-0.9,3.6-1.4,3.4c-0.6-0.2,0.1,0.8,0,0.9
	s-0.6,1.5-1.1,1s0.3,1.2-0.2,1.8c-0.4,0.5-3,1.4-4.1-0.4c0,0-0.3-0.9,0-1.3s1.2-2,1.1-2.2c-0.1-0.2-0.2-1.8,0.1-2.3
	s-1.5-2.7,0.2-3.4c0,0-0.6-0.9-0.6-1.2c0-0.4,0.3-7.7,0.2-8s-1.2-4.9-1.1-5.8s0.1-7.2,0.5-7.5s-0.3-0.1-0.4-0.9s-0.5,0.2-0.5-0.4
	s-0.6,1.4-0.9,0.5c-0.3-0.9-1.3-2.1-1.6-1.8c0,0-1.7-4-1.4-5.1s1.8-20,4.6-19.6c0,0,1.6,0,1.5-0.4s0.3-3.8,1.2-3.8s2.6-0.3,2.6,0
	s-0.2-1.7-0.2-1.7s-0.5-0.5-0.5-1.6s0.6-0.6,0.6-0.6s-0.1-2,0.4-2.6C149.5,156.4,149.3,155.7,151.3,155.4z"/>
<path class="st1" d="M119.5,155.4L119.5,155.4C119.6,155.4,119.6,155.4,119.5,155.4c4.6,0.1,3.8,6.4,3.8,6.4s-0.2,1.8-1.3,1.8
	c0,0-0.2,2.1,1.8,2.7s4.9,1.9,5.4,3.1s2.9,4.2,2.9,5.5s0.8,2,0.8,2l-0.9,0.4c0,0,0.4,2.2,0.6,2.4c0.2,0.2,1.2,6.7,0.9,8.2
	s-0.9,5.8-0.8,7.1s-0.3,4-1.8,3.8c0,0-1.5,1.6-2.3,1.2c-0.8-0.4,0,2.6,0,2.6s1.4,16.5,0.5,16.8s0,0.7,0.1,0.9s0.6,1.8-0.2,1.6
	c-0.9-0.2,0.1,0.3,1.1,1.5c0.9,1.2,1.7,2.9,0.6,4c-1.1,1.1-2.8,0.8-2.8,0.8s-1.8-0.3-1.9-0.9c0,0-1.2-1.5-1.1-2.4
	c0,0-1.2-1.2-0.9-1.8c0.3-0.6-1,0.2-0.8-0.6s-0.7-0.2-0.2-1.1s-1.2-1.4-0.4-1.6c0.8-0.2-0.1-14-0.5-15c-0.5-1.1-1.2-2.7-1.3-5.3
	s-0.2,1.4-0.2,1.4s0.6,8.4,0,9c-0.6,0.7-0.2,7.6-0.2,7.6l0.2,3.9c0,0,0.8-0.1,0.3,0.5c-0.4,0.6,0.3,1-0.6,0.8s0.5,1-0.2,1.6
	s-1.1,1.6-1.6,1s0.3,1.9-0.4,2.6s-7.4,3.6-5.9,0.1c1.5-3.6,1.9-2.6,1.9-2.6s-0.3-1.7,0.1-1.5s0.6-1.4,1.2-1.2s-1.7-1.4-0.9-1.5
	c0.8-0.2-2.4-20.4-1.9-20.5s-3-1.9-2.8-2.4c0.1-0.5-0.3-7.7-0.5-8.3c-0.3-0.6-0.9-12.1-0.3-12c0.6,0-1.9-1.9-1.9-1.9
	s3.3-3.4,3.4-5.5c0-2.2,6.3-4.5,6.3-4.5s0.9-1.4,0.5-2.3c0,0-0.9-0.3-0.9-1.2s-1.7-7.5,1.9-7.2L119.5,155.4L119.5,155.4z"/>
<text transform="matrix(1 0 0 1 96.1806 287.927)" class="st4 st5">Black population: 21.5%</text>
<text transform="matrix(1 0 0 1 93.9126 309.2178)" class="st4 st5">White population: 27.6%</text>
<rect x="115.3" y="69.5" class="st6" width="145.9" height="20.5"/>
<text transform="matrix(1 0 0 1 115.2467 80.0214)" class="st7 st8">Manhattan CD 9</text>
<text transform="matrix(1 0 0 1 103.9903 92.5691)" class="st9 st4 st10">Morningside Heights and West Harlem</text>
<text transform="matrix(1 0 0 1 25.1727 37.4703)" class="st7 st11">Racial Demographics</text>
<rect x="403.7" y="69.5" class="st6" width="86.4" height="20.5"/>
<text transform="matrix(1 0 0 1 403.734 80.0209)" class="st7 st8">Bronx CD 11</text>
<text transform="matrix(1 0 0 1 367.4565 92.5694)" class="st9 st4 st10">Pelham Parkway, Morris Park, and Laconia</text>
<text transform="matrix(1 0 0 1 371.8635 287.9271)" class="st4 st5">Black population: 21.4%</text>
<text transform="matrix(1 0 0 1 370.0819 309.2181)" class="st4 st5">White population: 21.7%</text>
<text transform="matrix(1 0 0 1 438.449 30.8427)" class="st9 st4 st10">Source: NYC Population FactFinder</text>
<text transform="matrix(1 0 0 1 463.0836 40.6508)" class="st9 st4 st12">Data from Public Use Microdata Areas (PUMAs) was used</text>
<text transform="matrix(1 0 0 1 439.6636 45.4508)" class="st9 st4 st12">due to unavailability of individual neighbourhood race demographics</text>
<path class="st1" d="M178.9,113.7c3,0.2,3.8,1.2,3.8,1.2s1.4,5,0.6,5.8c0,0-0.5,1.2-0.8,1.3s0.4,1.2,0.4,1.2s7.3,2.8,7.3,3.2
	s2.3,8.5,2.5,8.6s0.8,16.2-0.9,16.4v1.5c0,0-1.6,1.8-2,1.8s-0.4,9.4-0.1,9.6c0.3,0.2,1.6,5.1,1.6,5.1l0.7,12.5l-0.7,0.4l0.2,0.7
	c0,0,4.2,3.7-0.5,2.9c0,0-3.4-0.1-3.2-2.3l-0.1-0.5H187l-1.7-13.4l-2.4-13.9l-0.3-0.1l1.9,26.7l-0.5,0.8c0,0,0.2,3-1.5,2.6
	c0,0-5.9,0.7-4.3-0.9s1.9-1.6,1.8-2.1s-0.1-0.6-0.1-0.6h-0.4c0,0-0.9-15.1-1.2-16.5c-0.2-1.4-2.7-9.8-2.7-9.8s-0.9,1.4-1.6,1.2
	c-0.8-0.2-1.9-0.2-2-1.2s0.4-27.1,0.4-27.1l5.4-4.4c0,0,0.5-1.4,0.2-1.4c-0.2,0-0.9-1-1-1.6s-0.8-4.3-0.4-5.1
	C176.6,116.2,176.6,113.5,178.9,113.7z"/>
<path class="st0" d="M209.3,107.6C209.4,107.6,209.4,107.6,209.3,107.6c0.1,0,0.1,0,0.2,0c5.2,0.2,4.2,7.4,4.2,7.4s-0.2,2.1-1.4,2
	c0,0-0.2,2.4,2,3.1s5.6,2.2,6.2,3.5s3.3,4.8,3.3,6.3s0.9,2.3,0.9,2.3l-1,0.4c0,0,0.5,2.6,0.7,2.8s1.4,7.7,1.1,9.4
	c-0.3,1.8-1,6.7-0.9,8.2s-0.4,4.5-2,4.4c0,0-1.7,1.8-2.6,1.4c-0.9-0.5,0,3,0,3s1.6,18.9,0.6,19.2s0,0.8,0.1,1.1s0.7,2.1-0.3,1.9
	s0.2,0.4,1.3,1.8s1.9,3.4,0.7,4.6c-1.3,1.2-3.2,0.9-3.2,0.9s-2.1-0.3-2.2-1.1c0,0-1.4-1.7-1.2-2.7c0,0-1.4-1.4-1.1-2
	s-1.1,0.2-0.9-0.7c0.3-0.9-0.8-0.3-0.2-1.3s-1.4-1.6-0.5-1.8s-0.1-16-0.6-17.2s-1.4-3.1-1.5-6.1s-0.3,1.6-0.3,1.6s0.7,9.6,0,10.4
	s-0.3,8.8-0.3,8.8l0.3,4.5c0,0,0.9-0.1,0.4,0.6c-0.5,0.7,0.3,1.2-0.7,0.9s0.6,1.1-0.3,1.9c-0.9,0.8-1.3,1.9-1.8,1.2
	c-0.6-0.7,0.3,2.2-0.4,3s-8.5,4.1-6.8,0.1c1.8-4.1,2.1-3,2.1-3s-0.4-1.9,0.1-1.7s0.7-1.6,1.3-1.4s-1.9-1.6-1-1.8s-2.8-23.4-2.2-23.6
	s-3.4-2.2-3.2-2.8s-0.3-8.8-0.6-9.5s-1.1-13.8-0.4-13.8s-2.2-2.2-2.2-2.2s3.8-3.9,3.9-6.3c0-2.5,7.3-5.1,7.3-5.1s1.1-1.6,0.6-2.6
	c0,0-1.1-0.4-1.1-1.4s-2-8.6,2.2-8.2L209.3,107.6L209.3,107.6z"/>
<path class="st3" d="M195.2,133.1L195.2,133.1c3.6,0.1,3.6,2.6,3.6,2.6s0.2,2.1,0,2.3s-0.3,0.4-0.3,0.4s0.6,0.3,0.5,0.4
	s0,0.7-0.2,0.8c0,0,0.2,1.1-0.5,0.8c0,0-0.5,0.3-0.2,0.4c0.3,0.1,1.1-0.3,1.2,0c0.1,0.4,1.3,3.4,1.8,3.4c0.6,0,0.4,0.8,0.4,0.8
	l1.7,0.9c0,0,1.3,1.1,1.3,1.5s3.6,6.9,3.4,7.3s0.6,8,0.3,8.3s0.2,5,0,5s-3,4.1-3.4,4c-0.4,0-0.4,1-1.3,0.7s-1-0.6-1-0.6
	s-0.5,0.8-0.3,0.8s0.4,3.7,0.2,3.7s0.6,5-0.1,5c0,0,0,4.9-0.3,5.1s1.9,6.1,1.4,6.5c0,0-0.1,2.6-0.6,2.6s0.6,1.4,0.3,1.7
	c-0.3,0.4-0.2,1.3-0.7,0.9s0.6,3.2-0.2,3.2s2.6,4.3,1,4.7c-1.5,0.4-4.1,0.2-4.1-2.1c0,0-2.1-0.7-1.5-2.8c0,0-0.9-0.2-0.7-2.7
	l-0.8-0.4c0,0,0.1-1,0.5-1.3s-0.4-0.7-0.4-0.7s-0.9-1-0.1-4.2c0.8-3.2-0.5-6.4-0.3-8c0.2-1.7-1-4.1-0.9-4.9s-0.1-1.1-0.1-1.1
	l-0.3,0.1c0,0,0.3,2.6,0,2.8s-0.4,2.1-0.4,2.1s-0.6,5.2-1.1,5.2s0.3,8.4,0.6,8.4s0.1,0.7,0.1,0.7s0.4,0,0.2,0.4s-0.9,3.6-1.4,3.4
	c-0.6-0.2,0.1,0.8,0,0.9s-0.6,1.5-1.1,1s0.3,1.2-0.2,1.8c-0.4,0.5-3,1.4-4.1-0.4c0,0-0.3-0.9,0-1.3c0.3-0.4,1.2-2,1.1-2.2
	c-0.1-0.2-0.2-1.8,0.1-2.3s-1.5-2.7,0.2-3.4c0,0-0.6-0.9-0.6-1.2c0-0.4,0.3-7.7,0.2-8s-1.2-4.9-1.1-5.8c0.1-0.9,0.1-7.2,0.5-7.5
	s-0.3-0.1-0.4-0.9s-0.5,0.2-0.5-0.4s-0.6,1.4-0.9,0.5c-0.3-0.9-1.3-2.1-1.6-1.8c0,0-1.7-4-1.4-5.1s1.8-20,4.6-19.6
	c0,0,1.6,0,1.5-0.4s0.3-3.8,1.2-3.8s2.6-0.3,2.6,0s-0.2-1.7-0.2-1.7s-0.5-0.5-0.5-1.6s0.6-0.6,0.6-0.6s-0.1-2,0.4-2.6
	C193.4,134,193.3,133.4,195.2,133.1z"/>
<path class="st2" d="M173.8,134.4c3,0.1,3.8,1.2,3.8,1.2s1.4,5,0.6,5.8c0,0-0.5,1.2-0.8,1.3s0.4,1.2,0.4,1.2s7.3,2.8,7.3,3.2
	s2.3,8.5,2.5,8.6s0.8,16.2-0.9,16.4v1.5c0,0-1.6,1.8-2,1.8s-0.4,9.4-0.1,9.6c0.3,0.2,1.6,5.1,1.6,5.1l0.7,12.5l-0.7,0.4l0.2,0.7
	c0,0,4.2,3.7-0.5,2.9c0,0-3.4-0.1-3.2-2.3l-0.1-0.5h-0.9l-1.7-13.4l-2.4-13.9l-0.3-0.1l1.9,26.7l-0.5,0.8c0,0,0.2,3-1.5,2.6
	c0,0-5.9,0.7-4.3-0.9s1.9-1.6,1.8-2.1s-0.1-0.6-0.1-0.6h-0.4c0,0-0.9-15.1-1.2-16.5c-0.2-1.4-2.7-9.8-2.7-9.8s-0.9,1.4-1.6,1.2
	c-0.8-0.2-1.9-0.2-2-1.2c-0.1-0.9,0.4-27.1,0.4-27.1l5.4-4.4c0,0,0.5-1.4,0.2-1.4c-0.2,0-0.9-1-1-1.6s-0.8-4.3-0.4-5.1
	C171.4,137,171.4,134.3,173.8,134.4z"/>
<path class="st3" d="M182.4,146.8L182.4,146.8c3.6,0.1,3.6,2.6,3.6,2.6s0.2,2.1,0,2.3s-0.3,0.4-0.3,0.4s0.6,0.3,0.5,0.4
	c-0.1,0.2,0,0.7-0.2,0.8c0,0,0.2,1.1-0.5,0.8c0,0-0.5,0.3-0.2,0.4s1.1-0.3,1.2,0s1.3,3.4,1.8,3.4s0.4,0.8,0.4,0.8l1.7,0.9
	c0,0,1.3,1.1,1.3,1.5s3.6,6.9,3.4,7.3s0.6,8,0.3,8.3s0.2,5,0,5s-3,4.1-3.4,4s-0.4,1-1.3,0.7c-0.9-0.3-1-0.6-1-0.6s-0.5,0.8-0.3,0.8
	s0.4,3.7,0.2,3.7s0.6,5-0.1,5c0,0,0,4.9-0.3,5.1s1.9,6.1,1.4,6.5c0,0-0.1,2.6-0.6,2.6s0.6,1.4,0.3,1.7s-0.2,1.3-0.7,0.9
	s0.6,3.2-0.2,3.2s2.6,4.3,1,4.7s-4.1,0.2-4.1-2.1c0,0-2.1-0.7-1.5-2.8c0,0-0.9-0.2-0.7-2.7l-0.8-0.4c0,0,0.1-1,0.5-1.3
	s-0.4-0.7-0.4-0.7s-0.9-1-0.1-4.2s-0.5-6.4-0.3-8c0.2-1.7-1-4.1-0.9-4.9c0.1-0.8-0.1-1.1-0.1-1.1l-0.3,0.1c0,0,0.3,2.6,0,2.8
	s-0.4,2.1-0.4,2.1s-0.6,5.2-1.1,5.2s0.3,8.4,0.6,8.4s0.1,0.7,0.1,0.7s0.4,0,0.2,0.4s-0.9,3.6-1.4,3.4c-0.6-0.2,0.1,0.8,0,0.9
	s-0.6,1.5-1.1,1s0.3,1.2-0.2,1.8c-0.4,0.5-3,1.4-4.1-0.4c0,0-0.3-0.9,0-1.3s1.2-2,1.1-2.2c-0.1-0.2-0.2-1.8,0.1-2.3
	s-1.5-2.7,0.2-3.4c0,0-0.6-0.9-0.6-1.2c0-0.4,0.3-7.7,0.2-8s-1.2-4.9-1.1-5.8s0.1-7.2,0.5-7.5s-0.3-0.1-0.4-0.9s-0.5,0.2-0.5-0.4
	s-0.6,1.4-0.9,0.5c-0.3-0.9-1.3-2.1-1.6-1.8c0,0-1.7-4-1.4-5.1s1.8-20,4.6-19.6c0,0,1.6,0,1.5-0.4s0.3-3.8,1.2-3.8s2.6-0.3,2.6,0
	s-0.2-1.7-0.2-1.7s-0.5-0.5-0.5-1.6s0.6-0.6,0.6-0.6s-0.1-2,0.4-2.6C180.6,147.8,180.4,147.1,182.4,146.8z"/>
<path class="st1" d="M212.2,131.9L212.2,131.9c0.1,0,0.1,0,0.2,0c4.8,0.1,3.9,6.8,3.9,6.8s-0.2,1.9-1.3,1.9c0,0-0.2,2.2,1.9,2.8
	c2,0.6,5.1,2,5.7,3.2s3,4.4,3,5.8c0,1.4,0.9,2.1,0.9,2.1l-0.9,0.4c0,0,0.4,2.4,0.6,2.6s1.3,7,1,8.7s-0.9,6.1-0.8,7.5
	s-0.3,4.2-1.9,4.1c0,0-1.6,1.7-2.4,1.3c-0.8-0.4,0,2.8,0,2.8s1.5,17.4,0.5,17.7s0,0.7,0.1,1s0.6,1.9-0.3,1.7s0.2,0.3,1.2,1.6
	s1.8,3.1,0.6,4.2c-1.2,1.1-2.9,0.8-2.9,0.8s-1.9-0.3-2-1c0,0-1.3-1.6-1.1-2.5c0,0-1.3-1.3-1-1.9s-1,0.2-0.8-0.7s-0.8-0.2-0.2-1.2
	c0.6-0.9-1.3-1.4-0.4-1.7s-0.1-14.7-0.6-15.8s-1.3-2.9-1.4-5.6s-0.3,1.5-0.3,1.5s0.6,8.8,0,9.5s-0.3,8.1-0.3,8.1l0.3,4.1
	c0,0,0.8-0.1,0.4,0.6s0.3,1.1-0.7,0.9s0.6,1-0.3,1.7s-1.2,1.7-1.7,1.1s0.3,2-0.4,2.8s-7.9,3.8-6.2,0.1s2-2.8,2-2.8s-0.3-1.8,0.1-1.6
	s0.6-1.5,1.2-1.3c0.6,0.2-1.8-1.5-0.9-1.6c0.9-0.2-2.6-21.5-2.1-21.6s-3.1-2-3-2.5c0.1-0.6-0.3-8.1-0.6-8.7s-1-12.7-0.3-12.7
	s-2-2-2-2s3.5-3.6,3.6-5.8s6.7-4.7,6.7-4.7s1-1.4,0.6-2.4c0,0-1-0.4-1-1.3c0-1-1.8-7.9,2-7.6L212.2,131.9L212.2,131.9z"/>
<path class="st3" d="M170.6,156C170.6,156,170.7,156,170.6,156c0.1,0,0.1,0,0.1,0c4.3,0.1,3.4,6.1,3.4,6.1s-0.2,1.7-1.2,1.7
	c0,0-0.2,2,1.6,2.5s4.6,1.8,5.1,2.9c0.5,1.1,2.7,3.9,2.7,5.1s0.8,1.9,0.8,1.9l-0.8,0.4c0,0,0.4,2.1,0.6,2.3s1.1,6.3,0.9,7.7
	s-0.8,5.5-0.7,6.7s-0.3,3.7-1.7,3.6c0,0-1.4,1.5-2.1,1.1s0,2.5,0,2.5s1.3,15.5,0.5,15.8s0,0.6,0.1,0.9s0.6,1.7-0.2,1.5
	s0.1,0.3,1,1.4c0.9,1.1,1.6,2.8,0.6,3.8s-2.6,0.8-2.6,0.8s-1.7-0.3-1.8-0.9c0,0-1.1-1.4-1-2.3c0,0-1.1-1.1-0.9-1.7s-0.9,0.2-0.7-0.6
	s-0.7-0.2-0.2-1s-1.1-1.3-0.4-1.5s-0.1-13.1-0.5-14.1s-1.1-2.6-1.3-5c-0.1-2.4-0.2,1.3-0.2,1.3s0.5,7.9,0,8.5s-0.2,7.2-0.2,7.2
	l0.2,3.7c0,0,0.7-0.1,0.3,0.5s0.3,0.9-0.6,0.8s0.5,0.9-0.2,1.5s-1,1.5-1.5,0.9c-0.4-0.6,0.3,1.8-0.4,2.5c-0.6,0.7-7,3.4-5.6,0.1
	s1.8-2.5,1.8-2.5s-0.3-1.6,0.1-1.4c0.4,0.2,0.6-1.3,1.1-1.1s-1.6-1.3-0.8-1.4c0.8-0.1-2.3-19.2-1.8-19.3s-2.8-1.8-2.7-2.3
	s-0.2-7.2-0.5-7.8c-0.2-0.5-0.9-11.3-0.3-11.3s-1.8-1.8-1.8-1.8s3.1-3.2,3.2-5.2s6-4.2,6-4.2s0.9-1.3,0.5-2.1c0,0-0.9-0.3-0.9-1.2
	s-1.6-7.1,1.8-6.7h1.2V156z"/>
<path class="st0" d="M195.2,150.3c3,0.1,3.8,1.2,3.8,1.2s1.4,5,0.6,5.8c0,0-0.5,1.2-0.8,1.3s0.4,1.2,0.4,1.2s7.3,2.8,7.3,3.2
	s2.3,8.5,2.5,8.6s0.8,16.2-0.9,16.4v1.5c0,0-1.6,1.8-2,1.8s-0.4,9.4-0.1,9.6c0.3,0.2,1.6,5.1,1.6,5.1l0.7,12.5l-0.7,0.4l0.2,0.7
	c0,0,4.2,3.7-0.5,2.9c0,0-3.4-0.1-3.2-2.3l-0.1-0.5h-0.9l-1.7-13.4l-2.4-13.9l-0.3-0.1l1.9,26.7l-0.5,0.8c0,0,0.2,3-1.5,2.6
	c0,0-5.9,0.7-4.3-0.9s1.9-1.6,1.8-2.1s-0.1-0.6-0.1-0.6h-0.4c0,0-0.9-15.1-1.2-16.5c-0.2-1.4-2.7-9.8-2.7-9.8s-0.9,1.4-1.6,1.2
	c-0.8-0.2-1.9-0.2-2-1.2c-0.1-0.9,0.4-27.1,0.4-27.1l5.4-4.4c0,0,0.5-1.4,0.2-1.4c-0.2,0-0.9-1-1-1.6c-0.2-0.6-0.8-4.3-0.4-5.1
	C192.8,152.9,192.8,150.2,195.2,150.3z"/>
<path class="st3" d="M189.6,159.9c3,0.1,3.8,1.2,3.8,1.2s1.4,5,0.6,5.8c0,0-0.5,1.2-0.8,1.3s0.4,1.2,0.4,1.2s7.3,2.8,7.3,3.2
	s2.3,8.5,2.5,8.6s0.8,16.2-0.9,16.4v1.5c0,0-1.6,1.8-2,1.8s-0.4,9.4-0.1,9.6c0.3,0.2,1.6,5.1,1.6,5.1l0.7,12.5l-0.7,0.4l0.2,0.7
	c0,0,4.2,3.7-0.5,2.9c0,0-3.4-0.1-3.2-2.3l-0.1-0.5h-0.9l-1.7-13.4l-2.4-13.9l-0.3-0.1l1.9,26.7l-0.5,0.8c0,0,0.2,3-1.5,2.6
	c0,0-5.9,0.7-4.3-0.9s1.9-1.6,1.8-2.1s-0.1-0.6-0.1-0.6H190c0,0-0.9-15.1-1.2-16.5c-0.2-1.4-2.7-9.8-2.7-9.8s-0.9,1.4-1.6,1.2
	c-0.8-0.2-1.9-0.2-2-1.2c-0.1-0.9,0.4-27.1,0.4-27.1l5.4-4.4c0,0,0.5-1.4,0.2-1.4c-0.2,0-0.9-1-1-1.6c-0.2-0.6-0.8-4.3-0.4-5.1
	C187.2,162.5,187.2,159.8,189.6,159.9z"/>
<path class="st1" d="M234.8,107.6C234.9,107.6,234.9,107.6,234.8,107.6c0.1,0,0.1,0,0.2,0c4.8,0.1,3.9,6.8,3.9,6.8s-0.2,1.9-1.3,1.9
	c0,0-0.2,2.2,1.9,2.8c2,0.6,5.1,2,5.7,3.2s3,4.4,3,5.8c0,1.4,0.9,2.1,0.9,2.1l-0.9,0.4c0,0,0.4,2.4,0.6,2.6s1.3,7,1,8.7
	s-0.9,6.1-0.8,7.5s-0.3,4.2-1.9,4.1c0,0-1.6,1.7-2.4,1.3c-0.8-0.4,0,2.8,0,2.8s1.5,17.4,0.5,17.7c-0.9,0.3,0,0.7,0.1,1
	s0.6,1.9-0.3,1.7c-0.9-0.2,0.2,0.3,1.2,1.6s1.8,3.1,0.6,4.2s-2.9,0.8-2.9,0.8s-1.9-0.3-2-1c0,0-1.3-1.6-1.1-2.5c0,0-1.3-1.3-1-1.9
	s-1,0.2-0.8-0.7s-0.8-0.2-0.2-1.2c0.6-0.9-1.3-1.4-0.4-1.7s-0.1-14.7-0.6-15.8s-1.3-2.9-1.4-5.6s-0.3,1.5-0.3,1.5s0.6,8.8,0,9.5
	s-0.3,8.1-0.3,8.1l0.3,4.1c0,0,0.8-0.1,0.4,0.6c-0.5,0.7,0.3,1.1-0.7,0.9s0.6,1-0.3,1.7s-1.2,1.7-1.7,1.1s0.3,2-0.4,2.8
	s-7.9,3.8-6.2,0.1c1.6-3.8,2-2.8,2-2.8s-0.3-1.8,0.1-1.6s0.6-1.5,1.2-1.3c0.6,0.2-1.8-1.5-0.9-1.6c0.9-0.2-2.6-21.5-2.1-21.6
	s-3.1-2-3-2.5c0.1-0.6-0.3-8.1-0.6-8.7c-0.3-0.6-1-12.7-0.3-12.7s-2-2-2-2s3.5-3.6,3.6-5.8s6.7-4.7,6.7-4.7s1-1.4,0.6-2.4
	c0,0-1-0.3-1-1.3s-1.8-7.9,2-7.6L234.8,107.6L234.8,107.6z"/>
<path class="st1" d="M227,126.2c3,0.2,3.8,1.2,3.8,1.2s1.4,5,0.6,5.8c0,0-0.5,1.2-0.8,1.3s0.4,1.2,0.4,1.2s7.3,2.8,7.3,3.2
	s2.3,8.5,2.5,8.6s0.8,16.2-0.9,16.4v1.5c0,0-1.6,1.8-2,1.8s-0.4,9.4-0.1,9.6c0.3,0.2,1.6,5.1,1.6,5.1l0.7,12.5l-0.7,0.4l0.2,0.7
	c0,0,4.2,3.7-0.5,2.9c0,0-3.4-0.1-3.2-2.3l-0.1-0.5h-0.9l-1.7-13.4l-2.4-13.9l-0.3-0.1l1.9,26.7l-0.5,0.8c0,0,0.2,3-1.5,2.6
	c0,0-5.9,0.7-4.3-0.9s1.9-1.6,1.8-2.1s-0.1-0.6-0.1-0.6h-0.4c0,0-0.9-15.1-1.2-16.5s-2.7-9.8-2.7-9.8s-0.9,1.4-1.6,1.2
	c-0.8-0.2-1.9-0.2-2-1.2c-0.1-0.9,0.4-27.1,0.4-27.1l5.4-4.4c0,0,0.5-1.4,0.2-1.4c-0.2,0-0.9-1-1-1.6s-0.8-4.3-0.4-5.1
	C224.6,128.8,224.6,126.1,227,126.2z"/>
<path class="st0" d="M252.1,112c3,0.2,3.8,1.2,3.8,1.2s1.4,5,0.6,5.8c0,0-0.5,1.2-0.8,1.3s0.4,1.2,0.4,1.2s7.3,2.8,7.3,3.2
	s2.3,8.5,2.5,8.6s0.8,16.2-0.9,16.4v1.5c0,0-1.6,1.8-2,1.8s-0.4,9.4-0.1,9.6s1.6,5.1,1.6,5.1l0.7,12.5l-0.7,0.4l0.2,0.7
	c0,0,4.2,3.7-0.5,2.9c0,0-3.4-0.1-3.2-2.3l-0.1-0.5H260l-1.7-13.4l-2.4-13.9l-0.3-0.1l1.9,26.7l-0.5,0.8c0,0,0.2,3-1.5,2.6
	c0,0-5.9,0.7-4.3-0.9s1.9-1.6,1.8-2.1s-0.1-0.6-0.1-0.6h-0.4c0,0-0.9-15.1-1.2-16.5s-2.7-9.8-2.7-9.8s-0.9,1.4-1.6,1.2
	c-0.8-0.2-1.9-0.2-2-1.2s0.4-27.1,0.4-27.1l5.4-4.4c0,0,0.5-1.4,0.2-1.4c-0.2,0-0.9-1-1-1.6s-0.8-4.3-0.4-5.1
	C249.7,114.6,249.7,111.9,252.1,112z"/>
<path class="st1" d="M249.4,130.5L249.4,130.5c3.6,0.1,3.6,2.6,3.6,2.6s0.2,2.1,0,2.3s-0.3,0.4-0.3,0.4s0.6,0.3,0.5,0.4
	c-0.1,0.2,0,0.7-0.2,0.8c0,0,0.2,1.1-0.5,0.8c0,0-0.5,0.3-0.2,0.4c0.3,0.1,1.1-0.3,1.2,0c0.1,0.4,1.3,3.4,1.8,3.4
	c0.6,0,0.4,0.8,0.4,0.8l1.7,0.9c0,0,1.3,1.1,1.3,1.5s3.5,6.9,3.4,7.3c-0.1,0.4,0.6,8,0.3,8.3c-0.3,0.3,0.2,5,0,5s-3,4.1-3.5,4
	s-0.4,1-1.3,0.7s-1-0.6-1-0.6s-0.5,0.8-0.3,0.8s0.4,3.7,0.2,3.7s0.6,5,0,5c0,0,0,4.9-0.3,5.1c-0.3,0.1,1.9,6.1,1.4,6.5
	c0,0-0.1,2.6-0.6,2.6s0.6,1.4,0.3,1.7s-0.2,1.3-0.7,0.9s0.6,3.2-0.2,3.2c-0.8,0,2.5,4.3,1,4.7s-4.1,0.2-4.1-2.1c0,0-2.1-0.7-1.5-2.8
	c0,0-0.9-0.2-0.7-2.7l-0.8-0.4c0,0,0.1-1,0.5-1.3s-0.4-0.7-0.4-0.7s-0.9-1-0.1-4.2c0.8-3.2-0.5-6.4-0.3-8c0.2-1.7-1-4.1-0.9-4.9
	s-0.1-1.1-0.1-1.1l-0.3,0.1c0,0,0.3,2.6,0,2.8s-0.4,2.1-0.4,2.1s-0.6,5.2-1.1,5.2s0.3,8.4,0.6,8.4s0.1,0.7,0.1,0.7s0.4,0,0.2,0.4
	c-0.2,0.3-0.9,3.6-1.4,3.4s0.1,0.8,0,0.9s-0.6,1.5-1.1,1s0.3,1.2-0.2,1.8s-3,1.4-4.1-0.4c0,0-0.3-0.9,0-1.3c0.3-0.4,1.2-2,1.1-2.2
	c-0.1-0.2-0.2-1.8,0.1-2.3s-1.5-2.7,0.2-3.4c0,0-0.6-0.9-0.6-1.2c0-0.4,0.3-7.7,0.2-8s-1.2-4.9-1.1-5.8c0.1-0.9,0.1-7.2,0.5-7.5
	s-0.3-0.1-0.4-0.9s-0.5,0.2-0.5-0.4s-0.6,1.4-0.9,0.5s-1.3-2.1-1.6-1.8c0,0-1.7-4-1.4-5.1s1.8-20,4.6-19.6c0,0,1.6,0,1.5-0.4
	s0.3-3.8,1.2-3.8s2.6-0.3,2.6,0s-0.2-1.7-0.2-1.7s-0.5-0.5-0.5-1.6s0.6-0.6,0.6-0.6s-0.1-2,0.4-2.6
	C247.6,131.4,247.5,130.7,249.4,130.5z"/>
<path class="st0" d="M227.1,137.9L227.1,137.9c3.6,0.1,3.6,2.6,3.6,2.6s0.2,2.1,0,2.3s-0.3,0.4-0.3,0.4s0.6,0.3,0.5,0.4
	c-0.1,0.2,0,0.7-0.2,0.8c0,0,0.2,1.1-0.5,0.8c0,0-0.5,0.3-0.2,0.4c0.3,0.1,1.1-0.3,1.2,0c0.1,0.4,1.3,3.4,1.8,3.4s0.4,0.8,0.4,0.8
	l1.7,0.9c0,0,1.3,1.1,1.3,1.5s3.6,6.9,3.4,7.3s0.6,8,0.3,8.3s0.2,5,0,5s-3,4.1-3.4,4s-0.4,1-1.3,0.7c-0.9-0.3-1-0.6-1-0.6
	s-0.5,0.8-0.3,0.8s0.4,3.7,0.2,3.7s0.6,5-0.1,5c0,0,0,4.9-0.3,5.1s1.9,6.1,1.4,6.5c0,0-0.1,2.6-0.6,2.6s0.6,1.4,0.3,1.7
	s-0.2,1.3-0.7,0.9s0.6,3.2-0.2,3.2s2.6,4.3,1,4.7c-1.5,0.4-4.1,0.2-4.1-2.1c0,0-2.1-0.7-1.5-2.8c0,0-0.9-0.2-0.7-2.7l-0.8-0.4
	c0,0,0.1-1,0.5-1.3s-0.4-0.7-0.4-0.7s-0.9-1-0.1-4.2c0.8-3.2-0.5-6.4-0.3-8c0.2-1.7-1-4.1-0.9-4.9c0.1-0.8-0.1-1.1-0.1-1.1l-0.3,0.1
	c0,0,0.3,2.6,0,2.8s-0.4,2.1-0.4,2.1s-0.6,5.2-1.1,5.2s0.3,8.4,0.6,8.4s0.1,0.7,0.1,0.7s0.4,0,0.2,0.4s-0.9,3.6-1.4,3.4
	c-0.6-0.2,0.1,0.8,0,0.9s-0.6,1.5-1.1,1s0.3,1.2-0.2,1.8c-0.4,0.5-3,1.4-4.1-0.4c0,0-0.3-0.9,0-1.3c0.3-0.4,1.2-2,1.1-2.2
	c-0.1-0.2-0.2-1.8,0.1-2.3s-1.5-2.7,0.2-3.4c0,0-0.6-0.9-0.6-1.2c0-0.4,0.3-7.7,0.2-8s-1.2-4.9-1.1-5.8c0.1-0.9,0.1-7.2,0.5-7.5
	s-0.3-0.1-0.4-0.9s-0.5,0.2-0.5-0.4s-0.6,1.4-0.9,0.5c-0.3-0.9-1.3-2.1-1.6-1.8c0,0-1.7-4-1.4-5.1s1.8-20,4.6-19.6
	c0,0,1.6,0,1.5-0.4s0.3-3.8,1.2-3.8s2.6-0.3,2.6,0s-0.2-1.7-0.2-1.7s-0.5-0.5-0.5-1.6s0.6-0.6,0.6-0.6s-0.1-2,0.4-2.6
	C225.3,138.8,225.1,138.1,227.1,137.9z"/>
<path class="st1" d="M241.3,147.3c3,0.1,3.8,1.2,3.8,1.2s1.4,5,0.6,5.8c0,0-0.5,1.2-0.8,1.3s0.4,1.2,0.4,1.2s7.3,2.8,7.3,3.2
	s2.3,8.5,2.5,8.6s0.8,16.2-0.9,16.4v1.5c0,0-1.6,1.8-2,1.8s-0.4,9.4-0.1,9.6c0.3,0.2,1.6,5.1,1.6,5.1l0.7,12.5l-0.7,0.4l0.2,0.7
	c0,0,4.2,3.7-0.5,2.9c0,0-3.4-0.1-3.2-2.3l-0.1-0.5h-0.9l-1.7-13.4l-2.4-13.9l-0.3-0.1l1.9,26.7l-0.5,0.8c0,0,0.2,3-1.5,2.6
	c0,0-5.9,0.7-4.3-0.9s1.9-1.6,1.8-2.1s-0.1-0.6-0.1-0.6h-0.4c0,0-0.9-15.1-1.2-16.5s-2.7-9.8-2.7-9.8s-0.9,1.4-1.6,1.2
	c-0.8-0.2-1.9-0.2-2-1.2s0.4-27.1,0.4-27.1l5.4-4.4c0,0,0.5-1.4,0.2-1.4c-0.2,0-0.9-1-1-1.6c-0.2-0.6-0.8-4.3-0.4-5.1
	C239,149.8,239,147.1,241.3,147.3z"/>
<path class="st0" d="M264.4,126.2c3,0.2,3.8,1.2,3.8,1.2s1.4,5,0.6,5.8c0,0-0.5,1.2-0.8,1.3s0.4,1.2,0.4,1.2s7.3,2.8,7.3,3.2
	s2.3,8.5,2.5,8.6s0.8,16.2-0.9,16.4v1.5c0,0-1.6,1.8-2,1.8s-0.4,9.4-0.1,9.6s1.6,5.1,1.6,5.1l0.7,12.5l-0.7,0.4l0.2,0.7
	c0,0,4.2,3.7-0.5,2.9c0,0-3.4-0.1-3.2-2.3l-0.1-0.5h-0.9l-1.7-13.4l-2.5-13.9l-0.3-0.1l1.9,26.7l-0.5,0.8c0,0,0.2,3-1.5,2.6
	c0,0-5.9,0.7-4.3-0.9c1.5-1.7,1.9-1.6,1.8-2.1s-0.1-0.6-0.1-0.6h-0.5c0,0-0.9-15.1-1.2-16.5s-2.7-9.8-2.7-9.8s-0.9,1.4-1.6,1.2
	c-0.8-0.2-1.9-0.2-2-1.2c-0.1-0.9,0.4-27.1,0.4-27.1l5.4-4.4c0,0,0.5-1.4,0.2-1.4c-0.2,0-0.9-1-1-1.6s-0.8-4.3-0.4-5.1
	C262,128.8,262,126.1,264.4,126.2z"/>
<path class="st0" d="M263.2,141.5C263.2,141.5,263.3,141.5,263.2,141.5c0.1,0,0.1,0,0.1,0c4.3,0.1,3.5,6.1,3.5,6.1s-0.2,1.8-1.2,1.7
	c0,0-0.2,2,1.7,2.6c1.8,0.5,4.6,1.8,5.2,2.9s2.7,4,2.7,5.2s0.8,1.9,0.8,1.9l-0.9,0.4c0,0,0.4,2.1,0.6,2.3s1.1,6.4,0.9,7.9
	c-0.3,1.5-0.8,5.6-0.8,6.8c0.1,1.3-0.3,3.8-1.7,3.7c0,0-1.4,1.5-2.2,1.1c-0.7-0.4,0,2.5,0,2.5s1.3,15.7,0.5,16s0,0.6,0.1,0.9
	c0.1,0.2,0.6,1.7-0.2,1.6s0.1,0.3,1,1.5s1.6,2.8,0.6,3.8s-2.6,0.8-2.6,0.8s-1.8-0.3-1.8-0.9c0,0-1.2-1.4-1-2.3c0,0-1.2-1.1-0.9-1.7
	s-0.9,0.2-0.7-0.6s-0.7-0.2-0.2-1.1s-1.1-1.3-0.4-1.5c0.8-0.2,0-13.3-0.5-14.4s-1.1-2.6-1.3-5.1s-0.2,1.3-0.2,1.3s0.5,8,0,8.6
	s-0.2,7.3-0.2,7.3l0.2,3.7c0,0,0.7-0.1,0.3,0.5c-0.4,0.6,0.3,1-0.6,0.8s0.5,0.9-0.2,1.6s-1.1,1.6-1.5,1c-0.5-0.6,0.3,1.8-0.4,2.5
	s-7.1,3.4-5.6,0.1c1.5-3.4,1.8-2.5,1.8-2.5s-0.3-1.6,0.1-1.4s0.6-1.3,1.1-1.1s-1.6-1.3-0.8-1.5s-2.3-19.5-1.9-19.6s-2.8-1.8-2.7-2.3
	s-0.3-7.4-0.5-7.9s-0.9-11.5-0.3-11.5s-1.9-1.9-1.9-1.9s3.2-3.2,3.2-5.3s6.1-4.3,6.1-4.3s0.9-1.3,0.5-2.2c0,0-0.9-0.3-0.9-1.2
	s-1.6-7.2,1.8-6.9L263.2,141.5L263.2,141.5z"/>
<path class="st0" d="M219.8,151.6C219.9,151.6,219.9,151.6,219.8,151.6c0.1,0,0.1,0,0.1,0c4.5,0.1,3.7,6.4,3.7,6.4s-0.2,1.8-1.3,1.8
	c0,0-0.2,2.1,1.8,2.7s4.9,1.9,5.4,3.1s2.9,4.2,2.9,5.5s0.8,2,0.8,2l-0.9,0.4c0,0,0.4,2.2,0.6,2.4c0.2,0.2,1.2,6.7,0.9,8.2
	s-0.9,5.8-0.8,7.1s-0.3,4-1.8,3.8c0,0-1.5,1.6-2.3,1.2c-0.8-0.4,0,2.6,0,2.6s1.4,16.5,0.5,16.8s0,0.7,0.1,0.9s0.6,1.8-0.2,1.6
	c-0.9-0.2,0.1,0.3,1.1,1.5c0.9,1.2,1.7,2.9,0.6,4c-1.1,1.1-2.8,0.8-2.8,0.8s-1.8-0.3-1.9-0.9c0,0-1.2-1.5-1.1-2.4
	c0,0-1.2-1.2-0.9-1.8s-1,0.2-0.8-0.6s-0.7-0.2-0.2-1.1s-1.2-1.4-0.4-1.6c0.8-0.2-0.1-14-0.5-15s-1.2-2.7-1.3-5.3s-0.2,1.4-0.2,1.4
	s0.6,8.4,0,9s-0.2,7.6-0.2,7.6l0.2,3.9c0,0,0.8-0.1,0.3,0.5c-0.4,0.6,0.3,1-0.6,0.8c-0.9-0.2,0.5,1-0.2,1.6s-1.1,1.6-1.6,1
	s0.3,1.9-0.4,2.6s-7.4,3.6-5.9,0.1c1.5-3.6,1.9-2.6,1.9-2.6s-0.3-1.7,0.1-1.5c0.4,0.2,0.6-1.4,1.2-1.2s-1.7-1.4-0.9-1.5
	s-2.4-20.4-1.9-20.5s-3-1.9-2.8-2.4c0.1-0.5-0.3-7.7-0.5-8.3s-0.9-12.1-0.3-12c0.6,0-1.9-1.9-1.9-1.9s3.3-3.4,3.4-5.5
	s6.3-4.5,6.3-4.5s0.9-1.4,0.5-2.3c0,0-0.9-0.3-0.9-1.2s-1.7-7.5,1.9-7.2L219.8,151.6L219.8,151.6z"/>
<path class="st1" d="M254,159.3L254,159.3c3.6,0.1,3.6,2.6,3.6,2.6s0.2,2.1,0,2.3s-0.3,0.4-0.3,0.4s0.6,0.3,0.5,0.4s0,0.7-0.2,0.8
	c0,0,0.2,1.1-0.5,0.8c0,0-0.5,0.3-0.2,0.4s1.1-0.3,1.2,0c0.1,0.4,1.3,3.4,1.8,3.4s0.4,0.8,0.4,0.8l1.7,0.9c0,0,1.3,1.1,1.3,1.5
	s3.5,6.9,3.4,7.3c-0.1,0.4,0.6,8,0.3,8.3c-0.3,0.3,0.2,5,0,5s-3,4.1-3.5,4c-0.4,0-0.4,1-1.3,0.7s-1-0.6-1-0.6s-0.5,0.8-0.3,0.8
	s0.4,3.7,0.2,3.7s0.6,5,0,5c0,0,0,4.9-0.3,5.1c-0.3,0.1,1.9,6.1,1.4,6.5c0,0-0.1,2.6-0.6,2.6s0.6,1.4,0.3,1.7
	c-0.3,0.4-0.2,1.3-0.7,0.9s0.6,3.2-0.2,3.2c-0.8,0,2.5,4.3,1,4.7s-4.1,0.2-4.1-2.1c0,0-2.1-0.7-1.5-2.8c0,0-0.9-0.2-0.7-2.7
	l-0.8-0.4c0,0,0.1-1,0.5-1.3s-0.4-0.7-0.4-0.7s-0.9-1-0.1-4.2c0.8-3.2-0.5-6.4-0.3-8c0.2-1.7-1-4.1-0.9-4.9s-0.1-1.1-0.1-1.1
	l-0.3,0.1c0,0,0.3,2.6,0,2.8s-0.4,2.1-0.4,2.1s-0.6,5.2-1.1,5.2s0.3,8.4,0.6,8.4s0.1,0.7,0.1,0.7s0.4,0,0.2,0.4s-0.9,3.6-1.4,3.4
	c-0.6-0.2,0.1,0.8,0,0.9s-0.6,1.5-1.1,1s0.3,1.2-0.2,1.8c-0.4,0.5-3,1.4-4.1-0.4c0,0-0.3-0.9,0-1.3c0.3-0.4,1.2-2,1.1-2.2
	s-0.2-1.8,0.1-2.3s-1.5-2.7,0.2-3.4c0,0-0.6-0.9-0.6-1.2s0.3-7.7,0.2-8s-1.2-4.9-1.1-5.8c0.1-0.9,0.1-7.2,0.5-7.5s-0.3-0.1-0.4-0.9
	s-0.5,0.2-0.5-0.4s-0.6,1.4-0.9,0.5c-0.3-0.9-1.3-2.1-1.6-1.8c0,0-1.7-4-1.4-5.1s1.8-20,4.6-19.6c0,0,1.6,0,1.5-0.4s0.3-3.8,1.2-3.8
	s2.6-0.3,2.6,0s-0.2-1.7-0.2-1.7s-0.5-0.5-0.5-1.6s0.6-0.6,0.6-0.6s-0.1-2,0.4-2.6C252.2,160.3,252.1,159.6,254,159.3z"/>
<path class="st0" d="M222.2,159.3L222.2,159.3c0.1,0,0.1,0,0.1,0c4.5,0.1,3.7,6.4,3.7,6.4s-0.2,1.8-1.3,1.8c0,0-0.2,2.1,1.8,2.7
	s4.9,1.9,5.4,3.1s2.9,4.2,2.9,5.5s0.8,2,0.8,2l-0.9,0.4c0,0,0.4,2.2,0.6,2.4s1.2,6.7,0.9,8.2s-0.9,5.8-0.8,7.1
	c0.1,1.3-0.3,4-1.8,3.8c0,0-1.5,1.6-2.3,1.2c-0.8-0.4,0,2.6,0,2.6s1.4,16.5,0.5,16.8s0,0.7,0.1,0.9s0.6,1.8-0.2,1.6
	c-0.9-0.2,0.1,0.3,1.1,1.5c0.9,1.2,1.7,2.9,0.6,4c-1.1,1.1-2.8,0.8-2.8,0.8s-1.8-0.3-1.9-0.9c0,0-1.2-1.5-1.1-2.4
	c0,0-1.2-1.2-0.9-1.8s-1,0.2-0.8-0.6s-0.7-0.2-0.2-1.1s-1.2-1.4-0.4-1.6c0.8-0.2-0.1-14-0.5-15s-1.2-2.7-1.3-5.3s-0.2,1.4-0.2,1.4
	s0.6,8.4,0,9c-0.6,0.7-0.2,7.6-0.2,7.6l0.2,3.9c0,0,0.8-0.1,0.3,0.5c-0.4,0.6,0.3,1-0.6,0.8s0.5,1-0.2,1.6s-1.1,1.6-1.6,1
	s0.3,1.9-0.4,2.6s-7.4,3.6-5.9,0.1s1.9-2.6,1.9-2.6s-0.3-1.7,0.1-1.5c0.4,0.2,0.6-1.4,1.2-1.2s-1.7-1.4-0.9-1.5s-2.4-20.4-1.9-20.5
	s-3-1.9-2.8-2.4c0.1-0.5-0.3-7.7-0.5-8.3c-0.3-0.6-0.9-12.1-0.3-12c0.6,0-1.9-1.9-1.9-1.9s3.3-3.4,3.4-5.5s6.3-4.5,6.3-4.5
	s0.9-1.4,0.5-2.3c0,0-0.9-0.3-0.9-1.2s-1.7-7.5,1.9-7.2L222.2,159.3L222.2,159.3z"/>
<path class="st3" d="M103.7,165.1C103.7,165.1,103.8,165.1,103.7,165.1c3.6,0.1,3.6,2.6,3.6,2.6s0.2,2.1,0,2.3s-0.3,0.4-0.3,0.4
	s0.6,0.3,0.5,0.4s0,0.7-0.2,0.8c0,0,0.2,1.1-0.5,0.8c0,0-0.5,0.3-0.2,0.4s1.1-0.3,1.2,0c0.1,0.4,1.3,3.4,1.8,3.4s0.4,0.8,0.4,0.8
	l1.7,0.9c0,0,1.3,1.1,1.3,1.5s3.6,6.9,3.4,7.3s0.7,8,0.3,8.3c-0.3,0.3,0.2,5,0,5s-3,4.1-3.4,4c-0.4,0-0.4,1-1.3,0.7s-1-0.6-1-0.6
	s-0.5,0.8-0.3,0.8s0.4,3.7,0.2,3.7s0.6,5-0.1,5c0,0,0,4.9-0.3,5.1s1.9,6.1,1.4,6.5c0,0-0.1,2.6-0.6,2.6s0.6,1.4,0.3,1.7
	c-0.3,0.4-0.2,1.3-0.7,0.9c-0.5-0.4,0.6,3.2-0.2,3.2s2.6,4.3,1,4.7s-4.1,0.2-4.1-2.1c0,0-2.1-0.7-1.5-2.8c0,0-0.9-0.2-0.7-2.7
	l-0.8-0.4c0,0,0.2-1,0.5-1.3s-0.4-0.7-0.4-0.7s-0.9-1-0.1-4.2s-0.5-6.4-0.3-8c0.2-1.7-1-4.1-0.9-4.9s-0.1-1.1-0.1-1.1l-0.3,0.1
	c0,0,0.3,2.6,0,2.8s-0.4,2.1-0.4,2.1s-0.6,5.2-1.1,5.2s0.3,8.4,0.6,8.4s0.1,0.7,0.1,0.7s0.4,0,0.2,0.4s-0.9,3.6-1.4,3.4
	c-0.6-0.2,0.1,0.8,0,0.9s-0.6,1.5-1.1,1s0.3,1.2-0.2,1.8s-3,1.4-4.1-0.4c0,0-0.3-0.9,0-1.3c0.3-0.4,1.2-2,1.1-2.2s-0.2-1.8,0.1-2.3
	c0.3-0.5-1.5-2.7,0.2-3.4c0,0-0.6-0.9-0.6-1.2s0.3-7.7,0.2-8c-0.1-0.3-1.2-4.9-1.1-5.8c0.1-0.9,0.1-7.2,0.5-7.5s-0.3-0.1-0.3-0.9
	s-0.5,0.2-0.5-0.4s-0.6,1.4-0.9,0.5s-1.3-2.1-1.7-1.8c0,0-1.7-4-1.4-5.1c0.3-1.1,1.8-20,4.6-19.6c0,0,1.6,0,1.5-0.4s0.3-3.8,1.2-3.8
	s2.6-0.3,2.6,0s-0.2-1.7-0.2-1.7s-0.5-0.5-0.5-1.6s0.6-0.6,0.6-0.6s-0.1-2,0.4-2.6C102,166.1,101.8,165.4,103.7,165.1z"/>
<path class="st3" d="M117.1,165.5L117.1,165.5c0.1,0,0.1,0,0.2,0c4.8,0.1,3.9,6.8,3.9,6.8s-0.2,1.9-1.3,1.9c0,0-0.2,2.2,1.8,2.8
	s5.1,2,5.7,3.2s3,4.4,3,5.8s0.9,2.1,0.9,2.1l-0.9,0.4c0,0,0.4,2.4,0.6,2.6s1.3,7,1,8.7s-0.9,6.1-0.8,7.5s-0.3,4.2-1.9,4.1
	c0,0-1.6,1.7-2.4,1.3s0,2.8,0,2.8s1.5,17.4,0.5,17.7c-0.9,0.3,0,0.7,0.1,1s0.7,1.9-0.3,1.7c-0.9-0.2,0.2,0.3,1.2,1.6
	s1.8,3.1,0.6,4.2c-1.2,1.1-2.9,0.8-2.9,0.8s-1.9-0.3-2-1c0,0-1.3-1.6-1.1-2.5c0,0-1.3-1.3-1-1.9s-1,0.2-0.8-0.7s-0.8-0.2-0.2-1.2
	c0.6-0.9-1.3-1.4-0.4-1.7s-0.1-14.7-0.6-15.8s-1.3-2.9-1.4-5.6s-0.3,1.5-0.3,1.5s0.6,8.8,0,9.5S118,231,118,231l0.3,4.1
	c0,0,0.8-0.1,0.4,0.6s0.3,1.1-0.7,0.9c-1-0.2,0.6,1-0.3,1.7s-1.2,1.7-1.7,1.1s0.3,2-0.4,2.8s-7.8,3.8-6.2,0.1c1.6-3.8,2-2.8,2-2.8
	s-0.3-1.8,0.1-1.6s0.6-1.5,1.2-1.3s-1.8-1.5-0.9-1.6c0.9-0.2-2.6-21.5-2.1-21.6s-3.1-2-3-2.5c0.2-0.6-0.3-8.1-0.6-8.7
	c-0.3-0.6-1-12.7-0.3-12.7s-2-2-2-2s3.5-3.6,3.6-5.8s6.7-4.7,6.7-4.7s1-1.4,0.6-2.4c0,0-1-0.4-1-1.3s-1.8-7.9,2-7.6L117.1,165.5
	L117.1,165.5z"/>
<path class="st0" d="M135.5,158.3c3,0.1,3.8,1.2,3.8,1.2s1.4,5,0.6,5.8c0,0-0.5,1.2-0.8,1.3s0.4,1.2,0.4,1.2s7.3,2.8,7.3,3.2
	s2.3,8.5,2.5,8.6s0.8,16.2-0.9,16.4v1.5c0,0-1.6,1.8-2,1.8s-0.4,9.4-0.1,9.6c0.3,0.2,1.6,5.1,1.6,5.1l0.7,12.5L148,227l0.2,0.7
	c0,0,4.2,3.7-0.5,2.9c0,0-3.4-0.1-3.2-2.3l-0.1-0.5h-0.9l-1.7-13.4l-2.4-13.9l-0.3-0.1l1.9,26.7l-0.5,0.8c0,0,0.2,3-1.5,2.6
	c0,0-5.9,0.7-4.3-0.9s1.9-1.6,1.8-2.1s-0.1-0.6-0.1-0.6H136c0,0-0.9-15.1-1.2-16.5s-2.7-9.8-2.7-9.8s-0.9,1.4-1.6,1.2
	c-0.8-0.2-1.9-0.2-2-1.2s0.4-27.1,0.4-27.1l5.4-4.4c0,0,0.5-1.4,0.2-1.4c-0.2,0-0.9-1-1-1.6c-0.2-0.6-0.8-4.3-0.4-5.1
	C133.1,160.9,133.1,158.2,135.5,158.3z"/>
<path class="st3" d="M157.9,162.5C157.9,162.5,158,162.5,157.9,162.5c3.6,0.1,3.6,2.6,3.6,2.6s0.2,2.1,0,2.3s-0.3,0.4-0.3,0.4
	s0.6,0.3,0.5,0.4c-0.1,0.2,0,0.7-0.2,0.8c0,0,0.2,1.1-0.5,0.8c0,0-0.5,0.3-0.2,0.4c0.3,0.1,1.1-0.3,1.2,0c0.1,0.4,1.3,3.4,1.8,3.4
	c0.6,0,0.4,0.8,0.4,0.8l1.7,0.9c0,0,1.3,1.1,1.3,1.5s3.6,6.9,3.4,7.3s0.6,8,0.3,8.3s0.2,5,0,5s-3,4.1-3.4,4c-0.4,0-0.4,1-1.3,0.7
	s-1-0.6-1-0.6s-0.5,0.8-0.3,0.8s0.4,3.7,0.2,3.7s0.6,5-0.1,5c0,0,0,4.9-0.3,5.1s1.9,6.1,1.4,6.5c0,0-0.1,2.6-0.6,2.6
	s0.6,1.4,0.3,1.7c-0.3,0.4-0.2,1.3-0.7,0.9s0.6,3.2-0.2,3.2s2.6,4.3,1,4.7c-1.5,0.4-4.1,0.2-4.1-2.1c0,0-2.1-0.7-1.5-2.8
	c0,0-0.9-0.2-0.7-2.7l-0.8-0.4c0,0,0.1-1,0.5-1.3s-0.4-0.7-0.4-0.7s-0.9-1-0.1-4.2c0.8-3.2-0.5-6.4-0.3-8c0.2-1.7-1-4.1-0.9-4.9
	c0.1-0.8-0.1-1.1-0.1-1.1l-0.3,0.1c0,0,0.3,2.6,0,2.8s-0.4,2.1-0.4,2.1s-0.6,5.2-1.1,5.2s0.3,8.4,0.6,8.4s0.1,0.7,0.1,0.7
	s0.4,0,0.2,0.4c-0.2,0.3-0.9,3.6-1.4,3.4c-0.6-0.2,0.1,0.8,0,0.9s-0.6,1.5-1.1,1s0.3,1.2-0.2,1.8s-3,1.4-4.1-0.4c0,0-0.3-0.9,0-1.3
	c0.3-0.4,1.2-2,1.1-2.2c-0.1-0.2-0.2-1.8,0.1-2.3s-1.5-2.7,0.2-3.4c0,0-0.6-0.9-0.6-1.2c0-0.4,0.3-7.7,0.2-8s-1.2-4.9-1.1-5.8
	s0.1-7.2,0.5-7.5s-0.3-0.1-0.4-0.9s-0.5,0.2-0.5-0.4s-0.6,1.4-0.9,0.5c-0.3-0.9-1.3-2.1-1.6-1.8c0,0-1.7-4-1.4-5.1s1.8-20,4.6-19.6
	c0,0,1.6,0,1.5-0.4s0.3-3.8,1.2-3.8s2.6-0.3,2.6,0s-0.2-1.7-0.2-1.7s-0.5-0.5-0.5-1.6s0.6-0.6,0.6-0.6s-0.1-2,0.4-2.6
	S156,162.8,157.9,162.5z"/>
<path class="st1" d="M135.6,169.9L135.6,169.9c3.6,0.1,3.6,2.6,3.6,2.6s0.2,2.1,0,2.3s-0.3,0.4-0.3,0.4s0.6,0.3,0.5,0.4
	c-0.1,0.2,0,0.7-0.2,0.8c0,0,0.2,1.1-0.5,0.8c0,0-0.5,0.3-0.2,0.4s1.1-0.3,1.2,0c0.1,0.4,1.3,3.4,1.8,3.4c0.6,0,0.4,0.8,0.4,0.8
	l1.7,0.9c0,0,1.3,1.1,1.3,1.5s3.6,6.9,3.4,7.3s0.6,8,0.3,8.3s0.2,5,0,5s-3,4.1-3.4,4s-0.4,1-1.3,0.7c-0.9-0.3-1-0.6-1-0.6
	s-0.5,0.8-0.3,0.8s0.4,3.7,0.2,3.7s0.6,5-0.1,5c0,0,0,4.9-0.3,5.1s1.9,6.1,1.4,6.5c0,0-0.1,2.6-0.6,2.6s0.6,1.4,0.3,1.7
	s-0.2,1.3-0.7,0.9s0.6,3.2-0.2,3.2s2.6,4.3,1,4.7c-1.5,0.4-4.1,0.2-4.1-2.1c0,0-2.1-0.7-1.5-2.8c0,0-0.9-0.2-0.7-2.7l-0.8-0.4
	c0,0,0.1-1,0.5-1.3s-0.4-0.7-0.4-0.7s-0.9-1-0.1-4.2c0.8-3.2-0.5-6.4-0.3-8c0.2-1.7-1-4.1-0.9-4.9s-0.1-1.1-0.1-1.1l-0.3,0.1
	c0,0,0.3,2.6,0,2.8s-0.4,2.1-0.4,2.1s-0.6,5.2-1.1,5.2s0.3,8.4,0.6,8.4s0.1,0.7,0.1,0.7s0.4,0,0.2,0.4s-0.9,3.6-1.4,3.4
	s0.1,0.8,0,0.9s-0.6,1.5-1.1,1s0.3,1.2-0.2,1.8c-0.4,0.5-3,1.4-4.1-0.4c0,0-0.3-0.9,0-1.3c0.3-0.4,1.2-2,1.1-2.2s-0.2-1.8,0.1-2.3
	s-1.5-2.7,0.2-3.4c0,0-0.6-0.9-0.6-1.2c0-0.4,0.3-7.7,0.2-8s-1.2-4.9-1.1-5.8c0.1-0.9,0.1-7.2,0.5-7.5s-0.3-0.1-0.3-0.9
	s-0.5,0.2-0.5-0.4s-0.6,1.4-0.9,0.5s-1.3-2.1-1.7-1.8c0,0-1.7-4-1.4-5.1c0.3-1.1,1.8-20,4.6-19.6c0,0,1.6,0,1.5-0.4s0.3-3.8,1.2-3.8
	s2.6-0.3,2.6,0s-0.2-1.7-0.2-1.7s-0.5-0.5-0.5-1.6s0.6-0.6,0.6-0.6s-0.1-2,0.4-2.6C133.9,170.9,133.7,170.2,135.6,169.9z"/>
<path class="st3" d="M171.7,173.5C171.8,173.5,171.8,173.5,171.7,173.5c0.1,0,0.1,0,0.1,0c4.3,0.1,3.5,6.1,3.5,6.1s-0.2,1.8-1.2,1.7
	c0,0-0.2,2,1.7,2.6c1.8,0.5,4.6,1.8,5.2,2.9c0.5,1.1,2.7,4,2.7,5.2s0.8,1.9,0.8,1.9l-0.9,0.4c0,0,0.4,2.1,0.6,2.3
	c0.2,0.2,1.1,6.4,0.9,7.9c-0.3,1.5-0.8,5.6-0.8,6.8s-0.3,3.8-1.7,3.7c0,0-1.4,1.5-2.2,1.1c-0.7-0.4,0,2.5,0,2.5s1.3,15.7,0.5,16
	s0,0.6,0.1,0.9c0.1,0.2,0.6,1.7-0.2,1.6c-0.8-0.2,0.1,0.3,1.1,1.5s1.6,2.8,0.6,3.8s-2.6,0.8-2.6,0.8s-1.8-0.3-1.8-0.9
	c0,0-1.2-1.4-1-2.3c0,0-1.2-1.1-0.9-1.7s-0.9,0.2-0.7-0.6s-0.7-0.2-0.2-1.1s-1.1-1.3-0.4-1.5c0.8-0.2-0.1-13.3-0.5-14.4
	s-1.1-2.6-1.3-5.1c-0.1-2.5-0.2,1.3-0.2,1.3s0.6,8,0,8.6s-0.2,7.3-0.2,7.3l0.2,3.7c0,0,0.7-0.1,0.3,0.5s0.3,1-0.6,0.8
	c-0.9-0.2,0.5,0.9-0.2,1.6s-1.1,1.6-1.5,1c-0.5-0.6,0.3,1.8-0.4,2.5c-0.6,0.7-7.1,3.4-5.6,0.1s1.8-2.5,1.8-2.5s-0.3-1.6,0.1-1.4
	s0.6-1.3,1.1-1.1s-1.6-1.3-0.8-1.5s-2.3-19.5-1.9-19.6c0.5-0.1-2.8-1.8-2.7-2.3s-0.3-7.4-0.5-7.9s-0.9-11.5-0.3-11.5
	s-1.9-1.9-1.9-1.9s3.2-3.2,3.2-5.3s6.1-4.3,6.1-4.3s0.9-1.3,0.5-2.2c0,0-0.9-0.3-0.9-1.2s-1.6-7.2,1.8-6.9L171.7,173.5L171.7,173.5z
	"/>
<path class="st3" d="M206.4,169.1C206.5,169.1,206.5,169.1,206.4,169.1c3.6,0.1,3.6,2.6,3.6,2.6s0.2,2.1,0,2.3s-0.3,0.4-0.3,0.4
	s0.6,0.3,0.5,0.4s0,0.7-0.2,0.8c0,0,0.2,1.1-0.5,0.8c0,0-0.5,0.3-0.2,0.4c0.3,0.1,1.1-0.3,1.2,0s1.3,3.4,1.8,3.4s0.4,0.8,0.4,0.8
	l1.7,0.9c0,0,1.3,1.1,1.3,1.5s3.6,6.9,3.4,7.3s0.6,8,0.3,8.3s0.2,5,0,5s-3,4.1-3.4,4c-0.4,0-0.4,1-1.3,0.7s-1-0.6-1-0.6
	s-0.5,0.8-0.3,0.8s0.4,3.7,0.2,3.7s0.6,5-0.1,5c0,0,0,4.9-0.3,5.1s1.9,6.1,1.4,6.5c0,0-0.1,2.6-0.6,2.6s0.6,1.4,0.3,1.7
	c-0.3,0.4-0.2,1.3-0.7,0.9s0.6,3.2-0.2,3.2s2.6,4.3,1,4.7c-1.5,0.4-4.1,0.2-4.1-2.1c0,0-2.1-0.7-1.5-2.8c0,0-0.9-0.2-0.7-2.7
	l-0.8-0.4c0,0,0.1-1,0.5-1.3s-0.4-0.7-0.4-0.7s-0.9-1-0.1-4.2c0.8-3.2-0.5-6.4-0.3-8c0.2-1.7-1-4.1-0.9-4.9s-0.1-1.1-0.1-1.1
	l-0.3,0.1c0,0,0.3,2.6,0,2.8s-0.4,2.1-0.4,2.1s-0.6,5.2-1.1,5.2s0.3,8.4,0.6,8.4s0.1,0.7,0.1,0.7s0.4,0,0.2,0.4
	c-0.2,0.3-0.9,3.6-1.4,3.4c-0.6-0.2,0.1,0.8,0,0.9s-0.6,1.5-1.1,1s0.3,1.2-0.2,1.8c-0.4,0.5-3,1.4-4.1-0.4c0,0-0.3-0.9,0-1.3
	c0.3-0.4,1.2-2,1.1-2.2c-0.1-0.2-0.2-1.8,0.1-2.3s-1.5-2.7,0.2-3.4c0,0-0.6-0.9-0.6-1.2c0-0.4,0.3-7.7,0.2-8s-1.2-4.9-1.1-5.8
	s0.1-7.2,0.5-7.5s-0.3-0.1-0.4-0.9s-0.5,0.2-0.5-0.4s-0.6,1.4-0.9,0.5c-0.3-0.9-1.3-2.1-1.6-1.8c0,0-1.7-4-1.4-5.1s1.8-20,4.6-19.6
	c0,0,1.6,0,1.5-0.4s0.3-3.8,1.2-3.8s2.6-0.3,2.6,0s-0.2-1.7-0.2-1.7s-0.5-0.5-0.5-1.6s0.6-0.6,0.6-0.6s-0.1-2,0.4-2.6
	C204.7,170,204.5,169.3,206.4,169.1z"/>
<path class="st1" d="M232.7,165.5C232.8,165.5,232.8,165.5,232.7,165.5c0.1,0,0.1,0,0.2,0c4.8,0.1,3.9,6.8,3.9,6.8s-0.2,1.9-1.3,1.9
	c0,0-0.2,2.2,1.9,2.8c2,0.6,5.1,2,5.7,3.2s3,4.4,3,5.8s0.9,2.1,0.9,2.1l-0.9,0.4c0,0,0.4,2.4,0.6,2.6s1.3,7,1,8.7s-0.9,6.1-0.8,7.5
	s-0.3,4.2-1.9,4.1c0,0-1.6,1.7-2.4,1.3c-0.8-0.4,0,2.8,0,2.8s1.5,17.4,0.5,17.7s0,0.7,0.1,1s0.6,1.9-0.3,1.7s0.2,0.3,1.2,1.6
	s1.8,3.1,0.6,4.2s-2.9,0.8-2.9,0.8s-1.9-0.3-2-1c0,0-1.3-1.6-1.1-2.5c0,0-1.3-1.3-1-1.9c0.3-0.6-1,0.2-0.8-0.7s-0.8-0.2-0.2-1.2
	s-1.3-1.4-0.4-1.7s-0.1-14.7-0.6-15.8s-1.3-2.9-1.4-5.6s-0.3,1.5-0.3,1.5s0.6,8.8,0,9.5s-0.3,8.1-0.3,8.1l0.3,4.1
	c0,0,0.8-0.1,0.4,0.6s0.3,1.1-0.7,0.9s0.6,1-0.3,1.7s-1.2,1.7-1.7,1.1s0.3,2-0.4,2.8s-7.9,3.8-6.2,0.1s2-2.8,2-2.8s-0.3-1.8,0.1-1.6
	s0.6-1.5,1.2-1.3c0.6,0.2-1.8-1.5-0.9-1.6c0.9-0.2-2.6-21.5-2.1-21.6s-3.1-2-3-2.5c0.1-0.6-0.3-8.1-0.6-8.7
	c-0.3-0.6-1-12.7-0.3-12.7s-2-2-2-2s3.5-3.6,3.6-5.8s6.7-4.7,6.7-4.7s1-1.4,0.6-2.4c0,0-1-0.4-1-1.3s-1.8-7.9,2-7.6L232.7,165.5
	L232.7,165.5z"/>
<path class="st13" d="M344.1,109.7c3,0.2,3.8,1.2,3.8,1.2s1.4,5,0.6,5.8c0,0-0.5,1.2-0.8,1.3c-0.3,0.2,0.4,1.2,0.4,1.2
	s7.3,2.8,7.3,3.2s2.3,8.5,2.5,8.6s0.8,16.2-0.9,16.4v1.5c0,0-1.6,1.8-2,1.8s-0.4,9.4-0.1,9.6s1.6,5.1,1.6,5.1l0.7,12.5l-0.7,0.4
	l0.2,0.7c0,0,4.2,3.7-0.5,2.9c0,0-3.4-0.1-3.2-2.3l-0.1-0.5H352l-1.7-13.4l-2.5-13.9l-0.3-0.1l1.9,26.7l-0.5,0.8c0,0,0.2,3-1.5,2.6
	c0,0-5.9,0.7-4.3-0.9c1.5-1.7,1.9-1.6,1.8-2.1s-0.1-0.6-0.1-0.6h-0.5c0,0-0.9-15.1-1.2-16.5s-2.7-9.8-2.7-9.8s-0.9,1.4-1.6,1.2
	c-0.8-0.2-1.9-0.2-2-1.2s0.4-27.1,0.4-27.1l5.4-4.4c0,0,0.5-1.4,0.2-1.4c-0.2,0-0.9-1-1-1.6s-0.8-4.3-0.4-5.1
	C341.7,112.3,341.7,109.6,344.1,109.7z"/>
<path class="st1" d="M374.5,103.7L374.5,103.7c0.1,0,0.1,0,0.2,0c5.2,0.2,4.2,7.4,4.2,7.4s-0.2,2.1-1.4,2c0,0-0.2,2.4,2,3.1
	s5.6,2.2,6.2,3.5s3.3,4.8,3.3,6.3s1,2.3,1,2.3l-1,0.4c0,0,0.5,2.6,0.7,2.8s1.4,7.7,1,9.4s-1,6.7-0.9,8.2s-0.4,4.5-2,4.4
	c0,0-1.7,1.8-2.6,1.4s0,3,0,3s1.6,18.9,0.6,19.2s0,0.8,0.1,1.1s0.7,2.1-0.3,1.9s0.2,0.4,1.3,1.8c1.1,1.4,1.9,3.4,0.7,4.6
	c-1.3,1.2-3.2,0.9-3.2,0.9s-2.1-0.3-2.2-1.1c0,0-1.4-1.7-1.2-2.7c0,0-1.4-1.4-1-2c0.4-0.7-1.1,0.2-0.9-0.7c0.3-0.9-0.8-0.3-0.2-1.3
	s-1.4-1.6-0.5-1.8s-0.1-16-0.6-17.2s-1.4-3.1-1.5-6.1c-0.2-3-0.3,1.6-0.3,1.6s0.7,9.6,0,10.4s-0.3,8.8-0.3,8.8l0.3,4.5
	c0,0,0.9-0.1,0.4,0.6s0.3,1.2-0.7,0.9s0.6,1.1-0.3,1.9c-0.9,0.8-1.3,1.9-1.8,1.2s0.3,2.2-0.4,3s-8.5,4.1-6.8,0.1
	c1.8-4.1,2.1-3,2.1-3s-0.4-1.9,0.1-1.7s0.7-1.6,1.3-1.4c0.6,0.3-2-1.6-1-1.8s-2.8-23.4-2.2-23.6c0.6-0.1-3.4-2.2-3.2-2.8
	c0.2-0.6-0.3-8.8-0.6-9.5c-0.3-0.6-1.1-13.8-0.4-13.8s-2.2-2.2-2.2-2.2s3.8-3.9,3.9-6.3c0-2.5,7.3-5.1,7.3-5.1s1.1-1.6,0.6-2.6
	c0,0-1.1-0.4-1.1-1.4s-2-8.6,2.2-8.2L374.5,103.7L374.5,103.7z"/>
<path class="st1" d="M360.4,129.1L360.4,129.1c3.6,0.1,3.6,2.6,3.6,2.6s0.2,2.1,0,2.3s-0.3,0.4-0.3,0.4s0.6,0.3,0.5,0.4
	c-0.1,0.2,0,0.7-0.2,0.8c0,0,0.2,1.1-0.5,0.8c0,0-0.5,0.3-0.2,0.4s1.1-0.3,1.2,0s1.3,3.4,1.8,3.4s0.4,0.8,0.4,0.8l1.7,0.9
	c0,0,1.3,1.1,1.3,1.5s3.5,6.9,3.4,7.3c-0.1,0.4,0.6,8,0.3,8.3c-0.3,0.3,0.2,5,0,5s-3,4.1-3.5,4c-0.4,0-0.4,1-1.3,0.7s-1-0.6-1-0.6
	s-0.5,0.8-0.3,0.8s0.4,3.7,0.2,3.7s0.6,5,0,5c0,0,0,4.9-0.3,5.1c-0.3,0.1,1.9,6.1,1.4,6.5c0,0-0.1,2.6-0.6,2.6s0.6,1.4,0.3,1.7
	s-0.2,1.3-0.7,0.9s0.6,3.2-0.2,3.2c-0.8,0,2.5,4.3,1,4.7s-4.1,0.2-4.1-2.1c0,0-2.1-0.7-1.5-2.8c0,0-1-0.2-0.7-2.7l-0.8-0.4
	c0,0,0.1-1,0.5-1.3s-0.4-0.7-0.4-0.7s-0.9-1-0.1-4.2s-0.5-6.4-0.3-8c0.2-1.7-1-4.1-0.9-4.9c0.1-0.8-0.1-1.1-0.1-1.1l-0.3,0.1
	c0,0,0.3,2.6,0,2.8s-0.4,2.1-0.4,2.1s-0.6,5.2-1.1,5.2s0.3,8.4,0.5,8.4s0,0.7,0,0.7s0.4,0,0.2,0.4s-0.9,3.6-1.4,3.4
	c-0.5-0.2,0.1,0.8,0,0.9s-0.6,1.5-1.1,1s0.3,1.2-0.2,1.8s-3,1.4-4.1-0.4c0,0-0.3-0.9,0-1.3c0.3-0.4,1.2-2,1.1-2.2s-0.2-1.8,0.1-2.3
	c0.3-0.5-1.5-2.7,0.2-3.4c0,0-0.6-0.9-0.6-1.2c0-0.4,0.3-7.7,0.2-8s-1.2-4.9-1.1-5.8c0.1-0.9,0.1-7.2,0.5-7.5s-0.3-0.1-0.4-0.9
	s-0.5,0.2-0.5-0.4s-0.6,1.4-0.9,0.5s-1.3-2.1-1.6-1.8c0,0-1.7-4-1.4-5.1s1.8-20,4.6-19.6c0,0,1.6,0,1.5-0.4s0.3-3.8,1.2-3.8
	s2.6-0.3,2.6,0s-0.2-1.7-0.2-1.7s-0.5-0.5-0.5-1.6s0.6-0.6,0.6-0.6s-0.1-2,0.5-2.6C358.6,130.1,358.4,129.4,360.4,129.1z"/>
<path class="st1" d="M335.1,125.9c3,0.2,3.8,1.2,3.8,1.2s1.4,5,0.6,5.8c0,0-0.5,1.2-0.8,1.3s0.4,1.2,0.4,1.2s7.3,2.8,7.3,3.2
	s2.3,8.5,2.5,8.6s0.8,16.2-0.9,16.4v1.5c0,0-1.6,1.8-2,1.8s-0.4,9.4-0.1,9.6s1.6,5.1,1.6,5.1l0.7,12.5l-0.7,0.4l0.2,0.7
	c0,0,4.2,3.7-0.5,2.9c0,0-3.4-0.1-3.2-2.3l-0.1-0.5H343l-1.7-13.4l-2.5-13.9l-0.3-0.1l1.9,26.7l-0.5,0.8c0,0,0.2,3-1.5,2.6
	c0,0-5.9,0.7-4.3-0.9c1.5-1.7,1.9-1.6,1.8-2.1s-0.1-0.6-0.1-0.6h-0.5c0,0-0.9-15.1-1.2-16.5s-2.7-9.8-2.7-9.8s-0.9,1.4-1.6,1.2
	c-0.8-0.2-1.9-0.2-2-1.2s0.4-27.1,0.4-27.1l5.4-4.4c0,0,0.5-1.4,0.2-1.4s-0.9-1-1-1.6s-0.8-4.3-0.4-5.1
	C332.8,128.5,332.8,125.8,335.1,125.9z"/>
<path class="st13" d="M347.5,142.9C347.5,142.9,347.6,142.9,347.5,142.9c3.6,0.1,3.6,2.6,3.6,2.6s0.2,2.1,0,2.3s-0.3,0.4-0.3,0.4
	s0.6,0.3,0.5,0.4c-0.1,0.2,0,0.7-0.2,0.8c0,0,0.2,1.1-0.5,0.8c0,0-0.5,0.3-0.2,0.4s1.1-0.3,1.2,0c0.1,0.4,1.3,3.4,1.8,3.4
	s0.4,0.8,0.4,0.8l1.7,0.9c0,0,1.3,1.1,1.3,1.5s3.5,6.9,3.4,7.3c-0.1,0.4,0.6,8,0.3,8.3c-0.3,0.3,0.2,5,0,5s-3,4.1-3.5,4
	s-0.4,1-1.3,0.7s-1-0.6-1-0.6s-0.5,0.8-0.3,0.8s0.4,3.7,0.2,3.7s0.6,5,0,5c0,0,0,4.9-0.3,5.1s1.9,6.1,1.4,6.5c0,0-0.1,2.6-0.6,2.6
	s0.6,1.4,0.3,1.7s-0.2,1.3-0.7,0.9s0.6,3.2-0.2,3.2c-0.8,0,2.5,4.3,1,4.7s-4.1,0.2-4.1-2.1c0,0-2.1-0.7-1.5-2.8c0,0-1-0.2-0.7-2.7
	l-0.8-0.4c0,0,0.1-1,0.5-1.3s-0.4-0.7-0.4-0.7s-0.9-1-0.1-4.2s-0.5-6.4-0.3-8c0.2-1.7-1-4.1-0.9-4.9c0.1-0.8-0.1-1.1-0.1-1.1
	l-0.3,0.1c0,0,0.3,2.6,0,2.8s-0.4,2.1-0.4,2.1s-0.6,5.2-1.1,5.2s0.3,8.4,0.5,8.4c0.3,0,0,0.7,0,0.7s0.4,0,0.2,0.4s-0.9,3.6-1.4,3.4
	s0.1,0.8,0,0.9s-0.6,1.5-1.1,1s0.3,1.2-0.2,1.8s-3,1.4-4.1-0.4c0,0-0.3-0.9,0-1.3c0.3-0.4,1.2-2,1.1-2.2s-0.2-1.8,0.1-2.3
	s-1.5-2.7,0.2-3.4c0,0-0.6-0.9-0.6-1.2c0-0.4,0.3-7.7,0.2-8c-0.1-0.3-1.2-4.9-1.1-5.8c0.1-0.9,0.1-7.2,0.5-7.5s-0.3-0.1-0.4-0.9
	s-0.5,0.2-0.5-0.4s-0.6,1.4-0.9,0.5s-1.3-2.1-1.6-1.8c0,0-1.7-4-1.4-5.1c0.3-1.1,1.8-20,4.6-19.6c0,0,1.6,0,1.5-0.4s0.3-3.8,1.2-3.8
	s2.6-0.3,2.6,0s-0.2-1.7-0.2-1.7s-0.5-0.5-0.5-1.6s0.6-0.6,0.6-0.6s-0.1-2,0.5-2.6C345.8,143.8,345.6,143.1,347.5,142.9z"/>
<path class="st13" d="M377.3,128C377.4,128,377.4,128,377.3,128c0.1,0,0.1,0,0.1,0c4.8,0.1,3.9,6.8,3.9,6.8s-0.2,1.9-1.3,1.9
	c0,0-0.2,2.2,1.9,2.8c2,0.6,5.1,2,5.7,3.2s3,4.4,3,5.8c0,1.4,0.9,2.1,0.9,2.1l-0.9,0.4c0,0,0.4,2.4,0.6,2.6s1.3,7,1,8.7
	s-0.9,6.1-0.8,7.5s-0.3,4.2-1.9,4.1c0,0-1.6,1.7-2.4,1.3s0,2.8,0,2.8s1.5,17.4,0.5,17.7s0,0.7,0.1,1s0.6,1.9-0.3,1.7
	s0.2,0.3,1.2,1.6s1.8,3.1,0.6,4.2c-1.2,1.1-2.9,0.8-2.9,0.8s-1.9-0.3-2-1c0,0-1.3-1.6-1.1-2.5c0,0-1.3-1.3-1-1.9s-1,0.2-0.8-0.7
	s-0.8-0.2-0.2-1.2c0.6-0.9-1.3-1.4-0.4-1.7s-0.1-14.7-0.6-15.8s-1.3-2.9-1.4-5.6s-0.3,1.5-0.3,1.5s0.6,8.8,0,9.5s-0.3,8.1-0.3,8.1
	l0.3,4.1c0,0,0.8-0.1,0.4,0.6c-0.5,0.7,0.3,1.1-0.7,0.9s0.6,1-0.3,1.7s-1.2,1.7-1.7,1.1s0.3,2-0.4,2.8c-0.7,0.8-7.9,3.8-6.2,0.1
	s2-2.8,2-2.8s-0.3-1.8,0.1-1.6c0.5,0.2,0.6-1.5,1.2-1.3s-1.8-1.5-0.9-1.6c0.9-0.2-2.6-21.5-2-21.6c0.5-0.1-3.1-2-3-2.5
	s-0.3-8.1-0.5-8.7c-0.3-0.6-1-12.7-0.3-12.7s-2-2-2-2s3.5-3.6,3.6-5.8s6.7-4.7,6.7-4.7s1-1.4,0.5-2.4c0,0-1-0.4-1-1.3
	c0-1-1.8-7.9,2-7.6L377.3,128L377.3,128z"/>
<path class="st13" d="M335.8,152.1L335.8,152.1c0.1,0,0.1,0,0.1,0c4.3,0.1,3.5,6.1,3.5,6.1s-0.2,1.7-1.2,1.7c0,0-0.2,2,1.6,2.5
	s4.6,1.8,5.1,2.9c0.5,1.1,2.7,3.9,2.7,5.1s0.8,1.9,0.8,1.9l-0.8,0.4c0,0,0.4,2.1,0.6,2.3s1.1,6.3,0.9,7.7s-0.8,5.5-0.7,6.7
	c0.1,1.2-0.3,3.7-1.7,3.6c0,0-1.4,1.5-2.1,1.1s0,2.5,0,2.5s1.3,15.5,0.5,15.8s0,0.6,0.1,0.9s0.6,1.7-0.2,1.5s0.1,0.3,1,1.4
	s1.6,2.8,0.5,3.8s-2.6,0.8-2.6,0.8s-1.7-0.3-1.8-0.9c0,0-1.1-1.4-1-2.3c0,0-1.1-1.1-0.9-1.7s-0.9,0.2-0.7-0.6s-0.7-0.2-0.2-1
	s-1.1-1.3-0.4-1.5s0-13.1-0.5-14.1s-1.1-2.6-1.3-5c-0.1-2.4-0.2,1.3-0.2,1.3s0.5,7.9,0,8.5s-0.2,7.2-0.2,7.2l0.2,3.7
	c0,0,0.7-0.1,0.3,0.5c-0.4,0.6,0.3,0.9-0.6,0.8s0.5,0.9-0.2,1.5s-1,1.5-1.5,0.9s0.3,1.8-0.4,2.5c-0.6,0.7-7,3.4-5.5,0.1
	c1.4-3.3,1.8-2.5,1.8-2.5s-0.3-1.6,0.1-1.4s0.6-1.3,1.1-1.1s-1.6-1.3-0.8-1.4c0.8-0.1-2.3-19.2-1.8-19.3s-2.8-1.8-2.7-2.3
	c0.1-0.5-0.2-7.2-0.5-7.8c-0.2-0.5-0.9-11.3-0.3-11.3s-1.8-1.8-1.8-1.8s3.1-3.2,3.2-5.2c0-2,6-4.2,6-4.2s0.9-1.3,0.5-2.1
	c0,0-0.9-0.3-0.9-1.2s-1.6-7.1,1.8-6.7h1.1V152.1z"/>
<path class="st3" d="M360.4,146.4c3,0.1,3.8,1.2,3.8,1.2s1.4,5,0.6,5.8c0,0-0.5,1.2-0.8,1.3s0.4,1.2,0.4,1.2s7.3,2.8,7.3,3.2
	s2.3,8.5,2.5,8.6s0.8,16.2-0.9,16.4v1.5c0,0-1.6,1.8-2,1.8s-0.4,9.4-0.1,9.6s1.6,5.1,1.6,5.1l0.7,12.5l-0.7,0.4l0.2,0.7
	c0,0,4.2,3.7-0.5,2.9c0,0-3.4-0.1-3.2-2.3l-0.1-0.5h-0.9l-1.7-13.4l-2.5-13.9l-0.3-0.1l1.9,26.7l-0.5,0.8c0,0,0.2,3-1.5,2.6
	c0,0-5.9,0.7-4.3-0.9c1.5-1.7,1.9-1.6,1.8-2.1s-0.1-0.6-0.1-0.6h-0.5c0,0-0.9-15.1-1.2-16.5s-2.7-9.8-2.7-9.8s-0.9,1.4-1.6,1.2
	s-1.9-0.2-2-1.2c-0.1-0.9,0.4-27.1,0.4-27.1l5.4-4.4c0,0,0.5-1.4,0.2-1.4c-0.2,0-0.9-1-1-1.6c-0.2-0.6-0.8-4.3-0.4-5.1
	C358,148.9,358,146.3,360.4,146.4z"/>
<path class="st3" d="M354.7,156c3,0.1,3.8,1.2,3.8,1.2s1.4,5,0.6,5.8c0,0-0.5,1.2-0.8,1.3s0.4,1.2,0.4,1.2s7.3,2.8,7.3,3.2
	s2.3,8.5,2.5,8.6s0.8,16.2-0.9,16.4v1.5c0,0-1.6,1.8-2,1.8s-0.4,9.4-0.1,9.6s1.6,5.1,1.6,5.1l0.7,12.5l-0.7,0.4l0.2,0.7
	c0,0,4.2,3.7-0.5,2.9c0,0-3.4-0.1-3.2-2.3l-0.1-0.5h-0.9l-1.7-13.4l-2.5-13.9l-0.3-0.1l1.9,26.7l-0.5,0.8c0,0,0.2,3-1.5,2.6
	c0,0-5.9,0.7-4.3-0.9s1.9-1.6,1.8-2.1s-0.1-0.6-0.1-0.6h-0.5c0,0-0.9-15.1-1.2-16.5s-2.7-9.8-2.7-9.8s-0.9,1.4-1.6,1.2
	s-1.9-0.2-2-1.2c-0.1-0.9,0.4-27.1,0.4-27.1l5.4-4.4c0,0,0.5-1.4,0.2-1.4c-0.2,0-0.9-1-1-1.6s-0.8-4.3-0.4-5.1
	C352.4,158.5,352.4,155.8,354.7,156z"/>
<path class="st13" d="M400,103.7L400,103.7c0.1,0,0.1,0,0.1,0c4.8,0.1,3.9,6.8,3.9,6.8s-0.2,1.9-1.3,1.9c0,0-0.2,2.2,1.9,2.8
	c2,0.6,5.1,2,5.7,3.2s3,4.4,3,5.8s0.9,2.1,0.9,2.1l-0.9,0.4c0,0,0.4,2.4,0.6,2.6s1.3,7,1,8.7s-0.9,6.1-0.8,7.5s-0.3,4.2-1.9,4.1
	c0,0-1.6,1.7-2.4,1.3s0,2.8,0,2.8s1.5,17.4,0.5,17.7c-0.9,0.3,0,0.7,0.1,1s0.6,1.9-0.3,1.7s0.2,0.3,1.2,1.6s1.8,3.1,0.6,4.2
	c-1.2,1.1-2.9,0.8-2.9,0.8s-1.9-0.3-2-1c0,0-1.3-1.6-1.1-2.5c0,0-1.3-1.3-1-1.9s-1,0.2-0.8-0.7s-0.8-0.2-0.2-1.2s-1.3-1.4-0.4-1.7
	s-0.1-14.7-0.6-15.8s-1.3-2.9-1.4-5.6c-0.1-2.7-0.3,1.5-0.3,1.5s0.6,8.8,0,9.5s-0.3,8.1-0.3,8.1l0.3,4.1c0,0,0.8-0.1,0.4,0.6
	c-0.5,0.7,0.3,1.1-0.7,0.9s0.6,1-0.3,1.7s-1.2,1.7-1.7,1.1s0.3,2-0.4,2.8c-0.7,0.8-7.9,3.8-6.2,0.1s2-2.8,2-2.8s-0.3-1.8,0.1-1.6
	c0.5,0.2,0.6-1.5,1.2-1.3s-1.8-1.5-0.9-1.6c0.9-0.2-2.6-21.5-2-21.6c0.5-0.1-3.1-2-3-2.5s-0.3-8.1-0.5-8.7c-0.3-0.6-1-12.7-0.3-12.7
	s-2-2-2-2s3.5-3.6,3.6-5.8s6.7-4.7,6.7-4.7s1-1.4,0.5-2.4c0,0-1-0.3-1-1.3s-1.8-7.9,2-7.6L400,103.7L400,103.7z"/>
<path class="st13" d="M392.1,122.3c3,0.2,3.8,1.2,3.8,1.2s1.4,5,0.6,5.8c0,0-0.5,1.2-0.8,1.3s0.4,1.2,0.4,1.2s7.3,2.8,7.3,3.2
	s2.3,8.5,2.5,8.6s0.8,16.2-0.9,16.4v1.5c0,0-1.6,1.8-2,1.8s-0.4,9.4-0.1,9.6s1.6,5.1,1.6,5.1l0.7,12.5l-0.7,0.4l0.2,0.7
	c0,0,4.2,3.7-0.5,2.9c0,0-3.4-0.1-3.2-2.3l-0.1-0.5H400l-1.7-13.4l-2.5-13.9l-0.3-0.1l1.9,26.7l-0.5,0.8c0,0,0.2,3-1.5,2.6
	c0,0-5.9,0.7-4.3-0.9c1.5-1.7,1.9-1.6,1.8-2.1s-0.1-0.6-0.1-0.6h-0.5c0,0-0.9-15.1-1.2-16.5s-2.7-9.8-2.7-9.8s-0.9,1.4-1.6,1.2
	c-0.8-0.2-1.9-0.2-2-1.2c-0.1-0.9,0.4-27.1,0.4-27.1l5.4-4.4c0,0,0.5-1.4,0.2-1.4c-0.2,0-0.9-1-1-1.6s-0.8-4.3-0.4-5.1
	C389.8,124.9,389.8,122.2,392.1,122.3z"/>
<path class="st1" d="M417.2,108.1c3,0.2,3.8,1.2,3.8,1.2s1.4,5,0.6,5.8c0,0-0.5,1.2-0.8,1.3c-0.3,0.2,0.4,1.2,0.4,1.2
	s7.3,2.8,7.3,3.2s2.3,8.5,2.5,8.6s0.8,16.2-0.9,16.4v1.5c0,0-1.6,1.8-2,1.8s-0.4,9.4-0.1,9.6s1.6,5.1,1.6,5.1l0.7,12.5l-0.7,0.4
	l0.2,0.7c0,0,4.2,3.7-0.5,2.9c0,0-3.4-0.1-3.2-2.3l-0.1-0.5h-0.9l-1.7-13.4l-2.5-13.9l-0.3-0.1l1.9,26.7l-0.5,0.8c0,0,0.2,3-1.5,2.6
	c0,0-5.9,0.7-4.3-0.9c1.5-1.7,1.9-1.6,1.8-2.1s-0.1-0.6-0.1-0.6h-0.5c0,0-0.9-15.1-1.2-16.5s-2.7-9.8-2.7-9.8s-0.9,1.4-1.6,1.2
	c-0.8-0.2-1.9-0.2-2-1.2c-0.1-0.9,0.4-27.1,0.4-27.1l5.4-4.4c0,0,0.5-1.4,0.2-1.4c-0.2,0-0.9-1-1-1.6s-0.8-4.3-0.4-5.1
	C414.8,110.7,414.8,108,417.2,108.1z"/>
<path class="st0" d="M414.5,126.5C414.6,126.5,414.6,126.5,414.5,126.5c3.6,0.1,3.6,2.6,3.6,2.6s0.2,2.1,0,2.3s-0.3,0.4-0.3,0.4
	s0.6,0.3,0.5,0.4s0,0.7-0.2,0.8c0,0,0.2,1.1-0.5,0.8c0,0-0.5,0.3-0.2,0.4s1.1-0.3,1.2,0s1.3,3.4,1.8,3.4s0.4,0.8,0.4,0.8l1.7,0.9
	c0,0,1.3,1.1,1.3,1.5s3.5,6.9,3.4,7.3c-0.1,0.4,0.6,8,0.3,8.3c-0.3,0.3,0.2,5,0,5s-3,4.1-3.5,4c-0.4,0-0.4,1-1.3,0.7s-1-0.6-1-0.6
	s-0.5,0.8-0.3,0.8s0.4,3.7,0.2,3.7s0.6,5,0,5c0,0,0,4.9-0.3,5.1c-0.3,0.1,1.9,6.1,1.4,6.5c0,0-0.1,2.6-0.6,2.6s0.6,1.4,0.3,1.7
	c-0.3,0.4-0.2,1.3-0.7,0.9s0.6,3.2-0.2,3.2c-0.8,0,2.5,4.3,1,4.7s-4.1,0.2-4.1-2.1c0,0-2.1-0.7-1.5-2.8c0,0-1-0.2-0.7-2.7l-0.8-0.4
	c0,0,0.1-1,0.5-1.3s-0.4-0.7-0.4-0.7s-0.9-1-0.1-4.2s-0.5-6.4-0.3-8c0.2-1.7-1-4.1-0.9-4.9c0.1-0.8-0.1-1.1-0.1-1.1l-0.3,0.1
	c0,0,0.3,2.6,0,2.8s-0.4,2.1-0.4,2.1s-0.6,5.2-1.1,5.2s0.3,8.4,0.5,8.4c0.3,0,0,0.7,0,0.7s0.4,0,0.2,0.4s-0.9,3.6-1.4,3.4
	c-0.5-0.2,0.1,0.8,0,0.9s-0.6,1.5-1.1,1s0.3,1.2-0.2,1.8s-3,1.4-4.1-0.4c0,0-0.3-0.9,0-1.3c0.3-0.4,1.2-2,1.1-2.2s-0.2-1.8,0.1-2.3
	c0.3-0.5-1.5-2.7,0.2-3.4c0,0-0.6-0.9-0.6-1.2c0-0.4,0.3-7.7,0.2-8c-0.1-0.3-1.2-4.9-1.1-5.8c0.1-0.9,0.1-7.2,0.5-7.5
	s-0.3-0.1-0.4-0.9s-0.5,0.2-0.5-0.4s-0.6,1.4-0.9,0.5s-1.3-2.1-1.6-1.8c0,0-1.7-4-1.4-5.1c0.3-1.1,1.8-20,4.6-19.6
	c0,0,1.6,0,1.5-0.4s0.3-3.8,1.2-3.8s2.6-0.3,2.6,0s-0.2-1.7-0.2-1.7s-0.5-0.5-0.5-1.6s0.6-0.6,0.6-0.6s-0.1-2,0.5-2.6
	C412.8,127.5,412.6,126.8,414.5,126.5z"/>
<path class="st0" d="M392.2,133.9C392.2,133.9,392.3,133.9,392.2,133.9c3.6,0.1,3.6,2.6,3.6,2.6s0.2,2.1,0,2.3s-0.3,0.4-0.3,0.4
	s0.6,0.3,0.5,0.4c-0.1,0.2,0,0.7-0.2,0.8c0,0,0.2,1.1-0.5,0.8c0,0-0.5,0.3-0.2,0.4s1.1-0.3,1.2,0c0.1,0.4,1.3,3.4,1.8,3.4
	s0.4,0.8,0.4,0.8l1.7,0.9c0,0,1.3,1.1,1.3,1.5s3.5,6.9,3.4,7.3c-0.1,0.4,0.6,8,0.3,8.3c-0.3,0.3,0.2,5,0,5s-3,4.1-3.5,4
	s-0.4,1-1.3,0.7s-1-0.6-1-0.6s-0.5,0.8-0.3,0.8s0.4,3.7,0.2,3.7s0.6,5,0,5c0,0,0,4.9-0.3,5.1s1.9,6.1,1.4,6.5c0,0-0.1,2.6-0.6,2.6
	s0.6,1.4,0.3,1.7s-0.2,1.3-0.7,0.9s0.6,3.2-0.2,3.2c-0.8,0,2.5,4.3,1,4.7s-4.1,0.2-4.1-2.1c0,0-2.1-0.7-1.5-2.8c0,0-1-0.2-0.7-2.7
	l-0.8-0.4c0,0,0.1-1,0.5-1.3s-0.4-0.7-0.4-0.7s-0.9-1-0.1-4.2s-0.5-6.4-0.3-8c0.2-1.7-1-4.1-0.9-4.9s0.1-1,0.1-1l-0.3,0.1
	c0,0,0.3,2.6,0,2.8s-0.4,2.1-0.4,2.1s-0.6,5.2-1.1,5.2s0.3,8.4,0.5,8.4c0.3,0,0,0.7,0,0.7s0.4,0,0.2,0.4c-0.2,0.3-0.9,3.6-1.4,3.4
	s0.1,0.8,0,0.9s-0.6,1.5-1.1,1s0.3,1.2-0.2,1.8s-3,1.4-4.1-0.4c0,0-0.3-0.9,0-1.3c0.3-0.4,1.2-2,1.1-2.2s-0.2-1.8,0.1-2.3
	c0.3-0.5-1.5-2.7,0.2-3.4c0,0-0.6-0.9-0.6-1.2c0-0.4,0.3-7.7,0.2-8s-1.2-4.9-1.1-5.8c0.1-0.9,0.1-7.2,0.5-7.5s-0.3-0.1-0.4-0.9
	s-0.5,0.2-0.5-0.4s-0.6,1.4-0.9,0.5s-1.3-2.1-1.6-1.8c0,0-1.7-4-1.4-5.1c0.3-1.1,1.8-20,4.6-19.6c0,0,1.6,0,1.5-0.4s0.3-3.8,1.2-3.8
	s2.6-0.3,2.6,0s-0.2-1.7-0.2-1.7s-0.5-0.5-0.5-1.6s0.6-0.6,0.6-0.6s-0.1-2,0.5-2.6C390.5,134.9,390.3,134.2,392.2,133.9z"/>
<path class="st0" d="M406.5,143.3c3,0.1,3.8,1.2,3.8,1.2s1.4,5,0.6,5.8c0,0-0.5,1.2-0.8,1.3s0.4,1.2,0.4,1.2s7.3,2.8,7.3,3.2
	s2.3,8.5,2.5,8.6s0.8,16.2-0.9,16.4v1.5c0,0-1.6,1.8-2,1.8s-0.4,9.4-0.1,9.6s1.6,5.1,1.6,5.1l0.7,12.5L419,212l0.2,0.7
	c0,0,4.2,3.7-0.5,2.9c0,0-3.4-0.1-3.2-2.3l-0.1-0.5h-0.9l-1.7-13.4l-2.5-13.9l-0.3-0.1l1.9,26.7l-0.5,0.8c0,0,0.2,3-1.5,2.6
	c0,0-5.9,0.7-4.3-0.9c1.5-1.7,1.9-1.6,1.8-2.1s-0.1-0.6-0.1-0.6h-0.5c0,0-0.9-15.1-1.2-16.5s-2.7-9.8-2.7-9.8s-0.9,1.4-1.6,1.2
	c-0.8-0.2-1.9-0.2-2-1.2s0.4-27.1,0.4-27.1l5.4-4.4c0,0,0.5-1.4,0.2-1.4c-0.2,0-0.9-1-1-1.6c-0.2-0.6-0.8-4.3-0.4-5.1
	C404.1,145.9,404.1,143.2,406.5,143.3z"/>
<path class="st1" d="M429.6,122.3c3,0.2,3.8,1.2,3.8,1.2s1.4,5,0.6,5.8c0,0-0.5,1.2-0.8,1.3s0.4,1.2,0.4,1.2s7.3,2.8,7.3,3.2
	s2.3,8.5,2.5,8.6s0.8,16.2-0.9,16.4v1.5c0,0-1.6,1.8-2,1.8s-0.4,9.4-0.1,9.6s1.6,5.1,1.6,5.1l0.7,12.5L442,191l0.2,0.7
	c0,0,4.2,3.7-0.5,2.9c0,0-3.4-0.1-3.2-2.3l-0.1-0.5h-0.9l-1.7-13.4l-2.5-13.9l-0.3-0.1l1.9,26.7l-0.5,0.8c0,0,0.2,3-1.5,2.6
	c0,0-5.9,0.7-4.3-0.9c1.5-1.7,1.9-1.6,1.8-2.1s-0.1-0.6-0.1-0.6h-0.5c0,0-0.9-15.1-1.2-16.5s-2.7-9.8-2.7-9.8s-0.9,1.4-1.6,1.2
	c-0.8-0.2-1.9-0.2-2-1.2s0.4-27.1,0.4-27.1l5.4-4.4c0,0,0.5-1.4,0.2-1.4s-0.9-1-1-1.6s-0.8-4.3-0.4-5.1
	C427.2,124.9,427.2,122.2,429.6,122.3z"/>
<path class="st0" d="M428.4,137.5L428.4,137.5c0.1,0,0.1,0,0.1,0c4.3,0.1,3.5,6.1,3.5,6.1s-0.2,1.8-1.2,1.7c0,0-0.2,2,1.7,2.6
	c1.8,0.5,4.6,1.8,5.2,2.9s2.7,4,2.7,5.2s0.8,1.9,0.8,1.9l-0.9,0.4c0,0,0.4,2.1,0.6,2.3s1.1,6.4,0.9,7.9s-0.8,5.6-0.8,6.8
	c0.1,1.3-0.3,3.8-1.7,3.7c0,0-1.4,1.5-2.2,1.1c-0.7-0.4,0,2.5,0,2.5s1.3,15.7,0.5,16s0,0.6,0.1,0.9c0.1,0.2,0.6,1.7-0.2,1.6
	s0.1,0.3,1,1.5s1.6,2.8,0.6,3.8s-2.6,0.8-2.6,0.8s-1.8-0.3-1.8-0.9c0,0-1.2-1.4-1-2.3c0,0-1.2-1.1-0.9-1.7s-0.9,0.2-0.7-0.6
	s-0.7-0.2-0.2-1.1c0.5-0.9-1.1-1.3-0.4-1.5s0-13.3-0.5-14.4s-1.1-2.6-1.3-5.1c-0.1-2.5-0.2,1.3-0.2,1.3s0.5,8,0,8.6
	s-0.2,7.3-0.2,7.3l0.2,3.7c0,0,0.7-0.1,0.3,0.5s0.3,1-0.6,0.8s0.5,0.9-0.2,1.6s-1.1,1.6-1.5,1c-0.5-0.6,0.3,1.8-0.4,2.5
	c-0.6,0.7-7.1,3.4-5.6,0.1c1.5-3.4,1.8-2.5,1.8-2.5s-0.3-1.6,0.1-1.4c0.4,0.2,0.6-1.3,1.1-1.1s-1.6-1.3-0.8-1.5s-2.3-19.5-1.9-19.6
	c0.5-0.1-2.8-1.8-2.7-2.3c0.1-0.5-0.3-7.4-0.5-7.9s-0.9-11.5-0.3-11.5s-1.9-1.9-1.9-1.9s3.2-3.2,3.2-5.3s6.1-4.3,6.1-4.3
	s0.9-1.3,0.5-2.2c0,0-0.9-0.3-0.9-1.2s-1.6-7.2,1.8-6.9L428.4,137.5L428.4,137.5z"/>
<path class="st0" d="M385,147.7L385,147.7c0.1,0,0.1,0,0.1,0c4.5,0.1,3.7,6.4,3.7,6.4s-0.2,1.8-1.3,1.8c0,0-0.2,2.1,1.8,2.7
	s4.9,1.9,5.4,3.1s2.9,4.2,2.9,5.5s0.8,2,0.8,2l-0.9,0.4c0,0,0.4,2.2,0.6,2.4s1.2,6.7,0.9,8.2c-0.3,1.5-0.9,5.8-0.8,7.1
	s-0.3,4-1.8,3.8c0,0-1.5,1.6-2.3,1.2c-0.8-0.4,0,2.6,0,2.6s1.4,16.5,0.5,16.8s0,0.7,0.1,0.9s0.6,1.8-0.2,1.6
	c-0.9-0.2,0.1,0.3,1.1,1.5s1.7,2.9,0.6,4s-2.8,0.8-2.8,0.8s-1.8-0.3-1.9-0.9c0,0-1.2-1.5-1.1-2.4c0,0-1.2-1.2-0.9-1.8
	c0.3-0.6-1,0.2-0.8-0.6s-0.7-0.2-0.2-1.1c0.5-0.9-1.2-1.4-0.4-1.6s0-14-0.5-15s-1.2-2.7-1.3-5.3c-0.1-2.6-0.2,1.4-0.2,1.4
	s0.6,8.4,0,9c-0.6,0.7-0.2,7.6-0.2,7.6l0.2,3.9c0,0,0.8-0.1,0.3,0.5c-0.4,0.6,0.3,1-0.6,0.8s0.5,1-0.2,1.6s-1.1,1.6-1.6,1
	s0.3,1.9-0.4,2.6s-7.4,3.6-5.9,0.1c1.5-3.6,1.9-2.6,1.9-2.6s-0.3-1.7,0.1-1.5s0.6-1.4,1.2-1.2s-1.7-1.4-0.9-1.5s-2.4-20.4-1.9-20.5
	s-3-1.9-2.8-2.4c0.1-0.5-0.3-7.7-0.5-8.3c-0.3-0.6-0.9-12.1-0.3-12c0.6,0-1.9-1.9-1.9-1.9s3.3-3.4,3.4-5.5s6.3-4.5,6.3-4.5
	s1-1.4,0.5-2.3c0,0-0.9-0.3-0.9-1.2s-1.7-7.5,1.9-7.2L385,147.7L385,147.7z"/>
<path class="st0" d="M419.1,155.4C419.1,155.4,419.2,155.4,419.1,155.4c3.6,0.1,3.6,2.6,3.6,2.6s0.2,2.1,0,2.3s-0.3,0.4-0.3,0.4
	s0.6,0.3,0.5,0.4c-0.1,0.2,0,0.7-0.2,0.8c0,0,0.2,1.1-0.5,0.8c0,0-0.5,0.3-0.2,0.4s1.1-0.3,1.2,0s1.3,3.4,1.8,3.4s0.4,0.8,0.4,0.8
	l1.7,0.9c0,0,1.3,1.1,1.3,1.5s3.5,6.9,3.4,7.3c-0.1,0.4,0.6,8,0.3,8.3c-0.3,0.3,0.2,5,0,5s-3,4.1-3.5,4s-0.4,1-1.3,0.7s-1-0.6-1-0.6
	s-0.5,0.8-0.3,0.8s0.4,3.7,0.2,3.7s0.6,5,0,5c0,0,0,4.9-0.3,5.1c-0.3,0.1,1.9,6.1,1.4,6.5c0,0-0.1,2.6-0.6,2.6s0.6,1.4,0.3,1.7
	s-0.2,1.3-0.7,0.9s0.6,3.2-0.2,3.2s2.5,4.3,1,4.7s-4.1,0.2-4.1-2.1c0,0-2.1-0.7-1.5-2.8c0,0-1-0.2-0.7-2.7l-0.8-0.4
	c0,0,0.1-1,0.5-1.3s-0.4-0.7-0.4-0.7s-0.9-1-0.1-4.2s-0.5-6.4-0.3-8c0.2-1.7-1-4.1-0.9-4.9s-0.1-1.1-0.1-1.1l-0.3,0.1
	c0,0,0.3,2.6,0,2.8s-0.4,2.1-0.4,2.1s-0.6,5.2-1.1,5.2s0.3,8.4,0.5,8.4c0.3,0,0,0.7,0,0.7s0.4,0,0.2,0.4s-0.9,3.6-1.4,3.4
	c-0.5-0.2,0.1,0.8,0,0.9s-0.6,1.5-1.1,1s0.3,1.2-0.2,1.8s-3,1.4-4.1-0.4c0,0-0.3-0.9,0-1.3c0.3-0.4,1.2-2,1.1-2.2s-0.2-1.8,0.1-2.3
	c0.3-0.5-1.5-2.7,0.2-3.4c0,0-0.6-0.9-0.6-1.2c0-0.4,0.3-7.7,0.2-8s-1.2-4.9-1.1-5.8c0.1-0.9,0.1-7.2,0.5-7.5s-0.3-0.1-0.4-0.9
	s-0.5,0.2-0.5-0.4s-0.6,1.4-0.9,0.5s-1.3-2.1-1.6-1.8c0,0-1.7-4-1.4-5.1s1.8-20,4.6-19.6c0,0,1.6,0,1.5-0.4s0.3-3.8,1.2-3.8
	s2.6-0.3,2.6,0s-0.2-1.7-0.2-1.7s-0.5-0.5-0.5-1.6s0.6-0.6,0.6-0.6s-0.1-2,0.5-2.6C417.4,156.4,417.2,155.7,419.1,155.4z"/>
<path class="st0" d="M387.4,155.4L387.4,155.4c0.1,0,0.1,0,0.1,0c4.5,0.1,3.7,6.4,3.7,6.4s-0.2,1.8-1.3,1.8c0,0-0.2,2.1,1.8,2.7
	s4.9,1.9,5.4,3.1s2.9,4.2,2.9,5.5s0.8,2,0.8,2l-0.9,0.4c0,0,0.4,2.2,0.6,2.4s1.2,6.7,0.9,8.2c-0.3,1.5-0.9,5.8-0.8,7.1
	s-0.3,4-1.8,3.8c0,0-1.5,1.6-2.3,1.2c-0.8-0.4,0,2.6,0,2.6s1.4,16.5,0.5,16.8s0,0.7,0.1,0.9s0.6,1.8-0.2,1.6s0.1,0.3,1.1,1.5
	s1.7,2.9,0.6,4s-2.8,0.8-2.8,0.8s-1.8-0.3-1.9-0.9c0,0-1.2-1.5-1.1-2.4c0,0-1.2-1.2-0.9-1.8c0.3-0.6-1,0.2-0.8-0.6s-0.7-0.2-0.2-1.1
	c0.5-0.9-1.2-1.4-0.4-1.6c0.8-0.2,0-14-0.5-15s-1.2-2.7-1.3-5.3c-0.1-2.6-0.2,1.4-0.2,1.4s0.6,8.4,0,9c-0.6,0.7-0.2,7.6-0.2,7.6
	l0.2,3.9c0,0,0.8-0.1,0.3,0.5c-0.4,0.6,0.3,1-0.6,0.8s0.5,1-0.2,1.6s-1.1,1.6-1.6,1s0.3,1.9-0.4,2.6s-7.4,3.6-5.9,0.1
	s1.9-2.6,1.9-2.6s-0.3-1.7,0.1-1.5s0.6-1.4,1.2-1.2s-1.7-1.4-0.9-1.5c0.8-0.2-2.4-20.4-1.9-20.5s-3-1.9-2.8-2.4
	c0.1-0.5-0.3-7.7-0.5-8.3c-0.3-0.6-0.9-12.1-0.3-12c0.6,0-1.9-1.9-1.9-1.9s3.3-3.4,3.4-5.5c0-2.2,6.3-4.5,6.3-4.5s1-1.4,0.5-2.3
	c0,0-0.9-0.3-0.9-1.2s-1.7-7.5,1.9-7.2L387.4,155.4L387.4,155.4z"/>
<path class="st0" d="M446.8,113.7c3,0.2,3.8,1.2,3.8,1.2s1.4,5,0.6,5.8c0,0-0.5,1.2-0.8,1.3s0.4,1.2,0.4,1.2s7.3,2.8,7.3,3.2
	s2.3,8.5,2.5,8.6s0.8,16.2-0.9,16.4v1.5c0,0-1.6,1.8-2,1.8s-0.4,9.4-0.1,9.6s1.6,5.1,1.6,5.1l0.7,12.5l-0.7,0.4l0.2,0.7
	c0,0,4.2,3.7-0.5,2.9c0,0-3.4-0.1-3.2-2.3l-0.1-0.5h-0.9l-1.7-13.4l-2.5-13.9l-0.3-0.1l1.9,26.7l-0.5,0.8c0,0,0.2,3-1.5,2.6
	c0,0-5.9,0.7-4.3-0.9c1.5-1.7,1.9-1.6,1.8-2.1s-0.1-0.6-0.1-0.6H447c0,0-0.9-15.1-1.2-16.5s-2.7-9.8-2.7-9.8s-0.9,1.4-1.6,1.2
	c-0.8-0.2-1.9-0.2-2-1.2s0.4-27.1,0.4-27.1l5.4-4.4c0,0,0.5-1.4,0.2-1.4c-0.2,0-0.9-1-1-1.6s-0.8-4.3-0.4-5.1
	C444.4,116.2,444.4,113.5,446.8,113.7z"/>
<path class="st1" d="M477.2,107.6C477.2,107.6,477.3,107.6,477.2,107.6c0.1,0,0.1,0,0.2,0c5.2,0.2,4.2,7.4,4.2,7.4s-0.2,2.1-1.4,2
	c0,0-0.2,2.4,2,3.1s5.6,2.2,6.2,3.5s3.3,4.8,3.3,6.3s1,2.3,1,2.3l-1,0.4c0,0,0.5,2.6,0.7,2.8s1.4,7.7,1,9.4s-1,6.7-0.9,8.2
	s-0.4,4.5-2,4.4c0,0-1.7,1.8-2.6,1.4s0,3,0,3s1.6,18.9,0.6,19.2s0,0.8,0.1,1.1s0.7,2.1-0.3,1.9s0.2,0.4,1.3,1.8s1.9,3.4,0.7,4.6
	c-1.3,1.2-3.2,0.9-3.2,0.9s-2.1-0.3-2.2-1.1c0,0-1.4-1.7-1.2-2.7c0,0-1.4-1.4-1-2s-1.1,0.2-0.9-0.7s-0.8-0.3-0.2-1.3
	s-1.4-1.6-0.5-1.8s-0.1-16-0.6-17.2s-1.4-3.1-1.5-6.1c-0.2-3-0.3,1.6-0.3,1.6s0.7,9.6,0,10.4s-0.3,8.8-0.3,8.8l0.3,4.5
	c0,0,0.9-0.1,0.4,0.6s0.3,1.2-0.7,0.9s0.6,1.1-0.3,1.9c-0.9,0.8-1.3,1.9-1.8,1.2s0.3,2.2-0.4,3s-8.5,4.1-6.8,0.1
	c1.8-4.1,2.1-3,2.1-3s-0.4-1.9,0.1-1.7s0.7-1.6,1.3-1.4c0.6,0.3-2-1.6-1-1.8s-2.8-23.4-2.2-23.6s-3.4-2.2-3.2-2.8
	c0.2-0.6-0.3-8.8-0.6-9.5c-0.3-0.6-1.1-13.8-0.4-13.8s-2.2-2.2-2.2-2.2s3.8-3.9,3.9-6.3c0-2.5,7.3-5.1,7.3-5.1s1.1-1.6,0.6-2.6
	c0,0-1.1-0.4-1.1-1.4s-2-8.6,2.2-8.2L477.2,107.6L477.2,107.6z"/>
<path class="st1" d="M463.1,133.1L463.1,133.1c3.6,0.1,3.6,2.6,3.6,2.6s0.2,2.1,0,2.3s-0.3,0.4-0.3,0.4s0.6,0.3,0.5,0.4
	s0,0.7-0.2,0.8c0,0,0.2,1.1-0.5,0.8c0,0-0.5,0.3-0.2,0.4s1.1-0.3,1.2,0s1.3,3.4,1.8,3.4s0.4,0.8,0.4,0.8l1.7,0.9
	c0,0,1.3,1.1,1.3,1.5s3.5,6.9,3.4,7.3s0.6,8,0.3,8.3s0.2,5,0,5s-3,4.1-3.5,4c-0.4,0-0.4,1-1.3,0.7s-1-0.6-1-0.6s-0.5,0.8-0.3,0.8
	s0.4,3.7,0.2,3.7s0.6,5,0,5c0,0,0,4.9-0.3,5.1c-0.3,0.1,1.9,6.1,1.4,6.5c0,0-0.1,2.6-0.6,2.6s0.6,1.4,0.3,1.7
	c-0.3,0.4-0.2,1.3-0.7,0.9s0.6,3.2-0.2,3.2c-0.8,0,2.5,4.3,1,4.7s-4.1,0.2-4.1-2.1c0,0-2.1-0.7-1.5-2.8c0,0-1-0.2-0.7-2.7l-0.8-0.4
	c0,0,0.1-1,0.5-1.3s-0.4-0.7-0.4-0.7s-0.9-1-0.1-4.2s-0.5-6.4-0.3-8c0.2-1.7-1-4.1-0.9-4.9c0.1-0.8-0.1-1.1-0.1-1.1l-0.3,0.1
	c0,0,0.3,2.6,0,2.8s-0.4,2.1-0.4,2.1s-0.6,5.2-1.1,5.2s0.3,8.4,0.5,8.4c0.3,0,0,0.7,0,0.7s0.4,0,0.2,0.4s-0.9,3.6-1.4,3.4
	c-0.5-0.2,0.1,0.8,0,0.9s-0.6,1.5-1.1,1s0.3,1.2-0.2,1.8s-3,1.4-4.1-0.4c0,0-0.3-0.9,0-1.3c0.3-0.4,1.2-2,1.1-2.2s-0.2-1.8,0.1-2.3
	s-1.5-2.7,0.2-3.4c0,0-0.6-0.9-0.6-1.2s0.3-7.7,0.2-8c-0.1-0.3-1.2-4.9-1.1-5.8s0.1-7.2,0.5-7.5s-0.3-0.1-0.4-0.9s-0.5,0.2-0.5-0.4
	s-0.6,1.4-0.9,0.5s-1.3-2.1-1.6-1.8c0,0-1.7-4-1.4-5.1c0.3-1.1,1.8-20,4.6-19.6c0,0,1.6,0,1.5-0.4s0.3-3.8,1.2-3.8s2.6-0.3,2.6,0
	s-0.2-1.7-0.2-1.7s-0.5-0.5-0.5-1.6s0.6-0.6,0.6-0.6s-0.1-2,0.5-2.6C461.3,134,461.1,133.4,463.1,133.1z"/>
<path class="st0" d="M441.6,134.4c3,0.1,3.8,1.2,3.8,1.2s1.4,5,0.6,5.8c0,0-0.5,1.2-0.8,1.3s0.4,1.2,0.4,1.2s7.3,2.8,7.3,3.2
	s2.3,8.5,2.5,8.6s0.8,16.2-0.9,16.4v1.5c0,0-1.6,1.8-2,1.8s-0.4,9.4-0.1,9.6s1.6,5.1,1.6,5.1l0.7,12.5L454,203l0.2,0.7
	c0,0,4.2,3.7-0.5,2.9c0,0-3.4-0.1-3.2-2.3l-0.1-0.5h-0.9l-1.7-13.4l-2.5-13.9l-0.3-0.1l1.9,26.7l-0.5,0.8c0,0,0.2,3-1.5,2.6
	c0,0-5.9,0.7-4.3-0.9c1.5-1.7,1.9-1.6,1.8-2.1s-0.1-0.6-0.1-0.6h-0.5c0,0-0.9-15.1-1.2-16.5s-2.7-9.8-2.7-9.8s-0.9,1.4-1.6,1.2
	c-0.8-0.2-1.9-0.2-2-1.2s0.4-27.1,0.4-27.1l5.4-4.4c0,0,0.5-1.4,0.2-1.4c-0.2,0-0.9-1-1-1.6s-0.8-4.3-0.4-5.1
	C439.3,137,439.3,134.3,441.6,134.4z"/>
<path class="st0" d="M450.2,146.8C450.3,146.8,450.3,146.8,450.2,146.8c3.6,0.1,3.6,2.6,3.6,2.6s0.2,2.1,0,2.3s-0.3,0.4-0.3,0.4
	s0.6,0.3,0.5,0.4c-0.1,0.2,0,0.7-0.2,0.8c0,0,0.2,1.1-0.5,0.8c0,0-0.5,0.3-0.2,0.4s1.1-0.3,1.2,0c0.1,0.4,1.3,3.4,1.8,3.4
	s0.4,0.8,0.4,0.8l1.7,0.9c0,0,1.3,1.1,1.3,1.5s3.5,6.9,3.4,7.3c-0.1,0.4,0.6,8,0.3,8.3c-0.3,0.3,0.2,5,0,5s-3,4.1-3.5,4
	c-0.4,0-0.4,1-1.3,0.7s-1-0.6-1-0.6s-0.5,0.8-0.3,0.8s0.4,3.7,0.2,3.7s0.6,5,0,5c0,0,0,4.9-0.3,5.1c-0.3,0.1,1.9,6.1,1.4,6.5
	c0,0-0.1,2.6-0.6,2.6s0.6,1.4,0.3,1.7s-0.2,1.3-0.7,0.9s0.6,3.2-0.2,3.2c-0.8,0,2.5,4.3,1,4.7s-4.1,0.2-4.1-2.1c0,0-2.1-0.7-1.5-2.8
	c0,0-1-0.2-0.7-2.7l-0.8-0.4c0,0,0.1-1,0.5-1.3s-0.4-0.7-0.4-0.7s-0.9-1-0.1-4.2s-0.5-6.4-0.3-8c0.2-1.7-1-4.1-0.9-4.9
	c0.1-0.8-0.1-1.1-0.1-1.1l-0.3,0.1c0,0,0.3,2.6,0,2.8s-0.4,2.1-0.4,2.1s-0.6,5.2-1.1,5.2s0.3,8.4,0.5,8.4c0.3,0,0,0.7,0,0.7
	s0.4,0,0.2,0.4c-0.2,0.3-0.9,3.6-1.4,3.4c-0.5-0.2,0.1,0.8,0,0.9s-0.6,1.5-1.1,1s0.3,1.2-0.2,1.8s-3,1.4-4.1-0.4c0,0-0.3-0.9,0-1.3
	c0.3-0.4,1.2-2,1.1-2.2s-0.2-1.8,0.1-2.3c0.3-0.5-1.5-2.7,0.2-3.4c0,0-0.6-0.9-0.6-1.2c0-0.4,0.3-7.7,0.2-8
	c-0.1-0.3-1.2-4.9-1.1-5.8c0.1-0.9,0.1-7.2,0.5-7.5s-0.3-0.1-0.4-0.9s-0.5,0.2-0.5-0.4s-0.6,1.4-0.9,0.5s-1.3-2.1-1.6-1.8
	c0,0-1.7-4-1.4-5.1c0.3-1.1,1.8-20,4.6-19.6c0,0,1.6,0,1.5-0.4s0.3-3.8,1.2-3.8s2.6-0.3,2.6,0s-0.2-1.7-0.2-1.7s-0.5-0.5-0.5-1.6
	s0.6-0.6,0.6-0.6s-0.1-2,0.5-2.6C448.5,147.8,448.3,147.1,450.2,146.8z"/>
<path class="st0" d="M480,131.9C480.1,131.9,480.1,131.9,480,131.9c0.1,0,0.1,0,0.1,0c4.8,0.1,3.9,6.8,3.9,6.8s-0.2,1.9-1.3,1.9
	c0,0-0.2,2.2,1.9,2.8c2,0.6,5.1,2,5.7,3.2s3,4.4,3,5.8c0,1.4,0.9,2.1,0.9,2.1l-0.9,0.4c0,0,0.4,2.4,0.6,2.6s1.3,7,1,8.7
	s-0.9,6.1-0.8,7.5s-0.3,4.2-1.9,4.1c0,0-1.6,1.7-2.4,1.3s0,2.8,0,2.8s1.5,17.4,0.5,17.7s0,0.7,0.1,1s0.6,1.9-0.3,1.7
	s0.2,0.3,1.2,1.6s1.8,3.1,0.6,4.2c-1.2,1.1-2.9,0.8-2.9,0.8s-1.9-0.3-2-1c0,0-1.3-1.6-1.1-2.5c0,0-1.3-1.3-1-1.9s-1,0.2-0.8-0.7
	s-0.8-0.2-0.2-1.2c0.6-0.9-1.3-1.4-0.4-1.7s-0.1-14.7-0.6-15.8s-1.3-2.9-1.4-5.6s-0.3,1.5-0.3,1.5s0.6,8.8,0,9.5s-0.3,8.1-0.3,8.1
	l0.3,4.1c0,0,0.8-0.1,0.4,0.6c-0.5,0.7,0.3,1.1-0.7,0.9s0.6,1-0.3,1.7s-1.2,1.7-1.7,1.1s0.3,2-0.4,2.8c-0.7,0.8-7.9,3.8-6.2,0.1
	s2-2.8,2-2.8s-0.3-1.8,0.1-1.6c0.5,0.2,0.6-1.5,1.2-1.3s-1.8-1.5-0.9-1.6c0.9-0.2-2.6-21.5-2-21.6c0.5-0.1-3.1-2-3-2.5
	c0.1-0.6-0.3-8.1-0.5-8.7c-0.3-0.6-1-12.7-0.3-12.7s-2-2-2-2s3.5-3.6,3.6-5.8s6.7-4.7,6.7-4.7s1-1.4,0.5-2.4c0,0-1-0.4-1-1.3
	c0-1-1.8-7.9,2-7.6L480,131.9L480,131.9z"/>
<path class="st0" d="M438.5,156L438.5,156c0.1,0,0.1,0,0.1,0c4.3,0.1,3.5,6.1,3.5,6.1s-0.2,1.7-1.2,1.7c0,0-0.2,2,1.6,2.5
	c1.8,0.5,4.6,1.8,5.1,2.9c0.5,1.1,2.7,3.9,2.7,5.1s0.8,1.9,0.8,1.9l-0.8,0.4c0,0,0.4,2.1,0.6,2.3s1.1,6.3,0.9,7.7s-0.8,5.5-0.7,6.7
	c0.1,1.2-0.3,3.7-1.7,3.6c0,0-1.4,1.5-2.1,1.1s0,2.5,0,2.5s1.3,15.5,0.5,15.8s0,0.6,0.1,0.9s0.6,1.7-0.2,1.5s0.1,0.3,1,1.4
	c0.9,1.1,1.6,2.8,0.5,3.8s-2.6,0.8-2.6,0.8s-1.7-0.3-1.8-0.9c0,0-1.1-1.4-1-2.3c0,0-1.1-1.1-0.9-1.7s-0.9,0.2-0.7-0.6
	c0.2-0.8-0.7-0.2-0.2-1s-1.1-1.3-0.4-1.5s0-13.1-0.5-14.1s-1.1-2.6-1.3-5c-0.1-2.4-0.2,1.3-0.2,1.3s0.5,7.9,0,8.5s-0.2,7.2-0.2,7.2
	l0.2,3.7c0,0,0.7-0.1,0.3,0.5c-0.4,0.6,0.3,0.9-0.6,0.8s0.5,0.9-0.2,1.5s-1,1.5-1.5,0.9s0.3,1.8-0.4,2.5c-0.6,0.7-7,3.4-5.5,0.1
	s1.8-2.5,1.8-2.5s-0.3-1.6,0.1-1.4s0.6-1.3,1.1-1.1s-1.6-1.3-0.8-1.4c0.8-0.1-2.3-19.2-1.8-19.3s-2.8-1.8-2.7-2.3
	c0.1-0.5-0.2-7.2-0.5-7.8c-0.2-0.5-0.9-11.3-0.3-11.3s-1.8-1.8-1.8-1.8s3.1-3.2,3.2-5.2c0-2,6-4.2,6-4.2s0.9-1.3,0.5-2.1
	c0,0-0.9-0.3-0.9-1.2s-1.6-7.1,1.8-6.7h1.1V156z"/>
<path class="st0" d="M463.1,150.3c3,0.1,3.8,1.2,3.8,1.2s1.4,5,0.6,5.8c0,0-0.5,1.2-0.8,1.3s0.4,1.2,0.4,1.2s7.3,2.8,7.3,3.2
	s2.3,8.5,2.5,8.6s0.8,16.2-0.9,16.4v1.5c0,0-1.6,1.8-2,1.8s-0.4,9.4-0.1,9.6s1.6,5.1,1.6,5.1l0.7,12.5l-0.7,0.4l0.2,0.7
	c0,0,4.2,3.7-0.5,2.9c0,0-3.4-0.1-3.2-2.3l-0.1-0.5H471l-1.7-13.4l-2.5-13.8l-0.3-0.1l1.9,26.7l-0.5,0.8c0,0,0.2,3-1.5,2.6
	c0,0-5.9,0.7-4.3-0.9c1.5-1.7,1.9-1.6,1.8-2.1s-0.1-0.6-0.1-0.6h-0.5c0,0-0.9-15.1-1.2-16.5s-2.7-9.8-2.7-9.8s-0.9,1.4-1.6,1.2
	c-0.8-0.2-1.9-0.2-2-1.2s0.4-27.1,0.4-27.1l5.4-4.4c0,0,0.5-1.4,0.2-1.4c-0.2,0-0.9-1-1-1.6c-0.2-0.6-0.8-4.3-0.4-5.1
	C460.7,152.9,460.7,150.2,463.1,150.3z"/>
<path class="st3" d="M457.5,159.9c3,0.1,3.8,1.2,3.8,1.2s1.4,5,0.6,5.8c0,0-0.5,1.2-0.8,1.3s0.4,1.2,0.4,1.2s7.3,2.8,7.3,3.2
	s2.3,8.5,2.5,8.6s0.8,16.2-0.9,16.4v1.5c0,0-1.6,1.8-2,1.8s-0.4,9.4-0.1,9.6s1.6,5.1,1.6,5.1l0.7,12.5l-0.7,0.4l0.2,0.7
	c0,0,4.2,3.7-0.5,2.9c0,0-3.4-0.1-3.2-2.3l-0.1-0.5h-0.9l-1.7-13.4l-2.5-13.9l-0.3-0.1l1.9,26.7l-0.5,0.8c0,0,0.2,3-1.5,2.6
	c0,0-5.9,0.7-4.3-0.9s1.9-1.6,1.8-2.1s-0.1-0.6-0.1-0.6h-0.5c0,0-0.9-15.1-1.2-16.5s-2.7-9.8-2.7-9.8s-0.9,1.4-1.6,1.2
	s-1.9-0.2-2-1.2c-0.1-0.9,0.4-27.1,0.4-27.1l5.4-4.4c0,0,0.5-1.4,0.2-1.4c-0.2,0-0.9-1-1-1.6c-0.2-0.6-0.8-4.3-0.4-5.1
	C455.1,162.5,455.1,159.8,457.5,159.9z"/>
<path class="st0" d="M502.7,107.6C502.7,107.6,502.8,107.6,502.7,107.6c0.1,0,0.1,0,0.1,0c4.8,0.1,3.9,6.8,3.9,6.8s-0.2,1.9-1.3,1.9
	c0,0-0.2,2.2,1.9,2.8c2,0.6,5.1,2,5.7,3.2s3,4.4,3,5.8c0,1.4,0.9,2.1,0.9,2.1l-0.9,0.4c0,0,0.4,2.4,0.6,2.6s1.3,7,1,8.7
	c-0.3,1.6-0.9,6.1-0.8,7.5s-0.3,4.2-1.9,4.1c0,0-1.6,1.7-2.4,1.3c-0.8-0.4,0,2.8,0,2.8s1.5,17.4,0.5,17.7c-0.9,0.3,0,0.7,0.1,1
	s0.7,1.9-0.3,1.7c-0.9-0.2,0.2,0.3,1.2,1.6s1.8,3.1,0.6,4.2s-2.9,0.8-2.9,0.8s-1.9-0.3-2-1c0,0-1.3-1.6-1.1-2.5c0,0-1.3-1.3-1-1.9
	s-1,0.2-0.8-0.7s-0.8-0.2-0.2-1.2c0.6-0.9-1.3-1.4-0.4-1.7s-0.1-14.7-0.6-15.8s-1.3-2.9-1.4-5.6c-0.1-2.7-0.3,1.5-0.3,1.5
	s0.6,8.8,0,9.5s-0.3,8.1-0.3,8.1l0.3,4.1c0,0,0.8-0.1,0.4,0.6s0.3,1.1-0.7,0.9s0.6,1-0.3,1.7s-1.2,1.7-1.7,1.1s0.3,2-0.4,2.8
	c-0.7,0.8-7.9,3.8-6.2,0.1s2-2.8,2-2.8s-0.3-1.8,0.1-1.6c0.5,0.2,0.6-1.5,1.2-1.3s-1.8-1.5-0.9-1.6c0.9-0.2-2.6-21.5-2-21.6
	c0.5-0.1-3.1-2-3-2.5c0.1-0.6-0.3-8.1-0.5-8.7c-0.3-0.6-1-12.7-0.3-12.7s-2-2-2-2s3.5-3.6,3.6-5.8s6.7-4.7,6.7-4.7s1-1.4,0.5-2.4
	c0,0-1-0.3-1-1.3s-1.8-7.9,2-7.6L502.7,107.6L502.7,107.6z"/>
<path class="st0" d="M494.9,126.2c3,0.2,3.8,1.2,3.8,1.2s1.4,5,0.6,5.8c0,0-0.5,1.2-0.8,1.3s0.4,1.2,0.4,1.2s7.3,2.8,7.3,3.2
	s2.3,8.5,2.5,8.6s0.8,16.2-0.9,16.4v1.5c0,0-1.6,1.8-2,1.8s-0.4,9.4-0.1,9.6s1.6,5.1,1.6,5.1l0.7,12.5l-0.7,0.4l0.2,0.7
	c0,0,4.2,3.7-0.5,2.9c0,0-3.4-0.1-3.2-2.3l-0.1-0.5h-0.9l-1.7-13.4l-2.5-13.9l-0.3-0.1l1.9,26.7l-0.5,0.8c0,0,0.2,3-1.5,2.6
	c0,0-5.9,0.7-4.3-0.9c1.5-1.7,1.9-1.6,1.8-2.1s-0.1-0.6-0.1-0.6h-0.5c0,0-0.9-15.1-1.2-16.5s-2.7-9.8-2.7-9.8s-0.9,1.4-1.6,1.2
	s-1.9-0.2-2-1.2c-0.1-0.9,0.4-27.1,0.4-27.1l5.4-4.4c0,0,0.5-1.4,0.2-1.4c-0.2,0-0.9-1-1-1.6s-0.8-4.3-0.4-5.1
	C492.5,128.8,492.5,126.1,494.9,126.2z"/>
<path class="st0" d="M519.9,112c3,0.2,3.8,1.2,3.8,1.2s1.3,5,0.6,5.8c0,0-0.5,1.2-0.8,1.3c-0.3,0.2,0.4,1.2,0.4,1.2s7.3,2.8,7.3,3.2
	s2.3,8.5,2.5,8.6c0.1,0.1,0.8,16.2-0.9,16.4v1.5c0,0-1.6,1.8-2,1.8s-0.4,9.4-0.1,9.6s1.6,5.1,1.6,5.1l0.7,12.5l-0.7,0.4l0.2,0.7
	c0,0,4.2,3.7-0.5,2.9c0,0-3.4-0.1-3.2-2.3l-0.1-0.5H528l-1.7-13.4l-2.5-13.9l-0.3-0.1l1.9,26.7l-0.5,0.8c0,0,0.2,3-1.5,2.6
	c0,0-5.9,0.7-4.3-0.9s1.9-1.6,1.8-2.1s-0.1-0.6-0.1-0.6h-0.5c0,0-0.9-15.1-1.2-16.5s-2.7-9.8-2.7-9.8s-0.9,1.4-1.6,1.2
	c-0.8-0.2-1.8-0.2-2-1.2s0.4-27.1,0.4-27.1l5.4-4.4c0,0,0.5-1.4,0.2-1.4s-0.9-1-1-1.6c-0.2-0.6-0.8-4.3-0.4-5.1
	C517.6,114.6,517.5,111.9,519.9,112z"/>
<path class="st0" d="M517.3,130.5L517.3,130.5c3.6,0.1,3.6,2.6,3.6,2.6s0.2,2.1,0,2.3s-0.3,0.4-0.3,0.4s0.6,0.3,0.5,0.4
	c-0.1,0.2,0,0.7-0.2,0.8c0,0,0.2,1.1-0.5,0.8c0,0-0.5,0.3-0.2,0.4s1.1-0.3,1.2,0c0.1,0.4,1.3,3.4,1.8,3.4s0.4,0.8,0.4,0.8l1.7,0.9
	c0,0,1.3,1.1,1.3,1.5s3.5,6.9,3.4,7.3s0.7,8,0.3,8.3c-0.3,0.3,0.2,5,0,5s-3,4.1-3.5,4c-0.4,0-0.4,1-1.3,0.7c-0.9-0.3-1-0.6-1-0.6
	s-0.5,0.8-0.3,0.8s0.4,3.7,0.2,3.7s0.6,5,0,5c0,0,0,4.9-0.3,5.1s1.9,6.1,1.4,6.5c0,0-0.1,2.6-0.6,2.6s0.6,1.4,0.3,1.7
	c-0.3,0.4-0.2,1.3-0.7,0.9s0.6,3.2-0.2,3.2s2.5,4.3,1,4.7s-4.1,0.2-4.1-2.1c0,0-2.1-0.7-1.5-2.8c0,0-1-0.2-0.7-2.7l-0.8-0.4
	c0,0,0.2-1,0.5-1.3s-0.4-0.7-0.4-0.7s-0.9-1-0.1-4.2c0.8-3.2-0.5-6.4-0.3-8c0.2-1.7-1-4.1-0.9-4.9s-0.1-1.1-0.1-1.1l-0.3,0.1
	c0,0,0.3,2.6,0,2.8s-0.4,2.1-0.4,2.1s-0.6,5.2-1.1,5.2s0.3,8.4,0.5,8.4c0.3,0,0,0.7,0,0.7s0.4,0,0.2,0.4c-0.2,0.3-0.9,3.6-1.4,3.4
	s0.1,0.8,0,0.9s-0.6,1.5-1.1,1s0.3,1.2-0.2,1.8s-3,1.4-4.1-0.4c0,0-0.3-0.9,0-1.3c0.3-0.4,1.2-2,1.1-2.2s-0.2-1.8,0.1-2.3
	c0.3-0.5-1.5-2.7,0.2-3.4c0,0-0.6-0.9-0.6-1.2c0-0.4,0.3-7.7,0.2-8c-0.1-0.3-1.2-4.9-1.1-5.8c0.1-0.9,0.1-7.2,0.5-7.5
	s-0.3-0.1-0.4-0.9s-0.5,0.2-0.5-0.4s-0.6,1.4-0.9,0.5s-1.3-2.1-1.6-1.8c0,0-1.7-4-1.4-5.1c0.3-1.1,1.8-20,4.6-19.6
	c0,0,1.6,0,1.5-0.4s0.3-3.8,1.2-3.8s2.6-0.3,2.6,0s-0.2-1.7-0.2-1.7s-0.5-0.5-0.5-1.6s0.6-0.6,0.6-0.6s-0.1-2,0.5-2.6
	C515.5,131.4,515.3,130.7,517.3,130.5z"/>
<path class="st0" d="M494.9,137.9C495,137.9,495,137.9,494.9,137.9c3.6,0.1,3.6,2.6,3.6,2.6s0.2,2.1,0,2.3s-0.3,0.4-0.3,0.4
	s0.6,0.3,0.5,0.4c-0.1,0.2,0,0.7-0.2,0.8c0,0,0.2,1.1-0.5,0.8c0,0-0.5,0.3-0.2,0.4s1.1-0.3,1.2,0c0.1,0.4,1.3,3.4,1.8,3.4
	s0.4,0.8,0.4,0.8l1.7,0.9c0,0,1.3,1.1,1.3,1.5s3.5,6.9,3.4,7.3c-0.1,0.4,0.6,8,0.3,8.3c-0.3,0.3,0.2,5,0,5s-3,4.1-3.5,4
	s-0.4,1-1.3,0.7s-1-0.6-1-0.6s-0.5,0.8-0.3,0.8s0.4,3.7,0.2,3.7s0.6,5,0,5c0,0,0,4.9-0.3,5.1c-0.3,0.1,1.9,6.1,1.4,6.5
	c0,0-0.1,2.6-0.6,2.6s0.6,1.4,0.3,1.7s-0.2,1.3-0.7,0.9s0.6,3.2-0.2,3.2c-0.8,0,2.5,4.3,1,4.7s-4.1,0.2-4.1-2.1c0,0-2.1-0.7-1.5-2.8
	c0,0-1-0.2-0.7-2.7l-0.8-0.4c0,0,0.1-1,0.5-1.3s-0.4-0.7-0.4-0.7s-0.9-1-0.1-4.2s-0.5-6.4-0.3-8c0.2-1.7-1-4.1-0.9-4.9
	c0.1-0.8-0.1-1.1-0.1-1.1l-0.3,0.1c0,0,0.3,2.6,0,2.8s-0.4,2.1-0.4,2.1s-0.6,5.2-1.1,5.2s0.3,8.4,0.5,8.4c0.3,0,0,0.7,0,0.7
	s0.4,0,0.2,0.4s-0.9,3.6-1.4,3.4c-0.5-0.2,0.1,0.8,0,0.9s-0.6,1.5-1.1,1s0.3,1.2-0.2,1.8s-3,1.4-4.1-0.4c0,0-0.3-0.9,0-1.3
	c0.3-0.4,1.2-2,1.1-2.2s-0.2-1.8,0.1-2.3c0.3-0.5-1.5-2.7,0.2-3.4c0,0-0.6-0.9-0.6-1.2c0-0.4,0.3-7.7,0.2-8s-1.2-4.9-1.1-5.8
	c0.1-0.9,0.1-7.2,0.5-7.5s-0.3-0.1-0.4-0.9s-0.5,0.2-0.5-0.4s-0.6,1.4-0.9,0.5s-1.3-2.1-1.6-1.8c0,0-1.7-4-1.4-5.1s1.8-20,4.6-19.6
	c0,0,1.6,0,1.5-0.4s0.3-3.8,1.2-3.8s2.6-0.3,2.6,0s-0.2-1.7-0.2-1.7s-0.5-0.5-0.5-1.6s0.6-0.6,0.6-0.6s-0.1-2,0.5-2.6
	C493.2,138.8,493,138.1,494.9,137.9z"/>
<path class="st1" d="M509.2,147.3c3,0.1,3.8,1.2,3.8,1.2s1.3,5,0.6,5.8c0,0-0.5,1.2-0.8,1.3s0.4,1.2,0.4,1.2s7.3,2.8,7.3,3.2
	s2.3,8.5,2.5,8.6c0.1,0.1,0.8,16.2-0.9,16.4v1.5c0,0-1.6,1.8-2,1.8s-0.4,9.4-0.1,9.6s1.6,5.1,1.6,5.1l0.7,12.5l-0.7,0.4l0.2,0.7
	c0,0,4.2,3.7-0.5,2.9c0,0-3.4-0.1-3.2-2.3l-0.1-0.5h-0.9l-1.7-13.4l-2.5-13.9l-0.3-0.1l1.9,26.7l-0.5,0.8c0,0,0.2,3-1.5,2.6
	c0,0-5.9,0.7-4.3-0.9c1.5-1.7,1.9-1.6,1.8-2.1s-0.1-0.6-0.1-0.6h-0.5c0,0-0.9-15.1-1.2-16.5s-2.7-9.8-2.7-9.8s-0.9,1.4-1.6,1.2
	c-0.8-0.2-1.9-0.2-2-1.2s0.4-27.1,0.4-27.1l5.4-4.4c0,0,0.5-1.4,0.2-1.4s-0.9-1-1-1.6s-0.8-4.3-0.4-5.1
	C506.8,149.8,506.8,147.1,509.2,147.3z"/>
<path class="st1" d="M532.3,126.2c3,0.2,3.8,1.2,3.8,1.2s1.3,5,0.6,5.8c0,0-0.5,1.2-0.8,1.3s0.4,1.2,0.4,1.2s7.3,2.8,7.3,3.2
	s2.3,8.5,2.5,8.6c0.1,0.1,0.8,16.2-0.9,16.4v1.5c0,0-1.6,1.8-2,1.8s-0.4,9.4-0.1,9.6s1.6,5.1,1.6,5.1l0.7,12.5l-0.7,0.4l0.2,0.7
	c0,0,4.2,3.7-0.5,2.9c0,0-3.4-0.1-3.2-2.3l-0.1-0.5h-0.9l-1.7-13.4l-2.5-13.9l-0.3-0.1l1.9,26.7l-0.5,0.8c0,0,0.2,3-1.5,2.6
	c0,0-5.9,0.7-4.3-0.9s1.9-1.6,1.8-2.1s-0.1-0.6-0.1-0.6h-0.5c0,0-0.9-15.1-1.2-16.5s-2.7-9.8-2.7-9.8s-0.9,1.4-1.6,1.2
	s-1.8-0.2-2-1.2c-0.1-0.9,0.4-27.1,0.4-27.1l5.4-4.4c0,0,0.5-1.4,0.2-1.4s-0.9-1-1-1.6c-0.2-0.6-0.8-4.3-0.4-5.1
	C529.9,128.8,529.9,126.1,532.3,126.2z"/>
<path class="st1" d="M531.1,141.5L531.1,141.5C531.2,141.5,531.2,141.5,531.1,141.5c4.4,0.1,3.6,6.1,3.6,6.1s-0.2,1.8-1.2,1.7
	c0,0-0.2,2,1.7,2.6c1.8,0.5,4.7,1.8,5.2,2.9c0.5,1.1,2.7,4,2.7,5.2s0.8,1.9,0.8,1.9l-0.8,0.4c0,0,0.4,2.1,0.6,2.3s1.1,6.4,0.9,7.9
	c-0.3,1.5-0.8,5.6-0.8,6.8c0.1,1.3-0.3,3.8-1.7,3.7c0,0-1.4,1.5-2.2,1.1c-0.7-0.4,0,2.5,0,2.5s1.3,15.7,0.5,16s0,0.6,0.1,0.9
	c0.1,0.2,0.6,1.7-0.2,1.6s0.2,0.3,1,1.5s1.6,2.8,0.6,3.8s-2.6,0.8-2.6,0.8s-1.8-0.3-1.8-0.9c0,0-1.2-1.4-1-2.3c0,0-1.2-1.1-0.9-1.7
	s-0.9,0.2-0.7-0.6s-0.7-0.2-0.2-1.1c0.5-0.9-1.1-1.3-0.4-1.5c0.8-0.2,0-13.3-0.5-14.4c-0.5-1-1.2-2.6-1.3-5.1s-0.2,1.3-0.2,1.3
	s0.5,8,0,8.6s-0.2,7.3-0.2,7.3l0.2,3.7c0,0,0.7-0.1,0.3,0.5s0.3,1-0.6,0.8c-0.9-0.2,0.5,0.9-0.2,1.6s-1.1,1.6-1.5,1
	c-0.5-0.6,0.3,1.8-0.4,2.5c-0.6,0.7-7.1,3.4-5.6,0.1s1.8-2.5,1.8-2.5s-0.3-1.6,0.1-1.4s0.6-1.3,1.1-1.1s-1.6-1.3-0.8-1.5
	s-2.3-19.5-1.8-19.6s-2.8-1.8-2.7-2.3s-0.3-7.4-0.5-7.9s-0.9-11.5-0.3-11.5s-1.8-1.9-1.8-1.9s3.2-3.2,3.2-5.3s6.1-4.3,6.1-4.3
	s0.9-1.3,0.5-2.2c0,0-0.9-0.3-0.9-1.2s-1.6-7.2,1.8-6.9L531.1,141.5L531.1,141.5z"/>
<path class="st1" d="M487.7,151.6C487.7,151.6,487.8,151.6,487.7,151.6c0.1,0,0.1,0,0.1,0c4.5,0.1,3.7,6.4,3.7,6.4s-0.2,1.8-1.3,1.8
	c0,0-0.2,2.1,1.8,2.7s4.9,1.9,5.4,3.1s2.9,4.2,2.9,5.5s0.8,2,0.8,2l-0.9,0.4c0,0,0.4,2.2,0.6,2.4s1.2,6.7,0.9,8.2
	c-0.3,1.5-0.9,5.8-0.8,7.1s-0.3,4-1.8,3.8c0,0-1.5,1.6-2.3,1.2s0,2.6,0,2.6s1.4,16.5,0.5,16.8s0,0.7,0.1,0.9s0.6,1.8-0.2,1.6
	c-0.9-0.2,0.1,0.3,1.1,1.5s1.7,2.9,0.6,4s-2.8,0.8-2.8,0.8s-1.8-0.3-1.9-0.9c0,0-1.2-1.5-1.1-2.4c0,0-1.2-1.2-0.9-1.8
	c0.3-0.6-1,0.2-0.8-0.6s-0.7-0.2-0.2-1.1c0.5-0.9-1.2-1.4-0.4-1.6c0.8-0.2,0-14-0.5-15s-1.2-2.7-1.3-5.3c-0.1-2.6-0.2,1.4-0.2,1.4
	s0.6,8.4,0,9s-0.2,7.6-0.2,7.6l0.2,3.9c0,0,0.8-0.1,0.3,0.5c-0.4,0.6,0.3,1-0.6,0.8s0.5,1-0.2,1.6s-1.1,1.6-1.6,1s0.3,1.9-0.4,2.6
	s-7.4,3.6-5.9,0.1c1.5-3.6,1.9-2.6,1.9-2.6s-0.3-1.7,0.1-1.5s0.6-1.4,1.2-1.2s-1.7-1.4-0.9-1.5s-2.4-20.4-1.9-20.5s-3-1.9-2.8-2.4
	c0.1-0.5-0.3-7.7-0.5-8.3s-0.9-12.1-0.3-12c0.6,0-1.9-1.9-1.9-1.9s3.3-3.4,3.4-5.5s6.3-4.5,6.3-4.5s1-1.4,0.5-2.3
	c0,0-0.9-0.3-0.9-1.2s-1.7-7.5,1.9-7.2L487.7,151.6L487.7,151.6z"/>
<path class="st3" d="M514.8,161.7L514.8,161.7c3.6,0.1,3.6,2.6,3.6,2.6s0.2,2.1,0,2.3s-0.3,0.4-0.3,0.4s0.6,0.3,0.5,0.4
	c-0.1,0.2,0,0.7-0.2,0.8c0,0,0.2,1.1-0.5,0.8c0,0-0.5,0.3-0.2,0.4s1.1-0.3,1.2,0c0.1,0.4,1.3,3.4,1.8,3.4s0.4,0.8,0.4,0.8l1.7,0.9
	c0,0,1.3,1.1,1.3,1.5s3.5,6.9,3.4,7.3s0.7,8,0.3,8.3c-0.3,0.3,0.2,5,0,5s-3,4.1-3.5,4c-0.4,0-0.4,1-1.3,0.7s-1-0.6-1-0.6
	s-0.5,0.8-0.3,0.8s0.4,3.7,0.2,3.7s0.6,5,0,5c0,0,0,4.9-0.3,5.1s1.9,6.1,1.4,6.5c0,0-0.1,2.6-0.6,2.6s0.6,1.4,0.3,1.7
	c-0.3,0.4-0.2,1.3-0.7,0.9c-0.5-0.4,0.6,3.2-0.2,3.2s2.5,4.3,1,4.7s-4.1,0.2-4.1-2.1c0,0-2.1-0.7-1.5-2.8c0,0-1-0.2-0.7-2.7
	l-0.8-0.4c0,0,0.2-1,0.5-1.3s-0.4-0.7-0.4-0.7s-0.9-1-0.1-4.2c0.8-3.2-0.5-6.4-0.3-8c0.2-1.7-1-4.1-0.9-4.9c0.1-0.8-0.1-1.1-0.1-1.1
	l-0.3,0.1c0,0,0.3,2.6,0,2.8s-0.4,2.1-0.4,2.1s-0.6,5.2-1.1,5.2s0.3,8.4,0.5,8.4s0,0.7,0,0.7s0.4,0,0.2,0.4
	c-0.2,0.3-0.9,3.6-1.4,3.4c-0.5-0.2,0.1,0.8,0,0.9s-0.6,1.5-1.1,1s0.3,1.2-0.2,1.8s-3,1.4-4.1-0.4c0,0-0.3-0.9,0-1.3
	c0.3-0.4,1.2-2,1.1-2.2s-0.2-1.8,0.1-2.3c0.3-0.5-1.5-2.7,0.2-3.4c0,0-0.6-0.9-0.6-1.2c0-0.4,0.3-7.7,0.2-8
	c-0.1-0.3-1.2-4.9-1.1-5.8c0.1-0.9,0.1-7.2,0.5-7.5s-0.3-0.1-0.4-0.9s-0.5,0.2-0.5-0.4s-0.6,1.4-0.9,0.5s-1.3-2.1-1.6-1.8
	c0,0-1.7-4-1.4-5.1c0.3-1.1,1.8-20,4.6-19.6c0,0,1.6,0,1.5-0.4s0.3-3.8,1.2-3.8s2.6-0.3,2.6,0s-0.2-1.7-0.2-1.7s-0.5-0.5-0.5-1.6
	s0.6-0.6,0.6-0.6s-0.1-2,0.4-2.6C513,162.7,512.8,162,514.8,161.7z"/>
<path class="st0" d="M490.1,159.3L490.1,159.3c0.1,0,0.1,0,0.1,0c4.5,0.1,3.7,6.4,3.7,6.4s-0.2,1.8-1.3,1.8c0,0-0.2,2.1,1.8,2.7
	s4.9,1.9,5.4,3.1s2.9,4.2,2.9,5.5s0.8,2,0.8,2l-0.9,0.4c0,0,0.4,2.2,0.6,2.4s1.2,6.7,0.9,8.2c-0.3,1.5-0.9,5.8-0.8,7.1
	s-0.3,4-1.8,3.8c0,0-1.5,1.6-2.3,1.2s0,2.6,0,2.6s1.4,16.5,0.5,16.8s0,0.7,0.1,0.9s0.6,1.8-0.2,1.6s0.1,0.3,1.1,1.5s1.7,2.9,0.6,4
	s-2.8,0.8-2.8,0.8s-1.8-0.3-1.9-0.9c0,0-1.2-1.5-1.1-2.4c0,0-1.2-1.2-0.9-1.8s-1,0.2-0.8-0.6s-0.7-0.2-0.2-1.1
	c0.5-0.9-1.2-1.4-0.4-1.6c0.8-0.2,0-14-0.5-15s-1.2-2.7-1.3-5.3c-0.1-2.6-0.2,1.4-0.2,1.4s0.6,8.4,0,9c-0.6,0.7-0.2,7.6-0.2,7.6
	l0.2,3.9c0,0,0.8-0.1,0.3,0.5c-0.4,0.6,0.3,1-0.6,0.8s0.5,1-0.2,1.6s-1.1,1.6-1.6,1s0.3,1.9-0.4,2.6s-7.4,3.6-5.9,0.1
	s1.9-2.6,1.9-2.6s-0.3-1.7,0.1-1.5s0.6-1.4,1.2-1.2s-1.7-1.4-0.9-1.5s-2.4-20.4-1.9-20.5s-3-1.9-2.8-2.4c0.1-0.5-0.3-7.7-0.5-8.3
	c-0.3-0.6-0.9-12.1-0.3-12c0.6,0-1.9-1.9-1.9-1.9s3.3-3.4,3.4-5.5c0-2.2,6.3-4.5,6.3-4.5s1-1.4,0.5-2.3c0,0-0.9-0.3-0.9-1.2
	s-1.7-7.5,1.9-7.2L490.1,159.3L490.1,159.3z"/>
<path class="st3" d="M371.6,165.1L371.6,165.1c3.6,0.1,3.6,2.6,3.6,2.6s0.2,2.1,0,2.3s-0.3,0.4-0.3,0.4s0.6,0.3,0.5,0.4
	s0,0.7-0.2,0.8c0,0,0.2,1.1-0.5,0.8c0,0-0.5,0.3-0.2,0.4s1.1-0.3,1.2,0c0.1,0.4,1.3,3.4,1.8,3.4s0.4,0.8,0.4,0.8l1.7,0.9
	c0,0,1.3,1.1,1.3,1.5s3.5,6.9,3.4,7.3c-0.1,0.4,0.6,8,0.3,8.3c-0.3,0.3,0.2,5,0,5s-3,4.1-3.5,4c-0.4,0-0.4,1-1.3,0.7s-1-0.6-1-0.6
	s-0.5,0.8-0.3,0.8s0.4,3.7,0.2,3.7s0.6,5,0,5c0,0,0,4.9-0.3,5.1c-0.3,0.1,1.9,6.1,1.4,6.5c0,0-0.1,2.6-0.6,2.6s0.6,1.4,0.3,1.7
	c-0.3,0.4-0.2,1.3-0.7,0.9s0.6,3.2-0.2,3.2c-0.8,0,2.5,4.3,1,4.7s-4.1,0.2-4.1-2.1c0,0-2.1-0.7-1.5-2.8c0,0-1-0.2-0.7-2.7l-0.8-0.4
	c0,0,0.1-1,0.5-1.3s-0.4-0.7-0.4-0.7s-0.9-1-0.1-4.2s-0.5-6.4-0.3-8c0.2-1.7-1-4.1-0.9-4.9c0.1-0.8-0.1-1.1-0.1-1.1l-0.3,0.1
	c0,0,0.3,2.6,0,2.8s-0.4,2.1-0.4,2.1s-0.6,5.2-1.1,5.2s0.3,8.4,0.5,8.4c0.3,0,0,0.7,0,0.7s0.4,0,0.2,0.4s-0.9,3.6-1.4,3.4
	c-0.5-0.2,0.1,0.8,0,0.9s-0.6,1.5-1.1,1s0.3,1.2-0.2,1.8s-3,1.4-4.1-0.4c0,0-0.3-0.9,0-1.3c0.3-0.4,1.2-2,1.1-2.2s-0.2-1.8,0.1-2.3
	s-1.5-2.7,0.2-3.4c0,0-0.6-0.9-0.6-1.2c0-0.4,0.3-7.7,0.2-8c-0.1-0.3-1.2-4.9-1.1-5.8c0.1-0.9,0.1-7.2,0.5-7.5s-0.3-0.1-0.4-0.9
	s-0.5,0.2-0.5-0.4s-0.6,1.4-0.9,0.5s-1.3-2.1-1.6-1.8c0,0-1.7-4-1.4-5.1c0.3-1.1,1.8-20,4.6-19.6c0,0,1.6,0,1.5-0.4s0.3-3.8,1.2-3.8
	s2.6-0.3,2.6,0s-0.2-1.7-0.2-1.7s-0.5-0.5-0.5-1.6s0.6-0.6,0.6-0.6s-0.1-2,0.5-2.6C369.9,166.1,369.7,165.4,371.6,165.1z"/>
<path class="st3" d="M388.6,164L388.6,164c0.1,0,0.1,0,0.1,0c4.8,0.1,3.9,6.8,3.9,6.8s-0.2,1.9-1.3,1.9c0,0-0.2,2.2,1.9,2.8
	c2,0.6,5.1,2,5.7,3.2s3,4.4,3,5.8c0,1.4,0.9,2.1,0.9,2.1l-0.9,0.4c0,0,0.4,2.4,0.6,2.6s1.3,7,1,8.7s-0.9,6.1-0.8,7.5
	s-0.3,4.2-1.9,4.1c0,0-1.6,1.7-2.4,1.3s0,2.8,0,2.8s1.5,17.4,0.5,17.7s0,0.7,0.1,1s0.6,1.9-0.3,1.7s0.2,0.3,1.2,1.6s1.8,3.1,0.6,4.2
	c-1.2,1.1-2.9,0.8-2.9,0.8s-1.9-0.3-2-1c0,0-1.3-1.6-1.1-2.5c0,0-1.3-1.3-1-1.9s-1,0.2-0.8-0.7s-0.8-0.2-0.2-1.2s-1.3-1.4-0.4-1.7
	s-0.1-14.7-0.6-15.8s-1.3-2.9-1.4-5.6c-0.1-2.7-0.3,1.5-0.3,1.5s0.6,8.8,0,9.5s-0.3,8.1-0.3,8.1l0.3,4.1c0,0,0.8-0.1,0.4,0.6
	c-0.5,0.7,0.3,1.1-0.7,0.9s0.6,1-0.3,1.7s-1.2,1.7-1.7,1.1s0.3,2-0.4,2.8s-7.9,3.8-6.2,0.1s2-2.8,2-2.8s-0.3-1.8,0.1-1.6
	c0.5,0.2,0.6-1.5,1.2-1.3s-1.8-1.5-0.9-1.6c0.9-0.2-2.6-21.5-2-21.6c0.5-0.1-3.1-2-3-2.5s-0.3-8.1-0.5-8.7c-0.3-0.6-1-12.7-0.3-12.7
	c0.6,0-2-2-2-2s3.5-3.6,3.6-5.8s6.7-4.7,6.7-4.7s1-1.4,0.5-2.4c0,0-1-0.4-1-1.3c0-1-1.8-7.9,2-7.6L388.6,164L388.6,164z"/>
<path class="st0" d="M403.4,158.3c3,0.1,3.8,1.2,3.8,1.2s1.4,5,0.6,5.8c0,0-0.5,1.2-0.8,1.3s0.4,1.2,0.4,1.2s7.3,2.8,7.3,3.2
	s2.3,8.5,2.5,8.6s0.8,16.2-0.9,16.4v1.5c0,0-1.6,1.8-2,1.8s-0.4,9.4-0.1,9.6s1.6,5.1,1.6,5.1l0.7,12.5l-0.7,0.4l0.2,0.7
	c0,0,4.2,3.7-0.5,2.9c0,0-3.4-0.1-3.2-2.3l-0.1-0.5h-0.9l-1.7-13.4l-2.5-13.9l-0.3-0.1l1.9,26.7l-0.5,0.8c0,0,0.2,3-1.5,2.6
	c0,0-5.9,0.7-4.3-0.9s1.9-1.6,1.8-2.1s-0.1-0.6-0.1-0.6h-0.5c0,0-0.9-15.1-1.2-16.5s-2.7-9.8-2.7-9.8s-0.9,1.4-1.6,1.2
	s-1.9-0.2-2-1.2s0.4-27.1,0.4-27.1l5.4-4.4c0,0,0.5-1.4,0.2-1.4c-0.2,0-0.9-1-1-1.6c-0.2-0.6-0.8-4.3-0.4-5.1
	C401,160.9,401,158.2,403.4,158.3z"/>
<path class="st3" d="M425.8,162.5L425.8,162.5c3.6,0.1,3.6,2.6,3.6,2.6s0.2,2.1,0,2.3s-0.3,0.4-0.3,0.4s0.6,0.3,0.5,0.4
	c-0.1,0.2,0,0.7-0.2,0.8c0,0,0.2,1.1-0.5,0.8c0,0-0.5,0.3-0.2,0.4s1.1-0.3,1.2,0s1.3,3.4,1.8,3.4s0.4,0.8,0.4,0.8l1.7,0.9
	c0,0,1.3,1.1,1.3,1.5s3.5,6.9,3.4,7.3c-0.1,0.4,0.6,8,0.3,8.3c-0.3,0.3,0.2,5,0,5s-3,4.1-3.5,4c-0.4,0-0.4,1-1.3,0.7s-1-0.6-1-0.6
	s-0.5,0.8-0.3,0.8s0.4,3.7,0.2,3.7s0.6,5,0,5c0,0,0,4.9-0.3,5.1c-0.3,0.1,1.9,6.1,1.4,6.5c0,0-0.1,2.6-0.6,2.6s0.6,1.4,0.3,1.7
	c-0.3,0.4-0.2,1.3-0.7,0.9s0.6,3.2-0.2,3.2c-0.8,0,2.5,4.3,1,4.7s-4.1,0.2-4.1-2.1c0,0-2.1-0.7-1.5-2.8c0,0-1-0.2-0.7-2.7l-0.8-0.4
	c0,0,0.1-1,0.5-1.3s-0.4-0.7-0.4-0.7s-0.9-1-0.1-4.2s-0.5-6.4-0.3-8c0.2-1.7-1-4.1-0.9-4.9c0.1-0.8-0.1-1.1-0.1-1.1l-0.3,0.1
	c0,0,0.3,2.6,0,2.8s-0.4,2.1-0.4,2.1s-0.6,5.2-1.1,5.2s0.3,8.4,0.5,8.4c0.3,0,0,0.7,0,0.7s0.4,0,0.2,0.4c-0.2,0.3-0.9,3.6-1.4,3.4
	c-0.5-0.2,0.1,0.8,0,0.9s-0.6,1.5-1.1,1s0.3,1.2-0.2,1.8s-3,1.4-4.1-0.4c0,0-0.3-0.9,0-1.3c0.3-0.4,1.2-2,1.1-2.2s-0.2-1.8,0.1-2.3
	c0.3-0.5-1.5-2.7,0.2-3.4c0,0-0.6-0.9-0.6-1.2c0-0.4,0.3-7.7,0.2-8c-0.1-0.3-1.2-4.9-1.1-5.8c0.1-0.9,0.1-7.2,0.5-7.5
	s-0.3-0.1-0.4-0.9s-0.5,0.2-0.5-0.4s-0.6,1.4-0.9,0.5s-1.3-2.1-1.6-1.8c0,0-1.7-4-1.4-5.1c0.3-1.1,1.8-20,4.6-19.6
	c0,0,1.6,0,1.5-0.4s0.3-3.8,1.2-3.8s2.6-0.3,2.6,0s-0.2-1.7-0.2-1.7s-0.5-0.5-0.5-1.6s0.6-0.6,0.6-0.6s-0.1-2,0.5-2.6
	S423.9,162.8,425.8,162.5z"/>
<path class="st3" d="M403.5,169.9L403.5,169.9c3.6,0.1,3.6,2.6,3.6,2.6s0.2,2.1,0,2.3s-0.3,0.4-0.3,0.4s0.6,0.3,0.5,0.4
	c-0.1,0.2,0,0.7-0.2,0.8c0,0,0.2,1.1-0.5,0.8c0,0-0.5,0.3-0.2,0.4s1.1-0.3,1.2,0c0.1,0.4,1.3,3.4,1.8,3.4s0.4,0.8,0.4,0.8l1.7,0.9
	c0,0,1.3,1.1,1.3,1.5s3.5,6.9,3.4,7.3c-0.1,0.4,0.6,8,0.3,8.3c-0.3,0.3,0.2,5,0,5s-3,4.1-3.5,4s-0.4,1-1.3,0.7s-1-0.6-1-0.6
	s-0.5,0.8-0.3,0.8s0.4,3.7,0.2,3.7s0.6,5,0,5c0,0,0,4.9-0.3,5.1s1.9,6.1,1.4,6.5c0,0-0.1,2.6-0.6,2.6s0.6,1.4,0.3,1.7
	s-0.2,1.3-0.7,0.9s0.6,3.2-0.2,3.2c-0.8,0,2.5,4.3,1,4.7s-4.1,0.2-4.1-2.1c0,0-2.1-0.7-1.5-2.8c0,0-1-0.2-0.7-2.7l-0.8-0.4
	c0,0,0.1-1,0.5-1.3s-0.4-0.7-0.4-0.7s-0.9-1-0.1-4.2s-0.5-6.4-0.3-8c0.2-1.7-1-4.1-0.9-4.9c0.1-0.8-0.1-1.1-0.1-1.1l-0.3,0.1
	c0,0,0.3,2.6,0,2.8s-0.4,2.1-0.4,2.1s-0.6,5.2-1.1,5.2s0.3,8.4,0.5,8.4c0.3,0,0,0.7,0,0.7s0.4,0,0.2,0.4s-0.9,3.6-1.4,3.4
	s0.1,0.8,0,0.9s-0.6,1.5-1.1,1s0.3,1.2-0.2,1.8s-3,1.4-4.1-0.4c0,0-0.3-0.9,0-1.3c0.3-0.4,1.2-2,1.1-2.2s-0.2-1.8,0.1-2.3
	s-1.5-2.7,0.2-3.4c0,0-0.6-0.9-0.6-1.2c0-0.4,0.3-7.7,0.2-8c-0.1-0.3-1.2-4.9-1.1-5.8c0.1-0.9,0.1-7.2,0.5-7.5s-0.3-0.1-0.4-0.9
	s-0.5,0.2-0.5-0.4s-0.6,1.4-0.9,0.5s-1.3-2.1-1.6-1.8c0,0-1.7-4-1.4-5.1c0.3-1.1,1.8-20,4.6-19.6c0,0,1.6,0,1.5-0.4s0.3-3.8,1.2-3.8
	s2.6-0.3,2.6,0s-0.2-1.7-0.2-1.7s-0.5-0.5-0.5-1.6s0.6-0.6,0.6-0.6s-0.1-2,0.5-2.6C401.7,170.9,401.5,170.2,403.5,169.9z"/>
<path class="st3" d="M439.6,173.5L439.6,173.5c0.1,0,0.1,0,0.1,0c4.3,0.1,3.5,6.1,3.5,6.1s-0.2,1.8-1.2,1.7c0,0-0.2,2,1.7,2.6
	c1.8,0.5,4.6,1.8,5.2,2.9s2.7,4,2.7,5.2s0.8,1.9,0.8,1.9l-0.9,0.4c0,0,0.4,2.1,0.6,2.3s1.1,6.4,0.9,7.9c-0.3,1.5-0.8,5.6-0.8,6.8
	c0.1,1.3-0.3,3.8-1.7,3.7c0,0-1.4,1.5-2.2,1.1c-0.7-0.4,0,2.5,0,2.5s1.3,15.7,0.5,16s0,0.6,0.1,0.9c0.1,0.2,0.6,1.7-0.2,1.6
	s0.1,0.3,1,1.5s1.6,2.8,0.6,3.8s-2.6,0.8-2.6,0.8s-1.8-0.3-1.8-0.9c0,0-1.2-1.4-1-2.3c0,0-1.2-1.1-0.9-1.7s-0.9,0.2-0.7-0.6
	s-0.7-0.2-0.2-1.1s-1.1-1.3-0.4-1.5c0.8-0.2,0-13.3-0.5-14.4c-0.5-1-1.1-2.6-1.3-5.1s-0.2,1.3-0.2,1.3s0.5,8,0,8.6s-0.2,7.3-0.2,7.3
	l0.2,3.7c0,0,0.7-0.1,0.3,0.5c-0.4,0.6,0.3,1-0.6,0.8s0.5,0.9-0.2,1.6s-1.1,1.6-1.5,1c-0.5-0.6,0.3,1.8-0.4,2.5
	c-0.6,0.7-7.1,3.4-5.6,0.1s1.8-2.5,1.8-2.5s-0.3-1.6,0.1-1.4s0.6-1.3,1.1-1.1s-1.6-1.3-0.8-1.5s-2.3-19.5-1.9-19.6s-2.8-1.8-2.7-2.3
	c0.1-0.5-0.3-7.4-0.5-7.9s-0.9-11.5-0.3-11.5s-1.9-1.9-1.9-1.9s3.2-3.2,3.2-5.3s6.1-4.3,6.1-4.3s0.9-1.3,0.5-2.2
	c0,0-0.9-0.3-0.9-1.2s-1.6-7.2,1.8-6.9L439.6,173.5L439.6,173.5z"/>
<path class="st3" d="M474.3,169.1C474.3,169.1,474.4,169.1,474.3,169.1c3.6,0.1,3.6,2.6,3.6,2.6s0.2,2.1,0,2.3s-0.3,0.4-0.3,0.4
	s0.6,0.3,0.5,0.4s0,0.7-0.2,0.8c0,0,0.2,1.1-0.5,0.8c0,0-0.5,0.3-0.2,0.4s1.1-0.3,1.2,0s1.3,3.4,1.8,3.4s0.4,0.8,0.4,0.8l1.7,0.9
	c0,0,1.3,1.1,1.3,1.5s3.5,6.9,3.4,7.3c-0.1,0.4,0.6,8,0.3,8.3c-0.3,0.3,0.2,5,0,5s-3,4.1-3.5,4c-0.4,0-0.4,1-1.3,0.7s-1-0.6-1-0.6
	s-0.5,0.8-0.3,0.8s0.4,3.7,0.2,3.7s0.6,5,0,5c0,0,0,4.9-0.3,5.1c-0.3,0.1,1.9,6.1,1.4,6.5c0,0-0.1,2.6-0.6,2.6s0.6,1.4,0.3,1.7
	c-0.3,0.4-0.2,1.3-0.7,0.9s0.6,3.2-0.2,3.2c-0.8,0,2.5,4.3,1,4.7s-4.1,0.2-4.1-2.1c0,0-2.1-0.7-1.5-2.8c0,0-1-0.2-0.7-2.7l-0.8-0.4
	c0,0,0.1-1,0.5-1.3s-0.4-0.7-0.4-0.7s-0.9-1-0.1-4.2s-0.5-6.4-0.3-8c0.2-1.7-1-4.1-0.9-4.9c0.1-0.8-0.1-1.1-0.1-1.1l-0.3,0.1
	c0,0,0.3,2.6,0,2.8s-0.4,2.1-0.4,2.1s-0.6,5.2-1.1,5.2s0.3,8.4,0.5,8.4c0.3,0,0,0.7,0,0.7s0.4,0,0.2,0.4c-0.2,0.3-0.9,3.6-1.4,3.4
	c-0.5-0.2,0.1,0.8,0,0.9s-0.6,1.5-1.1,1s0.3,1.2-0.2,1.8s-3,1.4-4.1-0.4c0,0-0.3-0.9,0-1.3c0.3-0.4,1.2-2,1.1-2.2s-0.2-1.8,0.1-2.3
	c0.3-0.5-1.5-2.7,0.2-3.4c0,0-0.6-0.9-0.6-1.2c0-0.4,0.3-7.7,0.2-8c-0.1-0.3-1.2-4.9-1.1-5.8c0.1-0.9,0.1-7.2,0.5-7.5
	s-0.3-0.1-0.4-0.9s-0.5,0.2-0.5-0.4s-0.6,1.4-0.9,0.5s-1.3-2.1-1.6-1.8c0,0-1.7-4-1.4-5.1c0.3-1.1,1.8-20,4.6-19.6
	c0,0,1.6,0,1.5-0.4s0.3-3.8,1.2-3.8s2.6-0.3,2.6,0s-0.2-1.7-0.2-1.7s-0.5-0.5-0.5-1.6s0.6-0.6,0.6-0.6s-0.1-2,0.5-2.6
	S472.4,169.3,474.3,169.1z"/>
<path class="st3" d="M491.3,167.9L491.3,167.9c0.1,0,0.1,0,0.1,0c4.8,0.1,3.9,6.8,3.9,6.8s-0.2,1.9-1.3,1.9c0,0-0.2,2.2,1.9,2.8
	c2,0.6,5.1,2,5.7,3.2s3,4.4,3,5.8s0.9,2.1,0.9,2.1l-0.9,0.4c0,0,0.4,2.4,0.6,2.6s1.3,7,1,8.7s-0.9,6.1-0.8,7.5s-0.3,4.2-1.9,4.1
	c0,0-1.6,1.7-2.4,1.3s0,2.8,0,2.8s1.5,17.4,0.5,17.7c-0.9,0.3,0,0.7,0.1,1s0.6,1.9-0.3,1.7s0.2,0.3,1.2,1.6s1.8,3.1,0.6,4.2
	s-2.9,0.8-2.9,0.8s-1.9-0.3-2-1c0,0-1.3-1.6-1.1-2.5c0,0-1.3-1.3-1-1.9s-1,0.2-0.8-0.7s-0.8-0.2-0.2-1.2c0.6-0.9-1.3-1.4-0.4-1.7
	s-0.1-14.7-0.6-15.8s-1.3-2.9-1.4-5.6c-0.1-2.7-0.3,1.5-0.3,1.5s0.6,8.8,0,9.5s-0.3,8.1-0.3,8.1l0.3,4.1c0,0,0.8-0.1,0.4,0.6
	s0.3,1.1-0.7,0.9s0.6,1-0.3,1.7s-1.2,1.7-1.7,1.1s0.3,2-0.4,2.8s-7.9,3.8-6.2,0.1s2-2.8,2-2.8s-0.3-1.8,0.1-1.6
	c0.5,0.2,0.6-1.5,1.2-1.3s-1.8-1.5-0.9-1.6c0.9-0.2-2.6-21.5-2-21.6c0.5-0.1-3.1-2-3-2.5c0.1-0.6-0.3-8.1-0.5-8.7s-1-12.7-0.3-12.7
	c0.6,0-2-2-2-2s3.5-3.6,3.6-5.8s6.7-4.7,6.7-4.7s1-1.4,0.5-2.4c0,0-1-0.4-1-1.3s-1.8-7.9,2-7.6L491.3,167.9L491.3,167.9z"/>
</svg>
