<?xml version="1.0" encoding="utf-8"?>
<!-- Generator: Adobe Illustrator 24.2.3, SVG Export Plug-In . SVG Version: 6.00 Build 0)  -->
<svg version="1.1" id="Layer_1" xmlns="http://www.w3.org/2000/svg" xmlns:xlink="http://www.w3.org/1999/xlink" x="0px" y="0px"
	 viewBox="0 0 1200 560" style="enable-background:new 0 0 1200 560;" xml:space="preserve">
<style type="text/css">
	.st0{fill:#FFFFFF;stroke:#000000;stroke-miterlimit:10;}
	.st1{stroke:#FFFFFF;stroke-miterlimit:10;}
	.st2{stroke:#F4F9F7;stroke-miterlimit:10;}
	.st3{stroke:#FCFCFC;stroke-miterlimit:10;}
</style>
<path class="st0" d="M727.85,57.16c0.08,0,0.16,0,0.24,0c0.08,0,0.15,0,0.23,0c14.64,0.42,11.9,20.85,11.9,20.85
	s-0.67,5.97-4.04,5.77c0,0-0.58,6.83,5.68,8.66s15.78,6.16,17.52,9.91c1.73,3.75,9.24,13.57,9.24,17.71c0,4.14,2.69,6.45,2.69,6.45
	l-2.89,1.25c0,0,1.35,7.22,1.92,7.89c0.58,0.67,3.88,21.66,2.98,26.67c-0.9,5-2.82,18.86-2.57,23.1c0.26,4.23-1.03,12.83-5.77,12.45
	c0,0-4.83,5.15-7.32,3.84s-0.07,8.59-0.07,8.59s4.51,53.44,1.63,54.33c-2.88,0.89-0.1,2.18,0.3,2.98c0.4,0.79,1.99,5.86-0.79,5.26
	c-2.78-0.6,0.5,0.99,3.58,4.97c3.08,3.97,5.46,9.53,1.89,13.01s-8.94,2.58-8.94,2.58s-5.96-0.89-6.16-3.08c0,0-3.97-4.77-3.48-7.75
	c0,0-3.97-3.87-2.98-5.76c0.99-1.89-3.18,0.6-2.48-2.09c0.7-2.68-2.38-0.7-0.6-3.58c1.79-2.88-3.87-4.37-1.29-5.16
	s-0.18-45.28-1.73-48.71c-1.56-3.43-3.89-8.88-4.36-17.28c-0.47-8.41-0.78,4.52-0.78,4.52s1.86,27.09,0,29.27
	c-1.86,2.18-0.77,24.76-0.77,24.76l0.77,12.61c0,0,2.5-0.31,1.1,1.71c-1.4,2.02,0.93,3.27-2.02,2.65c-2.96-0.62,1.71,3.11-0.78,5.29
	c-2.49,2.18-3.58,5.29-5.14,3.27c-1.56-2.02,0.93,6.23-1.25,8.56c-2.18,2.34-24.13,11.68-19.15,0.16s6.07-8.56,6.07-8.56
	s-1.05-5.37,0.33-4.79c1.37,0.58,1.95-4.56,3.76-3.83c1.81,0.72-5.5-4.48-2.82-4.99s-7.88-66.17-6.29-66.61
	c1.59-0.43-9.63-6.11-9.16-7.79s-0.84-24.97-1.68-26.74c-0.84-1.78-2.99-39.09-1.03-39c1.96,0.09-6.27-6.27-6.27-6.27
	s10.85-10.94,10.94-17.95s20.57-14.49,20.57-14.49s3.09-4.4,1.68-7.39c0,0-3.04-1.08-3.04-4.02s-5.55-24.34,6.11-23.24H727.85z"/>
<path class="st1" d="M746.87,95.86c10.9,0.55,13.72,4.34,13.72,4.34s4.85,17.99,2.04,20.67c0,0-1.86,4.22-2.99,4.75
	c-1.12,0.53,1.55,4.36,1.55,4.36s26.27,10.12,26.27,11.6s8.37,30.39,8.86,30.88c0.49,0.49,2.76,58.33-3.09,58.98l-0.09,5.27
	c0,0-5.79,6.48-7.09,6.48s-1.47,33.62-0.43,34.48c1.04,0.86,5.85,18.36,5.85,18.36l2.65,45.04l-2.47,1.57l0.76,2.42
	c0,0,15.2,13.31-1.89,10.44c0,0-12.25-0.53-11.35-8.32l-0.3-1.94h-3.1l-6-48.12l-8.8-49.72l-0.96-0.19l6.88,95.81l-1.72,2.68
	c0,0,0.81,10.72-5.44,9.35c0,0-21.16,2.66-15.59-3.34s6.77-5.74,6.51-7.45c-0.26-1.71-0.4-2.13-0.4-2.13l-1.62-0.11
	c0,0-3.37-54.13-4.24-59.12c-0.87-4.99-9.78-35.01-9.78-35.01s-3.11,5.08-5.79,4.24c-2.68-0.85-6.64-0.85-7.06-4.24
	c-0.42-3.39,1.41-97.44,1.41-97.44l19.49-15.96c0,0,1.71-5.14,0.84-5.22c-0.87-0.07-3.14-3.66-3.7-5.7
	c-0.56-2.03-3.02-15.36-1.47-18.45C738.35,105.11,738.32,95.43,746.87,95.86z"/>
<g>
	<path class="st1" d="M672.24,45.38c0.08-0.01,0.16,0,0.24,0c12.67,0.21,12.49,9.27,12.49,9.27s0.67,7.48,0,8.17
		s-1.04,1.27-1.04,1.27s2.01,0.95,1.64,1.53c-0.37,0.58,0.11,2.54-0.58,2.69c0,0,0.75,3.94-1.87,2.81c0,0-1.74,1.02-0.64,1.27
		c1.11,0.25,3.95-1.19,4.33,0.12c0.38,1.31,4.5,12.18,6.48,12.07s1.43,2.81,1.43,2.81l6.11,3.03c0,0,4.51,3.91,4.46,5.45
		c-0.06,1.54,12.65,24.76,12.16,26.02c-0.5,1.27,2.31,28.44,1.1,29.6c-1.21,1.16,0.66,17.88,0,17.93
		c-0.66,0.06-10.73,14.45-12.27,14.39c-1.54-0.06-1.31,3.58-4.5,2.49c-3.19-1.1-3.72-2.3-3.72-2.3s-1.74,2.98-1.17,2.98
		c0.57,0,1.38,13.11,0.78,13.11c-0.6,0,2.13,17.72-0.18,17.86c0,0,0.07,17.47-1.06,17.97c-1.12,0.5,6.92,21.63,4.99,23.25
		c0,0-0.37,9.1-2.06,9.1s1.99,4.8,1.06,6.17c-0.93,1.37-0.79,4.7-2.5,3.34c-1.71-1.36,2.21,11.49-0.58,11.33
		c-2.79-0.16,9.08,15.33,3.61,16.73c-5.47,1.4-14.67,0.7-14.44-7.57c0,0-7.41-2.48-5.28-10.05c0,0-3.37-0.86-2.39-9.47l-2.76-1.32
		c0,0,0.52-3.68,1.78-4.54c1.26-0.86-1.55-2.41-1.55-2.41s-3.27-3.62-0.34-14.88s-1.72-22.63-1.03-28.61
		c0.69-5.97-3.45-14.65-3.22-17.41c0.23-2.76-0.34-3.79-0.34-3.79l-1.21,0.4c0,0,1.21,9.31,0,9.88c-1.21,0.57-1.32,7.53-1.32,7.53
		s-2.07,18.61-3.79,18.61c-1.72,0,1.03,30.1,1.95,30.04c0.92-0.06,0.17,2.64,0.17,2.64s1.44,0.11,0.63,1.32
		c-0.8,1.21-3.04,12.92-5,12.06c-1.95-0.86,0.46,2.81,0,3.16c-0.46,0.34-2.07,5.46-3.85,3.56c-1.78-1.9,0.92,4.37-0.63,6.26
		s-10.83,4.97-14.68-1.45c0,0-0.92-3.11,0-4.53c0.92-1.42,4.31-7.2,3.76-7.98c-0.55-0.78-0.78-6.33,0.32-8.2
		c1.1-1.88-5.27-9.58,0.73-12.15c0,0-2.11-3.07-2.06-4.4s1.19-27.27,0.78-28.42c-0.41-1.15-4.25-17.51-3.94-20.67
		c0.32-3.16,0.36-25.71,1.69-26.63s-0.88-0.32-1.25-3.04s-1.85,0.62-1.85-1.49s-2.16,4.99-3.19,1.7s-4.53-7.47-5.87-6.44
		c0,0-6.18-14.37-5.1-18.18c1.08-3.81,6.41-71.12,16.42-69.89c0,0,5.57,0.06,5.21-1.46c-0.35-1.52,0.88-13.47,4.16-13.53
		c3.28-0.06,9.2-1.17,9.2,0c0,1.17-0.63-6.21-0.63-6.21s-1.91-1.9-1.87-5.87s2.16-2.25,2.16-2.25s-0.5-7.16,1.61-9.27
		C666.04,48.77,665.42,46.33,672.24,45.38z"/>
</g>
<path class="st1" d="M692.29,83.77c0.08-0.01,0.16,0,0.24,0c12.67,0.21,12.49,9.27,12.49,9.27s0.68,7.48,0,8.17
	s-1.04,1.27-1.04,1.27s2.01,0.95,1.64,1.53c-0.37,0.58,0.11,2.54-0.58,2.69c0,0,0.75,3.94-1.87,2.81c0,0-1.74,1.02-0.64,1.27
	c1.11,0.25,3.95-1.19,4.33,0.12s4.5,12.18,6.48,12.07c1.98-0.11,1.43,2.81,1.43,2.81l6.11,3.03c0,0,4.51,3.91,4.46,5.45
	c-0.05,1.54,12.65,24.76,12.16,26.02c-0.5,1.27,2.31,28.44,1.1,29.6c-1.21,1.16,0.66,17.88,0,17.93
	c-0.66,0.06-10.73,14.45-12.27,14.39c-1.54-0.06-1.31,3.58-4.5,2.49c-3.19-1.1-3.72-2.3-3.72-2.3s-1.74,2.98-1.17,2.98
	s1.38,13.11,0.78,13.11s2.13,17.72-0.18,17.86c0,0,0.07,17.47-1.06,17.97c-1.12,0.5,6.92,21.63,4.99,23.25c0,0-0.37,9.1-2.06,9.1
	s1.99,4.8,1.06,6.17c-0.94,1.37-0.79,4.7-2.5,3.34c-1.71-1.36,2.21,11.49-0.58,11.33c-2.79-0.16,9.08,15.33,3.61,16.73
	c-5.47,1.4-14.67,0.7-14.44-7.57c0,0-7.41-2.48-5.28-10.05c0,0-3.37-0.86-2.39-9.47l-2.76-1.32c0,0,0.52-3.68,1.78-4.54
	c1.26-0.86-1.55-2.41-1.55-2.41s-3.27-3.62-0.34-14.88s-1.72-22.63-1.03-28.61s-3.45-14.65-3.22-17.41
	c0.23-2.76-0.34-3.79-0.34-3.79l-1.21,0.4c0,0,1.21,9.31,0,9.88c-1.21,0.57-1.32,7.53-1.32,7.53s-2.07,18.61-3.79,18.61
	c-1.72,0,1.03,30.1,1.95,30.04c0.92-0.06,0.17,2.64,0.17,2.64s1.44,0.11,0.63,1.32c-0.8,1.21-3.04,12.92-5,12.06
	c-1.95-0.86,0.46,2.81,0,3.16c-0.46,0.34-2.07,5.46-3.85,3.56c-1.78-1.9,0.92,4.37-0.63,6.26c-1.55,1.9-10.83,4.97-14.68-1.45
	c0,0-0.92-3.11,0-4.53c0.92-1.42,4.31-7.2,3.76-7.98c-0.55-0.78-0.78-6.33,0.32-8.2c1.1-1.88-5.27-9.58,0.73-12.15
	c0,0-2.11-3.07-2.06-4.4s1.19-27.27,0.78-28.42c-0.41-1.15-4.25-17.51-3.94-20.67c0.32-3.16,0.36-25.71,1.69-26.63
	s-0.88-0.32-1.25-3.04c-0.36-2.73-1.85,0.62-1.85-1.49s-2.16,4.99-3.19,1.7c-1.03-3.3-4.53-7.47-5.87-6.44c0,0-6.18-14.37-5.1-18.18
	c1.08-3.81,6.41-71.12,16.42-69.89c0,0,5.57,0.06,5.21-1.46c-0.35-1.52,0.88-13.47,4.16-13.53s9.2-1.17,9.2,0
	c0,1.17-0.63-6.21-0.63-6.21s-1.91-1.9-1.87-5.87c0.04-3.97,2.16-2.25,2.16-2.25s-0.5-7.16,1.61-9.27
	C686.09,87.16,685.46,84.72,692.29,83.77z"/>
<path class="st1" d="M641.43,114.58c0.08,0,0.16,0,0.24,0c0.08,0,0.15,0,0.23,0c14.64,0.42,11.9,20.85,11.9,20.85
	s-0.67,5.97-4.04,5.77c0,0-0.58,6.83,5.68,8.66s15.78,6.16,17.52,9.91c1.73,3.75,9.24,13.57,9.24,17.71c0,4.14,2.69,6.45,2.69,6.45
	l-2.89,1.25c0,0,1.35,7.22,1.92,7.89s3.88,21.66,2.98,26.67s-2.82,18.86-2.57,23.1c0.26,4.23-1.03,12.83-5.77,12.45
	c0,0-4.83,5.15-7.32,3.84c-2.49-1.31-0.07,8.59-0.07,8.59s4.51,53.44,1.63,54.33c-2.88,0.89-0.1,2.18,0.3,2.98
	c0.4,0.79,1.99,5.86-0.79,5.26c-2.78-0.6,0.5,0.99,3.58,4.97s5.46,9.53,1.89,13.01s-8.94,2.58-8.94,2.58s-5.96-0.89-6.16-3.08
	c0,0-3.97-4.77-3.48-7.75c0,0-3.97-3.87-2.98-5.76c0.99-1.89-3.18,0.6-2.48-2.09c0.7-2.68-2.38-0.7-0.6-3.58
	c1.79-2.88-3.87-4.37-1.29-5.16c2.58-0.79-0.18-45.28-1.73-48.71c-1.56-3.43-3.89-8.88-4.36-17.28c-0.47-8.41-0.78,4.52-0.78,4.52
	s1.86,27.09,0,29.27c-1.86,2.18-0.77,24.76-0.77,24.76l0.77,12.61c0,0,2.5-0.31,1.09,1.71s0.93,3.27-2.02,2.65
	c-2.96-0.62,1.71,3.11-0.78,5.29c-2.49,2.18-3.58,5.29-5.14,3.27c-1.56-2.02,0.93,6.23-1.25,8.56c-2.18,2.34-24.13,11.68-19.15,0.16
	c4.98-11.52,6.07-8.56,6.07-8.56s-1.05-5.37,0.33-4.79c1.37,0.58,1.95-4.56,3.76-3.83c1.81,0.72-5.5-4.48-2.82-4.99
	s-7.88-66.17-6.29-66.61s-9.63-6.11-9.16-7.79c0.47-1.68-0.84-24.97-1.68-26.74s-2.99-39.09-1.03-39c1.96,0.09-6.27-6.27-6.27-6.27
	s10.85-10.94,10.94-17.95c0.09-7.01,20.57-14.49,20.57-14.49s3.09-4.4,1.68-7.39c0,0-3.04-1.08-3.04-4.02s-5.55-24.34,6.11-23.24
	H641.43z"/>
<path class="st0" d="M912.88,46.69c0.08,0,0.16,0,0.24,0c0.08,0,0.15,0,0.23,0c14.64,0.42,11.9,20.85,11.9,20.85
	s-0.67,5.97-4.04,5.77c0,0-0.58,6.83,5.68,8.66c6.26,1.83,15.78,6.16,17.52,9.91c1.73,3.75,9.24,13.57,9.24,17.71
	c0,4.14,2.69,6.45,2.69,6.45l-2.89,1.25c0,0,1.35,7.22,1.92,7.89s3.88,21.66,2.98,26.67c-0.9,5-2.82,18.86-2.57,23.1
	c0.26,4.23-1.03,12.83-5.77,12.45c0,0-4.83,5.15-7.32,3.84c-2.49-1.31-0.07,8.59-0.07,8.59s4.51,53.44,1.63,54.33
	c-2.88,0.89-0.1,2.18,0.3,2.98c0.4,0.79,1.99,5.86-0.79,5.26c-2.78-0.6,0.5,0.99,3.58,4.97s5.46,9.53,1.89,13.01
	c-3.58,3.48-8.94,2.58-8.94,2.58s-5.96-0.89-6.16-3.08c0,0-3.97-4.77-3.48-7.75c0,0-3.97-3.87-2.98-5.76
	c0.99-1.89-3.18,0.6-2.48-2.09c0.7-2.68-2.38-0.7-0.6-3.58c1.79-2.88-3.87-4.37-1.29-5.16s-0.18-45.28-1.73-48.71
	s-3.89-8.88-4.36-17.28c-0.47-8.41-0.78,4.52-0.78,4.52s1.86,27.09,0,29.27c-1.86,2.18-0.77,24.76-0.77,24.76l0.77,12.61
	c0,0,2.5-0.31,1.1,1.71c-1.4,2.02,0.93,3.27-2.02,2.65c-2.96-0.62,1.71,3.11-0.78,5.29s-3.58,5.29-5.14,3.27
	c-1.56-2.02,0.93,6.23-1.25,8.56c-2.18,2.34-24.13,11.68-19.15,0.16c4.98-11.52,6.07-8.56,6.07-8.56s-1.05-5.37,0.33-4.79
	c1.37,0.58,1.95-4.56,3.76-3.83c1.81,0.72-5.5-4.48-2.82-4.99c2.68-0.51-7.88-66.17-6.29-66.61c1.59-0.43-9.63-6.11-9.16-7.79
	c0.47-1.68-0.84-24.97-1.68-26.74c-0.84-1.78-2.99-39.09-1.03-39c1.96,0.09-6.27-6.27-6.27-6.27s10.85-10.94,10.94-17.95
	c0.09-7.01,20.57-14.49,20.57-14.49s3.09-4.4,1.68-7.39c0,0-3.04-1.08-3.04-4.02c0-2.94-5.55-24.34,6.11-23.24H912.88z"/>
<path class="st0" d="M931.91,85.39c10.9,0.55,13.72,4.34,13.72,4.34s4.85,17.99,2.04,20.67c0,0-1.86,4.22-2.99,4.75
	c-1.12,0.53,1.55,4.36,1.55,4.36s26.27,10.12,26.27,11.6c0,1.48,8.37,30.39,8.86,30.88c0.49,0.49,2.76,58.33-3.09,58.98l-0.09,5.27
	c0,0-5.79,6.48-7.09,6.48s-1.47,33.62-0.43,34.48c1.04,0.86,5.85,18.36,5.85,18.36l2.65,45.04l-2.47,1.57l0.76,2.42
	c0,0,15.2,13.31-1.89,10.44c0,0-12.25-0.53-11.35-8.32l-0.3-1.94h-3.1l-6-48.12l-8.8-49.72l-0.96-0.19l6.88,95.81l-1.72,2.68
	c0,0,0.81,10.72-5.44,9.35c0,0-21.16,2.66-15.59-3.34s6.77-5.74,6.51-7.45c-0.26-1.71-0.4-2.13-0.4-2.13l-1.62-0.11
	c0,0-3.37-54.13-4.24-59.12c-0.87-4.99-9.78-35.01-9.78-35.01s-3.11,5.08-5.79,4.24s-6.64-0.85-7.06-4.24
	c-0.42-3.39,1.41-97.44,1.41-97.44L927.72,124c0,0,1.71-5.14,0.84-5.22c-0.87-0.07-3.14-3.66-3.7-5.7
	c-0.56-2.03-3.02-15.36-1.47-18.45C923.39,94.64,923.35,84.95,931.91,85.39z"/>
<g>
	<path class="st0" d="M857.28,34.91c0.08-0.01,0.16,0,0.24,0c12.67,0.21,12.49,9.27,12.49,9.27s0.67,7.48,0,8.17
		c-0.67,0.69-1.04,1.27-1.04,1.27s2.01,0.95,1.64,1.53c-0.37,0.58,0.11,2.54-0.58,2.69c0,0,0.75,3.94-1.87,2.81
		c0,0-1.74,1.02-0.64,1.27c1.11,0.25,3.95-1.19,4.33,0.12c0.38,1.31,4.5,12.18,6.48,12.07s1.43,2.81,1.43,2.81l6.11,3.03
		c0,0,4.51,3.91,4.46,5.45c-0.06,1.54,12.65,24.76,12.16,26.02c-0.5,1.27,2.31,28.44,1.1,29.6s0.66,17.88,0,17.93
		c-0.66,0.06-10.73,14.45-12.27,14.39c-1.54-0.06-1.31,3.58-4.5,2.49s-3.72-2.3-3.72-2.3s-1.74,2.98-1.17,2.98
		c0.57,0,1.38,13.11,0.78,13.11s2.13,17.72-0.18,17.86c0,0,0.07,17.47-1.06,17.97c-1.12,0.5,6.92,21.63,4.99,23.25
		c0,0-0.37,9.1-2.06,9.1s1.99,4.8,1.06,6.17c-0.94,1.37-0.79,4.7-2.5,3.34c-1.71-1.36,2.21,11.49-0.58,11.33
		c-2.79-0.16,9.08,15.33,3.61,16.73c-5.47,1.4-14.67,0.7-14.44-7.57c0,0-7.41-2.48-5.28-10.05c0,0-3.37-0.86-2.39-9.47l-2.76-1.32
		c0,0,0.52-3.68,1.78-4.54s-1.55-2.41-1.55-2.41s-3.27-3.62-0.34-14.88s-1.72-22.63-1.03-28.61s-3.45-14.65-3.22-17.41
		c0.23-2.76-0.34-3.79-0.34-3.79l-1.21,0.4c0,0,1.21,9.31,0,9.88c-1.21,0.57-1.32,7.53-1.32,7.53s-2.07,18.61-3.79,18.61
		c-1.72,0,1.03,30.1,1.95,30.04c0.92-0.06,0.17,2.64,0.17,2.64s1.44,0.11,0.63,1.32c-0.8,1.21-3.04,12.92-5,12.06
		c-1.95-0.86,0.46,2.81,0,3.16s-2.07,5.46-3.85,3.56c-1.78-1.9,0.92,4.37-0.63,6.26s-10.83,4.97-14.68-1.45c0,0-0.92-3.11,0-4.53
		c0.92-1.42,4.31-7.2,3.76-7.98c-0.55-0.78-0.78-6.33,0.32-8.2s-5.27-9.58,0.73-12.15c0,0-2.11-3.07-2.06-4.4s1.19-27.27,0.78-28.42
		c-0.41-1.15-4.25-17.51-3.94-20.67c0.32-3.16,0.36-25.71,1.69-26.63c1.33-0.92-0.88-0.32-1.25-3.04c-0.36-2.73-1.85,0.62-1.85-1.49
		c0-2.11-2.16,4.99-3.19,1.7c-1.03-3.3-4.53-7.47-5.87-6.44c0,0-6.18-14.37-5.1-18.18c1.08-3.81,6.41-71.12,16.42-69.89
		c0,0,5.57,0.06,5.21-1.46s0.88-13.47,4.16-13.53c3.28-0.06,9.2-1.17,9.2,0c0,1.17-0.63-6.21-0.63-6.21s-1.91-1.9-1.87-5.87
		c0.04-3.97,2.16-2.25,2.16-2.25s-0.5-7.16,1.61-9.27C851.08,38.3,850.45,35.86,857.28,34.91z"/>
</g>
<path class="st0" d="M877.33,73.3c0.08-0.01,0.16,0,0.24,0c12.67,0.21,12.49,9.27,12.49,9.27s0.68,7.48,0,8.17
	c-0.67,0.69-1.04,1.27-1.04,1.27s2.01,0.95,1.64,1.53c-0.37,0.58,0.11,2.54-0.58,2.69c0,0,0.75,3.94-1.87,2.81
	c0,0-1.74,1.02-0.64,1.27c1.11,0.25,3.95-1.19,4.33,0.12c0.38,1.31,4.5,12.18,6.48,12.07s1.43,2.81,1.43,2.81l6.11,3.03
	c0,0,4.51,3.91,4.46,5.45c-0.05,1.54,12.65,24.76,12.16,26.02s2.31,28.44,1.1,29.6s0.66,17.88,0,17.93
	c-0.66,0.06-10.73,14.45-12.27,14.39c-1.54-0.06-1.31,3.58-4.5,2.49s-3.72-2.3-3.72-2.3s-1.74,2.98-1.17,2.98s1.38,13.11,0.78,13.11
	s2.13,17.72-0.18,17.86c0,0,0.07,17.47-1.06,17.97c-1.12,0.5,6.92,21.63,4.99,23.25c0,0-0.37,9.1-2.06,9.1s1.99,4.8,1.06,6.17
	c-0.94,1.37-0.79,4.7-2.5,3.34c-1.71-1.36,2.21,11.49-0.58,11.33c-2.79-0.16,9.08,15.33,3.61,16.73c-5.47,1.4-14.67,0.7-14.44-7.57
	c0,0-7.41-2.48-5.28-10.05c0,0-3.37-0.86-2.39-9.47l-2.76-1.32c0,0,0.52-3.68,1.78-4.54c1.26-0.86-1.55-2.41-1.55-2.41
	s-3.27-3.62-0.34-14.88c2.93-11.26-1.72-22.63-1.03-28.61c0.69-5.97-3.45-14.65-3.22-17.41c0.23-2.76-0.34-3.79-0.34-3.79l-1.21,0.4
	c0,0,1.21,9.31,0,9.88s-1.32,7.53-1.32,7.53s-2.07,18.61-3.79,18.61c-1.72,0,1.03,30.1,1.95,30.04c0.92-0.06,0.17,2.64,0.17,2.64
	s1.44,0.11,0.63,1.32c-0.8,1.21-3.04,12.92-5,12.06c-1.95-0.86,0.46,2.81,0,3.16c-0.46,0.34-2.07,5.46-3.85,3.56
	s0.92,4.37-0.63,6.26c-1.55,1.9-10.83,4.97-14.68-1.45c0,0-0.92-3.11,0-4.53c0.92-1.42,4.31-7.2,3.76-7.98
	c-0.55-0.78-0.78-6.33,0.32-8.2s-5.27-9.58,0.73-12.15c0,0-2.11-3.07-2.06-4.4s1.19-27.27,0.78-28.42
	c-0.41-1.15-4.25-17.51-3.94-20.67c0.32-3.16,0.36-25.71,1.69-26.63c1.33-0.92-0.88-0.32-1.25-3.04c-0.36-2.73-1.85,0.62-1.85-1.49
	c0-2.11-2.16,4.99-3.19,1.7s-4.53-7.47-5.87-6.44c0,0-6.18-14.37-5.1-18.18c1.08-3.81,6.41-71.12,16.42-69.89
	c0,0,5.57,0.06,5.21-1.46c-0.35-1.52,0.88-13.47,4.16-13.53s9.2-1.17,9.2,0c0,1.17-0.63-6.21-0.63-6.21s-1.91-1.9-1.87-5.87
	c0.04-3.97,2.16-2.25,2.16-2.25s-0.5-7.16,1.61-9.27C871.12,76.69,870.5,74.25,877.33,73.3z"/>
<path class="st0" d="M826.46,104.11c0.08,0,0.16,0,0.24,0c0.08,0,0.15,0,0.23,0c14.64,0.42,11.9,20.85,11.9,20.85
	s-0.67,5.97-4.04,5.77c0,0-0.58,6.83,5.68,8.66s15.78,6.16,17.52,9.91c1.73,3.75,9.24,13.57,9.24,17.71s2.69,6.45,2.69,6.45
	l-2.89,1.25c0,0,1.35,7.22,1.92,7.89s3.88,21.66,2.98,26.67c-0.9,5-2.82,18.86-2.57,23.1c0.26,4.23-1.03,12.83-5.77,12.45
	c0,0-4.83,5.15-7.32,3.84s-0.07,8.59-0.07,8.59s4.51,53.44,1.63,54.33c-2.88,0.89-0.1,2.18,0.3,2.98c0.4,0.79,1.99,5.86-0.79,5.26
	c-2.78-0.6,0.5,0.99,3.58,4.97c3.08,3.97,5.46,9.53,1.89,13.01c-3.58,3.48-8.94,2.58-8.94,2.58s-5.96-0.89-6.16-3.08
	c0,0-3.97-4.77-3.48-7.75c0,0-3.97-3.87-2.98-5.76c0.99-1.89-3.18,0.6-2.48-2.09c0.7-2.68-2.38-0.7-0.6-3.58
	c1.79-2.88-3.87-4.37-1.29-5.16c2.58-0.79-0.18-45.28-1.73-48.71c-1.56-3.43-3.89-8.88-4.36-17.28c-0.47-8.41-0.78,4.52-0.78,4.52
	s1.86,27.09,0,29.27c-1.86,2.18-0.77,24.76-0.77,24.76l0.77,12.61c0,0,2.5-0.31,1.1,1.71s0.93,3.27-2.02,2.65
	c-2.96-0.62,1.71,3.11-0.78,5.29c-2.49,2.18-3.58,5.29-5.14,3.27c-1.56-2.02,0.93,6.23-1.25,8.56c-2.18,2.34-24.13,11.68-19.15,0.16
	s6.07-8.56,6.07-8.56s-1.05-5.37,0.33-4.79c1.37,0.58,1.95-4.56,3.76-3.83c1.81,0.72-5.5-4.48-2.82-4.99s-7.88-66.17-6.29-66.61
	s-9.63-6.11-9.16-7.79s-0.84-24.97-1.68-26.74c-0.84-1.78-2.99-39.09-1.03-39c1.96,0.09-6.27-6.27-6.27-6.27
	s10.85-10.94,10.94-17.95s20.57-14.49,20.57-14.49s3.09-4.4,1.68-7.39c0,0-3.04-1.08-3.04-4.02c0-2.94-5.55-24.34,6.11-23.24H826.46
	z"/>
<path class="st0" d="M998.14,50.84c0.08,0,0.16,0,0.24,0c0.08,0,0.15,0,0.23,0c14.64,0.42,11.9,20.85,11.9,20.85
	s-0.67,5.97-4.04,5.77c0,0-0.58,6.83,5.68,8.66s15.78,6.16,17.52,9.91s9.24,13.57,9.24,17.71c0,4.14,2.69,6.45,2.69,6.45l-2.89,1.25
	c0,0,1.35,7.22,1.92,7.89c0.58,0.67,3.88,21.66,2.98,26.67c-0.9,5-2.82,18.86-2.57,23.1c0.26,4.23-1.03,12.83-5.77,12.45
	c0,0-4.83,5.15-7.32,3.84s-0.07,8.59-0.07,8.59s4.51,53.44,1.63,54.33c-2.88,0.89-0.1,2.18,0.3,2.98c0.4,0.79,1.99,5.86-0.79,5.26
	c-2.78-0.6,0.5,0.99,3.58,4.97c3.08,3.97,5.46,9.53,1.89,13.01c-3.58,3.48-8.94,2.58-8.94,2.58s-5.96-0.89-6.16-3.08
	c0,0-3.97-4.77-3.48-7.75c0,0-3.97-3.87-2.98-5.76s-3.18,0.6-2.48-2.09c0.7-2.68-2.38-0.7-0.6-3.58c1.79-2.88-3.87-4.37-1.29-5.16
	s-0.18-45.28-1.73-48.71c-1.56-3.43-3.89-8.88-4.36-17.28c-0.47-8.41-0.78,4.52-0.78,4.52s1.86,27.09,0,29.27
	c-1.86,2.18-0.77,24.76-0.77,24.76l0.77,12.61c0,0,2.5-0.31,1.09,1.71s0.93,3.27-2.02,2.65c-2.96-0.62,1.71,3.11-0.78,5.29
	c-2.49,2.18-3.58,5.29-5.14,3.27s0.93,6.23-1.25,8.56c-2.18,2.34-24.13,11.68-19.15,0.16c4.98-11.52,6.07-8.56,6.07-8.56
	s-1.05-5.37,0.33-4.79c1.37,0.58,1.95-4.56,3.76-3.83c1.81,0.72-5.5-4.48-2.82-4.99s-7.88-66.17-6.29-66.61
	c1.59-0.43-9.63-6.11-9.16-7.79c0.47-1.68-0.84-24.97-1.68-26.74c-0.84-1.78-2.99-39.09-1.03-39c1.96,0.09-6.27-6.27-6.27-6.27
	s10.85-10.94,10.94-17.95s20.57-14.49,20.57-14.49s3.09-4.4,1.68-7.39c0,0-3.04-1.08-3.04-4.02s-5.55-24.34,6.11-23.24H998.14z"/>
<path class="st2" d="M388.29,28.82c10.9,0.55,13.72,4.34,13.72,4.34s4.85,17.99,2.04,20.67c0,0-1.86,4.22-2.99,4.75
	c-1.12,0.53,1.55,4.36,1.55,4.36s26.27,10.12,26.27,11.6c0,1.48,8.37,30.39,8.86,30.88c0.49,0.49,2.76,58.33-3.09,58.98l-0.09,5.27
	c0,0-5.79,6.48-7.09,6.48s-1.47,33.62-0.43,34.48s5.85,18.36,5.85,18.36l2.65,45.04l-2.47,1.57l0.76,2.42c0,0,15.2,13.31-1.89,10.44
	c0,0-12.25-0.53-11.35-8.32l-0.3-1.94h-3.1l-6-48.12l-8.8-49.72l-0.96-0.19l6.88,95.81l-1.72,2.68c0,0,0.81,10.72-5.44,9.35
	c0,0-21.16,2.66-15.59-3.34s6.77-5.74,6.51-7.45c-0.26-1.71-0.4-2.13-0.4-2.13l-1.62-0.11c0,0-3.37-54.13-4.24-59.12
	c-0.87-4.99-9.78-35.01-9.78-35.01s-3.11,5.08-5.79,4.24s-6.64-0.85-7.06-4.24c-0.42-3.39,1.41-97.44,1.41-97.44l19.49-15.96
	c0,0,1.71-5.14,0.84-5.22c-0.87-0.07-3.14-3.66-3.7-5.7c-0.56-2.03-3.02-15.36-1.47-18.45C379.77,38.07,379.74,28.39,388.29,28.82z"
	/>
<g>
	<path class="st1" d="M536.78,45.04c0.08-0.01,0.16,0,0.24,0c12.67,0.21,12.49,9.27,12.49,9.27s0.67,7.48,0,8.17
		s-1.04,1.27-1.04,1.27s2.01,0.95,1.64,1.53c-0.37,0.58,0.11,2.54-0.58,2.69c0,0,0.75,3.94-1.87,2.81c0,0-1.74,1.02-0.64,1.27
		c1.11,0.25,3.95-1.19,4.33,0.12c0.38,1.31,4.5,12.18,6.48,12.07c1.98-0.11,1.43,2.81,1.43,2.81l6.11,3.03c0,0,4.51,3.91,4.46,5.45
		c-0.06,1.54,12.65,24.76,12.16,26.02c-0.5,1.27,2.31,28.44,1.1,29.6c-1.21,1.16,0.66,17.88,0,17.93
		c-0.66,0.06-10.73,14.45-12.27,14.39c-1.54-0.06-1.31,3.58-4.5,2.49c-3.19-1.1-3.72-2.3-3.72-2.3s-1.74,2.98-1.17,2.98
		c0.57,0,1.38,13.11,0.78,13.11s2.13,17.72-0.18,17.86c0,0,0.07,17.47-1.06,17.97c-1.12,0.5,6.92,21.63,4.99,23.25
		c0,0-0.37,9.1-2.06,9.1s1.99,4.8,1.06,6.17c-0.94,1.37-0.79,4.7-2.5,3.34c-1.71-1.36,2.21,11.49-0.58,11.33
		c-2.79-0.16,9.08,15.33,3.61,16.73c-5.47,1.4-14.67,0.7-14.44-7.57c0,0-7.41-2.48-5.28-10.05c0,0-3.37-0.86-2.39-9.47l-2.76-1.32
		c0,0,0.52-3.68,1.78-4.54c1.26-0.86-1.55-2.41-1.55-2.41s-3.27-3.62-0.34-14.88s-1.72-22.63-1.03-28.61s-3.45-14.65-3.22-17.41
		c0.23-2.76-0.34-3.79-0.34-3.79l-1.21,0.4c0,0,1.21,9.31,0,9.88c-1.21,0.57-1.32,7.53-1.32,7.53s-2.07,18.61-3.79,18.61
		c-1.72,0,1.03,30.1,1.95,30.04c0.92-0.06,0.17,2.64,0.17,2.64s1.44,0.11,0.63,1.32c-0.8,1.21-3.04,12.92-5,12.06
		c-1.95-0.86,0.46,2.81,0,3.16s-2.07,5.46-3.85,3.56c-1.78-1.9,0.92,4.37-0.63,6.26s-10.83,4.97-14.68-1.45c0,0-0.92-3.11,0-4.53
		s4.31-7.2,3.76-7.98s-0.78-6.33,0.32-8.2c1.1-1.88-5.27-9.58,0.73-12.15c0,0-2.11-3.07-2.06-4.4s1.19-27.27,0.78-28.42
		c-0.41-1.15-4.25-17.51-3.94-20.67c0.32-3.16,0.36-25.71,1.69-26.63s-0.88-0.32-1.25-3.04c-0.36-2.73-1.85,0.62-1.85-1.49
		c0-2.11-2.16,4.99-3.19,1.7s-4.53-7.47-5.87-6.44c0,0-6.18-14.37-5.1-18.18s6.41-71.12,16.42-69.89c0,0,5.57,0.06,5.21-1.46
		s0.88-13.47,4.16-13.53s9.2-1.17,9.2,0c0,1.17-0.63-6.21-0.63-6.21s-1.91-1.9-1.87-5.87c0.04-3.97,2.16-2.25,2.16-2.25
		s-0.5-7.16,1.61-9.27C530.58,48.43,529.95,45.99,536.78,45.04z"/>
</g>
<path class="st3" d="M473.35,68.94c0.08,0,0.16,0,0.24,0c0.08,0,0.15,0,0.23,0c14.64,0.42,11.9,20.85,11.9,20.85
	s-0.67,5.97-4.04,5.77c0,0-0.58,6.83,5.68,8.66c6.26,1.83,15.78,6.16,17.52,9.91c1.73,3.75,9.24,13.57,9.24,17.71
	c0,4.14,2.69,6.45,2.69,6.45l-2.89,1.25c0,0,1.35,7.22,1.92,7.89c0.58,0.67,3.88,21.66,2.98,26.67s-2.82,18.86-2.57,23.1
	c0.26,4.23-1.03,12.83-5.77,12.45c0,0-4.83,5.15-7.32,3.84c-2.49-1.31-0.07,8.59-0.07,8.59s4.51,53.44,1.63,54.33
	c-2.88,0.89-0.1,2.18,0.3,2.98c0.4,0.79,1.99,5.86-0.79,5.26c-2.78-0.6,0.5,0.99,3.58,4.97c3.08,3.97,5.46,9.53,1.89,13.01
	s-8.94,2.58-8.94,2.58s-5.96-0.89-6.16-3.08c0,0-3.97-4.77-3.48-7.75c0,0-3.97-3.87-2.98-5.76s-3.18,0.6-2.48-2.09
	c0.7-2.68-2.38-0.7-0.6-3.58c1.79-2.88-3.87-4.37-1.29-5.16c2.58-0.79-0.18-45.28-1.73-48.71c-1.56-3.43-3.89-8.88-4.36-17.28
	s-0.78,4.52-0.78,4.52s1.86,27.09,0,29.27c-1.86,2.18-0.77,24.76-0.77,24.76l0.77,12.61c0,0,2.5-0.31,1.1,1.71
	c-1.4,2.02,0.93,3.27-2.02,2.65c-2.96-0.62,1.71,3.11-0.78,5.29c-2.49,2.18-3.58,5.29-5.14,3.27c-1.56-2.02,0.93,6.23-1.25,8.56
	c-2.18,2.34-24.13,11.68-19.15,0.16c4.98-11.52,6.07-8.56,6.07-8.56s-1.05-5.37,0.33-4.79c1.37,0.58,1.95-4.56,3.76-3.83
	c1.81,0.72-5.5-4.48-2.82-4.99s-7.88-66.17-6.29-66.61c1.59-0.43-9.63-6.11-9.16-7.79c0.47-1.68-0.84-24.97-1.68-26.74
	c-0.84-1.78-2.99-39.09-1.03-39c1.96,0.09-6.27-6.27-6.27-6.27s10.85-10.94,10.94-17.95s20.57-14.49,20.57-14.49s3.09-4.4,1.68-7.39
	c0,0-3.04-1.08-3.04-4.02s-5.55-24.34,6.11-23.24H473.35z"/>
<path class="st3" d="M554.38,222.45c0.08,0,0.16,0,0.24,0c0.08,0,0.15,0,0.23,0c14.64,0.42,11.9,20.85,11.9,20.85
	s-0.67,5.97-4.04,5.77c0,0-0.58,6.83,5.68,8.66s15.78,6.16,17.52,9.91c1.73,3.75,9.24,13.57,9.24,17.71c0,4.14,2.69,6.45,2.69,6.45
	l-2.89,1.25c0,0,1.35,7.22,1.92,7.89c0.58,0.67,3.88,21.66,2.98,26.67c-0.9,5-2.82,18.86-2.57,23.1c0.26,4.23-1.03,12.83-5.77,12.45
	c0,0-4.83,5.15-7.32,3.84s-0.07,8.59-0.07,8.59s4.51,53.44,1.63,54.33c-2.88,0.89-0.1,2.18,0.3,2.98c0.4,0.79,1.99,5.86-0.79,5.26
	c-2.78-0.6,0.5,0.99,3.58,4.97c3.08,3.97,5.46,9.53,1.89,13.01c-3.58,3.48-8.94,2.58-8.94,2.58s-5.96-0.89-6.16-3.08
	c0,0-3.97-4.77-3.48-7.75c0,0-3.97-3.87-2.98-5.76c0.99-1.89-3.18,0.6-2.48-2.09c0.7-2.68-2.38-0.7-0.6-3.58
	c1.79-2.88-3.87-4.37-1.29-5.16s-0.18-45.28-1.73-48.71c-1.56-3.43-3.89-8.88-4.36-17.28c-0.47-8.41-0.78,4.52-0.78,4.52
	s1.86,27.09,0,29.27c-1.86,2.18-0.77,24.76-0.77,24.76l0.77,12.61c0,0,2.5-0.31,1.1,1.71c-1.4,2.02,0.93,3.27-2.02,2.65
	c-2.96-0.62,1.71,3.11-0.78,5.29c-2.49,2.18-3.58,5.29-5.14,3.27c-1.56-2.02,0.93,6.23-1.25,8.56c-2.18,2.34-24.13,11.68-19.15,0.16
	c4.98-11.52,6.07-8.56,6.07-8.56s-1.05-5.37,0.33-4.79c1.37,0.58,1.95-4.56,3.76-3.83c1.81,0.72-5.5-4.48-2.82-4.99
	c2.68-0.51-7.88-66.17-6.29-66.61c1.59-0.43-9.63-6.11-9.16-7.79s-0.84-24.97-1.68-26.74c-0.84-1.78-2.99-39.09-1.03-39
	c1.96,0.09-6.27-6.27-6.27-6.27s10.85-10.94,10.94-17.95c0.09-7.01,20.57-14.49,20.57-14.49s3.09-4.4,1.68-7.39
	c0,0-3.04-1.08-3.04-4.02s-5.55-24.34,6.11-23.24H554.38z"/>
<path class="st1" d="M596.84,95.83c0.08,0,0.16,0,0.24,0c0.08,0,0.15,0,0.23,0c14.64,0.42,11.9,20.85,11.9,20.85
	s-0.67,5.97-4.04,5.77c0,0-0.58,6.83,5.68,8.66s15.78,6.16,17.52,9.91c1.73,3.75,9.24,13.57,9.24,17.71c0,4.14,2.69,6.45,2.69,6.45
	l-2.89,1.25c0,0,1.35,7.22,1.92,7.89s3.88,21.66,2.98,26.67s-2.82,18.86-2.57,23.1c0.26,4.23-1.03,12.83-5.77,12.45
	c0,0-4.83,5.15-7.32,3.84c-2.49-1.31-0.07,8.59-0.07,8.59s4.51,53.44,1.63,54.33c-2.88,0.89-0.1,2.18,0.3,2.98
	c0.4,0.79,1.99,5.86-0.79,5.26c-2.78-0.6,0.5,0.99,3.58,4.97s5.46,9.53,1.89,13.01s-8.94,2.58-8.94,2.58s-5.96-0.89-6.16-3.08
	c0,0-3.97-4.77-3.48-7.75c0,0-3.97-3.87-2.98-5.76c0.99-1.89-3.18,0.6-2.48-2.09c0.7-2.68-2.38-0.7-0.6-3.58
	c1.79-2.88-3.87-4.37-1.29-5.16c2.58-0.79-0.18-45.28-1.73-48.71c-1.56-3.43-3.89-8.88-4.36-17.28c-0.47-8.41-0.78,4.52-0.78,4.52
	s1.86,27.09,0,29.27c-1.86,2.18-0.77,24.76-0.77,24.76l0.77,12.61c0,0,2.5-0.31,1.09,1.71s0.93,3.27-2.02,2.65
	c-2.96-0.62,1.71,3.11-0.78,5.29c-2.49,2.18-3.58,5.29-5.14,3.27s0.93,6.23-1.25,8.56c-2.18,2.34-24.13,11.68-19.15,0.16
	c4.98-11.52,6.07-8.56,6.07-8.56s-1.05-5.37,0.33-4.79c1.37,0.58,1.95-4.56,3.76-3.83c1.81,0.72-5.5-4.48-2.82-4.99
	s-7.88-66.17-6.29-66.61c1.59-0.43-9.63-6.11-9.16-7.79c0.47-1.68-0.84-24.97-1.68-26.74s-2.99-39.09-1.03-39
	c1.96,0.09-6.27-6.27-6.27-6.27s10.85-10.94,10.94-17.95c0.09-7.01,20.57-14.49,20.57-14.49s3.09-4.4,1.68-7.39
	c0,0-3.04-1.08-3.04-4.02c0-2.94-5.55-24.34,6.11-23.24H596.84z"/>
<path class="st2" d="M573.41,261.15c10.9,0.55,13.72,4.34,13.72,4.34s4.85,17.99,2.04,20.67c0,0-1.86,4.22-2.99,4.75
	s1.55,4.36,1.55,4.36S614,305.39,614,306.87c0,1.48,8.37,30.39,8.86,30.88c0.49,0.49,2.76,58.33-3.09,58.98l-0.09,5.27
	c0,0-5.79,6.48-7.09,6.48s-1.47,33.62-0.43,34.48c1.04,0.86,5.85,18.36,5.85,18.36l2.65,45.04l-2.47,1.57l0.76,2.42
	c0,0,15.2,13.31-1.89,10.44c0,0-12.25-0.53-11.35-8.32l-0.3-1.94h-3.1l-6-48.12l-8.8-49.72l-0.96-0.19l6.88,95.81l-1.72,2.68
	c0,0,0.81,10.72-5.44,9.35c0,0-21.16,2.66-15.59-3.34c5.57-6,6.77-5.74,6.51-7.45c-0.26-1.71-0.4-2.13-0.4-2.13l-1.62-0.11
	c0,0-3.37-54.13-4.24-59.12c-0.87-4.99-9.78-35.01-9.78-35.01s-3.11,5.08-5.79,4.24s-6.64-0.85-7.06-4.24
	c-0.42-3.39,1.41-97.44,1.41-97.44l19.49-15.96c0,0,1.71-5.14,0.84-5.22s-3.14-3.66-3.7-5.7s-3.02-15.36-1.47-18.45
	C564.89,270.4,564.85,260.72,573.41,261.15z"/>
<g>
	<path class="st1" d="M502.27,190.99c0.08-0.01,0.16,0,0.24,0c12.67,0.21,12.49,9.27,12.49,9.27s0.67,7.48,0,8.17
		s-1.04,1.27-1.04,1.27s2.01,0.95,1.64,1.53c-0.37,0.58,0.11,2.54-0.58,2.69c0,0,0.75,3.94-1.87,2.81c0,0-1.74,1.02-0.64,1.27
		c1.11,0.25,3.95-1.19,4.33,0.12s4.5,12.18,6.48,12.07s1.43,2.81,1.43,2.81l6.11,3.03c0,0,4.51,3.91,4.46,5.45
		c-0.06,1.54,12.65,24.76,12.16,26.02c-0.5,1.27,2.31,28.44,1.1,29.6c-1.21,1.16,0.66,17.88,0,17.93
		c-0.66,0.06-10.73,14.45-12.27,14.39c-1.54-0.06-1.31,3.58-4.5,2.49s-3.72-2.3-3.72-2.3s-1.74,2.98-1.17,2.98
		c0.57,0,1.38,13.11,0.78,13.11c-0.6,0,2.13,17.72-0.18,17.86c0,0,0.07,17.47-1.06,17.97c-1.12,0.5,6.92,21.63,4.99,23.25
		c0,0-0.37,9.1-2.06,9.1s1.99,4.8,1.06,6.17s-0.79,4.7-2.5,3.34c-1.71-1.36,2.21,11.49-0.58,11.33c-2.79-0.16,9.08,15.33,3.61,16.73
		c-5.47,1.4-14.67,0.7-14.44-7.57c0,0-7.41-2.48-5.28-10.05c0,0-3.37-0.86-2.39-9.47l-2.76-1.32c0,0,0.52-3.68,1.78-4.54
		c1.26-0.86-1.55-2.41-1.55-2.41s-3.27-3.62-0.34-14.88s-1.72-22.63-1.03-28.61c0.69-5.97-3.45-14.65-3.22-17.41
		c0.23-2.76-0.34-3.79-0.34-3.79l-1.21,0.4c0,0,1.21,9.31,0,9.88s-1.32,7.53-1.32,7.53s-2.07,18.61-3.79,18.61
		c-1.72,0,1.03,30.1,1.95,30.04s0.17,2.64,0.17,2.64s1.44,0.11,0.63,1.32c-0.8,1.21-3.04,12.92-5,12.06c-1.95-0.86,0.46,2.81,0,3.16
		c-0.46,0.34-2.07,5.46-3.85,3.56s0.92,4.37-0.63,6.26c-1.55,1.9-10.83,4.97-14.68-1.45c0,0-0.92-3.11,0-4.53
		c0.92-1.42,4.31-7.2,3.76-7.98s-0.78-6.33,0.32-8.2c1.1-1.88-5.27-9.58,0.73-12.15c0,0-2.11-3.07-2.06-4.4s1.19-27.27,0.78-28.42
		c-0.41-1.15-4.25-17.51-3.94-20.67s0.36-25.71,1.69-26.63s-0.88-0.32-1.25-3.04c-0.36-2.73-1.85,0.62-1.85-1.49
		c0-2.11-2.16,4.99-3.19,1.7c-1.03-3.3-4.53-7.47-5.87-6.44c0,0-6.18-14.37-5.1-18.18c1.08-3.81,6.41-71.12,16.42-69.89
		c0,0,5.57,0.06,5.21-1.46c-0.35-1.52,0.88-13.47,4.16-13.53s9.2-1.17,9.2,0s-0.63-6.21-0.63-6.21s-1.91-1.9-1.87-5.87
		c0.04-3.97,2.16-2.25,2.16-2.25s-0.5-7.16,1.61-9.27C496.07,194.39,495.44,191.94,502.27,190.99z"/>
</g>
<path class="st1" d="M518.83,249.06c0.08-0.01,0.16,0,0.24,0c12.67,0.21,12.49,9.27,12.49,9.27s0.68,7.48,0,8.17
	s-1.04,1.27-1.04,1.27s2.01,0.95,1.64,1.53c-0.37,0.58,0.11,2.54-0.58,2.69c0,0,0.75,3.94-1.87,2.81c0,0-1.74,1.02-0.64,1.27
	c1.11,0.25,3.95-1.19,4.33,0.12c0.38,1.31,4.5,12.18,6.48,12.07c1.98-0.11,1.43,2.81,1.43,2.81l6.11,3.03c0,0,4.51,3.91,4.46,5.45
	c-0.05,1.54,12.65,24.76,12.16,26.02c-0.5,1.27,2.31,28.44,1.1,29.6c-1.21,1.16,0.66,17.88,0,17.93
	c-0.66,0.06-10.73,14.45-12.27,14.39c-1.54-0.06-1.31,3.58-4.5,2.49s-3.72-2.3-3.72-2.3s-1.74,2.98-1.17,2.98s1.38,13.11,0.78,13.11
	s2.13,17.72-0.18,17.86c0,0,0.07,17.47-1.06,17.97c-1.12,0.5,6.92,21.63,4.99,23.25c0,0-0.37,9.1-2.06,9.1s1.99,4.8,1.06,6.17
	c-0.94,1.37-0.79,4.7-2.5,3.34c-1.71-1.36,2.21,11.49-0.58,11.33c-2.79-0.16,9.08,15.33,3.61,16.73c-5.47,1.4-14.67,0.7-14.44-7.57
	c0,0-7.41-2.48-5.28-10.05c0,0-3.37-0.86-2.39-9.47l-2.76-1.32c0,0,0.52-3.68,1.78-4.54c1.26-0.86-1.55-2.41-1.55-2.41
	s-3.27-3.62-0.34-14.88s-1.72-22.63-1.03-28.61s-3.45-14.65-3.22-17.41c0.23-2.76-0.34-3.79-0.34-3.79l-1.21,0.4
	c0,0,1.21,9.31,0,9.88s-1.32,7.53-1.32,7.53s-2.07,18.61-3.79,18.61s1.03,30.1,1.95,30.04c0.92-0.06,0.17,2.64,0.17,2.64
	s1.44,0.11,0.63,1.32c-0.8,1.21-3.04,12.92-5,12.06c-1.95-0.86,0.46,2.81,0,3.16c-0.46,0.34-2.07,5.46-3.85,3.56
	c-1.78-1.9,0.92,4.37-0.63,6.26c-1.55,1.9-10.83,4.97-14.68-1.45c0,0-0.92-3.11,0-4.53s4.31-7.2,3.76-7.98
	c-0.55-0.78-0.78-6.33,0.32-8.2c1.1-1.88-5.27-9.58,0.73-12.15c0,0-2.11-3.07-2.06-4.4s1.19-27.27,0.78-28.42
	c-0.41-1.15-4.25-17.51-3.94-20.67c0.32-3.16,0.36-25.71,1.69-26.63s-0.88-0.32-1.25-3.04s-1.85,0.62-1.85-1.49
	c0-2.11-2.16,4.99-3.19,1.7c-1.03-3.3-4.53-7.47-5.87-6.44c0,0-6.18-14.37-5.1-18.18s6.41-71.12,16.42-69.89
	c0,0,5.57,0.06,5.21-1.46s0.88-13.47,4.16-13.53c3.28-0.06,9.2-1.17,9.2,0c0,1.17-0.63-6.21-0.63-6.21s-1.91-1.9-1.87-5.87
	c0.04-3.97,2.16-2.25,2.16-2.25s-0.5-7.16,1.61-9.27C512.62,252.46,512,250.01,518.83,249.06z"/>
<path class="st0" d="M1118.86,35.22c10.9,0.55,13.72,4.34,13.72,4.34s4.85,17.99,2.04,20.67c0,0-1.86,4.22-2.99,4.75
	c-1.12,0.53,1.55,4.36,1.55,4.36s26.27,10.12,26.27,11.6c0,1.48,8.37,30.39,8.86,30.88c0.49,0.49,2.76,58.33-3.09,58.98l-0.09,5.27
	c0,0-5.79,6.48-7.09,6.48s-1.47,33.62-0.43,34.48c1.04,0.86,5.85,18.36,5.85,18.36l2.65,45.04l-2.47,1.57l0.76,2.42
	c0,0,15.2,13.31-1.89,10.44c0,0-12.25-0.53-11.35-8.32l-0.3-1.94h-3.1l-6-48.12l-8.8-49.72l-0.96-0.19l6.88,95.81l-1.72,2.68
	c0,0,0.81,10.72-5.44,9.35c0,0-21.16,2.66-15.59-3.34c5.57-6,6.77-5.74,6.51-7.45c-0.26-1.71-0.4-2.13-0.4-2.13l-1.62-0.11
	c0,0-3.37-54.13-4.24-59.12c-0.87-4.99-9.78-35.01-9.78-35.01s-3.11,5.08-5.79,4.24s-6.64-0.85-7.06-4.24
	c-0.42-3.39,1.41-97.44,1.41-97.44l19.49-15.96c0,0,1.71-5.14,0.84-5.22s-3.14-3.66-3.7-5.7c-0.56-2.03-3.02-15.36-1.47-18.45
	C1110.34,44.47,1110.31,34.79,1118.86,35.22z"/>
<path class="st0" d="M1056.94,43.72c0.08,0,0.16,0,0.24,0c0.08,0,0.15,0,0.23,0c14.64,0.42,11.9,20.85,11.9,20.85
	s-0.67,5.97-4.04,5.77c0,0-0.58,6.83,5.68,8.66c6.26,1.83,15.78,6.16,17.52,9.91c1.73,3.75,9.24,13.57,9.24,17.71
	s2.69,6.45,2.69,6.45l-2.89,1.25c0,0,1.35,7.22,1.92,7.89c0.58,0.67,3.88,21.66,2.98,26.67c-0.9,5-2.82,18.86-2.57,23.1
	c0.26,4.23-1.03,12.83-5.77,12.45c0,0-4.83,5.15-7.32,3.84c-2.49-1.31-0.07,8.59-0.07,8.59s4.51,53.44,1.63,54.33
	s-0.1,2.18,0.3,2.98c0.4,0.79,1.99,5.86-0.79,5.26s0.5,0.99,3.58,4.97c3.08,3.97,5.46,9.53,1.89,13.01
	c-3.58,3.48-8.94,2.58-8.94,2.58s-5.96-0.89-6.16-3.08c0,0-3.97-4.77-3.48-7.75c0,0-3.97-3.87-2.98-5.76
	c0.99-1.89-3.18,0.6-2.48-2.09c0.7-2.68-2.38-0.7-0.6-3.58c1.79-2.88-3.87-4.37-1.29-5.16c2.58-0.79-0.18-45.28-1.73-48.71
	s-3.89-8.88-4.36-17.28c-0.47-8.41-0.78,4.52-0.78,4.52s1.86,27.09,0,29.27c-1.86,2.18-0.77,24.76-0.77,24.76l0.77,12.61
	c0,0,2.5-0.31,1.09,1.71c-1.4,2.02,0.93,3.27-2.02,2.65c-2.96-0.62,1.71,3.11-0.78,5.29c-2.49,2.18-3.58,5.29-5.14,3.27
	c-1.56-2.02,0.93,6.23-1.25,8.56s-24.13,11.68-19.15,0.16c4.98-11.52,6.07-8.56,6.07-8.56s-1.05-5.37,0.33-4.79
	c1.37,0.58,1.95-4.56,3.76-3.83c1.81,0.72-5.5-4.48-2.82-4.99s-7.88-66.17-6.29-66.61c1.59-0.43-9.63-6.11-9.16-7.79
	c0.47-1.68-0.84-24.97-1.68-26.74c-0.84-1.78-2.99-39.09-1.03-39c1.96,0.09-6.27-6.27-6.27-6.27s10.85-10.94,10.94-17.95
	c0.09-7.01,20.57-14.49,20.57-14.49s3.09-4.4,1.68-7.39c0,0-3.04-1.08-3.04-4.02s-5.55-24.34,6.11-23.24H1056.94z"/>
<path class="st1" d="M723.7,224.27c0.08,0,0.16,0,0.24,0c0.08,0,0.15,0,0.23,0c14.64,0.42,11.9,20.85,11.9,20.85
	s-0.67,5.97-4.04,5.77c0,0-0.58,6.83,5.68,8.66c6.26,1.83,15.78,6.16,17.52,9.91s9.24,13.57,9.24,17.71s2.69,6.45,2.69,6.45
	l-2.89,1.25c0,0,1.35,7.22,1.92,7.89c0.58,0.67,3.88,21.66,2.98,26.67c-0.9,5-2.82,18.86-2.57,23.1c0.26,4.23-1.03,12.83-5.77,12.45
	c0,0-4.83,5.15-7.32,3.84c-2.49-1.31-0.07,8.59-0.07,8.59s4.51,53.44,1.63,54.33c-2.88,0.89-0.1,2.18,0.3,2.98
	c0.4,0.79,1.99,5.86-0.79,5.26c-2.78-0.6,0.5,0.99,3.58,4.97s5.46,9.53,1.89,13.01s-8.94,2.58-8.94,2.58s-5.96-0.89-6.16-3.08
	c0,0-3.97-4.77-3.48-7.75c0,0-3.97-3.87-2.98-5.76c0.99-1.89-3.18,0.6-2.48-2.09c0.7-2.68-2.38-0.7-0.6-3.58
	c1.79-2.88-3.87-4.37-1.29-5.16s-0.18-45.28-1.73-48.71c-1.56-3.43-3.89-8.88-4.36-17.28s-0.78,4.52-0.78,4.52s1.86,27.09,0,29.27
	c-1.86,2.18-0.77,24.76-0.77,24.76l0.77,12.61c0,0,2.5-0.31,1.09,1.71s0.93,3.27-2.02,2.65c-2.96-0.62,1.71,3.11-0.78,5.29
	c-2.49,2.18-3.58,5.29-5.14,3.27s0.93,6.23-1.25,8.56c-2.18,2.34-24.13,11.68-19.15,0.16c4.98-11.52,6.07-8.56,6.07-8.56
	s-1.05-5.37,0.33-4.79c1.37,0.58,1.95-4.56,3.76-3.83c1.81,0.72-5.5-4.48-2.82-4.99s-7.88-66.17-6.29-66.61
	c1.59-0.43-9.63-6.11-9.16-7.79c0.47-1.68-0.84-24.97-1.68-26.74s-2.99-39.09-1.03-39c1.96,0.09-6.27-6.27-6.27-6.27
	s10.85-10.94,10.94-17.95c0.09-7.01,20.57-14.49,20.57-14.49s3.09-4.4,1.68-7.39c0,0-3.04-1.08-3.04-4.02s-5.55-24.34,6.11-23.24
	H723.7z"/>
<path class="st0" d="M742.73,262.97c10.9,0.55,13.72,4.34,13.72,4.34s4.85,17.99,2.04,20.67c0,0-1.86,4.22-2.99,4.75
	s1.55,4.36,1.55,4.36s26.27,10.12,26.27,11.6s8.37,30.39,8.86,30.88c0.49,0.49,2.76,58.33-3.09,58.98l-0.09,5.27
	c0,0-5.79,6.48-7.09,6.48s-1.47,33.62-0.43,34.48c1.04,0.86,5.85,18.36,5.85,18.36l2.65,45.04l-2.47,1.57l0.76,2.42
	c0,0,15.2,13.31-1.89,10.44c0,0-12.25-0.53-11.35-8.32l-0.3-1.94h-3.1l-6-48.12l-8.8-49.72l-0.96-0.19l6.88,95.81l-1.72,2.68
	c0,0,0.81,10.72-5.44,9.35c0,0-21.16,2.66-15.59-3.34c5.57-6,6.77-5.74,6.51-7.45c-0.26-1.71-0.4-2.13-0.4-2.13l-1.62-0.11
	c0,0-3.37-54.13-4.24-59.12c-0.87-4.99-9.78-35.01-9.78-35.01s-3.11,5.08-5.79,4.24c-2.68-0.85-6.64-0.85-7.06-4.24
	c-0.42-3.39,1.41-97.44,1.41-97.44l19.49-15.96c0,0,1.71-5.14,0.84-5.22c-0.87-0.07-3.14-3.66-3.7-5.7
	c-0.56-2.03-3.02-15.36-1.47-18.45C734.21,272.22,734.17,262.54,742.73,262.97z"/>
<g>
	<path class="st1" d="M668.1,212.49c0.08-0.01,0.16,0,0.24,0c12.67,0.21,12.49,9.27,12.49,9.27s0.67,7.48,0,8.17
		c-0.67,0.69-1.04,1.27-1.04,1.27s2.01,0.95,1.64,1.53c-0.37,0.58,0.11,2.54-0.58,2.69c0,0,0.75,3.94-1.87,2.81
		c0,0-1.74,1.02-0.64,1.27c1.11,0.25,3.95-1.19,4.33,0.12s4.5,12.18,6.48,12.07s1.43,2.81,1.43,2.81l6.11,3.03
		c0,0,4.51,3.91,4.46,5.45s12.65,24.76,12.16,26.02c-0.5,1.27,2.31,28.44,1.1,29.6s0.66,17.88,0,17.93s-10.73,14.45-12.27,14.39
		c-1.54-0.06-1.31,3.58-4.5,2.49c-3.19-1.1-3.72-2.3-3.72-2.3s-1.74,2.98-1.17,2.98s1.38,13.11,0.78,13.11
		c-0.6,0,2.13,17.72-0.18,17.86c0,0,0.07,17.47-1.06,17.97c-1.12,0.5,6.92,21.63,4.99,23.25c0,0-0.37,9.1-2.06,9.1
		s1.99,4.8,1.06,6.17c-0.93,1.37-0.79,4.7-2.5,3.34c-1.71-1.36,2.21,11.49-0.58,11.33c-2.79-0.16,9.08,15.33,3.61,16.73
		c-5.47,1.4-14.67,0.7-14.44-7.57c0,0-7.41-2.48-5.28-10.05c0,0-3.37-0.86-2.39-9.47l-2.76-1.32c0,0,0.52-3.68,1.78-4.54
		c1.26-0.86-1.55-2.41-1.55-2.41s-3.27-3.62-0.34-14.88c2.93-11.26-1.72-22.63-1.03-28.61s-3.45-14.65-3.22-17.41
		c0.23-2.76-0.34-3.79-0.34-3.79l-1.21,0.4c0,0,1.21,9.31,0,9.88s-1.32,7.53-1.32,7.53s-2.07,18.61-3.79,18.61
		c-1.72,0,1.03,30.1,1.95,30.04c0.92-0.06,0.17,2.64,0.17,2.64s1.44,0.11,0.63,1.32c-0.8,1.21-3.04,12.92-5,12.06
		c-1.95-0.86,0.46,2.81,0,3.16s-2.07,5.46-3.85,3.56s0.92,4.37-0.63,6.26s-10.83,4.97-14.68-1.45c0,0-0.92-3.11,0-4.53
		c0.92-1.42,4.31-7.2,3.76-7.98s-0.78-6.33,0.32-8.2c1.1-1.88-5.27-9.58,0.73-12.15c0,0-2.11-3.07-2.06-4.4s1.19-27.27,0.78-28.42
		s-4.25-17.51-3.94-20.67c0.32-3.16,0.36-25.71,1.69-26.63s-0.88-0.32-1.25-3.04s-1.85,0.62-1.85-1.49c0-2.11-2.16,4.99-3.19,1.7
		s-4.53-7.47-5.87-6.44c0,0-6.18-14.37-5.1-18.18c1.08-3.81,6.41-71.12,16.42-69.89c0,0,5.57,0.06,5.21-1.46s0.88-13.47,4.16-13.53
		c3.28-0.06,9.2-1.17,9.2,0s-0.63-6.21-0.63-6.21s-1.91-1.9-1.87-5.87s2.16-2.25,2.16-2.25s-0.5-7.16,1.61-9.27
		C661.9,215.88,661.27,213.44,668.1,212.49z"/>
</g>
<path class="st1" d="M688.15,250.88c0.08-0.01,0.16,0,0.24,0c12.67,0.21,12.49,9.27,12.49,9.27s0.67,7.48,0,8.17
	s-1.04,1.27-1.04,1.27s2.01,0.95,1.64,1.53c-0.37,0.58,0.11,2.54-0.58,2.69c0,0,0.75,3.94-1.87,2.81c0,0-1.74,1.02-0.64,1.27
	c1.11,0.25,3.95-1.19,4.33,0.12s4.5,12.18,6.48,12.07c1.98-0.11,1.43,2.81,1.43,2.81l6.11,3.03c0,0,4.51,3.91,4.46,5.45
	c-0.06,1.54,12.65,24.76,12.16,26.02c-0.5,1.27,2.31,28.44,1.1,29.6s0.66,17.88,0,17.93c-0.66,0.06-10.73,14.45-12.27,14.39
	c-1.54-0.06-1.31,3.58-4.5,2.49c-3.19-1.1-3.72-2.3-3.72-2.3s-1.74,2.98-1.17,2.98c0.57,0,1.38,13.11,0.78,13.11
	c-0.6,0,2.13,17.72-0.18,17.86c0,0,0.07,17.47-1.06,17.97s6.92,21.63,4.99,23.25c0,0-0.37,9.1-2.06,9.1s1.99,4.8,1.06,6.17
	c-0.93,1.37-0.79,4.7-2.5,3.34c-1.71-1.36,2.21,11.49-0.58,11.33c-2.79-0.16,9.08,15.33,3.61,16.73c-5.47,1.4-14.67,0.7-14.44-7.57
	c0,0-7.41-2.48-5.28-10.05c0,0-3.37-0.86-2.39-9.47l-2.76-1.32c0,0,0.52-3.68,1.78-4.54c1.26-0.86-1.55-2.41-1.55-2.41
	s-3.27-3.62-0.34-14.88c2.93-11.26-1.72-22.63-1.03-28.61c0.69-5.97-3.45-14.65-3.22-17.41c0.23-2.76-0.34-3.79-0.34-3.79l-1.21,0.4
	c0,0,1.21,9.31,0,9.88c-1.21,0.57-1.32,7.53-1.32,7.53s-2.07,18.61-3.79,18.61s1.03,30.1,1.95,30.04c0.92-0.06,0.17,2.64,0.17,2.64
	s1.44,0.11,0.63,1.32c-0.8,1.21-3.04,12.92-5,12.06c-1.95-0.86,0.46,2.81,0,3.16c-0.46,0.34-2.07,5.46-3.85,3.56
	c-1.78-1.9,0.92,4.37-0.63,6.26s-10.83,4.97-14.68-1.45c0,0-0.92-3.11,0-4.53c0.92-1.42,4.31-7.2,3.76-7.98
	c-0.55-0.78-0.78-6.33,0.32-8.2c1.1-1.88-5.27-9.58,0.73-12.15c0,0-2.11-3.07-2.06-4.4s1.19-27.27,0.78-28.42
	c-0.41-1.15-4.25-17.51-3.94-20.67c0.32-3.16,0.36-25.71,1.69-26.63c1.33-0.92-0.88-0.32-1.25-3.04s-1.85,0.62-1.85-1.49
	s-2.16,4.99-3.19,1.7s-4.53-7.47-5.87-6.44c0,0-6.18-14.37-5.1-18.18c1.08-3.81,6.41-71.12,16.42-69.89c0,0,5.57,0.06,5.21-1.46
	c-0.35-1.52,0.88-13.47,4.16-13.53c3.28-0.06,9.2-1.17,9.2,0s-0.63-6.21-0.63-6.21s-1.91-1.9-1.87-5.87s2.16-2.25,2.16-2.25
	s-0.5-7.16,1.61-9.27C681.94,254.27,681.32,251.83,688.15,250.88z"/>
<path class="st3" d="M637.28,281.69c0.08,0,0.16,0,0.24,0c0.08,0,0.15,0,0.23,0c14.64,0.42,11.9,20.85,11.9,20.85
	s-0.67,5.97-4.04,5.77c0,0-0.58,6.83,5.68,8.66s15.78,6.16,17.52,9.91c1.73,3.75,9.24,13.57,9.24,17.71s2.69,6.45,2.69,6.45
	l-2.89,1.25c0,0,1.35,7.22,1.92,7.89c0.58,0.67,3.88,21.66,2.98,26.67s-2.82,18.86-2.57,23.1c0.26,4.23-1.03,12.83-5.77,12.45
	c0,0-4.83,5.15-7.32,3.84c-2.49-1.31-0.07,8.59-0.07,8.59s4.51,53.44,1.63,54.33c-2.88,0.89-0.1,2.18,0.3,2.98
	c0.4,0.79,1.99,5.86-0.79,5.26c-2.78-0.6,0.5,0.99,3.58,4.97c3.08,3.97,5.46,9.53,1.89,13.01s-8.94,2.58-8.94,2.58
	s-5.96-0.89-6.16-3.08c0,0-3.97-4.77-3.48-7.75c0,0-3.97-3.87-2.98-5.76c0.99-1.89-3.18,0.6-2.48-2.09c0.7-2.68-2.38-0.7-0.6-3.58
	c1.79-2.88-3.87-4.37-1.29-5.16c2.58-0.79-0.18-45.28-1.73-48.71c-1.56-3.43-3.89-8.88-4.36-17.28c-0.47-8.41-0.78,4.52-0.78,4.52
	s1.86,27.09,0,29.27c-1.86,2.18-0.77,24.76-0.77,24.76l0.77,12.61c0,0,2.5-0.31,1.09,1.71c-1.4,2.02,0.93,3.27-2.02,2.65
	c-2.96-0.62,1.71,3.11-0.78,5.29c-2.49,2.18-3.58,5.29-5.14,3.27s0.93,6.23-1.25,8.56c-2.18,2.34-24.13,11.68-19.15,0.16
	c4.98-11.52,6.07-8.56,6.07-8.56s-1.05-5.37,0.33-4.79c1.37,0.58,1.95-4.56,3.76-3.83c1.81,0.72-5.5-4.48-2.82-4.99
	s-7.88-66.17-6.29-66.61c1.59-0.43-9.63-6.11-9.16-7.79c0.47-1.68-0.84-24.97-1.68-26.74s-2.99-39.09-1.03-39
	c1.96,0.09-6.27-6.27-6.27-6.27s10.85-10.94,10.94-17.95S628,316.34,628,316.34s3.09-4.4,1.68-7.39c0,0-3.04-1.08-3.04-4.02
	c0-2.94-5.55-24.34,6.11-23.24H637.28z"/>
<path class="st0" d="M908.74,213.8c0.08,0,0.16,0,0.24,0c0.08,0,0.15,0,0.23,0c14.64,0.42,11.9,20.85,11.9,20.85
	s-0.67,5.97-4.04,5.77c0,0-0.58,6.83,5.68,8.66s15.78,6.16,17.52,9.91s9.24,13.57,9.24,17.71c0,4.14,2.69,6.45,2.69,6.45l-2.89,1.25
	c0,0,1.35,7.22,1.92,7.89c0.58,0.67,3.88,21.66,2.98,26.67c-0.9,5-2.82,18.86-2.57,23.1s-1.03,12.83-5.77,12.45
	c0,0-4.83,5.15-7.32,3.84c-2.49-1.31-0.07,8.59-0.07,8.59s4.51,53.44,1.63,54.33c-2.88,0.89-0.1,2.18,0.3,2.98
	c0.4,0.79,1.99,5.86-0.79,5.26s0.5,0.99,3.58,4.97s5.46,9.53,1.89,13.01s-8.94,2.58-8.94,2.58s-5.96-0.89-6.16-3.08
	c0,0-3.97-4.77-3.48-7.75c0,0-3.97-3.87-2.98-5.76c0.99-1.89-3.18,0.6-2.48-2.09c0.7-2.68-2.38-0.7-0.6-3.58
	c1.79-2.88-3.87-4.37-1.29-5.16c2.58-0.79-0.18-45.28-1.73-48.71c-1.56-3.43-3.89-8.88-4.36-17.28c-0.47-8.41-0.78,4.52-0.78,4.52
	s1.86,27.09,0,29.27c-1.86,2.18-0.77,24.76-0.77,24.76l0.77,12.61c0,0,2.5-0.31,1.09,1.71s0.93,3.27-2.02,2.65
	c-2.96-0.62,1.71,3.11-0.78,5.29c-2.49,2.18-3.58,5.29-5.14,3.27s0.93,6.23-1.25,8.56c-2.18,2.34-24.13,11.68-19.15,0.16
	c4.98-11.52,6.07-8.56,6.07-8.56s-1.05-5.37,0.33-4.79c1.37,0.58,1.95-4.56,3.76-3.83c1.81,0.72-5.5-4.48-2.82-4.99
	s-7.88-66.17-6.29-66.61s-9.63-6.11-9.16-7.79c0.47-1.68-0.84-24.97-1.68-26.74c-0.84-1.78-2.99-39.09-1.03-39
	c1.96,0.09-6.27-6.27-6.27-6.27s10.85-10.94,10.94-17.95s20.57-14.49,20.57-14.49s3.09-4.4,1.68-7.39c0,0-3.04-1.08-3.04-4.02
	s-5.55-24.34,6.11-23.24H908.74z"/>
<g>
	<path class="st0" d="M853.14,202.02c0.08-0.01,0.16,0,0.24,0c12.67,0.21,12.49,9.27,12.49,9.27s0.67,7.48,0,8.17
		c-0.67,0.69-1.04,1.27-1.04,1.27s2.01,0.95,1.64,1.53c-0.37,0.58,0.11,2.54-0.58,2.69c0,0,0.75,3.94-1.87,2.81
		c0,0-1.74,1.02-0.64,1.27c1.11,0.25,3.95-1.19,4.33,0.12s4.5,12.18,6.48,12.07c1.98-0.11,1.43,2.81,1.43,2.81l6.11,3.03
		c0,0,4.51,3.91,4.46,5.45c-0.05,1.54,12.65,24.76,12.16,26.02c-0.5,1.27,2.31,28.44,1.1,29.6c-1.21,1.16,0.66,17.88,0,17.93
		s-10.73,14.45-12.27,14.39c-1.54-0.06-1.31,3.58-4.5,2.49s-3.72-2.3-3.72-2.3s-1.74,2.98-1.17,2.98s1.38,13.11,0.78,13.11
		c-0.6,0,2.13,17.72-0.18,17.86c0,0,0.07,17.47-1.06,17.97c-1.12,0.5,6.92,21.63,4.99,23.25c0,0-0.37,9.1-2.06,9.1
		s1.99,4.8,1.06,6.17c-0.93,1.37-0.79,4.7-2.5,3.34c-1.71-1.36,2.21,11.49-0.58,11.33s9.08,15.33,3.61,16.73
		c-5.47,1.4-14.67,0.7-14.44-7.57c0,0-7.41-2.48-5.28-10.05c0,0-3.37-0.86-2.39-9.47l-2.76-1.32c0,0,0.52-3.68,1.78-4.54
		c1.26-0.86-1.55-2.41-1.55-2.41s-3.27-3.62-0.34-14.88c2.93-11.26-1.72-22.63-1.03-28.61c0.69-5.97-3.45-14.65-3.22-17.41
		s-0.34-3.79-0.34-3.79l-1.21,0.4c0,0,1.21,9.31,0,9.88s-1.32,7.53-1.32,7.53s-2.07,18.61-3.79,18.61s1.03,30.1,1.95,30.04
		c0.92-0.06,0.17,2.64,0.17,2.64s1.44,0.11,0.63,1.32c-0.8,1.21-3.04,12.92-5,12.06s0.46,2.81,0,3.16s-2.07,5.46-3.85,3.56
		s0.92,4.37-0.63,6.26c-1.55,1.9-10.83,4.97-14.68-1.45c0,0-0.92-3.11,0-4.53c0.92-1.42,4.31-7.2,3.76-7.98
		c-0.55-0.78-0.78-6.33,0.32-8.2c1.1-1.88-5.27-9.58,0.73-12.15c0,0-2.11-3.07-2.06-4.4s1.19-27.27,0.78-28.42
		s-4.25-17.51-3.94-20.67c0.32-3.16,0.36-25.71,1.69-26.63c1.33-0.92-0.88-0.32-1.25-3.04s-1.85,0.62-1.85-1.49
		c0-2.11-2.16,4.99-3.19,1.7c-1.03-3.3-4.53-7.47-5.87-6.44c0,0-6.18-14.37-5.1-18.18c1.08-3.81,6.41-71.12,16.42-69.89
		c0,0,5.57,0.06,5.21-1.46c-0.35-1.52,0.88-13.47,4.16-13.53c3.28-0.06,9.2-1.17,9.2,0s-0.63-6.21-0.63-6.21s-1.91-1.9-1.87-5.87
		s2.16-2.25,2.16-2.25s-0.5-7.16,1.61-9.27C846.93,205.41,846.31,202.97,853.14,202.02z"/>
</g>
<path class="st0" d="M873.18,240.41c0.08-0.01,0.16,0,0.24,0c12.67,0.21,12.49,9.27,12.49,9.27s0.67,7.48,0,8.17
	s-1.04,1.27-1.04,1.27s2.01,0.95,1.64,1.53c-0.37,0.58,0.11,2.54-0.58,2.69c0,0,0.75,3.94-1.87,2.81c0,0-1.74,1.02-0.64,1.27
	c1.11,0.25,3.95-1.19,4.33,0.12c0.38,1.31,4.5,12.18,6.48,12.07c1.98-0.11,1.43,2.81,1.43,2.81l6.11,3.03c0,0,4.51,3.91,4.46,5.45
	c-0.06,1.54,12.65,24.76,12.16,26.02c-0.5,1.27,2.31,28.44,1.1,29.6s0.66,17.88,0,17.93c-0.66,0.06-10.73,14.45-12.27,14.39
	c-1.54-0.06-1.31,3.58-4.5,2.49c-3.19-1.1-3.72-2.3-3.72-2.3s-1.74,2.98-1.17,2.98c0.57,0,1.38,13.11,0.78,13.11
	c-0.6,0,2.13,17.72-0.18,17.86c0,0,0.07,17.47-1.06,17.97s6.92,21.63,4.99,23.25c0,0-0.37,9.1-2.06,9.1s1.99,4.8,1.06,6.17
	c-0.94,1.37-0.79,4.7-2.5,3.34c-1.71-1.36,2.21,11.49-0.58,11.33c-2.79-0.16,9.08,15.33,3.61,16.73c-5.47,1.4-14.67,0.7-14.44-7.57
	c0,0-7.41-2.48-5.28-10.05c0,0-3.37-0.86-2.39-9.47l-2.76-1.32c0,0,0.52-3.68,1.78-4.54c1.26-0.86-1.55-2.41-1.55-2.41
	s-3.27-3.62-0.34-14.88c2.93-11.26-1.72-22.63-1.03-28.61s-3.45-14.65-3.22-17.41c0.23-2.76-0.34-3.79-0.34-3.79l-1.21,0.4
	c0,0,1.21,9.31,0,9.88c-1.21,0.57-1.32,7.53-1.32,7.53s-2.07,18.61-3.79,18.61c-1.72,0,1.03,30.1,1.95,30.04
	c0.92-0.06,0.17,2.64,0.17,2.64s1.44,0.11,0.63,1.32c-0.8,1.21-3.04,12.92-5,12.06c-1.95-0.86,0.46,2.81,0,3.16
	s-2.07,5.46-3.85,3.56c-1.78-1.9,0.92,4.37-0.63,6.26s-10.83,4.97-14.68-1.45c0,0-0.92-3.11,0-4.53c0.92-1.42,4.31-7.2,3.76-7.98
	c-0.55-0.78-0.78-6.33,0.32-8.2c1.1-1.88-5.27-9.58,0.73-12.15c0,0-2.11-3.07-2.06-4.4s1.19-27.27,0.78-28.42
	c-0.41-1.15-4.25-17.51-3.94-20.67c0.32-3.16,0.36-25.71,1.69-26.63c1.33-0.92-0.88-0.32-1.25-3.04s-1.85,0.62-1.85-1.49
	c0-2.11-2.16,4.99-3.19,1.7c-1.03-3.3-4.53-7.47-5.87-6.44c0,0-6.18-14.37-5.1-18.18c1.08-3.81,6.41-71.12,16.42-69.89
	c0,0,5.57,0.06,5.21-1.46s0.88-13.47,4.16-13.53s9.2-1.17,9.2,0c0,1.17-0.63-6.21-0.63-6.21s-1.91-1.9-1.87-5.87
	c0.04-3.97,2.16-2.25,2.16-2.25s-0.5-7.16,1.61-9.27C866.98,243.8,866.35,241.36,873.18,240.41z"/>
<path class="st0" d="M822.32,271.22c0.08,0,0.16,0,0.24,0c0.08,0,0.15,0,0.23,0c14.64,0.42,11.9,20.85,11.9,20.85
	s-0.67,5.97-4.04,5.77c0,0-0.58,6.83,5.68,8.66s15.78,6.16,17.52,9.91s9.24,13.57,9.24,17.71s2.69,6.45,2.69,6.45l-2.89,1.25
	c0,0,1.35,7.22,1.92,7.89c0.58,0.67,3.88,21.66,2.98,26.67c-0.9,5-2.82,18.86-2.57,23.1c0.26,4.23-1.03,12.83-5.77,12.45
	c0,0-4.83,5.15-7.32,3.84c-2.49-1.31-0.07,8.59-0.07,8.59s4.51,53.44,1.63,54.33c-2.88,0.89-0.1,2.18,0.3,2.98s1.99,5.86-0.79,5.26
	c-2.78-0.6,0.5,0.99,3.58,4.97s5.46,9.53,1.89,13.01s-8.94,2.58-8.94,2.58s-5.96-0.89-6.16-3.08c0,0-3.97-4.77-3.48-7.75
	c0,0-3.97-3.87-2.98-5.76c0.99-1.89-3.18,0.6-2.48-2.09s-2.38-0.7-0.6-3.58c1.79-2.88-3.87-4.37-1.29-5.16s-0.18-45.28-1.73-48.71
	c-1.56-3.43-3.89-8.88-4.36-17.28s-0.78,4.52-0.78,4.52s1.86,27.09,0,29.27c-1.86,2.18-0.77,24.76-0.77,24.76l0.77,12.61
	c0,0,2.5-0.31,1.09,1.71c-1.4,2.02,0.93,3.27-2.02,2.65c-2.96-0.62,1.71,3.11-0.78,5.29c-2.49,2.18-3.58,5.29-5.14,3.27
	s0.93,6.23-1.25,8.56c-2.18,2.34-24.13,11.68-19.15,0.16s6.07-8.56,6.07-8.56s-1.05-5.37,0.33-4.79c1.37,0.58,1.95-4.56,3.76-3.83
	c1.81,0.72-5.5-4.48-2.82-4.99s-7.88-66.17-6.29-66.61c1.59-0.43-9.63-6.11-9.16-7.79c0.47-1.68-0.84-24.97-1.68-26.74
	s-2.99-39.09-1.03-39c1.96,0.09-6.27-6.27-6.27-6.27s10.85-10.94,10.94-17.95s20.57-14.49,20.57-14.49s3.09-4.4,1.68-7.39
	c0,0-3.04-1.08-3.04-4.02c0-2.94-5.55-24.34,6.11-23.24H822.32z"/>
<path class="st0" d="M1119.46,130.66c10.9,0.55,13.72,4.34,13.72,4.34s4.85,17.99,2.04,20.67c0,0-1.86,4.22-2.99,4.75
	c-1.12,0.53,1.55,4.36,1.55,4.36s26.27,10.12,26.27,11.6s8.37,30.39,8.86,30.88s2.76,58.33-3.09,58.98l-0.09,5.27
	c0,0-5.79,6.48-7.09,6.48s-1.47,33.62-0.43,34.48c1.04,0.86,5.85,18.36,5.85,18.36l2.65,45.04l-2.47,1.57l0.76,2.42
	c0,0,15.2,13.31-1.89,10.44c0,0-12.25-0.53-11.35-8.32l-0.3-1.94h-3.1l-6-48.12l-8.8-49.72l-0.96-0.19l6.88,95.81l-1.72,2.68
	c0,0,0.81,10.72-5.44,9.35c0,0-21.16,2.66-15.59-3.34c5.57-6,6.77-5.74,6.51-7.45c-0.26-1.71-0.4-2.13-0.4-2.13l-1.62-0.11
	c0,0-3.37-54.13-4.24-59.12c-0.87-4.99-9.78-35.01-9.78-35.01s-3.11,5.08-5.79,4.24c-2.68-0.85-6.64-0.85-7.06-4.24
	c-0.42-3.39,1.41-97.44,1.41-97.44l19.49-15.96c0,0,1.71-5.14,0.84-5.22s-3.14-3.66-3.7-5.7c-0.56-2.03-3.02-15.36-1.47-18.45
	C1110.94,139.92,1110.9,130.23,1119.46,130.66z"/>
<path class="st0" d="M1054.59,138.25c0.08,0,0.16,0,0.24,0c0.08,0,0.15,0,0.23,0c14.64,0.42,11.9,20.85,11.9,20.85
	s-0.67,5.97-4.04,5.77c0,0-0.58,6.83,5.68,8.66c6.26,1.83,15.78,6.16,17.52,9.91c1.73,3.75,9.24,13.57,9.24,17.71
	s2.69,6.45,2.69,6.45l-2.89,1.25c0,0,1.35,7.22,1.92,7.89s3.88,21.66,2.98,26.67c-0.9,5-2.82,18.86-2.57,23.1
	c0.26,4.23-1.03,12.83-5.77,12.45c0,0-4.83,5.15-7.32,3.84c-2.49-1.31-0.07,8.59-0.07,8.59s4.51,53.44,1.63,54.33
	c-2.88,0.89-0.1,2.18,0.3,2.98c0.4,0.79,1.99,5.86-0.79,5.26c-2.78-0.6,0.5,0.99,3.58,4.97s5.46,9.53,1.89,13.01
	c-3.58,3.48-8.94,2.58-8.94,2.58s-5.96-0.89-6.16-3.08c0,0-3.97-4.77-3.48-7.75c0,0-3.97-3.87-2.98-5.76
	c0.99-1.89-3.18,0.6-2.48-2.09c0.7-2.68-2.38-0.7-0.6-3.58c1.79-2.88-3.87-4.37-1.29-5.16s-0.18-45.28-1.73-48.71
	c-1.56-3.43-3.89-8.88-4.36-17.28s-0.78,4.52-0.78,4.52s1.86,27.09,0,29.27c-1.86,2.18-0.77,24.76-0.77,24.76l0.77,12.61
	c0,0,2.5-0.31,1.09,1.71c-1.4,2.02,0.93,3.27-2.02,2.65c-2.96-0.62,1.71,3.11-0.78,5.29c-2.49,2.18-3.58,5.29-5.14,3.27
	c-1.56-2.02,0.93,6.23-1.25,8.56c-2.18,2.34-24.13,11.68-19.15,0.16s6.07-8.56,6.07-8.56s-1.05-5.37,0.33-4.79s1.95-4.56,3.76-3.83
	s-5.5-4.48-2.82-4.99s-7.88-66.17-6.29-66.61c1.59-0.43-9.63-6.11-9.16-7.79c0.47-1.68-0.84-24.97-1.68-26.74
	c-0.84-1.78-2.99-39.09-1.03-39c1.96,0.09-6.27-6.27-6.27-6.27s10.85-10.94,10.94-17.95c0.09-7.01,20.57-14.49,20.57-14.49
	s3.09-4.4,1.68-7.39c0,0-3.04-1.08-3.04-4.02c0-2.94-5.55-24.34,6.11-23.24H1054.59z"/>
<path class="st3" d="M150.23,57.33c0.08,0,0.16,0,0.24,0c0.08,0,0.15,0,0.23,0c14.64,0.42,11.9,20.85,11.9,20.85
	s-0.67,5.97-4.04,5.77c0,0-0.58,6.83,5.68,8.66c6.26,1.83,15.78,6.16,17.52,9.91s9.24,13.57,9.24,17.71c0,4.14,2.69,6.45,2.69,6.45
	l-2.89,1.25c0,0,1.35,7.22,1.92,7.89c0.58,0.67,3.88,21.66,2.98,26.67c-0.9,5-2.82,18.86-2.57,23.1c0.26,4.23-1.03,12.83-5.77,12.45
	c0,0-4.83,5.15-7.32,3.84c-2.49-1.31-0.07,8.59-0.07,8.59s4.51,53.44,1.63,54.33s-0.1,2.18,0.3,2.98s1.99,5.86-0.79,5.26
	c-2.78-0.6,0.5,0.99,3.58,4.97c3.08,3.97,5.46,9.53,1.89,13.01c-3.58,3.48-8.94,2.58-8.94,2.58s-5.96-0.89-6.16-3.08
	c0,0-3.97-4.77-3.48-7.75c0,0-3.97-3.87-2.98-5.76c0.99-1.89-3.18,0.6-2.48-2.09c0.7-2.68-2.38-0.7-0.6-3.58
	c1.79-2.88-3.87-4.37-1.29-5.16c2.58-0.79-0.18-45.28-1.73-48.71s-3.89-8.88-4.36-17.28c-0.47-8.41-0.78,4.52-0.78,4.52
	s1.86,27.09,0,29.27s-0.77,24.76-0.77,24.76l0.77,12.61c0,0,2.5-0.31,1.1,1.71s0.93,3.27-2.02,2.65c-2.96-0.62,1.71,3.11-0.78,5.29
	c-2.49,2.18-3.58,5.29-5.14,3.27c-1.56-2.02,0.93,6.23-1.25,8.56s-24.13,11.68-19.15,0.16c4.98-11.52,6.07-8.56,6.07-8.56
	s-1.05-5.37,0.33-4.79c1.37,0.58,1.95-4.56,3.76-3.83c1.81,0.72-5.5-4.48-2.82-4.99s-7.88-66.17-6.29-66.61s-9.63-6.11-9.16-7.79
	c0.47-1.68-0.84-24.97-1.68-26.74s-2.99-39.09-1.03-39c1.96,0.09-6.27-6.27-6.27-6.27s10.85-10.94,10.94-17.95
	s20.57-14.49,20.57-14.49s3.09-4.4,1.68-7.39c0,0-3.04-1.08-3.04-4.02c0-2.94-5.55-24.34,6.11-23.24H150.23z"/>
<path class="st2" d="M169.25,96.02c10.9,0.55,13.72,4.34,13.72,4.34s4.85,17.99,2.04,20.67c0,0-1.86,4.22-2.99,4.75
	c-1.12,0.53,1.55,4.36,1.55,4.36s26.27,10.12,26.27,11.6c0,1.48,8.37,30.39,8.86,30.88c0.49,0.49,2.76,58.33-3.09,58.98l-0.09,5.27
	c0,0-5.79,6.48-7.09,6.48s-1.47,33.62-0.43,34.48c1.04,0.86,5.85,18.36,5.85,18.36l2.65,45.04l-2.47,1.57l0.76,2.42
	c0,0,15.2,13.31-1.89,10.44c0,0-12.25-0.53-11.35-8.32l-0.3-1.94h-3.1l-6-48.12l-8.8-49.72l-0.96-0.19l6.88,95.81l-1.72,2.68
	c0,0,0.81,10.72-5.44,9.35c0,0-21.16,2.66-15.59-3.34c5.57-6,6.77-5.74,6.51-7.45c-0.26-1.71-0.4-2.13-0.4-2.13l-1.62-0.11
	c0,0-3.37-54.13-4.24-59.12c-0.87-4.99-9.78-35.01-9.78-35.01s-3.11,5.08-5.79,4.24c-2.68-0.85-6.64-0.85-7.06-4.24
	c-0.42-3.39,1.41-97.44,1.41-97.44l19.49-15.96c0,0,1.71-5.14,0.84-5.22c-0.87-0.07-3.14-3.66-3.7-5.7
	c-0.56-2.03-3.02-15.36-1.47-18.45C160.73,105.28,160.7,95.59,169.25,96.02z"/>
<g>
	<path class="st1" d="M94.62,45.54c0.08-0.01,0.16,0,0.24,0c12.67,0.21,12.49,9.27,12.49,9.27s0.68,7.48,0,8.17
		c-0.67,0.69-1.04,1.27-1.04,1.27s2.01,0.95,1.64,1.53s0.11,2.54-0.58,2.69c0,0,0.75,3.94-1.87,2.81c0,0-1.74,1.02-0.64,1.27
		c1.11,0.25,3.95-1.19,4.33,0.12c0.38,1.31,4.5,12.18,6.48,12.07s1.43,2.81,1.43,2.81l6.11,3.03c0,0,4.51,3.91,4.46,5.45
		s12.65,24.76,12.16,26.02c-0.5,1.27,2.31,28.44,1.1,29.6s0.66,17.88,0,17.93c-0.66,0.06-10.73,14.45-12.27,14.39
		c-1.54-0.06-1.31,3.58-4.5,2.49c-3.19-1.1-3.72-2.3-3.72-2.3s-1.74,2.98-1.17,2.98c0.57,0,1.38,13.11,0.78,13.11
		c-0.6,0,2.13,17.72-0.18,17.86c0,0,0.07,17.47-1.06,17.97c-1.12,0.5,6.92,21.63,4.99,23.25c0,0-0.37,9.1-2.06,9.1
		c-1.68,0,1.99,4.8,1.06,6.17s-0.79,4.7-2.5,3.34c-1.71-1.36,2.21,11.49-0.58,11.33s9.08,15.33,3.61,16.73
		c-5.47,1.4-14.67,0.7-14.44-7.57c0,0-7.41-2.48-5.28-10.05c0,0-3.37-0.86-2.39-9.47l-2.76-1.32c0,0,0.52-3.68,1.78-4.54
		c1.26-0.86-1.55-2.41-1.55-2.41s-3.27-3.62-0.34-14.88c2.93-11.26-1.72-22.63-1.03-28.61s-3.45-14.65-3.22-17.41
		c0.23-2.76-0.34-3.79-0.34-3.79l-1.21,0.4c0,0,1.21,9.31,0,9.88s-1.32,7.53-1.32,7.53s-2.07,18.61-3.79,18.61s1.03,30.1,1.95,30.04
		s0.17,2.64,0.17,2.64s1.44,0.11,0.63,1.32c-0.8,1.21-3.04,12.92-5,12.06c-1.95-0.86,0.46,2.81,0,3.16s-2.07,5.46-3.85,3.56
		s0.92,4.37-0.63,6.26c-1.55,1.9-10.83,4.97-14.68-1.45c0,0-0.92-3.11,0-4.53s4.31-7.2,3.76-7.98c-0.55-0.78-0.78-6.33,0.32-8.2
		c1.1-1.88-5.27-9.58,0.73-12.15c0,0-2.11-3.07-2.06-4.4c0.05-1.33,1.19-27.27,0.78-28.42c-0.41-1.15-4.25-17.51-3.94-20.67
		c0.32-3.16,0.36-25.71,1.69-26.63c1.33-0.92-0.88-0.32-1.25-3.04c-0.36-2.73-1.85,0.62-1.85-1.49c0-2.11-2.16,4.99-3.19,1.7
		s-4.53-7.47-5.87-6.44c0,0-6.18-14.37-5.1-18.18s6.41-71.12,16.42-69.89c0,0,5.57,0.06,5.21-1.46s0.88-13.47,4.16-13.53
		c3.28-0.06,9.2-1.17,9.2,0c0,1.17-0.63-6.21-0.63-6.21s-1.91-1.9-1.87-5.87c0.04-3.97,2.16-2.25,2.16-2.25s-0.5-7.16,1.61-9.27
		C88.42,48.94,87.8,46.49,94.62,45.54z"/>
</g>
<path class="st1" d="M114.67,83.94c0.08-0.01,0.16,0,0.24,0c12.67,0.21,12.49,9.27,12.49,9.27s0.68,7.48,0,8.17
	c-0.67,0.69-1.04,1.27-1.04,1.27s2.01,0.95,1.64,1.53s0.11,2.54-0.58,2.69c0,0,0.75,3.94-1.87,2.81c0,0-1.74,1.02-0.64,1.27
	c1.11,0.25,3.95-1.19,4.33,0.12c0.38,1.31,4.5,12.18,6.48,12.07c1.98-0.11,1.43,2.81,1.43,2.81l6.11,3.03c0,0,4.51,3.91,4.46,5.45
	c-0.06,1.54,12.65,24.76,12.16,26.02s2.31,28.44,1.1,29.6c-1.21,1.16,0.66,17.88,0,17.93c-0.66,0.06-10.73,14.45-12.27,14.39
	c-1.54-0.06-1.31,3.58-4.5,2.49c-3.19-1.1-3.72-2.3-3.72-2.3s-1.74,2.98-1.17,2.98s1.38,13.11,0.78,13.11s2.13,17.72-0.18,17.86
	c0,0,0.07,17.47-1.06,17.97c-1.12,0.5,6.92,21.63,4.99,23.25c0,0-0.37,9.1-2.06,9.1s1.99,4.8,1.06,6.17s-0.79,4.7-2.5,3.34
	c-1.71-1.36,2.21,11.49-0.58,11.33c-2.79-0.16,9.08,15.33,3.61,16.73c-5.47,1.4-14.67,0.7-14.44-7.57c0,0-7.41-2.48-5.28-10.05
	c0,0-3.37-0.86-2.39-9.47l-2.76-1.32c0,0,0.52-3.68,1.78-4.54c1.26-0.86-1.55-2.41-1.55-2.41s-3.27-3.62-0.34-14.88
	s-1.72-22.63-1.03-28.61s-3.45-14.65-3.22-17.41c0.23-2.76-0.34-3.79-0.34-3.79l-1.21,0.4c0,0,1.21,9.31,0,9.88
	c-1.21,0.57-1.32,7.53-1.32,7.53s-2.07,18.61-3.79,18.61s1.03,30.1,1.95,30.04c0.92-0.06,0.17,2.64,0.17,2.64s1.44,0.11,0.63,1.32
	c-0.8,1.21-3.04,12.92-5,12.06c-1.95-0.86,0.46,2.81,0,3.16s-2.07,5.46-3.85,3.56c-1.78-1.9,0.92,4.37-0.63,6.26
	s-10.83,4.97-14.68-1.45c0,0-0.92-3.11,0-4.53c0.92-1.42,4.31-7.2,3.76-7.98c-0.55-0.78-0.78-6.33,0.32-8.2
	c1.1-1.88-5.27-9.58,0.73-12.15c0,0-2.11-3.07-2.06-4.4c0.05-1.33,1.19-27.27,0.78-28.42c-0.41-1.15-4.25-17.51-3.94-20.67
	c0.32-3.16,0.36-25.71,1.69-26.63c1.33-0.92-0.88-0.32-1.25-3.04s-1.85,0.62-1.85-1.49c0-2.11-2.16,4.99-3.19,1.7
	s-4.53-7.47-5.87-6.44c0,0-6.18-14.37-5.1-18.18c1.08-3.81,6.41-71.12,16.42-69.89c0,0,5.57,0.06,5.21-1.46
	c-0.35-1.52,0.88-13.47,4.16-13.53c3.28-0.06,9.2-1.17,9.2,0c0,1.17-0.63-6.21-0.63-6.21s-1.91-1.9-1.87-5.87
	c0.04-3.97,2.16-2.25,2.16-2.25s-0.5-7.16,1.61-9.27C108.47,87.33,107.84,84.89,114.67,83.94z"/>
<path class="st3" d="M63.81,114.75c0.08,0,0.16,0,0.24,0c0.08,0,0.15,0,0.23,0c14.64,0.42,11.9,20.85,11.9,20.85
	s-0.67,5.97-4.04,5.77c0,0-0.58,6.83,5.68,8.66c6.26,1.83,15.78,6.16,17.52,9.91c1.73,3.75,9.24,13.57,9.24,17.71
	c0,4.14,2.69,6.45,2.69,6.45l-2.89,1.25c0,0,1.35,7.22,1.92,7.89c0.58,0.67,3.88,21.66,2.98,26.67c-0.9,5-2.82,18.86-2.57,23.1
	c0.26,4.23-1.03,12.83-5.77,12.45c0,0-4.83,5.15-7.32,3.84c-2.49-1.31-0.07,8.59-0.07,8.59s4.51,53.44,1.63,54.33
	c-2.88,0.89-0.1,2.18,0.3,2.98c0.4,0.79,1.99,5.86-0.79,5.26c-2.78-0.6,0.5,0.99,3.58,4.97s5.46,9.53,1.89,13.01
	s-8.94,2.58-8.94,2.58s-5.96-0.89-6.16-3.08c0,0-3.97-4.77-3.48-7.75c0,0-3.97-3.87-2.98-5.76c0.99-1.89-3.18,0.6-2.48-2.09
	c0.7-2.68-2.38-0.7-0.6-3.58c1.79-2.88-3.87-4.37-1.29-5.16c2.58-0.79-0.18-45.28-1.73-48.71c-1.56-3.43-3.89-8.88-4.36-17.28
	s-0.78,4.52-0.78,4.52s1.86,27.09,0,29.27c-1.86,2.18-0.77,24.76-0.77,24.76l0.77,12.61c0,0,2.5-0.31,1.1,1.71s0.93,3.27-2.02,2.65
	c-2.96-0.62,1.71,3.11-0.78,5.29c-2.49,2.18-3.58,5.29-5.14,3.27s0.93,6.23-1.25,8.56c-2.18,2.34-24.13,11.68-19.15,0.16
	s6.07-8.56,6.07-8.56s-1.05-5.37,0.33-4.79c1.37,0.58,1.95-4.56,3.76-3.83c1.81,0.72-5.5-4.48-2.82-4.99
	c2.68-0.51-7.88-66.17-6.29-66.61c1.59-0.43-9.63-6.11-9.16-7.79c0.47-1.68-0.84-24.97-1.68-26.74c-0.84-1.78-2.99-39.09-1.03-39
	c1.96,0.09-6.27-6.27-6.27-6.27s10.85-10.94,10.94-17.95s20.57-14.49,20.57-14.49s3.09-4.4,1.68-7.39c0,0-3.04-1.08-3.04-4.02
	s-5.55-24.34,6.11-23.24H63.81z"/>
<path class="st3" d="M335.26,46.86c0.08,0,0.16,0,0.24,0c0.08,0,0.15,0,0.23,0c14.64,0.42,11.9,20.85,11.9,20.85
	s-0.67,5.97-4.04,5.77c0,0-0.58,6.83,5.68,8.66c6.26,1.83,15.78,6.16,17.52,9.91c1.73,3.75,9.24,13.57,9.24,17.71
	c0,4.14,2.69,6.45,2.69,6.45l-2.89,1.25c0,0,1.35,7.22,1.92,7.89s3.88,21.66,2.98,26.67c-0.9,5-2.82,18.86-2.57,23.1
	c0.26,4.23-1.03,12.83-5.77,12.45c0,0-4.83,5.15-7.32,3.84C362.58,190.1,365,200,365,200s4.51,53.44,1.63,54.33
	c-2.88,0.89-0.1,2.18,0.3,2.98c0.4,0.79,1.99,5.86-0.79,5.26c-2.78-0.6,0.5,0.99,3.58,4.97c3.08,3.97,5.46,9.53,1.89,13.01
	c-3.58,3.48-8.94,2.58-8.94,2.58s-5.96-0.89-6.16-3.08c0,0-3.97-4.77-3.48-7.75c0,0-3.97-3.87-2.98-5.76
	c0.99-1.89-3.18,0.6-2.48-2.09c0.7-2.68-2.38-0.7-0.6-3.58c1.79-2.88-3.87-4.37-1.29-5.16c2.58-0.79-0.18-45.28-1.73-48.71
	c-1.56-3.43-3.89-8.88-4.36-17.28s-0.78,4.52-0.78,4.52s1.86,27.09,0,29.27c-1.86,2.18-0.77,24.76-0.77,24.76l0.77,12.61
	c0,0,2.5-0.31,1.1,1.71s0.93,3.27-2.02,2.65s1.71,3.11-0.78,5.29c-2.49,2.18-3.58,5.29-5.14,3.27c-1.56-2.02,0.93,6.23-1.25,8.56
	c-2.18,2.34-24.13,11.68-19.15,0.16c4.98-11.52,6.07-8.56,6.07-8.56s-1.05-5.37,0.33-4.79c1.37,0.58,1.95-4.56,3.76-3.83
	s-5.5-4.48-2.82-4.99s-7.88-66.17-6.29-66.61c1.59-0.43-9.63-6.11-9.16-7.79c0.47-1.68-0.84-24.97-1.68-26.74
	c-0.84-1.78-2.99-39.09-1.03-39s-6.27-6.27-6.27-6.27s10.85-10.94,10.94-17.95c0.09-7.01,20.57-14.49,20.57-14.49
	s3.09-4.4,1.68-7.39c0,0-3.04-1.08-3.04-4.02c0-2.94-5.55-24.34,6.11-23.24H335.26z"/>
<path class="st2" d="M354.29,85.55c10.9,0.55,13.72,4.34,13.72,4.34s4.85,17.99,2.04,20.67c0,0-1.86,4.22-2.99,4.75
	c-1.12,0.53,1.55,4.36,1.55,4.36s26.27,10.12,26.27,11.6s8.37,30.39,8.86,30.88s2.76,58.33-3.09,58.98l-0.09,5.27
	c0,0-5.79,6.48-7.09,6.48s-1.47,33.62-0.43,34.48c1.04,0.86,5.85,18.36,5.85,18.36l2.65,45.04l-2.47,1.57l0.76,2.42
	c0,0,15.2,13.31-1.89,10.44c0,0-12.25-0.53-11.35-8.32l-0.3-1.94h-3.1l-6-48.12l-8.8-49.72l-0.96-0.19l6.88,95.81l-1.72,2.68
	c0,0,0.81,10.72-5.44,9.35c0,0-21.16,2.66-15.59-3.34s6.77-5.74,6.51-7.45c-0.26-1.71-0.4-2.13-0.4-2.13l-1.62-0.11
	c0,0-3.37-54.13-4.24-59.12c-0.87-4.99-9.78-35.01-9.78-35.01s-3.11,5.08-5.79,4.24c-2.68-0.85-6.64-0.85-7.06-4.24
	c-0.42-3.39,1.41-97.44,1.41-97.44l19.49-15.96c0,0,1.71-5.14,0.84-5.22c-0.87-0.07-3.14-3.66-3.7-5.7
	c-0.56-2.03-3.02-15.36-1.47-18.45C345.77,94.8,345.73,85.12,354.29,85.55z"/>
<g>
	<path class="st1" d="M279.66,35.07c0.08-0.01,0.16,0,0.24,0c12.67,0.21,12.49,9.27,12.49,9.27s0.68,7.48,0,8.17
		c-0.67,0.69-1.04,1.27-1.04,1.27s2.01,0.95,1.64,1.53c-0.37,0.58,0.11,2.54-0.58,2.69c0,0,0.75,3.94-1.87,2.81
		c0,0-1.74,1.02-0.64,1.27s3.95-1.19,4.33,0.12s4.5,12.18,6.48,12.07s1.43,2.81,1.43,2.81l6.11,3.03c0,0,4.51,3.91,4.46,5.45
		c-0.06,1.54,12.65,24.76,12.16,26.02c-0.5,1.27,2.31,28.44,1.1,29.6c-1.21,1.16,0.66,17.88,0,17.93
		c-0.66,0.06-10.73,14.45-12.27,14.39c-1.54-0.06-1.31,3.58-4.5,2.49c-3.19-1.1-3.72-2.3-3.72-2.3s-1.74,2.98-1.17,2.98
		c0.57,0,1.38,13.11,0.78,13.11s2.13,17.72-0.18,17.86c0,0,0.07,17.47-1.06,17.97c-1.12,0.5,6.92,21.63,4.99,23.25
		c0,0-0.37,9.1-2.06,9.1s1.99,4.8,1.06,6.17c-0.93,1.37-0.79,4.7-2.5,3.34c-1.71-1.36,2.21,11.49-0.58,11.33
		c-2.79-0.16,9.08,15.33,3.61,16.73c-5.47,1.4-14.67,0.7-14.44-7.57c0,0-7.41-2.48-5.28-10.05c0,0-3.37-0.86-2.39-9.47l-2.76-1.32
		c0,0,0.52-3.68,1.78-4.54c1.26-0.86-1.55-2.41-1.55-2.41s-3.27-3.62-0.34-14.88c2.93-11.26-1.72-22.63-1.03-28.61
		c0.69-5.97-3.45-14.65-3.22-17.41s-0.34-3.79-0.34-3.79l-1.21,0.4c0,0,1.21,9.31,0,9.88c-1.21,0.57-1.32,7.53-1.32,7.53
		s-2.07,18.61-3.79,18.61s1.03,30.1,1.95,30.04c0.92-0.06,0.17,2.64,0.17,2.64s1.44,0.11,0.63,1.32s-3.04,12.92-5,12.06
		c-1.95-0.86,0.46,2.81,0,3.16c-0.46,0.34-2.07,5.46-3.85,3.56c-1.78-1.9,0.92,4.37-0.63,6.26s-10.83,4.97-14.68-1.45
		c0,0-0.92-3.11,0-4.53s4.31-7.2,3.76-7.98c-0.55-0.78-0.78-6.33,0.32-8.2c1.1-1.88-5.27-9.58,0.73-12.15c0,0-2.11-3.07-2.06-4.4
		s1.19-27.27,0.78-28.42c-0.41-1.15-4.25-17.51-3.94-20.67c0.32-3.16,0.36-25.71,1.69-26.63s-0.88-0.32-1.25-3.04
		s-1.85,0.62-1.85-1.49s-2.16,4.99-3.19,1.7c-1.03-3.3-4.53-7.47-5.87-6.44c0,0-6.18-14.37-5.1-18.18
		c1.08-3.81,6.41-71.12,16.42-69.89c0,0,5.57,0.06,5.21-1.46s0.88-13.47,4.16-13.53c3.28-0.06,9.2-1.17,9.2,0
		c0,1.17-0.63-6.21-0.63-6.21s-1.91-1.9-1.87-5.87s2.16-2.25,2.16-2.25s-0.5-7.16,1.61-9.27C273.46,38.47,272.83,36.02,279.66,35.07
		z"/>
</g>
<path class="st1" d="M299.71,73.46c0.08-0.01,0.16,0,0.24,0c12.67,0.21,12.49,9.27,12.49,9.27s0.68,7.48,0,8.17
	c-0.67,0.69-1.04,1.27-1.04,1.27s2.01,0.95,1.64,1.53s0.11,2.54-0.58,2.69c0,0,0.75,3.94-1.87,2.81c0,0-1.74,1.02-0.64,1.27
	c1.11,0.25,3.95-1.19,4.33,0.12c0.38,1.31,4.5,12.18,6.48,12.07s1.43,2.81,1.43,2.81l6.11,3.03c0,0,4.51,3.91,4.46,5.45
	s12.65,24.76,12.16,26.02c-0.5,1.27,2.31,28.44,1.1,29.6c-1.21,1.16,0.66,17.88,0,17.93s-10.73,14.45-12.27,14.39
	c-1.54-0.06-1.31,3.58-4.5,2.49c-3.19-1.1-3.72-2.3-3.72-2.3s-1.74,2.98-1.17,2.98c0.57,0,1.38,13.11,0.78,13.11
	c-0.6,0,2.13,17.72-0.18,17.86c0,0,0.07,17.47-1.06,17.97c-1.12,0.5,6.92,21.63,4.99,23.25c0,0-0.37,9.1-2.06,9.1
	s1.99,4.8,1.06,6.17s-0.79,4.7-2.5,3.34c-1.71-1.36,2.21,11.49-0.58,11.33c-2.79-0.16,9.08,15.33,3.61,16.73
	c-5.47,1.4-14.67,0.7-14.44-7.57c0,0-7.41-2.48-5.28-10.05c0,0-3.37-0.86-2.39-9.47l-2.76-1.32c0,0,0.52-3.68,1.78-4.54
	c1.26-0.86-1.55-2.41-1.55-2.41s-3.27-3.62-0.34-14.88s-1.72-22.63-1.03-28.61c0.69-5.97-3.45-14.65-3.22-17.41
	c0.23-2.76-0.34-3.79-0.34-3.79l-1.21,0.4c0,0,1.21,9.31,0,9.88c-1.21,0.57-1.32,7.53-1.32,7.53s-2.07,18.61-3.79,18.61
	c-1.72,0,1.03,30.1,1.95,30.04c0.92-0.06,0.17,2.64,0.17,2.64s1.44,0.11,0.63,1.32c-0.8,1.21-3.04,12.92-5,12.06
	c-1.95-0.86,0.46,2.81,0,3.16c-0.46,0.34-2.07,5.46-3.85,3.56c-1.78-1.9,0.92,4.37-0.63,6.26c-1.55,1.9-10.83,4.97-14.68-1.45
	c0,0-0.92-3.11,0-4.53s4.31-7.2,3.76-7.98s-0.78-6.33,0.32-8.2c1.1-1.88-5.27-9.58,0.73-12.15c0,0-2.11-3.07-2.06-4.4
	s1.19-27.27,0.78-28.42c-0.41-1.15-4.25-17.51-3.94-20.67c0.32-3.16,0.36-25.71,1.69-26.63s-0.88-0.32-1.25-3.04
	c-0.36-2.73-1.85,0.62-1.85-1.49s-2.16,4.99-3.19,1.7s-4.53-7.47-5.87-6.44c0,0-6.18-14.37-5.1-18.18
	c1.08-3.81,6.41-71.12,16.42-69.89c0,0,5.57,0.06,5.21-1.46c-0.35-1.52,0.88-13.47,4.16-13.53c3.28-0.06,9.2-1.17,9.2,0
	c0,1.17-0.63-6.21-0.63-6.21s-1.91-1.9-1.87-5.87c0.04-3.97,2.16-2.25,2.16-2.25s-0.5-7.16,1.61-9.27S292.88,74.41,299.71,73.46z"/>
<path class="st3" d="M248.84,104.28c0.08,0,0.16,0,0.24,0c0.08,0,0.15,0,0.23,0c14.64,0.42,11.9,20.85,11.9,20.85
	s-0.67,5.97-4.04,5.77c0,0-0.58,6.83,5.68,8.66c6.26,1.83,15.78,6.16,17.52,9.91c1.73,3.75,9.24,13.57,9.24,17.71
	c0,4.14,2.69,6.45,2.69,6.45l-2.89,1.25c0,0,1.35,7.22,1.92,7.89c0.58,0.67,3.88,21.66,2.98,26.67c-0.9,5-2.82,18.86-2.57,23.1
	c0.26,4.23-1.03,12.83-5.77,12.45c0,0-4.83,5.15-7.32,3.84c-2.49-1.31-0.07,8.59-0.07,8.59s4.51,53.44,1.63,54.33
	c-2.88,0.89-0.1,2.18,0.3,2.98c0.4,0.79,1.99,5.86-0.79,5.26s0.5,0.99,3.58,4.97c3.08,3.97,5.46,9.53,1.89,13.01
	s-8.94,2.58-8.94,2.58s-5.96-0.89-6.16-3.08c0,0-3.97-4.77-3.48-7.75c0,0-3.97-3.87-2.98-5.76c0.99-1.89-3.18,0.6-2.48-2.09
	c0.7-2.68-2.38-0.7-0.6-3.58c1.79-2.88-3.87-4.37-1.29-5.16c2.58-0.79-0.18-45.28-1.73-48.71c-1.56-3.43-3.89-8.88-4.36-17.28
	c-0.47-8.41-0.78,4.52-0.78,4.52s1.86,27.09,0,29.27c-1.86,2.18-0.77,24.76-0.77,24.76l0.77,12.61c0,0,2.5-0.31,1.1,1.71
	s0.93,3.27-2.02,2.65c-2.96-0.62,1.71,3.11-0.78,5.29c-2.49,2.18-3.58,5.29-5.14,3.27s0.93,6.23-1.25,8.56
	c-2.18,2.34-24.13,11.68-19.15,0.16c4.98-11.52,6.07-8.56,6.07-8.56s-1.05-5.37,0.33-4.79c1.37,0.58,1.95-4.56,3.76-3.83
	c1.81,0.72-5.5-4.48-2.82-4.99c2.68-0.51-7.88-66.17-6.29-66.61c1.59-0.43-9.63-6.11-9.16-7.79c0.47-1.68-0.84-24.97-1.68-26.74
	s-2.99-39.09-1.03-39c1.96,0.09-6.27-6.27-6.27-6.27s10.85-10.94,10.94-17.95c0.09-7.01,20.57-14.49,20.57-14.49s3.09-4.4,1.68-7.39
	c0,0-3.04-1.08-3.04-4.02s-5.55-24.34,6.11-23.24H248.84z"/>
<path class="st3" d="M133.73,229.53c0.08,0,0.16,0,0.24,0c0.08,0,0.15,0,0.23,0c14.64,0.42,11.9,20.85,11.9,20.85
	s-0.67,5.97-4.04,5.77c0,0-0.58,6.83,5.68,8.66c6.26,1.83,15.78,6.16,17.52,9.91s9.24,13.57,9.24,17.71s2.69,6.45,2.69,6.45
	l-2.89,1.25c0,0,1.35,7.22,1.92,7.89c0.58,0.67,3.88,21.66,2.98,26.67c-0.9,5-2.82,18.86-2.57,23.1c0.26,4.23-1.03,12.83-5.77,12.45
	c0,0-4.83,5.15-7.32,3.84c-2.49-1.31-0.07,8.59-0.07,8.59s4.51,53.44,1.63,54.33c-2.88,0.89-0.1,2.18,0.3,2.98
	c0.4,0.79,1.99,5.86-0.79,5.26c-2.78-0.6,0.5,0.99,3.58,4.97c3.08,3.97,5.46,9.53,1.89,13.01c-3.58,3.48-8.94,2.58-8.94,2.58
	s-5.96-0.89-6.16-3.08c0,0-3.97-4.77-3.48-7.75c0,0-3.97-3.87-2.98-5.76c0.99-1.89-3.18,0.6-2.48-2.09c0.7-2.68-2.38-0.7-0.6-3.58
	c1.79-2.88-3.87-4.37-1.29-5.16c2.58-0.79-0.18-45.28-1.73-48.71c-1.56-3.43-3.89-8.88-4.36-17.28s-0.78,4.52-0.78,4.52
	s1.86,27.09,0,29.27c-1.86,2.18-0.77,24.76-0.77,24.76l0.77,12.61c0,0,2.5-0.31,1.1,1.71c-1.4,2.02,0.93,3.27-2.02,2.65
	c-2.96-0.62,1.71,3.11-0.78,5.29s-3.58,5.29-5.14,3.27s0.93,6.23-1.25,8.56c-2.18,2.34-24.13,11.68-19.15,0.16
	c4.98-11.52,6.07-8.56,6.07-8.56s-1.05-5.37,0.33-4.79s1.95-4.56,3.76-3.83c1.81,0.72-5.5-4.48-2.82-4.99s-7.88-66.17-6.29-66.61
	c1.59-0.43-9.63-6.11-9.16-7.79c0.47-1.68-0.84-24.97-1.68-26.74s-2.99-39.09-1.03-39c1.96,0.09-6.27-6.27-6.27-6.27
	s10.85-10.94,10.94-17.95s20.57-14.49,20.57-14.49s3.09-4.4,1.68-7.39c0,0-3.04-1.08-3.04-4.02c0-2.94-5.55-24.34,6.11-23.24H133.73
	z"/>
<path class="st2" d="M189.04,148.55c10.9,0.55,13.72,4.34,13.72,4.34s4.85,17.99,2.04,20.67c0,0-1.86,4.22-2.99,4.75
	c-1.12,0.53,1.55,4.36,1.55,4.36s26.27,10.12,26.27,11.6c0,1.48,8.37,30.39,8.86,30.88s2.76,58.33-3.09,58.98l-0.09,5.27
	c0,0-5.79,6.48-7.09,6.48s-1.47,33.62-0.43,34.48c1.04,0.86,5.85,18.36,5.85,18.36l2.65,45.04l-2.47,1.57l0.76,2.42
	c0,0,15.2,13.31-1.89,10.44c0,0-12.25-0.53-11.35-8.32l-0.3-1.94h-3.1l-6-48.12l-8.8-49.72l-0.96-0.19l6.88,95.81l-1.72,2.68
	c0,0,0.81,10.72-5.44,9.35c0,0-21.16,2.66-15.59-3.34c5.57-6,6.77-5.74,6.51-7.45c-0.26-1.71-0.4-2.13-0.4-2.13l-1.62-0.11
	c0,0-3.37-54.13-4.24-59.12c-0.87-4.99-9.78-35.01-9.78-35.01s-3.11,5.08-5.79,4.24s-6.64-0.85-7.06-4.24
	c-0.42-3.39,1.41-97.44,1.41-97.44l19.49-15.96c0,0,1.71-5.14,0.84-5.22c-0.87-0.07-3.14-3.66-3.7-5.7
	c-0.56-2.03-3.02-15.36-1.47-18.45C180.52,157.8,180.48,148.12,189.04,148.55z"/>
<path class="st3" d="M77.88,260.01c0.08,0,0.16,0,0.24,0c0.08,0,0.15,0,0.23,0c14.64,0.42,11.9,20.85,11.9,20.85
	s-0.67,5.97-4.04,5.77c0,0-0.58,6.83,5.68,8.66c6.26,1.83,15.78,6.16,17.52,9.91c1.73,3.75,9.24,13.57,9.24,17.71
	c0,4.14,2.69,6.45,2.69,6.45l-2.89,1.25c0,0,1.35,7.22,1.92,7.89c0.58,0.67,3.88,21.66,2.98,26.67s-2.82,18.86-2.57,23.1
	c0.26,4.23-1.03,12.83-5.77,12.45c0,0-4.83,5.15-7.32,3.84s-0.07,8.59-0.07,8.59s4.51,53.44,1.63,54.33
	c-2.88,0.89-0.1,2.18,0.3,2.98c0.4,0.79,1.99,5.86-0.79,5.26c-2.78-0.6,0.5,0.99,3.58,4.97c3.08,3.97,5.46,9.53,1.89,13.01
	s-8.94,2.58-8.94,2.58s-5.96-0.89-6.16-3.08c0,0-3.97-4.77-3.48-7.75c0,0-3.97-3.87-2.98-5.76c0.99-1.89-3.18,0.6-2.48-2.09
	s-2.38-0.7-0.6-3.58c1.79-2.88-3.87-4.37-1.29-5.16c2.58-0.79-0.18-45.28-1.73-48.71c-1.56-3.43-3.89-8.88-4.36-17.28
	c-0.47-8.41-0.78,4.52-0.78,4.52s1.86,27.09,0,29.27c-1.86,2.18-0.77,24.76-0.77,24.76l0.77,12.61c0,0,2.5-0.31,1.1,1.71
	c-1.4,2.02,0.93,3.27-2.02,2.65c-2.96-0.62,1.71,3.11-0.78,5.29c-2.49,2.18-3.58,5.29-5.14,3.27c-1.56-2.02,0.93,6.23-1.25,8.56
	s-24.13,11.68-19.15,0.16s6.07-8.56,6.07-8.56s-1.05-5.37,0.33-4.79c1.37,0.58,1.95-4.56,3.76-3.83c1.81,0.72-5.5-4.48-2.82-4.99
	s-7.88-66.17-6.29-66.61c1.59-0.43-9.63-6.11-9.16-7.79s-0.84-24.97-1.68-26.74c-0.84-1.78-2.99-39.09-1.03-39s-6.27-6.27-6.27-6.27
	s10.85-10.94,10.94-17.95s20.57-14.49,20.57-14.49s3.09-4.4,1.68-7.39c0,0-3.04-1.08-3.04-4.02s-5.55-24.34,6.11-23.24H77.88z"/>
<path class="st1" d="M273.36,120.65c0.08-0.01,0.16,0,0.24,0c12.67,0.21,12.49,9.27,12.49,9.27s0.68,7.48,0,8.17
	s-1.04,1.27-1.04,1.27s2.01,0.95,1.64,1.53s0.11,2.54-0.58,2.69c0,0,0.75,3.94-1.87,2.81c0,0-1.74,1.02-0.64,1.27
	c1.11,0.25,3.95-1.19,4.33,0.12s4.5,12.18,6.48,12.07c1.98-0.11,1.43,2.81,1.43,2.81l6.11,3.03c0,0,4.51,3.91,4.46,5.45
	c-0.06,1.54,12.65,24.76,12.16,26.02c-0.5,1.27,2.31,28.44,1.1,29.6s0.66,17.88,0,17.93c-0.66,0.06-10.73,14.45-12.27,14.39
	c-1.54-0.06-1.31,3.58-4.5,2.49c-3.19-1.1-3.72-2.3-3.72-2.3s-1.74,2.98-1.17,2.98c0.57,0,1.38,13.11,0.78,13.11
	s2.13,17.72-0.18,17.86c0,0,0.07,17.47-1.06,17.97c-1.12,0.5,6.92,21.63,4.99,23.25c0,0-0.37,9.1-2.06,9.1
	c-1.68,0,1.99,4.8,1.06,6.17s-0.79,4.7-2.5,3.34c-1.71-1.36,2.21,11.49-0.58,11.33s9.08,15.33,3.61,16.73
	c-5.47,1.4-14.67,0.7-14.44-7.57c0,0-7.41-2.48-5.28-10.05c0,0-3.37-0.86-2.39-9.47l-2.76-1.32c0,0,0.52-3.68,1.78-4.54
	s-1.55-2.41-1.55-2.41s-3.27-3.62-0.34-14.88c2.93-11.26-1.72-22.63-1.03-28.61c0.69-5.97-3.45-14.65-3.22-17.41
	c0.23-2.76-0.34-3.79-0.34-3.79l-1.21,0.4c0,0,1.21,9.31,0,9.88c-1.21,0.57-1.32,7.53-1.32,7.53s-2.07,18.61-3.79,18.61
	c-1.72,0,1.03,30.1,1.95,30.04c0.92-0.06,0.17,2.64,0.17,2.64s1.44,0.11,0.63,1.32c-0.8,1.21-3.04,12.92-5,12.06
	c-1.95-0.86,0.46,2.81,0,3.16c-0.46,0.34-2.07,5.46-3.85,3.56c-1.78-1.9,0.92,4.37-0.63,6.26c-1.55,1.9-10.83,4.97-14.68-1.45
	c0,0-0.92-3.11,0-4.53c0.92-1.42,4.31-7.2,3.76-7.98c-0.55-0.78-0.78-6.33,0.32-8.2c1.1-1.88-5.27-9.58,0.73-12.15
	c0,0-2.11-3.07-2.06-4.4s1.19-27.27,0.78-28.42c-0.41-1.15-4.25-17.51-3.94-20.67c0.32-3.16,0.36-25.71,1.69-26.63
	c1.33-0.92-0.88-0.32-1.25-3.04c-0.36-2.73-1.85,0.62-1.85-1.49c0-2.11-2.16,4.99-3.19,1.7c-1.03-3.3-4.53-7.47-5.87-6.44
	c0,0-6.18-14.37-5.1-18.18c1.08-3.81,6.41-71.12,16.42-69.89c0,0,5.57,0.06,5.21-1.46c-0.35-1.52,0.88-13.47,4.16-13.53
	c3.28-0.06,9.2-1.17,9.2,0c0,1.17-0.63-6.21-0.63-6.21s-1.91-1.9-1.87-5.87c0.04-3.97,2.16-2.25,2.16-2.25s-0.5-7.16,1.61-9.27
	C267.16,124.04,266.54,121.6,273.36,120.65z"/>
<path class="st2" d="M416.37,70.62c10.9,0.55,13.72,4.34,13.72,4.34s4.85,17.99,2.04,20.67c0,0-1.86,4.22-2.99,4.75
	c-1.12,0.53,1.55,4.36,1.55,4.36s26.27,10.12,26.27,11.6c0,1.48,8.37,30.39,8.86,30.88c0.49,0.49,2.76,58.33-3.09,58.98l-0.09,5.27
	c0,0-5.79,6.48-7.09,6.48s-1.47,33.62-0.43,34.48s5.85,18.36,5.85,18.36l2.65,45.04l-2.47,1.57l0.76,2.42c0,0,15.2,13.31-1.89,10.44
	c0,0-12.25-0.53-11.35-8.32l-0.3-1.94h-3.1l-6-48.12l-8.8-49.72l-0.96-0.19l6.88,95.81l-1.72,2.68c0,0,0.81,10.72-5.44,9.35
	c0,0-21.16,2.66-15.59-3.34c5.57-6,6.77-5.74,6.51-7.45c-0.26-1.71-0.4-2.13-0.4-2.13l-1.62-0.11c0,0-3.37-54.13-4.24-59.12
	c-0.87-4.99-9.78-35.01-9.78-35.01s-3.11,5.08-5.79,4.24c-2.68-0.85-6.64-0.85-7.06-4.24c-0.42-3.39,1.41-97.44,1.41-97.44
	l19.49-15.96c0,0,1.71-5.14,0.84-5.22c-0.87-0.07-3.14-3.66-3.7-5.7c-0.56-2.03-3.02-15.36-1.47-18.45
	C407.85,79.87,407.81,70.19,416.37,70.62z"/>
<path class="st1" d="M383.07,126.51c0.08-0.01,0.16,0,0.24,0c12.67,0.21,12.49,9.27,12.49,9.27s0.67,7.48,0,8.17
	c-0.67,0.69-1.04,1.27-1.04,1.27s2.01,0.95,1.64,1.53s0.11,2.54-0.58,2.69c0,0,0.75,3.94-1.87,2.81c0,0-1.74,1.02-0.64,1.27
	s3.95-1.19,4.33,0.12c0.38,1.31,4.5,12.18,6.48,12.07s1.43,2.81,1.43,2.81l6.11,3.03c0,0,4.51,3.91,4.46,5.45
	c-0.06,1.54,12.65,24.76,12.16,26.02c-0.5,1.27,2.31,28.44,1.1,29.6c-1.21,1.16,0.66,17.88,0,17.93
	c-0.66,0.06-10.73,14.45-12.27,14.39s-1.31,3.58-4.5,2.49c-3.19-1.1-3.72-2.3-3.72-2.3s-1.74,2.98-1.17,2.98
	c0.57,0,1.38,13.11,0.78,13.11c-0.6,0,2.13,17.72-0.18,17.86c0,0,0.07,17.47-1.06,17.97c-1.12,0.5,6.92,21.63,4.99,23.25
	c0,0-0.37,9.1-2.06,9.1s1.99,4.8,1.06,6.17s-0.79,4.7-2.5,3.34c-1.71-1.36,2.21,11.49-0.58,11.33s9.08,15.33,3.61,16.73
	c-5.47,1.4-14.67,0.7-14.44-7.57c0,0-7.41-2.48-5.28-10.05c0,0-3.37-0.86-2.39-9.47l-2.76-1.32c0,0,0.52-3.68,1.78-4.54
	c1.26-0.86-1.55-2.41-1.55-2.41s-3.27-3.62-0.34-14.88c2.93-11.26-1.72-22.63-1.03-28.61s-3.45-14.65-3.22-17.41
	c0.23-2.76-0.34-3.79-0.34-3.79l-1.21,0.4c0,0,1.21,9.31,0,9.88c-1.21,0.57-1.32,7.53-1.32,7.53s-2.07,18.61-3.79,18.61
	s1.03,30.1,1.95,30.04c0.92-0.06,0.17,2.64,0.17,2.64s1.44,0.11,0.63,1.32c-0.8,1.21-3.04,12.92-5,12.06
	c-1.95-0.86,0.46,2.81,0,3.16s-2.07,5.46-3.85,3.56c-1.78-1.9,0.92,4.37-0.63,6.26s-10.83,4.97-14.68-1.45c0,0-0.92-3.11,0-4.53
	s4.31-7.2,3.76-7.98c-0.55-0.78-0.78-6.33,0.32-8.2c1.1-1.88-5.27-9.58,0.73-12.15c0,0-2.11-3.07-2.06-4.4s1.19-27.27,0.78-28.42
	s-4.25-17.51-3.94-20.67c0.32-3.16,0.36-25.71,1.69-26.63s-0.88-0.32-1.25-3.04s-1.85,0.62-1.85-1.49c0-2.11-2.16,4.99-3.19,1.7
	c-1.03-3.3-4.53-7.47-5.87-6.44c0,0-6.18-14.37-5.1-18.18c1.08-3.81,6.41-71.12,16.42-69.89c0,0,5.57,0.06,5.21-1.46
	s0.88-13.47,4.16-13.53c3.28-0.06,9.2-1.17,9.2,0c0,1.17-0.63-6.21-0.63-6.21s-1.91-1.9-1.87-5.87c0.04-3.97,2.16-2.25,2.16-2.25
	s-0.5-7.16,1.61-9.27C376.87,129.91,376.24,127.46,383.07,126.51z"/>
<path class="st2" d="M328.53,175.37c10.9,0.55,13.72,4.34,13.72,4.34s4.85,17.99,2.04,20.67c0,0-1.86,4.22-2.99,4.75
	c-1.12,0.53,1.55,4.36,1.55,4.36s26.27,10.12,26.27,11.6c0,1.48,8.37,30.39,8.86,30.88c0.49,0.49,2.76,58.33-3.09,58.98l-0.09,5.27
	c0,0-5.79,6.48-7.09,6.48c-1.3,0-1.47,33.62-0.43,34.48c1.04,0.86,5.85,18.36,5.85,18.36l2.65,45.04l-2.47,1.57l0.76,2.42
	c0,0,15.2,13.31-1.89,10.44c0,0-12.25-0.53-11.35-8.32l-0.3-1.94h-3.1l-6-48.12l-8.8-49.72l-0.96-0.19l6.88,95.81l-1.72,2.68
	c0,0,0.81,10.72-5.44,9.35c0,0-21.16,2.66-15.59-3.34c5.57-6,6.77-5.74,6.51-7.45c-0.26-1.71-0.4-2.13-0.4-2.13l-1.62-0.11
	c0,0-3.37-54.13-4.24-59.12c-0.87-4.99-9.78-35.01-9.78-35.01s-3.11,5.08-5.79,4.24s-6.64-0.85-7.06-4.24
	c-0.42-3.39,1.41-97.44,1.41-97.44l19.49-15.96c0,0,1.71-5.14,0.84-5.22s-3.14-3.66-3.7-5.7c-0.56-2.03-3.02-15.36-1.47-18.45
	C320.01,184.62,319.97,174.94,328.53,175.37z"/>
<path class="st3" d="M232.39,207.77c0.08,0,0.16,0,0.24,0c0.08,0,0.15,0,0.23,0c14.64,0.42,11.9,20.85,11.9,20.85
	s-0.67,5.97-4.04,5.77c0,0-0.58,6.83,5.68,8.66c6.26,1.83,15.78,6.16,17.52,9.91c1.73,3.75,9.24,13.57,9.24,17.71
	c0,4.14,2.69,6.45,2.69,6.45l-2.89,1.25c0,0,1.35,7.22,1.92,7.89c0.58,0.67,3.88,21.66,2.98,26.67c-0.9,5-2.82,18.86-2.57,23.1
	s-1.03,12.83-5.77,12.45c0,0-4.83,5.15-7.32,3.84c-2.49-1.31-0.07,8.59-0.07,8.59s4.51,53.44,1.63,54.33
	c-2.88,0.89-0.1,2.18,0.3,2.98c0.4,0.79,1.99,5.86-0.79,5.26c-2.78-0.6,0.5,0.99,3.58,4.97c3.08,3.97,5.46,9.53,1.89,13.01
	c-3.58,3.48-8.94,2.58-8.94,2.58s-5.96-0.89-6.16-3.08c0,0-3.97-4.77-3.48-7.75c0,0-3.97-3.87-2.98-5.76
	c0.99-1.89-3.18,0.6-2.48-2.09c0.7-2.68-2.38-0.7-0.6-3.58c1.79-2.88-3.87-4.37-1.29-5.16c2.58-0.79-0.18-45.28-1.73-48.71
	s-3.89-8.88-4.36-17.28c-0.47-8.41-0.78,4.52-0.78,4.52s1.86,27.09,0,29.27c-1.86,2.18-0.77,24.76-0.77,24.76l0.77,12.61
	c0,0,2.5-0.31,1.1,1.71c-1.4,2.02,0.93,3.27-2.02,2.65c-2.96-0.62,1.71,3.11-0.78,5.29c-2.49,2.18-3.58,5.29-5.14,3.27
	c-1.56-2.02,0.93,6.23-1.25,8.56s-24.13,11.68-19.15,0.16c4.98-11.52,6.07-8.56,6.07-8.56s-1.05-5.37,0.33-4.79
	c1.37,0.58,1.95-4.56,3.76-3.83c1.81,0.72-5.5-4.48-2.82-4.99c2.68-0.51-7.88-66.17-6.29-66.61s-9.63-6.11-9.16-7.79
	c0.47-1.68-0.84-24.97-1.68-26.74c-0.84-1.78-2.99-39.09-1.03-39c1.96,0.09-6.27-6.27-6.27-6.27s10.85-10.94,10.94-17.95
	c0.09-7.01,20.57-14.49,20.57-14.49s3.09-4.4,1.68-7.39c0,0-3.04-1.08-3.04-4.02c0-2.94-5.55-24.34,6.11-23.24H232.39z"/>
<path class="st3" d="M294.02,237.24c0.08,0,0.16,0,0.24,0c0.08,0,0.15,0,0.23,0c14.64,0.42,11.9,20.85,11.9,20.85
	s-0.67,5.97-4.04,5.77c0,0-0.58,6.83,5.68,8.66c6.26,1.83,15.78,6.16,17.52,9.91s9.24,13.57,9.24,17.71s2.69,6.45,2.69,6.45
	l-2.89,1.25c0,0,1.35,7.22,1.92,7.89c0.58,0.67,3.88,21.66,2.98,26.67c-0.9,5-2.82,18.86-2.57,23.1c0.26,4.23-1.03,12.83-5.77,12.45
	c0,0-4.83,5.15-7.32,3.84c-2.49-1.31-0.07,8.59-0.07,8.59s4.51,53.44,1.63,54.33c-2.88,0.89-0.1,2.18,0.3,2.98
	c0.4,0.79,1.99,5.86-0.79,5.26c-2.78-0.6,0.5,0.99,3.58,4.97c3.08,3.97,5.46,9.53,1.89,13.01s-8.94,2.58-8.94,2.58
	s-5.96-0.89-6.16-3.08c0,0-3.97-4.77-3.48-7.75c0,0-3.97-3.87-2.98-5.76c0.99-1.89-3.18,0.6-2.48-2.09c0.7-2.68-2.38-0.7-0.6-3.58
	c1.79-2.88-3.87-4.37-1.29-5.16c2.58-0.79-0.18-45.28-1.73-48.71c-1.56-3.43-3.89-8.88-4.36-17.28s-0.78,4.52-0.78,4.52
	s1.86,27.09,0,29.27c-1.86,2.18-0.77,24.76-0.77,24.76l0.77,12.61c0,0,2.5-0.31,1.1,1.71c-1.4,2.02,0.93,3.27-2.02,2.65
	c-2.96-0.62,1.71,3.11-0.78,5.29c-2.49,2.18-3.58,5.29-5.14,3.27c-1.56-2.02,0.93,6.23-1.25,8.56c-2.18,2.34-24.13,11.68-19.15,0.16
	s6.07-8.56,6.07-8.56s-1.05-5.37,0.33-4.79c1.37,0.58,1.95-4.56,3.76-3.83c1.81,0.72-5.5-4.48-2.82-4.99s-7.88-66.17-6.29-66.61
	c1.59-0.43-9.63-6.11-9.16-7.79c0.47-1.68-0.84-24.97-1.68-26.74s-2.99-39.09-1.03-39c1.96,0.09-6.27-6.27-6.27-6.27
	s10.85-10.94,10.94-17.95c0.09-7.01,20.57-14.49,20.57-14.49s3.09-4.4,1.68-7.39c0,0-3.04-1.08-3.04-4.02
	c0-2.94-5.55-24.34,6.11-23.24H294.02z"/>
<path class="st3" d="M414.25,203.33c0.08,0,0.16,0,0.24,0c0.08,0,0.15,0,0.23,0c14.64,0.42,11.9,20.85,11.9,20.85
	s-0.67,5.97-4.04,5.77c0,0-0.58,6.83,5.68,8.66c6.26,1.83,15.78,6.16,17.52,9.91c1.73,3.75,9.24,13.57,9.24,17.71
	s2.69,6.45,2.69,6.45l-2.89,1.25c0,0,1.35,7.22,1.92,7.89c0.58,0.67,3.88,21.66,2.98,26.67c-0.9,5-2.82,18.86-2.57,23.1
	c0.26,4.23-1.03,12.83-5.77,12.45c0,0-4.83,5.15-7.32,3.84c-2.49-1.31-0.07,8.59-0.07,8.59s4.51,53.44,1.63,54.33
	c-2.88,0.89-0.1,2.18,0.3,2.98c0.4,0.79,1.99,5.86-0.79,5.26c-2.78-0.6,0.5,0.99,3.58,4.97c3.08,3.97,5.46,9.53,1.89,13.01
	s-8.94,2.58-8.94,2.58s-5.96-0.89-6.16-3.08c0,0-3.97-4.77-3.48-7.75c0,0-3.97-3.87-2.98-5.76c0.99-1.89-3.18,0.6-2.48-2.09
	s-2.38-0.7-0.6-3.58c1.79-2.88-3.87-4.37-1.29-5.16c2.58-0.79-0.18-45.28-1.73-48.71c-1.56-3.43-3.89-8.88-4.36-17.28
	s-0.78,4.52-0.78,4.52s1.86,27.09,0,29.27c-1.86,2.18-0.77,24.76-0.77,24.76l0.77,12.61c0,0,2.5-0.31,1.1,1.71
	c-1.4,2.02,0.93,3.27-2.02,2.65c-2.96-0.62,1.71,3.11-0.78,5.29c-2.49,2.18-3.58,5.29-5.14,3.27c-1.56-2.02,0.93,6.23-1.25,8.56
	c-2.18,2.34-24.13,11.68-19.15,0.16s6.07-8.56,6.07-8.56s-1.05-5.37,0.33-4.79c1.37,0.58,1.95-4.56,3.76-3.83s-5.5-4.48-2.82-4.99
	s-7.88-66.17-6.29-66.61c1.59-0.43-9.63-6.11-9.16-7.79c0.47-1.68-0.84-24.97-1.68-26.74s-2.99-39.09-1.03-39
	c1.96,0.09-6.27-6.27-6.27-6.27s10.85-10.94,10.94-17.95c0.09-7.01,20.57-14.49,20.57-14.49s3.09-4.4,1.68-7.39
	c0,0-3.04-1.08-3.04-4.02c0-2.94-5.55-24.34,6.11-23.24H414.25z"/>
<path class="st3" d="M455.65,272.2c0.08,0,0.16,0,0.24,0c0.08,0,0.15,0,0.23,0c14.64,0.42,11.9,20.85,11.9,20.85
	s-0.67,5.97-4.04,5.77c0,0-0.58,6.83,5.68,8.66s15.78,6.16,17.52,9.91c1.73,3.75,9.24,13.57,9.24,17.71s2.69,6.45,2.69,6.45
	l-2.89,1.25c0,0,1.35,7.22,1.92,7.89s3.88,21.66,2.98,26.67c-0.9,5-2.82,18.86-2.57,23.1c0.26,4.23-1.03,12.83-5.77,12.45
	c0,0-4.83,5.15-7.32,3.84c-2.49-1.31-0.07,8.59-0.07,8.59s4.51,53.44,1.63,54.33c-2.88,0.89-0.1,2.18,0.3,2.98
	c0.4,0.79,1.99,5.86-0.79,5.26c-2.78-0.6,0.5,0.99,3.58,4.97s5.46,9.53,1.89,13.01c-3.58,3.48-8.94,2.58-8.94,2.58
	s-5.96-0.89-6.16-3.08c0,0-3.97-4.77-3.48-7.75c0,0-3.97-3.87-2.98-5.76c0.99-1.89-3.18,0.6-2.48-2.09c0.7-2.68-2.38-0.7-0.6-3.58
	c1.79-2.88-3.87-4.37-1.29-5.16s-0.18-45.28-1.73-48.71c-1.56-3.43-3.89-8.88-4.36-17.28c-0.47-8.41-0.78,4.52-0.78,4.52
	s1.86,27.09,0,29.27c-1.86,2.18-0.77,24.76-0.77,24.76l0.77,12.61c0,0,2.5-0.31,1.1,1.71c-1.4,2.02,0.93,3.27-2.02,2.65
	c-2.96-0.62,1.71,3.11-0.78,5.29s-3.58,5.29-5.14,3.27c-1.56-2.02,0.93,6.23-1.25,8.56c-2.18,2.34-24.13,11.68-19.15,0.16
	c4.98-11.52,6.07-8.56,6.07-8.56s-1.05-5.37,0.33-4.79s1.95-4.56,3.76-3.83s-5.5-4.48-2.82-4.99c2.68-0.51-7.88-66.17-6.29-66.61
	c1.59-0.43-9.63-6.11-9.16-7.79c0.47-1.68-0.84-24.97-1.68-26.74c-0.84-1.78-2.99-39.09-1.03-39c1.96,0.09-6.27-6.27-6.27-6.27
	s10.85-10.94,10.94-17.95c0.09-7.01,20.57-14.49,20.57-14.49s3.09-4.4,1.68-7.39c0,0-3.04-1.08-3.04-4.02
	c0-2.94-5.55-24.34,6.11-23.24H455.65z"/>
<g>
	<path class="st1" d="M164.57,247.48c0.08-0.01,0.16,0,0.24,0c12.67,0.21,12.49,9.27,12.49,9.27s0.68,7.48,0,8.17
		s-1.04,1.27-1.04,1.27s2.01,0.95,1.64,1.53c-0.37,0.58,0.11,2.54-0.58,2.69c0,0,0.75,3.94-1.87,2.81c0,0-1.74,1.02-0.64,1.27
		c1.11,0.25,3.95-1.19,4.33,0.12s4.5,12.18,6.48,12.07c1.98-0.11,1.43,2.81,1.43,2.81l6.11,3.03c0,0,4.51,3.91,4.46,5.45
		c-0.06,1.54,12.65,24.76,12.16,26.02c-0.5,1.27,2.31,28.44,1.1,29.6c-1.21,1.16,0.66,17.88,0,17.93s-10.73,14.45-12.27,14.39
		c-1.54-0.06-1.31,3.58-4.5,2.49c-3.19-1.1-3.72-2.3-3.72-2.3s-1.74,2.98-1.17,2.98c0.57,0,1.38,13.11,0.78,13.11
		c-0.6,0,2.13,17.72-0.18,17.86c0,0,0.07,17.47-1.06,17.97c-1.12,0.5,6.92,21.63,4.99,23.25c0,0-0.37,9.1-2.06,9.1
		s1.99,4.8,1.06,6.17c-0.94,1.37-0.79,4.7-2.5,3.34c-1.71-1.36,2.21,11.49-0.58,11.33c-2.79-0.16,9.08,15.33,3.61,16.73
		c-5.47,1.4-14.67,0.7-14.44-7.57c0,0-7.41-2.48-5.28-10.05c0,0-3.37-0.86-2.39-9.47l-2.76-1.32c0,0,0.52-3.68,1.78-4.54
		c1.26-0.86-1.55-2.41-1.55-2.41s-3.27-3.62-0.34-14.88c2.93-11.26-1.72-22.63-1.03-28.61c0.69-5.97-3.45-14.65-3.22-17.41
		c0.23-2.76-0.34-3.79-0.34-3.79l-1.21,0.4c0,0,1.21,9.31,0,9.88s-1.32,7.53-1.32,7.53s-2.07,18.61-3.79,18.61
		c-1.72,0,1.03,30.1,1.95,30.04s0.17,2.64,0.17,2.64s1.44,0.11,0.63,1.32c-0.8,1.21-3.04,12.92-5,12.06c-1.95-0.86,0.46,2.81,0,3.16
		s-2.07,5.46-3.85,3.56c-1.78-1.9,0.92,4.37-0.63,6.26c-1.55,1.9-10.83,4.97-14.68-1.45c0,0-0.92-3.11,0-4.53s4.31-7.2,3.76-7.98
		s-0.78-6.33,0.32-8.2s-5.27-9.58,0.73-12.15c0,0-2.11-3.07-2.06-4.4s1.19-27.27,0.78-28.42c-0.41-1.15-4.25-17.51-3.94-20.67
		s0.36-25.71,1.69-26.63c1.33-0.92-0.88-0.32-1.25-3.04c-0.36-2.73-1.85,0.62-1.85-1.49c0-2.11-2.16,4.99-3.19,1.7
		c-1.03-3.3-4.53-7.47-5.87-6.44c0,0-6.18-14.37-5.1-18.18s6.41-71.12,16.42-69.89c0,0,5.57,0.06,5.21-1.46
		c-0.35-1.52,0.88-13.47,4.16-13.53c3.28-0.06,9.2-1.17,9.2,0c0,1.17-0.63-6.21-0.63-6.21s-1.91-1.9-1.87-5.87s2.16-2.25,2.16-2.25
		s-0.5-7.16,1.61-9.27C158.37,250.87,157.75,248.43,164.57,247.48z"/>
</g>
<g>
	<path class="st1" d="M376.16,254.96c0.08-0.01,0.16,0,0.24,0c12.67,0.21,12.49,9.27,12.49,9.27s0.68,7.48,0,8.17
		s-1.04,1.27-1.04,1.27s2.01,0.95,1.64,1.53s0.11,2.54-0.58,2.69c0,0,0.75,3.94-1.87,2.81c0,0-1.74,1.02-0.64,1.27
		c1.11,0.25,3.95-1.19,4.33,0.12s4.5,12.18,6.48,12.07c1.98-0.11,1.43,2.81,1.43,2.81l6.11,3.03c0,0,4.51,3.91,4.46,5.45
		c-0.05,1.54,12.65,24.76,12.16,26.02c-0.5,1.27,2.31,28.44,1.1,29.6s0.66,17.88,0,17.93c-0.66,0.06-10.73,14.45-12.27,14.39
		c-1.54-0.06-1.31,3.58-4.5,2.49c-3.19-1.1-3.72-2.3-3.72-2.3s-1.74,2.98-1.17,2.98s1.38,13.11,0.78,13.11
		c-0.6,0,2.13,17.72-0.18,17.86c0,0,0.07,17.47-1.06,17.97s6.92,21.63,4.99,23.25c0,0-0.37,9.1-2.06,9.1s1.99,4.8,1.06,6.17
		c-0.94,1.37-0.79,4.7-2.5,3.34c-1.71-1.36,2.21,11.49-0.58,11.33c-2.79-0.16,9.08,15.33,3.61,16.73c-5.47,1.4-14.67,0.7-14.44-7.57
		c0,0-7.41-2.48-5.28-10.05c0,0-3.37-0.86-2.39-9.47l-2.76-1.32c0,0,0.52-3.68,1.78-4.54s-1.55-2.41-1.55-2.41
		s-3.27-3.62-0.34-14.88c2.93-11.26-1.72-22.63-1.03-28.61c0.69-5.97-3.45-14.65-3.22-17.41c0.23-2.76-0.34-3.79-0.34-3.79
		l-1.21,0.4c0,0,1.21,9.31,0,9.88c-1.21,0.57-1.32,7.53-1.32,7.53s-2.07,18.61-3.79,18.61c-1.72,0,1.03,30.1,1.95,30.04
		c0.92-0.06,0.17,2.64,0.17,2.64s1.44,0.11,0.63,1.32c-0.8,1.21-3.04,12.92-5,12.06c-1.95-0.86,0.46,2.81,0,3.16
		c-0.46,0.34-2.07,5.46-3.85,3.56c-1.78-1.9,0.92,4.37-0.63,6.26c-1.55,1.9-10.83,4.97-14.68-1.45c0,0-0.92-3.11,0-4.53
		c0.92-1.42,4.31-7.2,3.76-7.98c-0.55-0.78-0.78-6.33,0.32-8.2c1.1-1.88-5.27-9.58,0.73-12.15c0,0-2.11-3.07-2.06-4.4
		s1.19-27.27,0.78-28.42c-0.41-1.15-4.25-17.51-3.94-20.67c0.32-3.16,0.36-25.71,1.69-26.63c1.33-0.92-0.88-0.32-1.25-3.04
		c-0.36-2.73-1.85,0.62-1.85-1.49s-2.16,4.99-3.19,1.7s-4.53-7.47-5.87-6.44c0,0-6.18-14.37-5.1-18.18s6.41-71.12,16.42-69.89
		c0,0,5.57,0.06,5.21-1.46c-0.35-1.52,0.88-13.47,4.16-13.53s9.2-1.17,9.2,0s-0.63-6.21-0.63-6.21s-1.91-1.9-1.87-5.87
		c0.04-3.97,2.16-2.25,2.16-2.25s-0.5-7.16,1.61-9.27S369.33,255.91,376.16,254.96z"/>
</g>
<path class="st2" d="M213.57,252.42c10.9,0.55,13.72,4.34,13.72,4.34s4.85,17.99,2.04,20.67c0,0-1.86,4.22-2.99,4.75
	c-1.12,0.53,1.55,4.36,1.55,4.36s26.27,10.12,26.27,11.6s8.37,30.39,8.86,30.88c0.49,0.49,2.76,58.33-3.09,58.98l-0.09,5.27
	c0,0-5.79,6.48-7.09,6.48s-1.47,33.62-0.43,34.48c1.04,0.86,5.85,18.36,5.85,18.36l2.65,45.04l-2.47,1.57l0.76,2.42
	c0,0,15.2,13.31-1.89,10.44c0,0-12.25-0.53-11.35-8.32l-0.3-1.94h-3.1l-6-48.12l-8.8-49.72l-0.96-0.19l6.88,95.81l-1.72,2.68
	c0,0,0.81,10.72-5.44,9.35c0,0-21.16,2.66-15.59-3.34c5.57-6,6.77-5.74,6.51-7.45c-0.26-1.71-0.4-2.13-0.4-2.13l-1.62-0.11
	c0,0-3.37-54.13-4.24-59.12c-0.87-4.99-9.78-35.01-9.78-35.01s-3.11,5.08-5.79,4.24s-6.64-0.85-7.06-4.24
	c-0.42-3.39,1.41-97.44,1.41-97.44l19.49-15.96c0,0,1.71-5.14,0.84-5.22c-0.87-0.07-3.14-3.66-3.7-5.7
	c-0.56-2.03-3.02-15.36-1.47-18.45C205.05,261.68,205.01,251.99,213.57,252.42z"/>
<path class="st2" d="M285.4,266.98c10.9,0.55,13.72,4.34,13.72,4.34s4.85,17.99,2.04,20.67c0,0-1.86,4.22-2.99,4.75
	c-1.12,0.53,1.55,4.36,1.55,4.36s26.27,10.12,26.27,11.6s8.37,30.39,8.86,30.88c0.49,0.49,2.76,58.33-3.09,58.98l-0.09,5.27
	c0,0-5.79,6.48-7.09,6.48s-1.47,33.62-0.43,34.48c1.04,0.86,5.85,18.36,5.85,18.36l2.65,45.04l-2.47,1.57l0.76,2.42
	c0,0,15.2,13.31-1.89,10.44c0,0-12.25-0.53-11.35-8.32l-0.3-1.94h-3.1l-6-48.12l-8.8-49.72l-0.96-0.19l6.88,95.81l-1.72,2.68
	c0,0,0.81,10.72-5.44,9.35c0,0-21.16,2.66-15.59-3.34s6.77-5.74,6.51-7.45c-0.26-1.71-0.4-2.13-0.4-2.13l-1.62-0.11
	c0,0-3.37-54.13-4.24-59.12c-0.87-4.99-9.78-35.01-9.78-35.01s-3.11,5.08-5.79,4.24c-2.68-0.85-6.64-0.85-7.06-4.24
	c-0.42-3.39,1.41-97.44,1.41-97.44l19.49-15.96c0,0,1.71-5.14,0.84-5.22c-0.87-0.07-3.14-3.66-3.7-5.7s-3.02-15.36-1.47-18.45
	C276.88,276.23,276.84,266.55,285.4,266.98z"/>
<path class="st2" d="M101.42,282.18c10.9,0.55,13.72,4.34,13.72,4.34s4.85,17.99,2.04,20.67c0,0-1.86,4.22-2.99,4.75
	c-1.12,0.53,1.55,4.36,1.55,4.36s26.27,10.12,26.27,11.6c0,1.48,8.37,30.39,8.86,30.88c0.49,0.49,2.76,58.33-3.09,58.98l-0.09,5.27
	c0,0-5.79,6.48-7.09,6.48c-1.3,0-1.47,33.62-0.43,34.48c1.04,0.86,5.85,18.36,5.85,18.36l2.65,45.04l-2.47,1.57l0.76,2.42
	c0,0,15.2,13.31-1.89,10.44c0,0-12.25-0.53-11.35-8.32l-0.3-1.94h-3.1l-6-48.12l-8.8-49.72l-0.96-0.19l6.88,95.81l-1.72,2.68
	c0,0,0.81,10.72-5.44,9.35c0,0-21.16,2.66-15.59-3.34c5.57-6,6.77-5.74,6.51-7.45s-0.4-2.13-0.4-2.13l-1.62-0.11
	c0,0-3.37-54.13-4.24-59.12c-0.87-4.99-9.78-35.01-9.78-35.01s-3.11,5.08-5.79,4.24s-6.64-0.85-7.06-4.24
	c-0.42-3.39,1.41-97.44,1.41-97.44l19.49-15.96c0,0,1.71-5.14,0.84-5.22c-0.87-0.07-3.14-3.66-3.7-5.7s-3.02-15.36-1.47-18.45
	C92.9,291.43,92.86,281.74,101.42,282.18z"/>
<path class="st0" d="M972.35,97.23c0.08-0.01,0.16,0,0.24,0c12.67,0.21,12.49,9.27,12.49,9.27s0.67,7.48,0,8.17
	c-0.67,0.69-1.04,1.27-1.04,1.27s2.01,0.95,1.64,1.53c-0.37,0.58,0.11,2.54-0.58,2.69c0,0,0.75,3.94-1.87,2.81
	c0,0-1.74,1.02-0.64,1.27c1.11,0.25,3.95-1.19,4.33,0.12c0.38,1.31,4.5,12.18,6.48,12.07s1.43,2.81,1.43,2.81l6.11,3.03
	c0,0,4.51,3.91,4.46,5.45c-0.05,1.54,12.65,24.76,12.16,26.02c-0.5,1.27,2.31,28.44,1.1,29.6s0.66,17.88,0,17.93
	c-0.66,0.06-10.73,14.45-12.27,14.39s-1.31,3.58-4.5,2.49s-3.72-2.3-3.72-2.3s-1.74,2.98-1.17,2.98c0.57,0,1.38,13.11,0.78,13.11
	c-0.6,0,2.13,17.72-0.18,17.86c0,0,0.07,17.47-1.06,17.97c-1.12,0.5,6.92,21.63,4.99,23.25c0,0-0.37,9.1-2.06,9.1
	s1.99,4.8,1.06,6.17c-0.93,1.37-0.79,4.7-2.5,3.34c-1.71-1.36,2.21,11.49-0.58,11.33s9.08,15.33,3.61,16.73
	c-5.47,1.4-14.67,0.7-14.44-7.57c0,0-7.41-2.48-5.28-10.05c0,0-3.37-0.86-2.39-9.47l-2.76-1.32c0,0,0.52-3.68,1.78-4.54
	c1.26-0.86-1.55-2.41-1.55-2.41s-3.27-3.62-0.34-14.88c2.93-11.26-1.72-22.63-1.03-28.61c0.69-5.97-3.45-14.65-3.22-17.41
	c0.23-2.76-0.34-3.79-0.34-3.79l-1.21,0.4c0,0,1.21,9.31,0,9.88c-1.21,0.57-1.32,7.53-1.32,7.53s-2.07,18.61-3.79,18.61
	s1.03,30.1,1.95,30.04c0.92-0.06,0.17,2.64,0.17,2.64s1.44,0.11,0.63,1.32c-0.8,1.21-3.04,12.92-5,12.06
	c-1.95-0.86,0.46,2.81,0,3.16s-2.07,5.46-3.85,3.56c-1.78-1.9,0.92,4.37-0.63,6.26c-1.55,1.9-10.83,4.97-14.68-1.45
	c0,0-0.92-3.11,0-4.53c0.92-1.42,4.31-7.2,3.76-7.98c-0.55-0.78-0.78-6.33,0.32-8.2c1.1-1.88-5.27-9.58,0.73-12.15
	c0,0-2.11-3.07-2.06-4.4s1.19-27.27,0.78-28.42c-0.41-1.15-4.25-17.51-3.94-20.67c0.32-3.16,0.36-25.71,1.69-26.63
	c1.33-0.92-0.88-0.32-1.25-3.04c-0.36-2.73-1.85,0.62-1.85-1.49c0-2.11-2.16,4.99-3.19,1.7s-4.53-7.47-5.87-6.44
	c0,0-6.18-14.37-5.1-18.18c1.08-3.81,6.41-71.12,16.42-69.89c0,0,5.57,0.06,5.21-1.46c-0.35-1.52,0.88-13.47,4.16-13.53
	s9.2-1.17,9.2,0c0,1.17-0.63-6.21-0.63-6.21s-1.91-1.9-1.87-5.87c0.04-3.97,2.16-2.25,2.16-2.25s-0.5-7.16,1.61-9.27
	C966.15,100.63,965.52,98.18,972.35,97.23z"/>
<path class="st0" d="M1010.4,253.96c0.08-0.01,0.16,0,0.24,0c12.67,0.21,12.49,9.27,12.49,9.27s0.67,7.48,0,8.17
	s-1.04,1.27-1.04,1.27s2.01,0.95,1.64,1.53c-0.37,0.58,0.11,2.54-0.58,2.69c0,0,0.75,3.94-1.87,2.81c0,0-1.74,1.02-0.64,1.27
	c1.11,0.25,3.95-1.19,4.33,0.12c0.38,1.31,4.5,12.18,6.48,12.07c1.98-0.11,1.43,2.81,1.43,2.81l6.11,3.03c0,0,4.51,3.91,4.46,5.45
	s12.65,24.76,12.16,26.02c-0.5,1.27,2.31,28.44,1.1,29.6c-1.21,1.16,0.66,17.88,0,17.93s-10.73,14.45-12.27,14.39
	c-1.54-0.06-1.31,3.58-4.5,2.49c-3.19-1.1-3.72-2.3-3.72-2.3s-1.74,2.98-1.17,2.98s1.38,13.11,0.78,13.11s2.13,17.72-0.18,17.86
	c0,0,0.07,17.47-1.06,17.97c-1.12,0.5,6.92,21.63,4.99,23.25c0,0-0.37,9.1-2.06,9.1c-1.68,0,1.99,4.8,1.06,6.17
	c-0.94,1.37-0.79,4.7-2.5,3.34c-1.71-1.36,2.21,11.49-0.58,11.33c-2.79-0.16,9.08,15.33,3.61,16.73c-5.47,1.4-14.67,0.7-14.44-7.57
	c0,0-7.41-2.48-5.28-10.05c0,0-3.37-0.86-2.39-9.47l-2.76-1.32c0,0,0.52-3.68,1.78-4.54c1.26-0.86-1.55-2.41-1.55-2.41
	s-3.27-3.62-0.34-14.88s-1.72-22.63-1.03-28.61s-3.45-14.65-3.22-17.41c0.23-2.76-0.34-3.79-0.34-3.79l-1.21,0.4
	c0,0,1.21,9.31,0,9.88c-1.21,0.57-1.32,7.53-1.32,7.53s-2.07,18.61-3.79,18.61c-1.72,0,1.03,30.1,1.95,30.04
	c0.92-0.06,0.17,2.64,0.17,2.64s1.44,0.11,0.63,1.32c-0.8,1.21-3.04,12.92-5,12.06s0.46,2.81,0,3.16s-2.07,5.46-3.85,3.56
	c-1.78-1.9,0.92,4.37-0.63,6.26c-1.55,1.9-10.83,4.97-14.68-1.45c0,0-0.92-3.11,0-4.53c0.92-1.42,4.31-7.2,3.76-7.98
	c-0.55-0.78-0.78-6.33,0.32-8.2c1.1-1.88-5.27-9.58,0.73-12.15c0,0-2.11-3.07-2.06-4.4s1.19-27.27,0.78-28.42
	c-0.41-1.15-4.25-17.51-3.94-20.67c0.32-3.16,0.36-25.71,1.69-26.63s-0.88-0.32-1.25-3.04s-1.85,0.62-1.85-1.49
	c0-2.11-2.16,4.99-3.19,1.7s-4.53-7.47-5.87-6.44c0,0-6.18-14.37-5.1-18.18c1.08-3.81,6.41-71.12,16.42-69.89
	c0,0,5.57,0.06,5.21-1.46s0.88-13.47,4.16-13.53c3.28-0.06,9.2-1.17,9.2,0c0,1.17-0.63-6.21-0.63-6.21s-1.91-1.9-1.87-5.87
	s2.16-2.25,2.16-2.25s-0.5-7.16,1.61-9.27C1004.19,257.35,1003.57,254.91,1010.4,253.96z"/>
<path class="st0" d="M924.3,245.38c10.9,0.55,13.72,4.34,13.72,4.34s4.85,17.99,2.04,20.67c0,0-1.86,4.22-2.99,4.75
	s1.55,4.36,1.55,4.36s26.27,10.12,26.27,11.6c0,1.48,8.37,30.39,8.86,30.88c0.49,0.49,2.76,58.33-3.09,58.98l-0.09,5.27
	c0,0-5.79,6.48-7.09,6.48s-1.47,33.62-0.43,34.48c1.04,0.86,5.85,18.36,5.85,18.36l2.65,45.04l-2.47,1.57l0.76,2.42
	c0,0,15.2,13.31-1.89,10.44c0,0-12.25-0.53-11.35-8.32l-0.3-1.94h-3.1l-6-48.12l-8.8-49.72l-0.96-0.19l6.88,95.81l-1.72,2.68
	c0,0,0.81,10.72-5.44,9.35c0,0-21.16,2.66-15.59-3.34s6.77-5.74,6.51-7.45c-0.26-1.71-0.4-2.13-0.4-2.13l-1.62-0.11
	c0,0-3.37-54.13-4.24-59.12c-0.87-4.99-9.78-35.01-9.78-35.01s-3.11,5.08-5.79,4.24s-6.64-0.85-7.06-4.24
	c-0.42-3.39,1.41-97.44,1.41-97.44l19.49-15.96c0,0,1.71-5.14,0.84-5.22s-3.14-3.66-3.7-5.7c-0.56-2.03-3.02-15.36-1.47-18.45
	C915.78,254.63,915.75,244.95,924.3,245.38z"/>
<path class="st0" d="M1072.31,208.37c10.9,0.55,13.72,4.34,13.72,4.34s4.85,17.99,2.04,20.67c0,0-1.86,4.22-2.99,4.75
	c-1.12,0.53,1.55,4.36,1.55,4.36s26.27,10.12,26.27,11.6c0,1.48,8.37,30.39,8.86,30.88c0.49,0.49,2.76,58.33-3.09,58.98l-0.09,5.27
	c0,0-5.79,6.48-7.09,6.48s-1.47,33.62-0.43,34.48c1.04,0.86,5.85,18.36,5.85,18.36l2.65,45.04l-2.47,1.57l0.76,2.42
	c0,0,15.2,13.31-1.89,10.44c0,0-12.25-0.53-11.35-8.32l-0.3-1.94h-3.1l-6-48.12l-8.8-49.72l-0.96-0.19l6.88,95.81l-1.72,2.68
	c0,0,0.81,10.72-5.44,9.35c0,0-21.16,2.66-15.59-3.34c5.57-6,6.77-5.74,6.51-7.45c-0.26-1.71-0.4-2.13-0.4-2.13l-1.62-0.11
	c0,0-3.37-54.13-4.24-59.12c-0.87-4.99-9.78-35.01-9.78-35.01s-3.11,5.08-5.79,4.24s-6.64-0.85-7.06-4.24
	c-0.42-3.39,1.41-97.44,1.41-97.44l19.49-15.96c0,0,1.71-5.14,0.84-5.22c-0.87-0.07-3.14-3.66-3.7-5.7s-3.02-15.36-1.47-18.45
	C1063.79,217.63,1063.75,207.94,1072.31,208.37z"/>
<path class="st0" d="M1118.93,255.97c10.9,0.55,13.72,4.34,13.72,4.34s4.85,17.99,2.04,20.67c0,0-1.86,4.22-2.99,4.75
	c-1.12,0.53,1.55,4.36,1.55,4.36s26.27,10.12,26.27,11.6s8.37,30.39,8.86,30.88c0.49,0.49,2.76,58.33-3.09,58.98l-0.09,5.27
	c0,0-5.79,6.48-7.09,6.48s-1.47,33.62-0.43,34.48c1.04,0.86,5.85,18.36,5.85,18.36l2.65,45.04l-2.47,1.57l0.76,2.42
	c0,0,15.2,13.31-1.89,10.44c0,0-12.25-0.53-11.35-8.32l-0.3-1.94h-3.1l-6-48.12l-8.8-49.72l-0.96-0.19l6.88,95.81l-1.72,2.68
	c0,0,0.81,10.72-5.44,9.35c0,0-21.16,2.66-15.59-3.34c5.57-6,6.77-5.74,6.51-7.45c-0.26-1.71-0.4-2.13-0.4-2.13l-1.62-0.11
	c0,0-3.37-54.13-4.24-59.12c-0.87-4.99-9.78-35.01-9.78-35.01s-3.11,5.08-5.79,4.24c-2.68-0.85-6.64-0.85-7.06-4.24
	s1.41-97.44,1.41-97.44l19.49-15.96c0,0,1.71-5.14,0.84-5.22c-0.87-0.07-3.14-3.66-3.7-5.7s-3.02-15.36-1.47-18.45
	C1110.41,265.23,1110.37,255.54,1118.93,255.97z"/>
<path class="st0" d="M1051.18,279.26c10.9,0.55,13.72,4.34,13.72,4.34s4.85,17.99,2.04,20.67c0,0-1.86,4.22-2.99,4.75
	c-1.12,0.53,1.55,4.36,1.55,4.36s26.27,10.12,26.27,11.6s8.37,30.39,8.86,30.88s2.76,58.33-3.09,58.98l-0.09,5.27
	c0,0-5.79,6.48-7.09,6.48s-1.47,33.62-0.43,34.48c1.04,0.86,5.85,18.36,5.85,18.36l2.65,45.04l-2.47,1.57l0.76,2.42
	c0,0,15.2,13.31-1.89,10.44c0,0-12.25-0.53-11.35-8.32l-0.3-1.94h-3.1l-6-48.12l-8.8-49.72l-0.96-0.19l6.88,95.81l-1.72,2.68
	c0,0,0.81,10.72-5.44,9.35c0,0-21.16,2.66-15.59-3.34c5.57-6,6.77-5.74,6.51-7.45s-0.4-2.13-0.4-2.13l-1.62-0.11
	c0,0-3.37-54.13-4.24-59.12c-0.87-4.99-9.78-35.01-9.78-35.01s-3.11,5.08-5.79,4.24c-2.68-0.85-6.64-0.85-7.06-4.24
	c-0.42-3.39,1.41-97.44,1.41-97.44l19.49-15.96c0,0,1.71-5.14,0.84-5.22c-0.87-0.07-3.14-3.66-3.7-5.7s-3.02-15.36-1.47-18.45
	C1042.66,288.51,1042.62,278.82,1051.18,279.26z"/>
</svg>
