<?xml version="1.0" encoding="utf-8"?>
<!-- Generator: Adobe Illustrator 24.2.3, SVG Export Plug-In . SVG Version: 6.00 Build 0)  -->
<svg version="1.1" id="Layer_2" xmlns="http://www.w3.org/2000/svg" xmlns:xlink="http://www.w3.org/1999/xlink" x="0px" y="0px"
	 viewBox="0 0 1200 560" style="enable-background:new 0 0 1200 560;" xml:space="preserve">
<style type="text/css">
	.st0{stroke:#FFFFFF;stroke-miterlimit:10;}
	.st1{fill:none;stroke:#FFFFFF;stroke-miterlimit:10;}
</style>
<path class="st0" d="M636.84,6.15c110.56-3.77,131.35,106.69,131.35,106.69s14.19,47.09,10.76,60.08
	c-3.42,12.99,2.44,64.37,2.44,64.37s8.06,39,7.71,53.41c-0.35,14.41,3.52,108.93-5.79,112.72c0,0-40.91,171.82-162.78,92.18
	c0,0-114.45-33.98-106.5-167.26c0,0-20.66,5.32-15.89-18.58c0,0-37.63-27.61-19.34-61.6c0,0-16.16-53.42,11.42-40.74
	C490.22,207.41,441.72,12.8,636.84,6.15z"/>
<path class="st0" d="M542.29,437.13c-6.33,14.01-11.66,17.03-11.66,17.03s101.97,47.38,99.22,58.39c0,0,93.85,7.28,81.36,47.45
	h64.89c0,0-8.08-112.89-10.36-109.95c0,0-7.14,20.61-13.36,16.81"/>
<path class="st0" d="M769.73,480.35c26.88-0.77,96.85,15.22,84.98,77.95l-1.08,1.7H776.1"/>
<path class="st0" d="M530.63,454.16c-19.21-6.6-33.86,25.78-33.86,25.78s-41.3-0.95-30.65,36.71c0,0-63.57,9.91-53.89,43.35h298.98
	l0.22-0.73c0,0,36.29-51.55-80.59-46.78C630.84,512.49,615.27,483.22,530.63,454.16z"/>
<path class="st0" d="M590.78,445.58c0,0,115.85,65.87,156.66,2.43"/>
<path class="st1" d="M508.3,483.99c59.43,10.97,91.88,39.96,91.88,39.96"/>
<path class="st0" d="M769.73,481.64c-18.65,0.84-28.04,77.3-28.04,77.3l113.02-0.64C854.72,558.3,878.94,476.71,769.73,481.64z"/>
<path class="st0" d="M499.74,506.64c39.61,4.81,64.26,27.69,64.26,27.69"/>
<path class="st0" d="M511.2,508.59c13.15,3.66,17,22.06,17,22.06"/>
</svg>
