<?xml version="1.0" encoding="utf-8"?>
<!-- Generator: Adobe Illustrator 24.2.3, SVG Export Plug-In . SVG Version: 6.00 Build 0)  -->
<svg version="1.1" id="hand" xmlns="http://www.w3.org/2000/svg" xmlns:xlink="http://www.w3.org/1999/xlink" x="0px" y="0px"
	 viewBox="0 0 1200 560" style="enable-background:new 0 0 1200 560;" xml:space="preserve">
<style type="text/css">
	.st0{stroke:#FFFFFF;stroke-miterlimit:10;}
	.st1{fill:none;stroke:#FFFFFF;stroke-miterlimit:10;}
</style>
<path class="st0" d="M688.7,503.9c10.45-95.6,8.67-97.83,8.67-97.83s-65.53-89.2-67.96-99.51c-2.43-10.32,53.09-81.61,53.09-81.61
	l48.85-54.61c0,0,14.56-6.98,35.5,29.43c0,0,40.05,11.53,40.65,34.28c0,0,40.03,11.96,35.09,35.4c0,0,30.43,9.87,30.02,31.25
	l-25.63,29.12c0,0,1.96,18.33,0.56,28.12s-18.47,46.04-30.09,60.46l-4.69,81.46L688.7,503.9z"/>
<path class="st0" d="M686.44,222.91c34.2,3.19,102.85,50.02,103.28,51.32c0.43,1.3,5.63,25.97-17.31,30.3
	c-22.94,4.33-24.67,8.22-66.65-29.86c0,0,23.2,16.54-6.21,24.21c0,0,124.06,16.63,114.47,42.85"/>
<line class="st0" x1="766.85" y1="199.77" x2="732.61" y2="239.48"/>
<line class="st0" x1="807.5" y1="234.05" x2="781.18" y2="268.08"/>
<path class="st1" d="M842.77,269.23c-42.39,52.46-42.39,52.46-42.39,52.46s-23.46-2.45-35.17-16.6"/>
<path class="st0" d="M846.99,329.83c0,0-12.9,16.47-15.63,15.26c-2.73-1.22-14.12,5.06-33.21-22.13"/>
<path class="st0" d="M969.55,503.9c10.45-95.6,8.67-97.83,8.67-97.83s-65.53-89.2-67.96-99.51c-2.43-10.32,53.09-81.61,53.09-81.61
	l48.85-54.61c0,0,14.56-6.98,35.5,29.43c0,0,40.05,11.53,40.65,34.28c0,0,40.03,11.96,35.09,35.4c0,0,30.43,9.87,30.02,31.25
	l-25.63,29.12c0,0,1.96,18.33,0.56,28.12s-18.47,46.04-30.09,60.46l-4.69,81.46L969.55,503.9z"/>
<path class="st0" d="M967.3,222.91c34.2,3.19,102.85,50.02,103.28,51.32c0.43,1.3,5.63,25.97-17.31,30.3
	c-22.94,4.33-24.67,8.22-66.65-29.86c0,0,23.2,16.54-6.21,24.21c0,0,124.06,16.63,114.47,42.85"/>
<line class="st0" x1="1047.7" y1="199.77" x2="1013.47" y2="239.48"/>
<line class="st0" x1="1088.36" y1="234.05" x2="1062.04" y2="268.08"/>
<path class="st1" d="M1123.63,269.23c-42.39,52.46-42.39,52.46-42.39,52.46s-23.46-2.45-35.17-16.6"/>
<path class="st0" d="M1127.84,329.83c0,0-12.9,16.47-15.63,15.26s-14.12,5.06-33.21-22.13"/>
<path class="st0" d="M398.08,501.1c10.45-95.6,8.67-97.83,8.67-97.83s-65.53-89.2-67.96-99.51s53.09-81.61,53.09-81.61l48.85-54.61
	c0,0,14.56-6.98,35.5,29.43c0,0,40.05,11.53,40.65,34.28c0,0,40.03,11.96,35.09,35.4c0,0,30.43,9.87,30.02,31.25l-25.63,29.12
	c0,0,1.96,18.33,0.56,28.12c-1.4,9.8-18.47,46.04-30.09,60.46l-4.69,81.46L398.08,501.1z"/>
<path class="st0" d="M395.82,220.11c34.2,3.19,102.85,50.02,103.28,51.32c0.43,1.3,5.63,25.97-17.31,30.3s-24.67,8.22-66.65-29.86
	c0,0,23.2,16.54-6.21,24.21c0,0,124.06,16.63,114.47,42.85"/>
<line class="st0" x1="476.22" y1="196.97" x2="441.99" y2="236.68"/>
<line class="st0" x1="516.88" y1="231.25" x2="490.56" y2="265.28"/>
<path class="st1" d="M552.15,266.43c-42.39,52.46-42.39,52.46-42.39,52.46s-23.46-2.45-35.17-16.6"/>
<path class="st0" d="M556.36,327.03c0,0-12.9,16.47-15.63,15.26c-2.73-1.22-14.12,5.06-33.21-22.13"/>
<path class="st0" d="M97.66,498.3c10.45-95.6,8.67-97.83,8.67-97.83s-65.53-89.2-67.96-99.51c-2.43-10.32,53.09-81.61,53.09-81.61
	l48.85-54.61c0,0,14.56-6.98,35.5,29.43c0,0,40.05,11.53,40.65,34.28c0,0,40.03,11.96,35.09,35.4c0,0,30.43,9.87,30.02,31.25
	l-25.63,29.12c0,0,1.96,18.33,0.56,28.12c-1.4,9.8-18.47,46.04-30.09,60.46l-4.69,81.46L97.66,498.3z"/>
<path class="st0" d="M95.41,217.31c34.2,3.19,102.85,50.02,103.28,51.32c0.43,1.3,5.63,25.97-17.31,30.3
	c-22.94,4.33-24.67,8.22-66.65-29.86c0,0,23.2,16.54-6.21,24.21c0,0,124.06,16.63,114.47,42.85"/>
<line class="st0" x1="175.81" y1="194.17" x2="141.58" y2="233.88"/>
<line class="st0" x1="216.46" y1="228.45" x2="190.15" y2="262.48"/>
<path class="st1" d="M251.74,263.63c-42.39,52.46-42.39,52.46-42.39,52.46s-23.46-2.45-35.17-16.6"/>
<path class="st0" d="M255.95,324.23c0,0-12.9,16.47-15.63,15.26c-2.73-1.22-14.12,5.06-33.21-22.13"/>
</svg>
